<svg width="130" height="130" viewBox="0 0 130 130" fill="none" xmlns="http://www.w3.org/2000/svg">
<path d="M81.1202 68.5959V85.5219C81.1202 99.6579 75.4782 105.3 61.3422 105.3H44.4782C30.4042 105.3 24.7002 99.6579 24.7002 85.5219V68.5959C24.7002 54.5219 30.3422 48.8799 44.4782 48.8799H61.4042C75.4782 48.8799 81.1202 54.5219 81.1202 68.5959Z" stroke="#292D32" stroke-width="6" stroke-linecap="round" stroke-linejoin="round"/>
<path d="M105.3 44.4162V61.3422C105.3 75.4782 99.6579 81.1202 85.5219 81.1202H81.1199V68.5962C81.1199 54.5222 75.4779 48.8802 61.3419 48.8802H48.8799V44.4162C48.8799 30.2802 54.5219 24.7002 68.6579 24.7002H85.5839C99.6579 24.7002 105.3 30.3422 105.3 44.4162Z" stroke="#292D32" stroke-width="6" stroke-linecap="round" stroke-linejoin="round"/>
<path d="M127 83.6001C127 107.594 107.594 127 83.6001 127L90.1101 116.15" stroke="#FF8140" stroke-width="6" stroke-linecap="round" stroke-linejoin="round"/>
<path d="M3 46.4C3 22.406 22.406 3 46.4 3L39.89 13.85" stroke="#FF8140" stroke-width="6" stroke-linecap="round" stroke-linejoin="round"/>
<path d="M36 82.9999L41.742 70.3099H43.686L49.5 82.9999H47.142L45.594 79.4359L46.53 80.0659H38.916L39.888 79.4359L38.34 82.9999H36ZM42.696 72.7939L40.158 78.8059L39.69 78.2479H45.738L45.36 78.8059L42.768 72.7939H42.696Z" fill="#292D32"/>
<path d="M51.4489 84.0619H49.5949L54.3289 69.4639H56.1829L51.4489 84.0619Z" fill="#292D32"/>
<path d="M57.1442 82.9999V70.3099H62.7062C64.0862 70.3099 65.1482 70.6039 65.8922 71.1919C66.6362 71.7679 67.0082 72.5719 67.0082 73.6039C67.0082 74.3719 66.7802 75.0199 66.3242 75.5479C65.8682 76.0759 65.2382 76.4299 64.4342 76.6099V76.3399C65.3582 76.4719 66.0722 76.8079 66.5762 77.3479C67.0922 77.8759 67.3502 78.5779 67.3502 79.4539C67.3502 80.5819 66.9602 81.4579 66.1802 82.0819C65.4002 82.6939 64.3142 82.9999 62.9222 82.9999H57.1442ZM59.3762 81.2359H62.6522C63.4322 81.2359 64.0382 81.0919 64.4702 80.8039C64.9022 80.5039 65.1182 80.0179 65.1182 79.3459C65.1182 78.6619 64.9022 78.1759 64.4702 77.8879C64.0382 77.5879 63.4322 77.4379 62.6522 77.4379H59.3762V81.2359ZM59.3762 75.6919H62.3102C63.1382 75.6919 63.7502 75.5419 64.1462 75.2419C64.5542 74.9299 64.7582 74.4739 64.7582 73.8739C64.7582 73.2739 64.5542 72.8239 64.1462 72.5239C63.7502 72.2119 63.1382 72.0559 62.3102 72.0559H59.3762V75.6919Z" fill="#292D32"/>
</svg>
