<svg width="5317" height="5052" viewBox="0 0 5317 5052" fill="none" xmlns="http://www.w3.org/2000/svg">
<g filter="url(#filter0_f_20_154)">
<path d="M3320 944V2536H1416V5000" stroke="black" stroke-width="20"/>
</g>
<circle cx="1400" cy="1400" r="1397" fill="#FDE9DE" stroke="#282B3F" stroke-width="6"/>
<circle cx="3824.5" cy="3564.5" r="1194.5" fill="#F6EDD1" stroke="#282B3F" stroke-width="6"/>
<g filter="url(#filter1_f_20_154)">
<mask id="mask0_20_154" style="mask-type:alpha" maskUnits="userSpaceOnUse" x="2620" y="2064" width="2697" height="2697">
<circle cx="3968.18" cy="3412.18" r="1345.18" fill="#FCCF41" stroke="#282B3F" stroke-width="6"/>
</mask>
<g mask="url(#mask0_20_154)">
<path d="M3091.13 4392.53C3136.56 4416.65 3185.25 4438.14 3236.46 4457.2C3578.19 4584.54 4028.17 4604.78 4290.9 4604.15C4422.94 4603.73 4507.69 4598.15 4507.69 4598.15C4507.69 4598.15 4605.81 4258.05 4627.56 4125.66C4640.84 4044.79 4647.07 3968.71 4647.78 3897.36C4652.75 3407.84 4398.47 3142.69 4380.37 3124.43C4380.09 3124.17 4379.81 3123.9 4379.63 3123.65C4379.43 3123.51 4379.39 3123.45 4379.39 3123.45L3835.14 3034.04L3618.62 3104.08L3575.27 3118.09L3558.86 3123.42L3321.91 3200.03L3285.59 3387.3L3256.76 3536.27L3091.13 4392.53" fill="#470A27"/>
<path d="M3210.88 4342.64C3214.99 4381.03 3222.61 4420 3235.09 4456.98C3577.22 4584.36 4027.68 4604.71 4290.69 4604.14C4291.33 4603.59 4291.82 4602.91 4292.41 4602.35C4401.34 4484.01 4466.93 4330.22 4497.07 4172.3C4527.28 4014.34 4523.68 3851.59 4506.99 3691.71C4493.99 3566.22 4472.6 3440.01 4420.28 3325.31C4380.5 3238.27 4321.31 3158.41 4243.64 3101.77C4239.75 3098.84 4235.83 3096.12 4231.97 3093.41C4145.65 3034.53 4043.36 3015.76 3940.62 2999.7C3808.29 2979.11 3663.31 3018.55 3573.94 3118.44C3492.8 3209.14 3466.09 3334.49 3430.89 3451.13C3386.37 3598.88 3323.93 3740.8 3276.08 3887.62C3228.22 4034.44 3194.84 4189.15 3210.88 4342.64" fill="#300C21"/>
<path d="M3122.45 3972.48C3125.4 3964.45 3129.84 3953.02 3136.24 3939.21C3142.7 3925.41 3151.08 3909.15 3162.83 3892.26C3174.47 3875.4 3189.62 3857.66 3209.26 3842.77C3228.83 3827.64 3250.25 3817.82 3269.87 3811.28C3289.63 3804.92 3307.81 3801.56 3323.06 3799.78C3329.66 3799.02 3335.62 3798.53 3341.06 3798.18C3348.41 3793.2 3352.76 3790.55 3352.76 3790.55C3352.76 3790.55 3351.12 3793.22 3348.2 3797.78C3352.25 3797.63 3356.08 3797.5 3359.24 3797.48C3367.74 3797.41 3372.49 3797.59 3372.49 3797.59C3372.49 3797.59 3359.77 3803.21 3338.89 3812.42C3333.33 3821.05 3326.43 3831.96 3318.3 3844.67C3297.67 3877.85 3269.96 3922.66 3252.4 3974.62C3234.77 4026.62 3227.85 4079.35 3221.86 4118.13C3218.87 4137.66 3216.37 4153.52 3214.63 4164.47C3212.64 4175.53 3211.52 4181.7 3211.52 4181.7C3211.52 4181.7 3209.96 4175.64 3207.18 4164.76C3204.57 4153.81 3201.01 4138.04 3197.9 4118.21C3194.85 4098.4 3192.09 4074.46 3192.57 4047.36C3192.98 4020.36 3196.58 3989.86 3207.12 3959.15C3217.45 3928.36 3233.7 3902 3250.39 3880.5C3266.45 3860.24 3282.86 3844.17 3297.52 3831.44C3276.44 3841.81 3253.15 3854.75 3231.36 3871.51C3198.24 3896.94 3171.61 3927.23 3151.41 3949.19C3141.27 3960.22 3133 3969.22 3127.3 3975.44C3121.35 3981.52 3118.06 3984.94 3118.06 3984.94C3118.06 3984.94 3119.61 3980.47 3122.45 3972.48" fill="#300C21"/>
<path d="M3616.21 4996.82L3990.07 4695.79C3998.15 4643.26 3996.95 4622.77 4013.54 4492.25C4032.22 4347.08 4049.18 4211.01 4049.18 4211.01L3616.34 4305.22C3644.95 4414.46 3646.35 4533.91 3635.03 4645.59C3611.06 4880.96 3616.21 4996.82 3616.21 4996.82" fill="#F9AB7A"/>
<path d="M3616.39 4304.95C3645.08 4414.02 3646.54 4533.28 3635.26 4644.77C3647.22 4652.24 3658.94 4659.23 3670.11 4665.26C3714.6 4689.45 3888.54 4579.84 4014.15 4491.86C4032.78 4346.93 4049.7 4211.09 4049.7 4211.09L3616.39 4304.95" fill="#F57F7B"/>
<path d="M3267.14 3750.01C3269.19 3789 3273.26 3830.28 3279.54 3873.72C3279.54 3873.72 3227.86 4074.46 3241.75 4123.68C3255.75 4172.91 3346.05 4480.05 3493.02 4486.1C3615.65 4491.2 3938.53 4363.52 4057.99 4275.37C4081.87 4257.87 4097.63 4241.93 4102.11 4228.92C4129.41 4150.38 4236.21 3801.7 4245.62 3772.61C4271.11 3693.78 4405.69 3087.01 3637.08 3135.68C3498.69 3144.56 3376.41 3230.56 3324.32 3359.11C3286.68 3451.81 3258.26 3579.99 3267.14 3750.01" fill="#F9AB7A"/>
<path d="M3279.66 3874.22C3279.66 3874.22 3227.99 4074.79 3241.91 4123.97C3255.94 4173.17 3346.43 4480.1 3493.55 4486.19C3616.32 4491.32 3939.5 4363.85 4059.06 4275.8C3919.51 4341.99 3548.99 4508.64 3456.56 4458.48C3342.1 4396.43 3248.88 4105.83 3255.89 4079.75C3262.93 4053.51 3299.39 3881.11 3299.39 3881.11C3299.39 3881.11 3283.89 3822.25 3267.21 3750.6C3269.27 3789.56 3273.36 3830.81 3279.66 3874.22" fill="#FBCDA7"/>
<path d="M4071.46 4214.67C4165.8 4222.69 4242.69 4178.63 4286.55 4138.42C4296.4 4129.34 4304.64 4120.44 4310.99 4112.37C4345.49 4068.6 4380.55 3902.76 4318.52 3852.69C4274.95 3817.6 4233.53 3851.27 4212.64 3874.69L4212.63 3874.74C4203.73 3884.68 4198.53 3892.72 4198.53 3892.72L4071.46 4214.67" fill="#FBCDA7"/>
<path d="M4071.46 4214.67C4165.78 4222.69 4242.65 4178.66 4286.5 4138.48C4290.42 4134.27 4293.87 4130.21 4296.91 4126.34C4331.4 4082.61 4366.5 3916.83 4304.41 3866.88C4269.16 3838.4 4235.28 3855.14 4212.59 3874.91L4212.58 3874.97C4203.68 3884.9 4198.48 3892.94 4198.48 3892.94L4071.46 4214.67Z" fill="#F9AB7A"/>
<path d="M4318.92 3987.46C4320.15 4001.53 4315.68 4015.16 4309.09 4027.72C4281.17 4081.25 4218.16 4115.2 4157.99 4146.48C4178.67 4121.76 4189.71 4091.71 4191.32 4061.04C4191.89 4050.29 4191.37 4039.53 4193.05 4028.97C4199.59 3986.51 4311.79 3904.45 4318.92 3987.46" fill="#F57F7B"/>
<path d="M4127.85 4158.01C4127.85 4158.01 4129.02 4157.55 4131.17 4156.75C4133.32 4155.9 4136.65 4154.85 4140.67 4152.99C4148.63 4149.31 4159.81 4143.26 4171.03 4133.32C4182.19 4123.43 4193.13 4109.61 4200.08 4092.17C4206.64 4074.78 4209.34 4053.69 4203.06 4031.89C4202.42 4029.15 4201.43 4026.58 4200.35 4023.82L4199.58 4021.89C4199.39 4021.42 4199.49 4021.76 4199.51 4021.66L4199.49 4021.76L4199.45 4021.7C4199.45 4021.7 4199.39 4021.75 4199.65 4021.46L4200.77 4019.95L4203.16 4017.05C4204.73 4015.12 4206.24 4013.23 4207.85 4011.36C4214.29 4003.97 4221.03 3997.13 4227.85 3990.8C4234.64 3984.58 4241.52 3978.91 4248.3 3973.78C4255.06 3968.75 4261.62 3964.02 4267.83 3960.71C4274.04 3957.4 4280.58 3955.68 4286.38 3955.87C4292.27 3956.18 4297.42 3958.34 4300.78 3960.75C4304.14 3963.22 4305.82 3965.91 4306.38 3967.81C4306.99 3969.72 4306.77 3970.78 4306.82 3970.78C4306.82 3970.78 4307.3 3969.82 4307.15 3967.77C4307.1 3965.73 4306.1 3962.56 4302.9 3959.18C4299.67 3955.91 4294.41 3952.47 4286.85 3951.06C4279.32 3949.77 4270.79 3950.95 4262.84 3953.92C4254.83 3956.88 4247.35 3960.96 4239.53 3965.49C4231.68 3970.12 4223.67 3975.43 4215.75 3981.53C4207.88 3987.63 4200.1 3994.52 4192.85 4002.15C4190.96 4004.03 4189.22 4006.05 4187.42 4008L4184.86 4011.03L4181.32 4015.33L4178.91 4018.38C4179.2 4019.58 4179.76 4020.82 4180.17 4021.99L4182.14 4027.24C4183.02 4029.52 4183.9 4031.81 4184.42 4034.25C4189.88 4053.12 4188.71 4071.78 4184.42 4087.96C4179.8 4104.13 4171.89 4117.84 4163.3 4128.33C4154.65 4138.85 4145.53 4146.28 4138.82 4150.99C4135.48 4153.4 4132.55 4154.95 4130.72 4156.18C4128.83 4157.35 4127.85 4158.01 4127.85 4158.01" fill="#F36367"/>
<path d="M3224.83 3592.97C3224.83 3592.97 3340.18 3480.18 3384.43 3539.58C3428.68 3599.04 3404.14 3600.42 3404.14 3600.42L3224.83 3592.97Z" fill="#470A27"/>
<path d="M3969.13 3734.07C3969.13 3734.07 3827.73 3505.16 3744.65 3564.58C3696.17 3599.25 3720.45 3632.27 3720.45 3632.27L3969.13 3734.07Z" fill="#470A27"/>
<path d="M3731.92 3716.29C3736.79 3739.21 3762.15 3760.7 3780.26 3773.49C3792.25 3763.63 3805.66 3758.81 3819.01 3761C3853.05 3766.59 3873.4 3815.26 3864.45 3869.74C3855.49 3924.28 3820.63 3963.94 3786.59 3958.34C3752.56 3952.75 3732.27 3904.04 3741.23 3849.5C3744 3832.63 3749.26 3817.21 3756.17 3804.07C3733.96 3777.05 3731.92 3716.29 3731.92 3716.29Z" fill="#121414"/>
<path d="M3932.96 3825.3C3932.96 3825.3 3905.69 3856.36 3865.8 3865.74C3825.97 3875.08 3788.5 3859.17 3788.5 3859.17C3788.5 3859.17 3815.77 3828.05 3855.66 3818.67C3895.55 3809.34 3932.96 3825.3 3932.96 3825.3Z" fill="#FDE9DE"/>
<path d="M3308.34 3700.86C3311.57 3716.67 3328.52 3731.45 3340.93 3740.39C3349 3734.65 3357.81 3731.93 3366.48 3733.36C3391.86 3737.53 3406.91 3774.39 3400.13 3815.67C3393.35 3856.94 3367.29 3887.11 3341.91 3882.94C3316.57 3878.78 3301.59 3841.87 3308.37 3800.59C3310.92 3785.02 3316.24 3771.05 3323.21 3759.87C3309.58 3740 3308.34 3700.86 3308.34 3700.86Z" fill="#121414"/>
<path d="M3275.47 3757.62C3275.47 3757.62 3288.04 3782.37 3312.87 3797.69C3337.65 3812.94 3365.28 3812.85 3365.28 3812.85C3365.28 3812.85 3352.67 3788.03 3327.89 3772.73C3303.1 3757.53 3275.47 3757.62 3275.47 3757.62" fill="#FDE9DE"/>
<path d="M3530.5 4049.33C3546.67 4046.15 3563.24 4040.26 3579.12 4044.54C3556.9 4079.17 3520.85 4104.41 3481.02 4113.15C3477.95 4113.81 3474.77 4114.4 3471.74 4113.79C3467.97 4113 3464.74 4110.58 3461.81 4108.05C3443.17 4092.43 3427.59 4072.98 3416.33 4051.24C3414.08 4046.87 3411.89 4042.18 3411.6 4037.24C3410.46 4020.77 3420.69 4026.01 3429.38 4031.27C3439.49 4037.32 3450.35 4042.05 3461.59 4045.51C3483.82 4052.27 3507.64 4053.74 3530.5 4049.33" fill="#F57F7B"/>
<path d="M3478.86 4102.01C3470.94 4092 3461.59 4083.12 3453.37 4073.28C3443.2 4061.22 3433.98 4048.27 3426.38 4034.34C3481.93 4007.77 3490 3955 3497.45 3894.95C3500.77 3867.85 3497.71 3840.02 3488.64 3814.37C3483.88 3800.85 3477.49 3788 3469.67 3776.1C3465.66 3770.05 3461.35 3764.23 3456.61 3758.71C3452.06 3753.34 3446.97 3749.95 3440.98 3746.19C3443.43 3750.24 3444.85 3754.71 3447.02 3758.83C3452.73 3769.56 3458.86 3779.71 3463.39 3791.07C3467.93 3802.37 3471.47 3814.16 3474.09 3826.07C3479.24 3850 3480.53 3874.92 3477.39 3899.22C3474.29 3923.03 3466.88 3946.52 3454.72 3967.22C3440.72 3990.93 3419.27 4013.15 3394.13 4024.15C3393.9 4024.27 3421.56 4069.91 3424.37 4073.74C3431.62 4083.59 3439.85 4092.77 3448.89 4100.9C3457.78 4108.94 3468 4118.41 3480.28 4119.88C3484.08 4120.34 3488.14 4120.14 3491.66 4118.37C3489.74 4116.64 3488.06 4114.74 3486.58 4112.64C3485.91 4111.77 3485.26 4110.85 3484.67 4109.88C3482.85 4107.18 3480.86 4104.57 3478.86 4102.01" fill="#F36367"/>
<path d="M3683.35 4341.6C3636.38 4365.82 3578.38 4368.43 3529.19 4348.48C3546.68 4372.5 3570.65 4386.47 3600.57 4384.91C3630.44 4383.29 3663.6 4363.66 3683.35 4341.6Z" fill="#F36367"/>
<path d="M3414.13 4189.03C3414.13 4189.03 3436.39 4251.95 3493.75 4293.95C3520.68 4313.82 3555.2 4328.95 3598.84 4331.06C3642.44 4333.11 3677.89 4319.03 3705.82 4298.99C3765.65 4255.91 3791.42 4185.32 3791.42 4185.32C3561.31 4143.49 3419.99 4187.22 3414.31 4188.95L3414.13 4189.03" fill="#F14568"/>
<path d="M3414.2 4188.61C3414.2 4188.61 3419.36 4200.69 3453.33 4213.51C3487.37 4226.29 3715.73 4223.07 3741.65 4216.25C3767.55 4209.54 3791.42 4185.32 3791.42 4185.32C3561.3 4143.52 3420.05 4186.82 3414.38 4188.53L3414.2 4188.61" fill="#FDE9DE"/>
<path d="M3493.4 4294.05C3520.54 4313.84 3555.3 4328.94 3599.2 4331.13C3643.06 4333.26 3678.69 4319.36 3706.74 4299.52C3663.33 4276.31 3564.89 4235.47 3493.4 4294.05" fill="#CE3B58"/>
<path d="M3336.14 4040.08C3324.55 4060.37 3277.56 4055.22 3231.27 4028.58C3184.98 4001.93 3156.83 3963.87 3168.48 3943.59C3180.08 3923.24 3227.01 3928.44 3273.36 3955.03C3319.69 3981.74 3347.74 4019.78 3336.14 4040.08Z" fill="#F57F7B"/>
<path d="M3976.72 4040.67C3979.83 4074.66 3919.08 4108.05 3841.01 4115.1C3762.99 4122.22 3697.21 4100.33 3694.17 4066.3C3691.03 4032.19 3751.76 3998.91 3829.84 3991.8C3907.85 3984.74 3973.57 4006.62 3976.72 4040.67" fill="#F57F7B"/>
<path d="M3161.48 3760.9C3169.06 3714.79 3195.8 3676.46 3232.25 3653.15C3242.82 3646.21 3254.15 3640.71 3266.08 3636.45C3290.32 3627.99 3316.95 3625.27 3344.09 3629.73C3352 3631.03 3359.82 3632.92 3367.17 3635.32C3434.41 3656.95 3479.61 3721.07 3477.2 3791.87C3477.07 3798.67 3476.36 3805.59 3475.24 3812.44C3474.52 3816.8 3473.6 3821.07 3472.48 3825.25C3452.84 3904.63 3374.69 3957.04 3292.54 3943.55C3290.2 3943.16 3287.86 3942.78 3285.66 3942.2C3278.8 3940.85 3272.17 3939 3265.8 3936.64C3265.32 3936.57 3264.81 3936.37 3264.29 3936.18C3263.16 3935.77 3262.02 3935.42 3260.89 3934.96C3247.97 3929.95 3236.07 3923.36 3225.21 3915.46C3216.81 3909.45 3209.16 3902.57 3202.18 3894.98C3197.24 3889.86 3192.65 3884.25 3188.65 3878.36C3185.88 3874.68 3183.51 3870.8 3181.21 3866.88C3163.1 3836.02 3155.24 3798.89 3161.48 3760.9V3760.9ZM3625.6 3835.4C3641.44 3738.98 3732.63 3673.59 3828.91 3689.41C3925.19 3705.22 3990.72 3796.35 3974.88 3892.78C3967.86 3935.54 3946.03 3972.11 3915.39 3998.29C3877.16 4031.13 3825.11 4047.51 3771.53 4038.71C3754.75 4035.95 3738.92 4031.01 3724.38 4023.93C3654.89 3991.07 3612.52 3914.98 3625.6 3835.4V3835.4ZM3129.83 3755.7C3121.6 3805.8 3133.72 3854.49 3160.14 3893.53C3165.78 3902.04 3172.16 3910.02 3179.32 3917.58C3179.73 3918.09 3180.19 3918.6 3180.76 3919.13C3185.04 3923.59 3189.48 3927.76 3194.16 3931.81C3199.46 3936.39 3205.03 3940.68 3210.92 3944.65C3223.48 3953.21 3237.19 3960.37 3251.96 3965.8C3252.52 3966 3253.18 3966.32 3253.76 3966.42C3254.98 3966.95 3256.22 3967.37 3257.48 3967.69C3264.44 3970.14 3271.59 3972.08 3278.92 3973.61C3281.72 3974.18 3284.47 3974.68 3287.34 3975.15C3292.6 3976.02 3297.83 3976.71 3302.96 3977.01C3373.56 3982.88 3439.9 3948.55 3477.33 3892.01C3485.19 3880.31 3491.71 3867.58 3496.86 3854.13C3500.32 3844.99 3503.11 3835.36 3505.11 3825.48C3538.61 3808.13 3577.52 3829.9 3592.84 3840.22C3582.97 3925.89 3626.89 4006.82 3698.79 4046.89C3719.27 4058.33 3741.95 4066.37 3766.33 4070.37C3835.84 4081.79 3903.07 4057.37 3949.13 4010.71C3978.45 3980.93 3999.22 3942.17 4006.48 3897.97C4008.93 3883.04 4009.61 3868.31 4008.89 3853.73L4121.72 3853.83L4201.98 3853.97L4212.34 3853.98L4220.09 3853.95L4233.56 3853.98L4233.67 3853.94L4246.65 3854L4246.81 3854.03L4249.71 3853.96L4279.68 3854.08L4283.73 3854.04L4283.74 3853.27L4283.74 3838L4283.77 3827.58L4283.76 3821.96L4230.36 3821.97L4229.99 3821.91L4199.88 3821.93L4004.71 3821.73C3998.01 3789.48 3983.71 3759.36 3963.36 3733.81C3932.32 3694.67 3887.27 3666.48 3834.11 3657.75C3814.09 3654.46 3794.07 3654.11 3774.87 3656.47C3692.82 3666.56 3622.67 3725.09 3599.37 3806.48C3578.44 3794.43 3544.14 3780.44 3509.09 3789.64C3510.39 3706.37 3457.23 3631.24 3378.33 3605.19C3371.3 3602.88 3364.09 3600.94 3356.75 3599.46C3354.23 3598.83 3351.85 3598.44 3349.3 3598.02C3331.45 3595.09 3313.72 3594.79 3296.63 3596.89C3287.03 3597.88 3277.52 3599.7 3268.37 3602.29C3258.61 3604.89 3249.13 3608.19 3240.15 3612.38C3183.78 3637.77 3140.59 3690.2 3129.83 3755.7" fill="#121414"/>
<path d="M3267.71 3390.41C3258.15 3455.92 3255.67 3509.82 3254.98 3535.63C3254.75 3546.29 3254.78 3552.13 3254.78 3552.13C3520.63 3423.72 3553.14 3231.12 3556.48 3169.28C3565.71 3517.63 4249.15 3829.33 4249.15 3829.33L4342.43 3889.57C4342.43 3889.57 4375.81 3865.03 4410.91 3810.44C4467.16 3723.13 4527.79 3558.94 4463.67 3295.01C4446.98 3225.9 4417.35 3169.79 4379.5 3124.22C4379.21 3123.95 4378.93 3123.69 4378.75 3123.44C4181.02 2886.68 3760.08 2935.58 3760.08 2935.58C3404.2 2843.17 3298.86 3178.21 3267.71 3390.41" fill="#300C21"/>
<path d="M4032.15 3962.81C4036.19 3955.24 4042.15 3944.39 4050.41 3931.52C4058.67 3918.65 4069.17 3903.53 4083.15 3888.27C4097.08 3873.01 4114.59 3857.35 4136.16 3845.03C4157.73 3832.65 4180.45 3825.7 4200.97 3821.82C4221.63 3818.02 4240.22 3817.15 4255.73 3817.35C4262.46 3817.48 4268.44 3817.81 4273.94 3818.11C4281.94 3814.19 4286.67 3812.13 4286.67 3812.13C4286.67 3812.13 4284.63 3814.52 4281.14 3818.75C4285.26 3819.04 4289.09 3819.45 4292.21 3819.86C4300.77 3820.88 4305.52 3821.72 4305.52 3821.72C4305.52 3821.72 4292.02 3825.66 4269.89 3832.06C4263.27 3839.96 4254.83 3849.86 4245.01 3861.49C4219.94 3891.77 4186.3 3932.8 4161.89 3982.16C4137.34 4031.66 4123.44 4083.18 4112.33 4121.09C4106.74 4140.07 4102.16 4155.56 4098.98 4166.27C4095.51 4176.98 4093.59 4182.99 4093.59 4182.99C4093.59 4182.99 4092.81 4176.76 4091.51 4165.59C4090.33 4154.38 4088.84 4138.11 4088.41 4117.98C4087.93 4097.84 4088.33 4073.64 4092.43 4046.68C4096.41 4019.8 4104.01 3989.93 4118.62 3960.82C4133.05 3931.46 4152.77 3907.34 4172.34 3888.15C4191.06 3870.07 4209.58 3856.27 4226.01 3845.51C4203.52 3853.04 4178.53 3862.83 4154.46 3876.65C4117.92 3897.58 4087.3 3924.22 4064.26 3943.44C4052.58 3953.08 4043.17 3960.91 4036.6 3966.43C4029.86 3971.7 4026.13 3974.68 4026.13 3974.68C4026.13 3974.68 4028.27 3970.4 4032.15 3962.81Z" fill="#300C21"/>
<path d="M3267.67 3390.69C3273.1 3389.83 3278.45 3388.53 3283.78 3387C3405.37 3354.23 3503.43 3216.41 3557.46 3123.18C3586.98 3072.17 3603.48 3034.53 3603.48 3034.53C3601.38 3053.3 3606.74 3077.16 3617.32 3103.85C3670.63 3238.8 3855.45 3447.44 3855.45 3447.44L3839.82 3344.46C3839.82 3344.46 3882.49 3449.04 4080.36 3624.44C4160.87 3695.82 4288.6 3759.99 4411.94 3811C4499.23 3847.12 4584.31 3876.72 4648.56 3897.48C4649.41 3806.21 4641.34 3722.71 4627.43 3647.15C4566.61 3317.57 4395.25 3139.37 4380.45 3124.43C4380.16 3124.17 4379.88 3123.9 4379.7 3123.66C4181.77 2886.76 3760.45 2935.66 3760.45 2935.66C3735.21 2929.11 3711.19 2924.72 3688.38 2922.29C3389.65 2890.14 3296.58 3193.4 3267.67 3390.69" fill="#470A27"/>
<path d="M3688.15 2922.23C3715.84 3014.7 3787.64 3091.38 3858.47 3159.71C3848.59 3131.51 3847.13 3100.55 3854.4 3071.57C3933.03 3239.14 4060.38 3383.51 4216.65 3482.63C4203.12 3439.81 4201.09 3393.36 4210.64 3349.52C4298.87 3460.99 4414.01 3550.47 4543.11 3609.5C4564.98 3619.47 4595.44 3635.99 4626.2 3646.61C4565.48 3317.22 4394.3 3139.14 4379.51 3124.21C4379.23 3123.95 4378.94 3123.68 4378.77 3123.43C4181.05 2886.69 3760.15 2935.59 3760.15 2935.59C3734.93 2929.04 3710.94 2924.66 3688.15 2922.23" fill="#630D30"/>
</g>
</g>
<mask id="mask1_20_154" style="mask-type:alpha" maskUnits="userSpaceOnUse" x="0" y="0" width="2800" height="2800">
<circle cx="1400" cy="1400" r="1397" fill="#FDE9DE" stroke="#282B3F" stroke-width="6"/>
</mask>
<g mask="url(#mask1_20_154)">
<path d="M992.195 1761.37L952.239 2418.01L896.237 2749.67L1139.61 2831.55L1422.02 2932.69L1413.86 2445.42L1424.22 1948.23L992.195 1761.37" fill="#D28E89"/>
<path d="M1171.9 664.199C837.983 727.289 838.37 954.918 838.37 954.918C838.37 954.918 812.73 1087.03 811.451 1296.26C782.398 1252.99 731.216 1233.47 677.197 1254.24C562.678 1298.19 632.709 1656.05 805.215 1631.75C808.878 1731.09 845.081 1852.33 856.797 1879.51C901.118 1982.2 1106.98 2143.86 1293.66 2174.91C1480.32 2205.92 1723.32 2111.14 1749.17 1891.46C1785.02 1587.19 1768.89 927.095 1768.89 927.095C1768.89 927.095 1724.83 559.737 1171.9 664.199" fill="#F1ACA2"/>
<path d="M1042.65 844.439C953.596 840.822 815.033 804.702 726.063 799.321C726.651 790.366 722.441 864.844 722.677 865.533C736.003 904.796 720.981 1254.24 720.981 1254.24C810.39 1261.86 805.278 1333.93 805.278 1333.93L811.214 1495.16L900.536 1489.22L918.39 1148.77C979.884 1119.06 1001.75 1065.16 1001.75 1065.16C1001.75 1065.16 1026.66 904.624 1042.65 844.439Z" fill="#163542"/>
<path d="M1044.87 1071.41C1044.87 1071.41 1056.88 1049.41 1086.2 1028.67C1114.77 1007.75 1161.55 987.658 1212.03 989.473C1224.52 989.559 1236.95 991.029 1248.99 993.881C1261.25 995.393 1272.36 1001.01 1283.27 1004.86C1294.44 1008.14 1303.56 1015.44 1312.58 1020.67C1321.86 1025.6 1329.02 1032.78 1335.62 1039C1349.41 1050.71 1357.52 1063.76 1363.02 1072.66C1368.48 1081.61 1370.98 1086.97 1370.98 1086.97C1370.98 1086.97 1364.84 1085.46 1355.16 1082.39C1350.39 1080.75 1344.55 1078.97 1338.45 1076.42C1332.42 1073.74 1324.54 1072.75 1317.22 1070.03C1309.58 1067.78 1301.74 1065.01 1293.12 1063.33C1284.47 1061.77 1276.04 1058.75 1266.85 1057.67C1248.74 1054.77 1229.85 1052.18 1210.59 1052.31C1191.43 1051.36 1171.92 1052.87 1153.12 1054.3C1134.42 1056.54 1116.39 1058.96 1100.45 1061.6C1067.1 1067.48 1044.87 1071.41 1044.87 1071.41" fill="#0E2531"/>
<path d="M1506.3 1154.07C1506.3 1154.07 1512 1133.8 1533.32 1112.05C1543.85 1101.22 1558.22 1089.97 1576.39 1081.75C1585.55 1078.04 1595.37 1073.87 1606.01 1071.97C1616.71 1069.91 1627.76 1068.64 1639.08 1069.49C1650.38 1069.49 1661.35 1072.48 1671.97 1075.39C1682.65 1078.08 1691.64 1084.49 1700.8 1088.75C1717.66 1100 1730.87 1112.81 1739.01 1125.79C1748.63 1137.55 1752.08 1150.19 1755.33 1158.16C1758.17 1166.42 1759.2 1171.27 1759.2 1171.27C1759.2 1171.27 1754.19 1169.29 1746.45 1165.62C1738.53 1162.16 1729.04 1155.59 1716.69 1150.62C1710.55 1148.13 1704.64 1144.51 1698.13 1141.94C1691.41 1139.74 1684.69 1137.13 1678.09 1134.48C1671.08 1133 1664.23 1130.72 1657.25 1129.59C1650.18 1128.95 1643.35 1126.72 1636.15 1127.27C1622.02 1125.88 1607.3 1127.86 1592.74 1129.92C1585.66 1131.82 1578.21 1132.49 1571.33 1134.6C1564.21 1136.5 1557.47 1138.31 1551.24 1139.95C1524.28 1148.47 1506.3 1154.07 1506.3 1154.07" fill="#0E2531"/>
<path d="M1403.86 1645.83C1403.86 1645.83 1139.94 1578.53 1094.61 1659.93C1049.27 1741.29 1031.12 1831.72 958.577 1795.56C886.029 1759.39 923.441 1093.62 923.441 1093.62L814.623 1310.6C814.623 1310.6 604.909 2183.29 1141.09 2229.6C1703.42 2278.23 1792.88 2121.11 1756.6 1822.69C1756.6 1822.69 1693.13 1849.82 1665.91 1768.42C1638.71 1687.02 1702.19 1619.21 1403.86 1645.83" fill="#163542"/>
<path d="M1158.01 1750.28L1586.17 1779.84C1586.17 1779.84 1447.97 2006.34 1158.01 1750.28Z" fill="white"/>
<path d="M723.022 865.73C723.022 865.73 685.703 576.773 930.245 609.401C930.245 609.401 1117.05 366.049 1472 384.755L1322.54 459.622C1322.54 459.622 1528.03 337.945 1864.3 478.372C1864.3 478.372 1826.93 600.005 1696.17 609.401C1696.17 609.401 1854.95 590.653 1892.31 562.593C1892.31 562.593 1873.64 787.242 1752.21 834.008C1630.78 880.816 1191.79 656.211 1023.64 871.463C855.521 1086.71 752.779 834.008 752.779 834.008" fill="#163542"/>
<path d="M1033.76 1137.99L1397.6 1188.85C1397.6 1188.85 1395.34 1495.11 1155.79 1458.91C916.258 1422.75 1033.76 1137.99 1033.76 1137.99Z" fill="#C1EBF3"/>
<path d="M1034.17 1137.45L1032.3 1150.96L1397.54 1202.19L1399.42 1188.68L1385.81 1188.55C1385.81 1188.55 1385.79 1192.4 1385.35 1199.68C1383.89 1225.02 1377.11 1289.5 1349.89 1345.93C1336.32 1374.17 1317.79 1400.24 1292.82 1419.12C1267.78 1437.91 1236.37 1450.04 1194.72 1450.08C1183.47 1450.08 1171.49 1449.17 1158.72 1447.27C1100.75 1438.3 1067.11 1415.26 1046.6 1386.08C1026.12 1356.89 1018.85 1319.99 1018.87 1283.26C1018.85 1247.27 1025.83 1211.85 1032.86 1185.61C1036.38 1172.48 1039.89 1161.61 1042.5 1154.12L1045.65 1145.5L1046.77 1142.65L1034.17 1137.45L1032.3 1150.96L1034.17 1137.45L1021.6 1132.21C1021.33 1133.12 991.75 1204.4 991.629 1283.26C991.646 1323.41 999.4 1366.07 1024.31 1401.8C1049.16 1437.57 1091.24 1464.81 1154.66 1474.25C1168.68 1476.37 1182.03 1477.41 1194.72 1477.41C1248.47 1477.5 1290.44 1458.79 1321.29 1430.94C1367.64 1389.11 1389.92 1328.52 1401.36 1278.76C1412.72 1228.91 1413.01 1189.42 1413.02 1188.77L1413.13 1176.81L1025.63 1122.46L1021.6 1132.21L1034.17 1137.45" fill="#F19C53"/>
<path d="M1219.95 1289.91C1217.78 1335.8 1195.73 1372.07 1170.71 1370.9C1145.69 1369.68 1127.17 1331.45 1129.34 1285.56C1131.52 1239.62 1153.57 1203.4 1178.59 1204.57C1203.6 1205.79 1222.11 1243.98 1219.95 1289.91Z" fill="#163542"/>
<path d="M1413.13 1178.41L991.884 1113.59L978.317 1162.24L1402.62 1217.85L1413.13 1178.41Z" fill="#F19C53"/>
<path d="M1836.5 1226.87L1485.91 1197.89C1485.91 1197.89 1427.23 1528.35 1670.13 1526.2C1913.04 1524.11 1836.5 1226.87 1836.5 1226.87" fill="#C1EBF3"/>
<path d="M1836.39 1226.23L1837.51 1212.67L1477.11 1182.36L1474.97 1194.62C1474.89 1195.14 1468.6 1231.15 1468.59 1279.98C1468.67 1330.23 1475.07 1394.08 1503.41 1447.28C1531.39 1500.59 1584.3 1542.17 1668.89 1541.74H1671.31C1748.63 1541.35 1798.51 1510.01 1826.25 1466.83C1854.1 1423.83 1861.18 1371.25 1861.25 1326.09C1861.24 1269.14 1849.63 1223.51 1849.48 1222.82L1847.09 1213.45L1837.51 1212.67L1836.39 1226.23L1823.32 1229.59C1823.32 1229.59 1823.96 1232.05 1824.98 1236.89C1828.04 1251.44 1834.27 1286.19 1834.25 1326.09C1834.32 1368.35 1827.12 1416.06 1803.68 1451.9C1780.12 1487.56 1741.74 1513.55 1671.08 1514.5H1668.89C1592.93 1514.02 1552.44 1480.61 1527.16 1434.37C1502.22 1387.96 1495.52 1327.77 1495.6 1279.98C1495.6 1256.75 1497.11 1236.46 1498.61 1222.04C1499.36 1214.83 1500.12 1209.13 1500.67 1205.2C1501.23 1201.27 1501.57 1199.37 1501.57 1199.37L1488.28 1197L1487.16 1210.55L1835.29 1239.78L1836.39 1226.23L1823.32 1229.59L1836.39 1226.23" fill="#F19C53"/>
<path d="M1473.03 1182.36L1883.27 1208.11L1890.09 1255.57L1477.53 1222.39L1473.03 1182.36" fill="#F19C53"/>
<path d="M1628.14 1320.89C1625.97 1365.61 1603.91 1400.88 1578.91 1399.74C1553.9 1398.55 1535.37 1361.37 1537.53 1316.65C1539.71 1271.97 1561.76 1236.66 1586.78 1237.85C1611.8 1238.99 1630.32 1276.21 1628.14 1320.89Z" fill="#163542"/>
<path d="M1404.25 1646.01L1467.53 1268.88L1586.16 1609.9L1404.25 1646.01Z" fill="#D28E89"/>
<path d="M978.775 1161.28L683.267 1257.79L687.566 1214.63L991.627 1113.59L978.775 1161.28Z" fill="#F19C53"/>
<path d="M1396.96 1266.67C1408.01 1260.01 1420.53 1256.51 1432.5 1256.51C1446.59 1256.55 1459.7 1261.11 1470.48 1271.1L1492.99 1247.87C1475.91 1231.93 1454 1224.43 1432.5 1224.51C1414.11 1224.51 1395.87 1229.74 1379.85 1239.39L1396.96 1266.67Z" fill="#F19C53"/>
</g>
<g filter="url(#filter2_f_20_154)">
<rect x="2422" y="346" width="1957" height="588" rx="60" fill="white"/>
<rect x="2425" y="349" width="1951" height="582" rx="57" stroke="black" stroke-width="6"/>
</g>
<g filter="url(#filter3_f_20_154)">
<rect x="2422" y="1458" width="1957" height="588" rx="60" fill="white"/>
<rect x="2425" y="1461" width="1951" height="582" rx="57" stroke="black" stroke-width="6"/>
</g>
<path d="M3236.31 607.173H3220.37C3219.92 604.56 3219.08 602.244 3217.86 600.227C3216.64 598.182 3215.12 596.449 3213.3 595.028C3211.48 593.608 3209.41 592.543 3207.08 591.832C3204.78 591.094 3202.29 590.724 3199.62 590.724C3194.88 590.724 3190.67 591.918 3187.01 594.304C3183.34 596.662 3180.47 600.128 3178.4 604.702C3176.32 609.247 3175.29 614.801 3175.29 621.364C3175.29 628.04 3176.32 633.665 3178.4 638.239C3180.5 642.784 3183.37 646.222 3187.01 648.551C3190.67 650.852 3194.86 652.003 3199.58 652.003C3202.19 652.003 3204.63 651.662 3206.91 650.98C3209.21 650.27 3211.27 649.233 3213.09 647.869C3214.93 646.506 3216.48 644.83 3217.73 642.841C3219.01 640.852 3219.89 638.58 3220.37 636.023L3236.31 636.108C3235.71 640.256 3234.42 644.148 3232.43 647.784C3230.47 651.42 3227.9 654.631 3224.72 657.415C3221.54 660.17 3217.82 662.33 3213.55 663.892C3209.29 665.426 3204.56 666.193 3199.36 666.193C3191.69 666.193 3184.85 664.418 3178.82 660.866C3172.8 657.315 3168.06 652.188 3164.59 645.483C3161.13 638.778 3159.39 630.739 3159.39 621.364C3159.39 611.96 3161.14 603.92 3164.63 597.244C3168.13 590.54 3172.89 585.412 3178.91 581.861C3184.93 578.31 3191.75 576.534 3199.36 576.534C3204.22 576.534 3208.74 577.216 3212.91 578.58C3217.09 579.943 3220.81 581.946 3224.08 584.588C3227.35 587.202 3230.03 590.412 3232.13 594.219C3234.26 597.997 3235.66 602.315 3236.31 607.173ZM3278.66 666.278C3272.26 666.278 3266.73 664.872 3262.04 662.06C3257.35 659.247 3253.71 655.312 3251.13 650.256C3248.57 645.199 3247.29 639.29 3247.29 632.528C3247.29 625.767 3248.57 619.844 3251.13 614.759C3253.71 609.673 3257.35 605.724 3262.04 602.912C3266.73 600.099 3272.26 598.693 3278.66 598.693C3285.05 598.693 3290.59 600.099 3295.28 602.912C3299.96 605.724 3303.59 609.673 3306.14 614.759C3308.73 619.844 3310.02 625.767 3310.02 632.528C3310.02 639.29 3308.73 645.199 3306.14 650.256C3303.59 655.312 3299.96 659.247 3295.28 662.06C3290.59 664.872 3285.05 666.278 3278.66 666.278ZM3278.74 653.92C3282.21 653.92 3285.11 652.969 3287.44 651.065C3289.76 649.134 3291.5 646.548 3292.63 643.31C3293.8 640.071 3294.38 636.463 3294.38 632.486C3294.38 628.48 3293.8 624.858 3292.63 621.619C3291.5 618.352 3289.76 615.753 3287.44 613.821C3285.11 611.889 3282.21 610.923 3278.74 610.923C3275.19 610.923 3272.24 611.889 3269.88 613.821C3267.55 615.753 3265.8 618.352 3264.64 621.619C3263.5 624.858 3262.93 628.48 3262.93 632.486C3262.93 636.463 3263.5 640.071 3264.64 643.31C3265.8 646.548 3267.55 649.134 3269.88 651.065C3272.24 652.969 3275.19 653.92 3278.74 653.92ZM3338.54 626.648V665H3323.11V599.545H3337.86V610.668H3338.62C3340.13 607.003 3342.53 604.091 3345.83 601.932C3349.15 599.773 3353.26 598.693 3358.14 598.693C3362.66 598.693 3366.59 599.659 3369.95 601.591C3373.33 603.523 3375.94 606.321 3377.79 609.986C3379.66 613.651 3380.59 618.097 3380.56 623.324V665H3365.13V625.71C3365.13 621.335 3363.99 617.912 3361.72 615.44C3359.48 612.969 3356.37 611.733 3352.39 611.733C3349.69 611.733 3347.29 612.33 3345.19 613.523C3343.11 614.687 3341.48 616.378 3340.29 618.594C3339.12 620.81 3338.54 623.494 3338.54 626.648ZM3411.66 626.648V665H3396.24V599.545H3410.98V610.668H3411.75C3413.26 607.003 3415.66 604.091 3418.95 601.932C3422.28 599.773 3426.38 598.693 3431.27 598.693C3435.78 598.693 3439.72 599.659 3443.07 601.591C3446.45 603.523 3449.07 606.321 3450.91 609.986C3452.79 613.651 3453.71 618.097 3453.68 623.324V665H3438.26V625.71C3438.26 621.335 3437.12 617.912 3434.85 615.44C3432.6 612.969 3429.49 611.733 3425.51 611.733C3422.82 611.733 3420.41 612.33 3418.31 613.523C3416.24 614.687 3414.61 616.378 3413.41 618.594C3412.25 620.81 3411.66 623.494 3411.66 626.648ZM3498.34 666.278C3491.78 666.278 3486.11 664.915 3481.34 662.188C3476.59 659.432 3472.94 655.54 3470.39 650.511C3467.83 645.455 3466.55 639.503 3466.55 632.656C3466.55 625.923 3467.83 620.014 3470.39 614.929C3472.97 609.815 3476.58 605.838 3481.21 602.997C3485.84 600.128 3491.28 598.693 3497.53 598.693C3501.57 598.693 3505.37 599.347 3508.95 600.653C3512.56 601.932 3515.74 603.92 3518.5 606.619C3521.28 609.318 3523.47 612.756 3525.06 616.932C3526.65 621.08 3527.45 626.023 3527.45 631.761V636.491H3473.8V626.094H3512.66C3512.63 623.139 3511.99 620.511 3510.74 618.21C3509.49 615.881 3507.74 614.048 3505.5 612.713C3503.28 611.378 3500.7 610.71 3497.74 610.71C3494.59 610.71 3491.82 611.477 3489.43 613.011C3487.05 614.517 3485.19 616.506 3483.85 618.977C3482.55 621.42 3481.88 624.105 3481.85 627.031V636.108C3481.85 639.915 3482.55 643.182 3483.94 645.909C3485.33 648.608 3487.28 650.682 3489.78 652.131C3492.28 653.551 3495.2 654.261 3498.55 654.261C3500.8 654.261 3502.83 653.949 3504.65 653.324C3506.47 652.67 3508.04 651.719 3509.38 650.469C3510.71 649.219 3511.72 647.67 3512.4 645.824L3526.81 647.443C3525.9 651.25 3524.16 654.574 3521.61 657.415C3519.08 660.227 3515.84 662.415 3511.89 663.977C3507.94 665.511 3503.43 666.278 3498.34 666.278ZM3569.05 666.278C3562.51 666.278 3556.9 664.844 3552.22 661.974C3547.56 659.105 3543.96 655.142 3541.43 650.085C3538.93 645 3537.68 639.148 3537.68 632.528C3537.68 625.881 3538.96 620.014 3541.52 614.929C3544.08 609.815 3547.68 605.838 3552.34 602.997C3557.03 600.128 3562.57 598.693 3568.96 598.693C3574.27 598.693 3578.98 599.673 3583.07 601.634C3587.19 603.565 3590.47 606.307 3592.91 609.858C3595.35 613.381 3596.75 617.5 3597.09 622.216H3582.34C3581.75 619.062 3580.33 616.435 3578.08 614.332C3575.87 612.202 3572.9 611.136 3569.18 611.136C3566.02 611.136 3563.25 611.989 3560.87 613.693C3558.48 615.369 3556.62 617.784 3555.28 620.938C3553.98 624.091 3553.32 627.869 3553.32 632.273C3553.32 636.733 3553.98 640.568 3555.28 643.778C3556.59 646.96 3558.42 649.418 3560.78 651.151C3563.17 652.855 3565.97 653.707 3569.18 653.707C3571.45 653.707 3573.48 653.281 3575.27 652.429C3577.09 651.548 3578.61 650.284 3579.83 648.636C3581.05 646.989 3581.89 644.986 3582.34 642.628H3597.09C3596.72 647.259 3595.35 651.364 3593 654.943C3590.64 658.494 3587.43 661.278 3583.37 663.295C3579.3 665.284 3574.53 666.278 3569.05 666.278ZM3642.44 599.545V611.477H3604.81V599.545H3642.44ZM3614.1 583.864H3629.53V645.312C3629.53 647.386 3629.84 648.977 3630.46 650.085C3631.12 651.165 3631.97 651.903 3633.02 652.301C3634.07 652.699 3635.24 652.898 3636.52 652.898C3637.48 652.898 3638.36 652.827 3639.16 652.685C3639.98 652.543 3640.61 652.415 3641.03 652.301L3643.63 664.361C3642.81 664.645 3641.63 664.957 3640.1 665.298C3638.59 665.639 3636.74 665.838 3634.56 665.895C3630.69 666.009 3627.21 665.426 3624.12 664.148C3621.02 662.841 3618.56 660.824 3616.74 658.097C3614.95 655.369 3614.07 651.96 3614.1 647.869V583.864Z" fill="black"/>
<path d="M3106.18 1777H3076.61V1689.73H3106.78C3115.44 1689.73 3122.89 1691.47 3129.11 1694.97C3135.36 1698.43 3140.16 1703.42 3143.51 1709.93C3146.86 1716.43 3148.54 1724.22 3148.54 1733.28C3148.54 1742.37 3146.85 1750.18 3143.47 1756.72C3140.12 1763.25 3135.27 1768.26 3128.94 1771.76C3122.63 1775.25 3115.05 1777 3106.18 1777ZM3092.42 1763.32H3105.41C3111.49 1763.32 3116.57 1762.21 3120.63 1760C3124.69 1757.75 3127.74 1754.41 3129.79 1749.98C3131.84 1745.52 3132.86 1739.95 3132.86 1733.28C3132.86 1726.6 3131.84 1721.06 3129.79 1716.66C3127.74 1712.23 3124.72 1708.92 3120.71 1706.73C3116.74 1704.51 3111.79 1703.41 3105.88 1703.41H3092.42V1763.32ZM3191.86 1778.28C3185.29 1778.28 3179.63 1776.91 3174.85 1774.19C3170.11 1771.43 3166.46 1767.54 3163.9 1762.51C3161.35 1757.45 3160.07 1751.5 3160.07 1744.66C3160.07 1737.92 3161.35 1732.01 3163.9 1726.93C3166.49 1721.82 3170.1 1717.84 3174.73 1715C3179.36 1712.13 3184.8 1710.69 3191.05 1710.69C3195.08 1710.69 3198.89 1711.35 3202.47 1712.65C3206.08 1713.93 3209.26 1715.92 3212.01 1718.62C3214.8 1721.32 3216.98 1724.76 3218.58 1728.93C3220.17 1733.08 3220.96 1738.02 3220.96 1743.76V1748.49H3167.31V1738.09H3206.17C3206.15 1735.14 3205.51 1732.51 3204.26 1730.21C3203.01 1727.88 3201.26 1726.05 3199.02 1724.71C3196.8 1723.38 3194.21 1722.71 3191.26 1722.71C3188.11 1722.71 3185.34 1723.48 3182.95 1725.01C3180.56 1726.52 3178.7 1728.51 3177.37 1730.98C3176.06 1733.42 3175.39 1736.11 3175.37 1739.03V1748.11C3175.37 1751.91 3176.06 1755.18 3177.45 1757.91C3178.85 1760.61 3180.79 1762.68 3183.29 1764.13C3185.79 1765.55 3188.72 1766.26 3192.07 1766.26C3194.31 1766.26 3196.35 1765.95 3198.16 1765.32C3199.98 1764.67 3201.56 1763.72 3202.89 1762.47C3204.23 1761.22 3205.24 1759.67 3205.92 1757.82L3220.32 1759.44C3219.41 1763.25 3217.68 1766.57 3215.12 1769.41C3212.6 1772.23 3209.36 1774.41 3205.41 1775.98C3201.46 1777.51 3196.94 1778.28 3191.86 1778.28ZM3249.44 1689.73V1777H3234.01V1689.73H3249.44ZM3284.14 1778.32C3279.99 1778.32 3276.25 1777.58 3272.93 1776.11C3269.63 1774.6 3267.02 1772.38 3265.09 1769.46C3263.18 1766.53 3262.23 1762.92 3262.23 1758.63C3262.23 1754.94 3262.91 1751.89 3264.28 1749.47C3265.64 1747.06 3267.5 1745.12 3269.86 1743.68C3272.22 1742.23 3274.88 1741.13 3277.83 1740.39C3280.81 1739.63 3283.89 1739.07 3287.08 1738.73C3290.91 1738.34 3294.02 1737.98 3296.41 1737.67C3298.8 1737.33 3300.53 1736.82 3301.61 1736.13C3302.72 1735.42 3303.27 1734.33 3303.27 1732.85V1732.6C3303.27 1729.39 3302.32 1726.9 3300.41 1725.14C3298.51 1723.38 3295.77 1722.5 3292.19 1722.5C3288.41 1722.5 3285.41 1723.32 3283.2 1724.97C3281.01 1726.62 3279.53 1728.56 3278.77 1730.81L3264.36 1728.76C3265.5 1724.78 3267.38 1721.46 3269.99 1718.79C3272.6 1716.09 3275.8 1714.07 3279.58 1712.74C3283.36 1711.38 3287.53 1710.69 3292.11 1710.69C3295.26 1710.69 3298.4 1711.06 3301.52 1711.8C3304.65 1712.54 3307.5 1713.76 3310.09 1715.47C3312.67 1717.14 3314.75 1719.43 3316.31 1722.33C3317.9 1725.22 3318.7 1728.85 3318.7 1733.19V1777H3303.87V1768.01H3303.36C3302.42 1769.83 3301.1 1771.53 3299.39 1773.12C3297.72 1774.68 3295.6 1775.95 3293.04 1776.91C3290.51 1777.85 3287.55 1778.32 3284.14 1778.32ZM3288.14 1766.99C3291.24 1766.99 3293.92 1766.37 3296.2 1765.15C3298.47 1763.9 3300.22 1762.26 3301.44 1760.21C3302.69 1758.16 3303.31 1755.93 3303.31 1753.52V1745.81C3302.83 1746.2 3302.01 1746.57 3300.84 1746.91C3299.7 1747.26 3298.43 1747.55 3297.01 1747.81C3295.59 1748.07 3294.18 1748.29 3292.79 1748.49C3291.39 1748.69 3290.19 1748.86 3289.16 1749C3286.86 1749.32 3284.8 1749.83 3282.99 1750.54C3281.17 1751.25 3279.73 1752.24 3278.68 1753.52C3277.63 1754.77 3277.11 1756.39 3277.11 1758.38C3277.11 1761.22 3278.14 1763.36 3280.22 1764.81C3282.29 1766.26 3284.93 1766.99 3288.14 1766.99ZM3341.45 1801.55C3339.35 1801.55 3337.4 1801.38 3335.61 1801.03C3333.85 1800.72 3332.45 1800.35 3331.39 1799.93L3334.97 1787.91C3337.22 1788.56 3339.22 1788.88 3340.98 1788.85C3342.74 1788.82 3344.29 1788.26 3345.63 1787.18C3346.99 1786.13 3348.14 1784.37 3349.08 1781.9L3350.4 1778.36L3326.66 1711.55H3343.03L3358.11 1760.98H3358.8L3373.92 1711.55H3390.33L3364.12 1784.93C3362.9 1788.39 3361.28 1791.36 3359.26 1793.83C3357.25 1796.33 3354.78 1798.24 3351.85 1799.54C3348.95 1800.88 3345.49 1801.55 3341.45 1801.55ZM3466.1 1689.73V1777H3450.29V1705.11H3449.78L3429.36 1718.15V1703.66L3451.05 1689.73H3466.1ZM3548.45 1777H3518.87V1689.73H3549.04C3557.71 1689.73 3565.15 1691.47 3571.37 1694.97C3577.62 1698.43 3582.42 1703.42 3585.78 1709.93C3589.13 1716.43 3590.81 1724.22 3590.81 1733.28C3590.81 1742.37 3589.12 1750.18 3585.73 1756.72C3582.38 1763.25 3577.54 1768.26 3571.2 1771.76C3564.9 1775.25 3557.31 1777 3548.45 1777ZM3534.68 1763.32H3547.68C3553.76 1763.32 3558.83 1762.21 3562.89 1760C3566.96 1757.75 3570.01 1754.41 3572.06 1749.98C3574.1 1745.52 3575.12 1739.95 3575.12 1733.28C3575.12 1726.6 3574.1 1721.06 3572.06 1716.66C3570.01 1712.23 3566.98 1708.92 3562.98 1706.73C3559 1704.51 3554.06 1703.41 3548.15 1703.41H3534.68V1763.32ZM3623.98 1778.32C3619.83 1778.32 3616.1 1777.58 3612.77 1776.11C3609.48 1774.6 3606.86 1772.38 3604.93 1769.46C3603.03 1766.53 3602.08 1762.92 3602.08 1758.63C3602.08 1754.94 3602.76 1751.89 3604.12 1749.47C3605.49 1747.06 3607.35 1745.12 3609.7 1743.68C3612.06 1742.23 3614.72 1741.13 3617.67 1740.39C3620.66 1739.63 3623.74 1739.07 3626.92 1738.73C3630.76 1738.34 3633.87 1737.98 3636.25 1737.67C3638.64 1737.33 3640.37 1736.82 3641.45 1736.13C3642.56 1735.42 3643.11 1734.33 3643.11 1732.85V1732.6C3643.11 1729.39 3642.16 1726.9 3640.26 1725.14C3638.36 1723.38 3635.61 1722.5 3632.03 1722.5C3628.26 1722.5 3625.26 1723.32 3623.04 1724.97C3620.86 1726.62 3619.38 1728.56 3618.61 1730.81L3604.21 1728.76C3605.34 1724.78 3607.22 1721.46 3609.83 1718.79C3612.45 1716.09 3615.64 1714.07 3619.42 1712.74C3623.2 1711.38 3627.38 1710.69 3631.95 1710.69C3635.1 1710.69 3638.24 1711.06 3641.37 1711.8C3644.49 1712.54 3647.35 1713.76 3649.93 1715.47C3652.52 1717.14 3654.59 1719.43 3656.15 1722.33C3657.74 1725.22 3658.54 1728.85 3658.54 1733.19V1777H3643.71V1768.01H3643.2C3642.26 1769.83 3640.94 1771.53 3639.24 1773.12C3637.56 1774.68 3635.44 1775.95 3632.89 1776.91C3630.36 1777.85 3627.39 1778.32 3623.98 1778.32ZM3627.99 1766.99C3631.08 1766.99 3633.77 1766.37 3636.04 1765.15C3638.31 1763.9 3640.06 1762.26 3641.28 1760.21C3642.53 1758.16 3643.16 1755.93 3643.16 1753.52V1745.81C3642.67 1746.2 3641.85 1746.57 3640.68 1746.91C3639.55 1747.26 3638.27 1747.55 3636.85 1747.81C3635.43 1748.07 3634.02 1748.29 3632.63 1748.49C3631.24 1748.69 3630.03 1748.86 3629.01 1749C3626.71 1749.32 3624.65 1749.83 3622.83 1750.54C3621.01 1751.25 3619.58 1752.24 3618.53 1753.52C3617.47 1754.77 3616.95 1756.39 3616.95 1758.38C3616.95 1761.22 3617.99 1763.36 3620.06 1764.81C3622.13 1766.26 3624.78 1766.99 3627.99 1766.99ZM3681.3 1801.55C3679.19 1801.55 3677.25 1801.38 3675.46 1801.03C3673.7 1800.72 3672.29 1800.35 3671.24 1799.93L3674.82 1787.91C3677.06 1788.56 3679.07 1788.88 3680.83 1788.85C3682.59 1788.82 3684.14 1788.26 3685.47 1787.18C3686.84 1786.13 3687.99 1784.37 3688.92 1781.9L3690.24 1778.36L3666.51 1711.55H3682.87L3697.96 1760.98H3698.64L3713.77 1711.55H3730.17L3703.97 1784.93C3702.74 1788.39 3701.13 1791.36 3699.11 1793.83C3697.09 1796.33 3694.62 1798.24 3691.69 1799.54C3688.8 1800.88 3685.33 1801.55 3681.3 1801.55Z" fill="black"/>
<g filter="url(#filter4_f_20_154)">
<rect x="421" y="3314" width="1957" height="588" rx="60" fill="white"/>
<rect x="424" y="3317" width="1951" height="582" rx="57" stroke="black" stroke-width="6"/>
</g>
<g filter="url(#filter5_f_20_154)">
<rect x="421" y="4426" width="1957" height="588" rx="60" fill="white"/>
<rect x="424" y="4429" width="1951" height="582" rx="57" stroke="black" stroke-width="6"/>
</g>
<path d="M1042.61 3633V3545.73H1098.52V3558.98H1058.42V3582.67H1094.68V3595.93H1058.42V3633H1042.61ZM1135.99 3634.28C1129.59 3634.28 1124.05 3632.87 1119.37 3630.06C1114.68 3627.25 1111.04 3623.31 1108.46 3618.26C1105.9 3613.2 1104.62 3607.29 1104.62 3600.53C1104.62 3593.77 1105.9 3587.84 1108.46 3582.76C1111.04 3577.67 1114.68 3573.72 1119.37 3570.91C1124.05 3568.1 1129.59 3566.69 1135.99 3566.69C1142.38 3566.69 1147.92 3568.1 1152.6 3570.91C1157.29 3573.72 1160.91 3577.67 1163.47 3582.76C1166.06 3587.84 1167.35 3593.77 1167.35 3600.53C1167.35 3607.29 1166.06 3613.2 1163.47 3618.26C1160.91 3623.31 1157.29 3627.25 1152.6 3630.06C1147.92 3632.87 1142.38 3634.28 1135.99 3634.28ZM1136.07 3621.92C1139.54 3621.92 1142.43 3620.97 1144.76 3619.07C1147.09 3617.13 1148.83 3614.55 1149.96 3611.31C1151.13 3608.07 1151.71 3604.46 1151.71 3600.49C1151.71 3596.48 1151.13 3592.86 1149.96 3589.62C1148.83 3586.35 1147.09 3583.75 1144.76 3581.82C1142.43 3579.89 1139.54 3578.92 1136.07 3578.92C1132.52 3578.92 1129.56 3579.89 1127.21 3581.82C1124.88 3583.75 1123.13 3586.35 1121.97 3589.62C1120.83 3592.86 1120.26 3596.48 1120.26 3600.49C1120.26 3604.46 1120.83 3608.07 1121.97 3611.31C1123.13 3614.55 1124.88 3617.13 1127.21 3619.07C1129.56 3620.97 1132.52 3621.92 1136.07 3621.92ZM1195.87 3545.73V3633H1180.44V3545.73H1195.87ZM1227.16 3545.73V3633H1211.73V3545.73H1227.16ZM1271.57 3634.28C1265.18 3634.28 1259.64 3632.87 1254.95 3630.06C1250.26 3627.25 1246.63 3623.31 1244.04 3618.26C1241.49 3613.2 1240.21 3607.29 1240.21 3600.53C1240.21 3593.77 1241.49 3587.84 1244.04 3582.76C1246.63 3577.67 1250.26 3573.72 1254.95 3570.91C1259.64 3568.1 1265.18 3566.69 1271.57 3566.69C1277.96 3566.69 1283.5 3568.1 1288.19 3570.91C1292.88 3573.72 1296.5 3577.67 1299.06 3582.76C1301.64 3587.84 1302.93 3593.77 1302.93 3600.53C1302.93 3607.29 1301.64 3613.2 1299.06 3618.26C1296.5 3623.31 1292.88 3627.25 1288.19 3630.06C1283.5 3632.87 1277.96 3634.28 1271.57 3634.28ZM1271.66 3621.92C1275.12 3621.92 1278.02 3620.97 1280.35 3619.07C1282.68 3617.13 1284.41 3614.55 1285.55 3611.31C1286.71 3608.07 1287.3 3604.46 1287.3 3600.49C1287.3 3596.48 1286.71 3592.86 1285.55 3589.62C1284.41 3586.35 1282.68 3583.75 1280.35 3581.82C1278.02 3579.89 1275.12 3578.92 1271.66 3578.92C1268.11 3578.92 1265.15 3579.89 1262.79 3581.82C1260.46 3583.75 1258.72 3586.35 1257.55 3589.62C1256.41 3592.86 1255.85 3596.48 1255.85 3600.49C1255.85 3604.46 1256.41 3608.07 1257.55 3611.31C1258.72 3614.55 1260.46 3617.13 1262.79 3619.07C1265.15 3620.97 1268.11 3621.92 1271.66 3621.92ZM1327.66 3633L1309.17 3567.55H1324.89L1336.4 3613.57H1336.99L1348.75 3567.55H1364.31L1376.07 3613.31H1376.71L1388.04 3567.55H1403.81L1385.27 3633H1369.21L1356.94 3588.77H1356.04L1343.77 3633H1327.66ZM1500.04 3545.73H1515.85V3602.74C1515.85 3608.99 1514.38 3614.49 1511.42 3619.24C1508.5 3623.98 1504.38 3627.69 1499.06 3630.36C1493.75 3633 1487.54 3634.32 1480.44 3634.32C1473.31 3634.32 1467.09 3633 1461.78 3630.36C1456.46 3627.69 1452.35 3623.98 1449.42 3619.24C1446.49 3614.49 1445.03 3608.99 1445.03 3602.74V3545.73H1460.84V3601.42C1460.84 3605.06 1461.63 3608.3 1463.23 3611.14C1464.85 3613.98 1467.12 3616.21 1470.04 3617.83C1472.97 3619.42 1476.44 3620.22 1480.44 3620.22C1484.45 3620.22 1487.91 3619.42 1490.84 3617.83C1493.79 3616.21 1496.07 3613.98 1497.66 3611.14C1499.25 3608.3 1500.04 3605.06 1500.04 3601.42V3545.73ZM1532.36 3657.55V3567.55H1547.53V3578.37H1548.42C1549.22 3576.78 1550.34 3575.09 1551.79 3573.3C1553.24 3571.48 1555.2 3569.93 1557.67 3568.65C1560.14 3567.35 1563.29 3566.69 1567.13 3566.69C1572.19 3566.69 1576.75 3567.99 1580.81 3570.57C1584.9 3573.13 1588.14 3576.92 1590.52 3581.95C1592.94 3586.95 1594.15 3593.09 1594.15 3600.36C1594.15 3607.55 1592.97 3613.65 1590.61 3618.68C1588.25 3623.71 1585.04 3627.55 1580.98 3630.19C1576.92 3632.83 1572.31 3634.15 1567.17 3634.15C1563.42 3634.15 1560.31 3633.53 1557.84 3632.28C1555.37 3631.03 1553.38 3629.52 1551.87 3627.76C1550.4 3625.97 1549.25 3624.28 1548.42 3622.69H1547.78V3657.55H1532.36ZM1547.48 3600.27C1547.48 3604.51 1548.08 3608.21 1549.27 3611.39C1550.5 3614.58 1552.24 3617.06 1554.51 3618.85C1556.82 3620.61 1559.6 3621.49 1562.87 3621.49C1566.28 3621.49 1569.13 3620.59 1571.43 3618.77C1573.73 3616.92 1575.47 3614.41 1576.63 3611.22C1577.82 3608.01 1578.42 3604.36 1578.42 3600.27C1578.42 3596.21 1577.84 3592.6 1576.67 3589.45C1575.51 3586.3 1573.78 3583.82 1571.48 3582.03C1569.17 3580.24 1566.3 3579.35 1562.87 3579.35C1559.57 3579.35 1556.77 3580.22 1554.47 3581.95C1552.17 3583.68 1550.42 3586.11 1549.23 3589.24C1548.07 3592.36 1547.48 3596.04 1547.48 3600.27ZM1670.02 3633L1684.34 3545.73H1696.27L1681.95 3633H1670.02ZM1630.69 3610.5L1632.69 3598.57H1699.85L1697.85 3610.5H1630.69ZM1639.34 3633L1653.66 3545.73H1665.59L1651.27 3633H1639.34ZM1635.76 3580.16L1637.72 3568.23H1704.88L1702.92 3580.16H1635.76ZM1749.67 3545.73V3633H1733.87V3561.11H1733.35L1712.94 3574.15V3559.66L1734.63 3545.73H1749.67Z" fill="black"/>
<path d="M1042.61 4745V4657.73H1098.52V4670.98H1058.42V4694.67H1094.68V4707.93H1058.42V4745H1042.61ZM1135.99 4746.28C1129.59 4746.28 1124.05 4744.87 1119.37 4742.06C1114.68 4739.25 1111.04 4735.31 1108.46 4730.26C1105.9 4725.2 1104.62 4719.29 1104.62 4712.53C1104.62 4705.77 1105.9 4699.84 1108.46 4694.76C1111.04 4689.67 1114.68 4685.72 1119.37 4682.91C1124.05 4680.1 1129.59 4678.69 1135.99 4678.69C1142.38 4678.69 1147.92 4680.1 1152.6 4682.91C1157.29 4685.72 1160.91 4689.67 1163.47 4694.76C1166.06 4699.84 1167.35 4705.77 1167.35 4712.53C1167.35 4719.29 1166.06 4725.2 1163.47 4730.26C1160.91 4735.31 1157.29 4739.25 1152.6 4742.06C1147.92 4744.87 1142.38 4746.28 1135.99 4746.28ZM1136.07 4733.92C1139.54 4733.92 1142.43 4732.97 1144.76 4731.07C1147.09 4729.13 1148.83 4726.55 1149.96 4723.31C1151.13 4720.07 1151.71 4716.46 1151.71 4712.49C1151.71 4708.48 1151.13 4704.86 1149.96 4701.62C1148.83 4698.35 1147.09 4695.75 1144.76 4693.82C1142.43 4691.89 1139.54 4690.92 1136.07 4690.92C1132.52 4690.92 1129.56 4691.89 1127.21 4693.82C1124.88 4695.75 1123.13 4698.35 1121.97 4701.62C1120.83 4704.86 1120.26 4708.48 1120.26 4712.49C1120.26 4716.46 1120.83 4720.07 1121.97 4723.31C1123.13 4726.55 1124.88 4729.13 1127.21 4731.07C1129.56 4732.97 1132.52 4733.92 1136.07 4733.92ZM1195.87 4657.73V4745H1180.44V4657.73H1195.87ZM1227.16 4657.73V4745H1211.73V4657.73H1227.16ZM1271.57 4746.28C1265.18 4746.28 1259.64 4744.87 1254.95 4742.06C1250.26 4739.25 1246.63 4735.31 1244.04 4730.26C1241.49 4725.2 1240.21 4719.29 1240.21 4712.53C1240.21 4705.77 1241.49 4699.84 1244.04 4694.76C1246.63 4689.67 1250.26 4685.72 1254.95 4682.91C1259.64 4680.1 1265.18 4678.69 1271.57 4678.69C1277.96 4678.69 1283.5 4680.1 1288.19 4682.91C1292.88 4685.72 1296.5 4689.67 1299.06 4694.76C1301.64 4699.84 1302.93 4705.77 1302.93 4712.53C1302.93 4719.29 1301.64 4725.2 1299.06 4730.26C1296.5 4735.31 1292.88 4739.25 1288.19 4742.06C1283.5 4744.87 1277.96 4746.28 1271.57 4746.28ZM1271.66 4733.92C1275.12 4733.92 1278.02 4732.97 1280.35 4731.07C1282.68 4729.13 1284.41 4726.55 1285.55 4723.31C1286.71 4720.07 1287.3 4716.46 1287.3 4712.49C1287.3 4708.48 1286.71 4704.86 1285.55 4701.62C1284.41 4698.35 1282.68 4695.75 1280.35 4693.82C1278.02 4691.89 1275.12 4690.92 1271.66 4690.92C1268.11 4690.92 1265.15 4691.89 1262.79 4693.82C1260.46 4695.75 1258.72 4698.35 1257.55 4701.62C1256.41 4704.86 1255.85 4708.48 1255.85 4712.49C1255.85 4716.46 1256.41 4720.07 1257.55 4723.31C1258.72 4726.55 1260.46 4729.13 1262.79 4731.07C1265.15 4732.97 1268.11 4733.92 1271.66 4733.92ZM1327.66 4745L1309.17 4679.55H1324.89L1336.4 4725.57H1336.99L1348.75 4679.55H1364.31L1376.07 4725.31H1376.71L1388.04 4679.55H1403.81L1385.27 4745H1369.21L1356.94 4700.77H1356.04L1343.77 4745H1327.66ZM1500.04 4657.73H1515.85V4714.74C1515.85 4720.99 1514.38 4726.49 1511.42 4731.24C1508.5 4735.98 1504.38 4739.69 1499.06 4742.36C1493.75 4745 1487.54 4746.32 1480.44 4746.32C1473.31 4746.32 1467.09 4745 1461.78 4742.36C1456.46 4739.69 1452.35 4735.98 1449.42 4731.24C1446.49 4726.49 1445.03 4720.99 1445.03 4714.74V4657.73H1460.84V4713.42C1460.84 4717.06 1461.63 4720.3 1463.23 4723.14C1464.85 4725.98 1467.12 4728.21 1470.04 4729.83C1472.97 4731.42 1476.44 4732.22 1480.44 4732.22C1484.45 4732.22 1487.91 4731.42 1490.84 4729.83C1493.79 4728.21 1496.07 4725.98 1497.66 4723.14C1499.25 4720.3 1500.04 4717.06 1500.04 4713.42V4657.73ZM1532.36 4769.55V4679.55H1547.53V4690.37H1548.42C1549.22 4688.78 1550.34 4687.09 1551.79 4685.3C1553.24 4683.48 1555.2 4681.93 1557.67 4680.65C1560.14 4679.35 1563.29 4678.69 1567.13 4678.69C1572.19 4678.69 1576.75 4679.99 1580.81 4682.57C1584.9 4685.13 1588.14 4688.92 1590.52 4693.95C1592.94 4698.95 1594.15 4705.09 1594.15 4712.36C1594.15 4719.55 1592.97 4725.65 1590.61 4730.68C1588.25 4735.71 1585.04 4739.55 1580.98 4742.19C1576.92 4744.83 1572.31 4746.15 1567.17 4746.15C1563.42 4746.15 1560.31 4745.53 1557.84 4744.28C1555.37 4743.03 1553.38 4741.52 1551.87 4739.76C1550.4 4737.97 1549.25 4736.28 1548.42 4734.69H1547.78V4769.55H1532.36ZM1547.48 4712.27C1547.48 4716.51 1548.08 4720.21 1549.27 4723.39C1550.5 4726.58 1552.24 4729.06 1554.51 4730.85C1556.82 4732.61 1559.6 4733.49 1562.87 4733.49C1566.28 4733.49 1569.13 4732.59 1571.43 4730.77C1573.73 4728.92 1575.47 4726.41 1576.63 4723.22C1577.82 4720.01 1578.42 4716.36 1578.42 4712.27C1578.42 4708.21 1577.84 4704.6 1576.67 4701.45C1575.51 4698.3 1573.78 4695.82 1571.48 4694.03C1569.17 4692.24 1566.3 4691.35 1562.87 4691.35C1559.57 4691.35 1556.77 4692.22 1554.47 4693.95C1552.17 4695.68 1550.42 4698.11 1549.23 4701.24C1548.07 4704.36 1547.48 4708.04 1547.48 4712.27ZM1670.02 4745L1684.34 4657.73H1696.27L1681.95 4745H1670.02ZM1630.69 4722.5L1632.69 4710.57H1699.85L1697.85 4722.5H1630.69ZM1639.34 4745L1653.66 4657.73H1665.59L1651.27 4745H1639.34ZM1635.76 4692.16L1637.72 4680.23H1704.88L1702.92 4692.16H1635.76ZM1749.67 4657.73V4745H1733.87V4673.11H1733.35L1712.94 4686.15V4671.66L1734.63 4657.73H1749.67Z" fill="black"/>
<defs>
<filter id="filter0_f_20_154" x="1354" y="892" width="2028" height="4160" filterUnits="userSpaceOnUse" color-interpolation-filters="sRGB">
<feFlood flood-opacity="0" result="BackgroundImageFix"/>
<feBlend mode="normal" in="SourceGraphic" in2="BackgroundImageFix" result="shape"/>
<feGaussianBlur stdDeviation="26" result="effect1_foregroundBlur_20_154"/>
</filter>
<filter id="filter1_f_20_154" x="3086.13" y="2914.82" width="1567.49" height="1850.54" filterUnits="userSpaceOnUse" color-interpolation-filters="sRGB">
<feFlood flood-opacity="0" result="BackgroundImageFix"/>
<feBlend mode="normal" in="SourceGraphic" in2="BackgroundImageFix" result="shape"/>
<feGaussianBlur stdDeviation="2.5" result="effect1_foregroundBlur_20_154"/>
</filter>
<filter id="filter2_f_20_154" x="2399" y="323" width="2003" height="634" filterUnits="userSpaceOnUse" color-interpolation-filters="sRGB">
<feFlood flood-opacity="0" result="BackgroundImageFix"/>
<feBlend mode="normal" in="SourceGraphic" in2="BackgroundImageFix" result="shape"/>
<feGaussianBlur stdDeviation="11.5" result="effect1_foregroundBlur_20_154"/>
</filter>
<filter id="filter3_f_20_154" x="2402" y="1438" width="1997" height="628" filterUnits="userSpaceOnUse" color-interpolation-filters="sRGB">
<feFlood flood-opacity="0" result="BackgroundImageFix"/>
<feBlend mode="normal" in="SourceGraphic" in2="BackgroundImageFix" result="shape"/>
<feGaussianBlur stdDeviation="10" result="effect1_foregroundBlur_20_154"/>
</filter>
<filter id="filter4_f_20_154" x="401" y="3294" width="1997" height="628" filterUnits="userSpaceOnUse" color-interpolation-filters="sRGB">
<feFlood flood-opacity="0" result="BackgroundImageFix"/>
<feBlend mode="normal" in="SourceGraphic" in2="BackgroundImageFix" result="shape"/>
<feGaussianBlur stdDeviation="10" result="effect1_foregroundBlur_20_154"/>
</filter>
<filter id="filter5_f_20_154" x="401" y="4406" width="1997" height="628" filterUnits="userSpaceOnUse" color-interpolation-filters="sRGB">
<feFlood flood-opacity="0" result="BackgroundImageFix"/>
<feBlend mode="normal" in="SourceGraphic" in2="BackgroundImageFix" result="shape"/>
<feGaussianBlur stdDeviation="10" result="effect1_foregroundBlur_20_154"/>
</filter>
</defs>
</svg>
