<svg width="2983" height="2510" viewBox="0 0 2983 2510" fill="none" xmlns="http://www.w3.org/2000/svg">
<ellipse cx="1649.5" cy="2389" rx="658.5" ry="121" fill="#FF8140" fill-opacity="0.1"/>
<rect x="1115.5" y="2.5" width="765" height="215" rx="19.5" fill="white" stroke="#FF8140" stroke-width="5"/>
<path d="M1890 108H2572C2584.15 108 2594 117.85 2594 130V684V1184V1672" stroke="#FF8140" stroke-width="5"/>
<rect x="2215.5" y="690.5" width="765" height="215" rx="19.5" fill="white" stroke="#FF8140" stroke-width="5"/>
<rect x="2215.5" y="1182.5" width="765" height="215" rx="19.5" fill="white" stroke="#FF8140" stroke-width="5"/>
<rect x="2215.5" y="1674.5" width="765" height="215" rx="19.5" fill="white" stroke="#FF8140" stroke-width="5"/>
<path d="M1113 108H431C418.85 108 409 117.85 409 130V684V1184V1672" stroke="#FF8140" stroke-width="5"/>
<rect x="-2.5" y="2.5" width="765" height="215" rx="19.5" transform="matrix(-1 0 0 1 765 688)" fill="white" stroke="#FF8140" stroke-width="5"/>
<rect x="-2.5" y="2.5" width="765" height="215" rx="19.5" transform="matrix(-1 0 0 1 765 1672)" fill="white" stroke="#52CB96" stroke-width="5"/>
<path d="M1426.48 101H1420.14C1419.76 99.1761 1419.11 97.5739 1418.17 96.1932C1417.25 94.8125 1416.12 93.6534 1414.79 92.7159C1413.48 91.7614 1412.02 91.0455 1410.42 90.5682C1408.82 90.0909 1407.15 89.8523 1405.41 89.8523C1402.24 89.8523 1399.37 90.6534 1396.79 92.2557C1394.24 93.858 1392.2 96.2188 1390.68 99.3381C1389.18 102.457 1388.43 106.284 1388.43 110.818C1388.43 115.352 1389.18 119.179 1390.68 122.298C1392.2 125.418 1394.24 127.778 1396.79 129.381C1399.37 130.983 1402.24 131.784 1405.41 131.784C1407.15 131.784 1408.82 131.545 1410.42 131.068C1412.02 130.591 1413.48 129.884 1414.79 128.946C1416.12 127.991 1417.25 126.824 1418.17 125.443C1419.11 124.045 1419.76 122.443 1420.14 120.636H1426.48C1426 123.312 1425.13 125.707 1423.87 127.821C1422.61 129.935 1421.04 131.733 1419.16 133.216C1417.29 134.682 1415.18 135.798 1412.85 136.565C1410.53 137.332 1408.05 137.716 1405.41 137.716C1400.94 137.716 1396.97 136.625 1393.49 134.443C1390.02 132.261 1387.28 129.159 1385.29 125.136C1383.29 121.114 1382.3 116.341 1382.3 110.818C1382.3 105.295 1383.29 100.523 1385.29 96.5C1387.28 92.4773 1390.02 89.375 1393.49 87.1932C1396.97 85.0114 1400.94 83.9205 1405.41 83.9205C1408.05 83.9205 1410.53 84.304 1412.85 85.071C1415.18 85.8381 1417.29 86.9631 1419.16 88.446C1421.04 89.9119 1422.61 91.7017 1423.87 93.8153C1425.13 95.9119 1426 98.3068 1426.48 101ZM1451.86 137.818C1448.31 137.818 1445.2 136.974 1442.53 135.287C1439.87 133.599 1437.79 131.239 1436.29 128.205C1434.81 125.17 1434.06 121.625 1434.06 117.568C1434.06 113.477 1434.81 109.906 1436.29 106.855C1437.79 103.804 1439.87 101.435 1442.53 99.7472C1445.2 98.0597 1448.31 97.2159 1451.86 97.2159C1455.41 97.2159 1458.51 98.0597 1461.17 99.7472C1463.84 101.435 1465.92 103.804 1467.41 106.855C1468.91 109.906 1469.66 113.477 1469.66 117.568C1469.66 121.625 1468.91 125.17 1467.41 128.205C1465.92 131.239 1463.84 133.599 1461.17 135.287C1458.51 136.974 1455.41 137.818 1451.86 137.818ZM1451.86 132.398C1454.55 132.398 1456.77 131.707 1458.51 130.327C1460.25 128.946 1461.53 127.131 1462.37 124.881C1463.2 122.631 1463.62 120.193 1463.62 117.568C1463.62 114.943 1463.2 112.497 1462.37 110.23C1461.53 107.963 1460.25 106.131 1458.51 104.733C1456.77 103.335 1454.55 102.636 1451.86 102.636C1449.17 102.636 1446.95 103.335 1445.21 104.733C1443.47 106.131 1442.19 107.963 1441.35 110.23C1440.52 112.497 1440.1 114.943 1440.1 117.568C1440.1 120.193 1440.52 122.631 1441.35 124.881C1442.19 127.131 1443.47 128.946 1445.21 130.327C1446.95 131.707 1449.17 132.398 1451.86 132.398ZM1484.9 113.375V137H1478.87V97.7273H1484.7V103.864H1485.21C1486.13 101.869 1487.53 100.267 1489.4 99.0568C1491.28 97.8295 1493.7 97.2159 1496.66 97.2159C1499.32 97.2159 1501.65 97.7614 1503.64 98.8523C1505.64 99.9261 1507.19 101.562 1508.3 103.761C1509.4 105.943 1509.96 108.705 1509.96 112.045V137H1503.92V112.455C1503.92 109.369 1503.12 106.966 1501.52 105.244C1499.92 103.506 1497.72 102.636 1494.92 102.636C1493 102.636 1491.28 103.054 1489.76 103.889C1488.26 104.724 1487.07 105.943 1486.2 107.545C1485.34 109.148 1484.9 111.091 1484.9 113.375ZM1527.02 113.375V137H1520.98V97.7273H1526.81V103.864H1527.32C1528.25 101.869 1529.64 100.267 1531.52 99.0568C1533.39 97.8295 1535.81 97.2159 1538.78 97.2159C1541.44 97.2159 1543.76 97.7614 1545.76 98.8523C1547.75 99.9261 1549.3 101.562 1550.41 103.761C1551.52 105.943 1552.07 108.705 1552.07 112.045V137H1546.04V112.455C1546.04 109.369 1545.24 106.966 1543.64 105.244C1542.03 103.506 1539.84 102.636 1537.04 102.636C1535.11 102.636 1533.39 103.054 1531.88 103.889C1530.38 104.724 1529.19 105.943 1528.32 107.545C1527.45 109.148 1527.02 111.091 1527.02 113.375ZM1579.57 137.818C1575.78 137.818 1572.52 136.983 1569.77 135.312C1567.05 133.625 1564.94 131.273 1563.46 128.256C1561.99 125.222 1561.26 121.693 1561.26 117.67C1561.26 113.648 1561.99 110.102 1563.46 107.034C1564.94 103.949 1567 101.545 1569.65 99.8239C1572.31 98.0852 1575.41 97.2159 1578.95 97.2159C1581 97.2159 1583.02 97.5568 1585.01 98.2386C1587.01 98.9205 1588.82 100.028 1590.46 101.562C1592.1 103.08 1593.4 105.091 1594.37 107.597C1595.34 110.102 1595.83 113.187 1595.83 116.852V119.409H1565.56V114.193H1589.69C1589.69 111.977 1589.25 110 1588.36 108.261C1587.49 106.523 1586.25 105.151 1584.63 104.145C1583.03 103.139 1581.13 102.636 1578.95 102.636C1576.55 102.636 1574.47 103.233 1572.71 104.426C1570.98 105.602 1569.64 107.136 1568.7 109.028C1567.76 110.92 1567.29 112.949 1567.29 115.114V118.591C1567.29 121.557 1567.81 124.071 1568.83 126.134C1569.87 128.179 1571.31 129.739 1573.15 130.812C1574.99 131.869 1577.13 132.398 1579.57 132.398C1581.15 132.398 1582.58 132.176 1583.86 131.733C1585.16 131.273 1586.27 130.591 1587.21 129.688C1588.15 128.767 1588.87 127.625 1589.38 126.261L1595.21 127.898C1594.6 129.875 1593.57 131.614 1592.12 133.114C1590.67 134.597 1588.88 135.756 1586.75 136.591C1584.62 137.409 1582.23 137.818 1579.57 137.818ZM1620.96 137.818C1617.28 137.818 1614.11 136.949 1611.45 135.21C1608.79 133.472 1606.75 131.077 1605.31 128.026C1603.88 124.974 1603.17 121.489 1603.17 117.568C1603.17 113.58 1603.9 110.06 1605.37 107.009C1606.85 103.94 1608.91 101.545 1611.55 99.8239C1614.21 98.0852 1617.31 97.2159 1620.86 97.2159C1623.62 97.2159 1626.11 97.7273 1628.33 98.75C1630.54 99.7727 1632.36 101.205 1633.77 103.045C1635.19 104.886 1636.06 107.034 1636.4 109.489H1630.37C1629.91 107.699 1628.89 106.114 1627.3 104.733C1625.73 103.335 1623.62 102.636 1620.96 102.636C1618.61 102.636 1616.55 103.25 1614.77 104.477C1613.02 105.687 1611.65 107.401 1610.66 109.616C1609.69 111.815 1609.2 114.398 1609.2 117.364C1609.2 120.398 1609.68 123.04 1610.63 125.29C1611.6 127.54 1612.97 129.287 1614.72 130.531C1616.5 131.776 1618.58 132.398 1620.96 132.398C1622.53 132.398 1623.95 132.125 1625.23 131.58C1626.51 131.034 1627.59 130.25 1628.48 129.227C1629.37 128.205 1630 126.977 1630.37 125.545H1636.4C1636.06 127.864 1635.22 129.952 1633.87 131.81C1632.54 133.651 1630.78 135.116 1628.58 136.207C1626.4 137.281 1623.86 137.818 1620.96 137.818ZM1662.31 97.7273V102.841H1641.95V97.7273H1662.31ZM1647.88 88.3182H1653.92V125.75C1653.92 127.455 1654.17 128.733 1654.66 129.585C1655.17 130.42 1655.82 130.983 1656.6 131.273C1657.4 131.545 1658.25 131.682 1659.13 131.682C1659.8 131.682 1660.35 131.648 1660.77 131.58C1661.2 131.494 1661.54 131.426 1661.79 131.375L1663.02 136.795C1662.61 136.949 1662.04 137.102 1661.31 137.256C1660.58 137.426 1659.65 137.511 1658.52 137.511C1656.82 137.511 1655.15 137.145 1653.51 136.412C1651.89 135.679 1650.54 134.562 1649.47 133.062C1648.41 131.562 1647.88 129.67 1647.88 127.386V88.3182Z" fill="black"/>
<path d="M2512.83 780.636V833H2506.49V787.284H2506.18L2493.4 795.773V789.33L2506.49 780.636H2512.83ZM2549.06 833V780.636H2555.4V803.955H2583.32V780.636H2589.66V833H2583.32V809.58H2555.4V833H2549.06ZM2617.49 833.818C2613.95 833.818 2610.84 832.974 2608.16 831.287C2605.5 829.599 2603.42 827.239 2601.92 824.205C2600.44 821.17 2599.7 817.625 2599.7 813.568C2599.7 809.477 2600.44 805.906 2601.92 802.855C2603.42 799.804 2605.5 797.435 2608.16 795.747C2610.84 794.06 2613.95 793.216 2617.49 793.216C2621.04 793.216 2624.14 794.06 2626.8 795.747C2629.48 797.435 2631.56 799.804 2633.04 802.855C2634.54 805.906 2635.29 809.477 2635.29 813.568C2635.29 817.625 2634.54 821.17 2633.04 824.205C2631.56 827.239 2629.48 829.599 2626.8 831.287C2624.14 832.974 2621.04 833.818 2617.49 833.818ZM2617.49 828.398C2620.19 828.398 2622.4 827.707 2624.14 826.327C2625.88 824.946 2627.17 823.131 2628 820.881C2628.84 818.631 2629.25 816.193 2629.25 813.568C2629.25 810.943 2628.84 808.497 2628 806.23C2627.17 803.963 2625.88 802.131 2624.14 800.733C2622.4 799.335 2620.19 798.636 2617.49 798.636C2614.8 798.636 2612.58 799.335 2610.85 800.733C2609.11 802.131 2607.82 803.963 2606.98 806.23C2606.15 808.497 2605.73 810.943 2605.73 813.568C2605.73 816.193 2606.15 818.631 2606.98 820.881C2607.82 823.131 2609.11 824.946 2610.85 826.327C2612.58 827.707 2614.8 828.398 2617.49 828.398ZM2669.25 816.943V793.727H2675.28V833H2669.25V826.352H2668.84C2667.92 828.347 2666.49 830.043 2664.54 831.44C2662.6 832.821 2660.15 833.511 2657.18 833.511C2654.73 833.511 2652.54 832.974 2650.64 831.901C2648.73 830.81 2647.23 829.173 2646.14 826.991C2645.04 824.793 2644.5 822.023 2644.5 818.682V793.727H2650.53V818.273C2650.53 821.136 2651.33 823.42 2652.94 825.125C2654.56 826.83 2656.62 827.682 2659.12 827.682C2660.62 827.682 2662.15 827.298 2663.7 826.531C2665.27 825.764 2666.58 824.588 2667.64 823.003C2668.71 821.418 2669.25 819.398 2669.25 816.943ZM2686.34 833V793.727H2692.16V799.659H2692.57C2693.29 797.716 2694.59 796.139 2696.46 794.929C2698.34 793.719 2700.45 793.114 2702.8 793.114C2703.24 793.114 2703.8 793.122 2704.46 793.139C2705.13 793.156 2705.63 793.182 2705.97 793.216V799.352C2705.77 799.301 2705.3 799.224 2704.57 799.122C2703.85 799.003 2703.09 798.943 2702.29 798.943C2700.38 798.943 2698.68 799.344 2697.18 800.145C2695.69 800.929 2694.52 802.02 2693.65 803.418C2692.8 804.798 2692.37 806.375 2692.37 808.148V833H2686.34Z" fill="black"/>
<path d="M299.83 784.636V837H293.489V791.284H293.182L280.398 799.773V793.33L293.489 784.636H299.83ZM336.06 837V784.636H342.401V807.955H370.321V784.636H376.662V837H370.321V813.58H342.401V837H336.06ZM404.493 837.818C400.947 837.818 397.837 836.974 395.161 835.287C392.501 833.599 390.422 831.239 388.922 828.205C387.439 825.17 386.697 821.625 386.697 817.568C386.697 813.477 387.439 809.906 388.922 806.855C390.422 803.804 392.501 801.435 395.161 799.747C397.837 798.06 400.947 797.216 404.493 797.216C408.038 797.216 411.141 798.06 413.8 799.747C416.476 801.435 418.555 803.804 420.038 806.855C421.538 809.906 422.288 813.477 422.288 817.568C422.288 821.625 421.538 825.17 420.038 828.205C418.555 831.239 416.476 833.599 413.8 835.287C411.141 836.974 408.038 837.818 404.493 837.818ZM404.493 832.398C407.186 832.398 409.402 831.707 411.141 830.327C412.879 828.946 414.166 827.131 415.001 824.881C415.837 822.631 416.254 820.193 416.254 817.568C416.254 814.943 415.837 812.497 415.001 810.23C414.166 807.963 412.879 806.131 411.141 804.733C409.402 803.335 407.186 802.636 404.493 802.636C401.8 802.636 399.584 803.335 397.845 804.733C396.107 806.131 394.82 807.963 393.984 810.23C393.149 812.497 392.732 814.943 392.732 817.568C392.732 820.193 393.149 822.631 393.984 824.881C394.82 827.131 396.107 828.946 397.845 830.327C399.584 831.707 401.8 832.398 404.493 832.398ZM456.249 820.943V797.727H462.283V837H456.249V830.352H455.84C454.92 832.347 453.488 834.043 451.545 835.44C449.602 836.821 447.147 837.511 444.181 837.511C441.727 837.511 439.545 836.974 437.636 835.901C435.727 834.81 434.227 833.173 433.136 830.991C432.045 828.793 431.499 826.023 431.499 822.682V797.727H437.533V822.273C437.533 825.136 438.335 827.42 439.937 829.125C441.556 830.83 443.619 831.682 446.124 831.682C447.624 831.682 449.15 831.298 450.701 830.531C452.269 829.764 453.582 828.588 454.638 827.003C455.712 825.418 456.249 823.398 456.249 820.943ZM473.335 837V797.727H479.165V803.659H479.574C480.29 801.716 481.585 800.139 483.46 798.929C485.335 797.719 487.449 797.114 489.801 797.114C490.244 797.114 490.798 797.122 491.463 797.139C492.128 797.156 492.631 797.182 492.972 797.216V803.352C492.767 803.301 492.298 803.224 491.565 803.122C490.849 803.003 490.091 802.943 489.29 802.943C487.381 802.943 485.676 803.344 484.176 804.145C482.693 804.929 481.517 806.02 480.648 807.418C479.795 808.798 479.369 810.375 479.369 812.148V837H473.335Z" fill="black"/>
<path d="M2450.34 1268.64H2457.91L2475.7 1312.1H2476.32L2494.11 1268.64H2501.68V1321H2495.75V1281.22H2495.24L2478.88 1321H2473.15L2456.78 1281.22H2456.27V1321H2450.34V1268.64ZM2530.04 1321.82C2526.26 1321.82 2523 1320.98 2520.25 1319.31C2517.52 1317.62 2515.42 1315.27 2513.94 1312.26C2512.47 1309.22 2511.74 1305.69 2511.74 1301.67C2511.74 1297.65 2512.47 1294.1 2513.94 1291.03C2515.42 1287.95 2517.48 1285.55 2520.12 1283.82C2522.78 1282.09 2525.88 1281.22 2529.43 1281.22C2531.48 1281.22 2533.5 1281.56 2535.49 1282.24C2537.48 1282.92 2539.3 1284.03 2540.94 1285.56C2542.57 1287.08 2543.88 1289.09 2544.85 1291.6C2545.82 1294.1 2546.3 1297.19 2546.3 1300.85V1303.41H2516.03V1298.19H2540.17C2540.17 1295.98 2539.73 1294 2538.84 1292.26C2537.97 1290.52 2536.73 1289.15 2535.11 1288.14C2533.5 1287.14 2531.61 1286.64 2529.43 1286.64C2527.03 1286.64 2524.95 1287.23 2523.19 1288.43C2521.45 1289.6 2520.11 1291.14 2519.18 1293.03C2518.24 1294.92 2517.77 1296.95 2517.77 1299.11V1302.59C2517.77 1305.56 2518.28 1308.07 2519.3 1310.13C2520.34 1312.18 2521.78 1313.74 2523.63 1314.81C2525.47 1315.87 2527.61 1316.4 2530.04 1316.4C2531.63 1316.4 2533.06 1316.18 2534.34 1315.73C2535.63 1315.27 2536.75 1314.59 2537.69 1313.69C2538.63 1312.77 2539.35 1311.62 2539.86 1310.26L2545.69 1311.9C2545.08 1313.88 2544.05 1315.61 2542.6 1317.11C2541.15 1318.6 2539.36 1319.76 2537.23 1320.59C2535.1 1321.41 2532.7 1321.82 2530.04 1321.82ZM2583.3 1290.52L2577.88 1292.06C2577.54 1291.15 2577.04 1290.28 2576.37 1289.42C2575.73 1288.55 2574.84 1287.84 2573.71 1287.28C2572.59 1286.71 2571.15 1286.43 2569.39 1286.43C2566.99 1286.43 2564.99 1286.99 2563.38 1288.09C2561.8 1289.18 2561.01 1290.57 2561.01 1292.26C2561.01 1293.76 2561.55 1294.95 2562.64 1295.82C2563.73 1296.68 2565.44 1297.41 2567.76 1297.99L2573.59 1299.42C2577.1 1300.27 2579.71 1301.58 2581.44 1303.33C2583.16 1305.07 2584.02 1307.31 2584.02 1310.06C2584.02 1312.31 2583.37 1314.32 2582.07 1316.09C2580.8 1317.86 2579.01 1319.26 2576.71 1320.28C2574.4 1321.31 2571.73 1321.82 2568.68 1321.82C2564.67 1321.82 2561.36 1320.95 2558.73 1319.21C2556.11 1317.47 2554.44 1314.93 2553.75 1311.59L2559.47 1310.16C2560.02 1312.27 2561.05 1313.86 2562.57 1314.91C2564.1 1315.97 2566.1 1316.5 2568.57 1316.5C2571.39 1316.5 2573.62 1315.9 2575.27 1314.71C2576.94 1313.5 2577.78 1312.05 2577.78 1310.36C2577.78 1309 2577.3 1307.86 2576.35 1306.94C2575.39 1306 2573.93 1305.3 2571.95 1304.84L2565.4 1303.31C2561.81 1302.45 2559.17 1301.13 2557.48 1299.34C2555.81 1297.54 2554.97 1295.28 2554.97 1292.57C2554.97 1290.35 2555.59 1288.39 2556.84 1286.69C2558.1 1284.98 2559.81 1283.64 2561.98 1282.67C2564.16 1281.7 2566.63 1281.22 2569.39 1281.22C2573.28 1281.22 2576.33 1282.07 2578.55 1283.77C2580.78 1285.48 2582.36 1287.73 2583.3 1290.52ZM2620.92 1290.52L2615.5 1292.06C2615.16 1291.15 2614.65 1290.28 2613.99 1289.42C2613.34 1288.55 2612.46 1287.84 2611.33 1287.28C2610.21 1286.71 2608.77 1286.43 2607.01 1286.43C2604.61 1286.43 2602.6 1286.99 2601 1288.09C2599.42 1289.18 2598.62 1290.57 2598.62 1292.26C2598.62 1293.76 2599.17 1294.95 2600.26 1295.82C2601.35 1296.68 2603.06 1297.41 2605.37 1297.99L2611.2 1299.42C2614.71 1300.27 2617.33 1301.58 2619.05 1303.33C2620.77 1305.07 2621.63 1307.31 2621.63 1310.06C2621.63 1312.31 2620.99 1314.32 2619.69 1316.09C2618.41 1317.86 2616.62 1319.26 2614.32 1320.28C2612.02 1321.31 2609.35 1321.82 2606.29 1321.82C2602.29 1321.82 2598.97 1320.95 2596.35 1319.21C2593.72 1317.47 2592.06 1314.93 2591.36 1311.59L2597.09 1310.16C2597.63 1312.27 2598.67 1313.86 2600.18 1314.91C2601.72 1315.97 2603.72 1316.5 2606.19 1316.5C2609 1316.5 2611.24 1315.9 2612.89 1314.71C2614.56 1313.5 2615.4 1312.05 2615.4 1310.36C2615.4 1309 2614.92 1307.86 2613.96 1306.94C2613.01 1306 2611.54 1305.3 2609.57 1304.84L2603.02 1303.31C2599.42 1302.45 2596.78 1301.13 2595.1 1299.34C2593.42 1297.54 2592.59 1295.28 2592.59 1292.57C2592.59 1290.35 2593.21 1288.39 2594.46 1286.69C2595.72 1284.98 2597.43 1283.64 2599.6 1282.67C2601.78 1281.7 2604.25 1281.22 2607.01 1281.22C2610.9 1281.22 2613.95 1282.07 2616.16 1283.77C2618.4 1285.48 2619.98 1287.73 2620.92 1290.52ZM2642.27 1321.92C2639.79 1321.92 2637.53 1321.45 2635.5 1320.51C2633.47 1319.56 2631.86 1318.19 2630.67 1316.4C2629.47 1314.59 2628.88 1312.41 2628.88 1309.85C2628.88 1307.6 2629.32 1305.78 2630.21 1304.38C2631.09 1302.97 2632.28 1301.86 2633.76 1301.06C2635.24 1300.26 2636.88 1299.66 2638.67 1299.27C2640.48 1298.86 2642.29 1298.53 2644.12 1298.3C2646.5 1297.99 2648.44 1297.76 2649.92 1297.61C2651.42 1297.43 2652.51 1297.15 2653.19 1296.76C2653.89 1296.37 2654.24 1295.69 2654.24 1294.72V1294.51C2654.24 1291.99 2653.55 1290.03 2652.17 1288.63C2650.81 1287.23 2648.74 1286.53 2645.96 1286.53C2643.08 1286.53 2640.82 1287.16 2639.18 1288.43C2637.54 1289.69 2636.39 1291.03 2635.73 1292.47L2630 1290.42C2631.02 1288.03 2632.39 1286.18 2634.09 1284.85C2635.81 1283.5 2637.69 1282.56 2639.72 1282.03C2641.76 1281.49 2643.77 1281.22 2645.75 1281.22C2647.01 1281.22 2648.46 1281.37 2650.1 1281.68C2651.75 1281.97 2653.35 1282.57 2654.88 1283.49C2656.43 1284.41 2657.72 1285.8 2658.74 1287.66C2659.76 1289.52 2660.27 1292.01 2660.27 1295.12V1321H2654.24V1315.68H2653.93C2653.52 1316.53 2652.84 1317.45 2651.89 1318.42C2650.93 1319.39 2649.66 1320.22 2648.08 1320.9C2646.49 1321.58 2644.56 1321.92 2642.27 1321.92ZM2643.2 1316.5C2645.58 1316.5 2647.59 1316.03 2649.23 1315.09C2650.88 1314.16 2652.13 1312.95 2652.96 1311.46C2653.81 1309.98 2654.24 1308.42 2654.24 1306.78V1301.26C2653.99 1301.57 2653.42 1301.85 2652.55 1302.11C2651.7 1302.34 2650.71 1302.56 2649.59 1302.74C2648.48 1302.91 2647.4 1303.07 2646.34 1303.2C2645.3 1303.32 2644.46 1303.43 2643.81 1303.51C2642.24 1303.72 2640.77 1304.05 2639.41 1304.51C2638.06 1304.95 2636.97 1305.62 2636.14 1306.53C2635.32 1307.41 2634.91 1308.62 2634.91 1310.16C2634.91 1312.26 2635.69 1313.84 2637.24 1314.91C2638.81 1315.97 2640.79 1316.5 2643.2 1316.5ZM2687.14 1336.55C2684.23 1336.55 2681.72 1336.17 2679.62 1335.42C2677.53 1334.69 2675.78 1333.72 2674.38 1332.51C2673 1331.31 2671.9 1330.03 2671.08 1328.67L2675.89 1325.3C2676.44 1326.01 2677.13 1326.83 2677.96 1327.75C2678.8 1328.69 2679.94 1329.5 2681.39 1330.18C2682.85 1330.88 2684.77 1331.23 2687.14 1331.23C2690.31 1331.23 2692.93 1330.46 2694.99 1328.93C2697.05 1327.39 2698.08 1324.99 2698.08 1321.72V1313.74H2697.57C2697.13 1314.45 2696.5 1315.34 2695.68 1316.4C2694.88 1317.44 2693.72 1318.37 2692.2 1319.18C2690.7 1319.99 2688.67 1320.39 2686.12 1320.39C2682.95 1320.39 2680.1 1319.64 2677.58 1318.14C2675.07 1316.64 2673.09 1314.45 2671.62 1311.59C2670.17 1308.73 2669.45 1305.25 2669.45 1301.16C2669.45 1297.14 2670.15 1293.63 2671.57 1290.65C2672.98 1287.65 2674.95 1285.33 2677.48 1283.7C2680 1282.04 2682.91 1281.22 2686.22 1281.22C2688.78 1281.22 2690.81 1281.64 2692.31 1282.49C2693.82 1283.33 2694.98 1284.28 2695.78 1285.36C2696.6 1286.41 2697.23 1287.28 2697.67 1287.97H2698.29V1281.73H2704.12V1322.12C2704.12 1325.5 2703.35 1328.24 2701.82 1330.36C2700.3 1332.49 2698.25 1334.05 2695.68 1335.04C2693.12 1336.04 2690.28 1336.55 2687.14 1336.55ZM2686.94 1314.97C2689.36 1314.97 2691.4 1314.41 2693.07 1313.3C2694.74 1312.2 2696.01 1310.6 2696.88 1308.52C2697.75 1306.44 2698.19 1303.95 2698.19 1301.06C2698.19 1298.23 2697.76 1295.73 2696.91 1293.57C2696.06 1291.4 2694.79 1289.7 2693.12 1288.48C2691.45 1287.25 2689.39 1286.64 2686.94 1286.64C2684.38 1286.64 2682.25 1287.28 2680.54 1288.58C2678.86 1289.87 2677.59 1291.61 2676.73 1293.8C2675.9 1295.98 2675.48 1298.4 2675.48 1301.06C2675.48 1303.78 2675.91 1306.2 2676.76 1308.29C2677.63 1310.37 2678.91 1312.01 2680.6 1313.2C2682.3 1314.38 2684.41 1314.97 2686.94 1314.97ZM2731.63 1321.82C2727.85 1321.82 2724.58 1320.98 2721.84 1319.31C2719.11 1317.62 2717 1315.27 2715.52 1312.26C2714.06 1309.22 2713.32 1305.69 2713.32 1301.67C2713.32 1297.65 2714.06 1294.1 2715.52 1291.03C2717 1287.95 2719.07 1285.55 2721.71 1283.82C2724.37 1282.09 2727.47 1281.22 2731.02 1281.22C2733.06 1281.22 2735.08 1281.56 2737.08 1282.24C2739.07 1282.92 2740.88 1284.03 2742.52 1285.56C2744.16 1287.08 2745.46 1289.09 2746.43 1291.6C2747.4 1294.1 2747.89 1297.19 2747.89 1300.85V1303.41H2717.62V1298.19H2741.75C2741.75 1295.98 2741.31 1294 2740.42 1292.26C2739.56 1290.52 2738.31 1289.15 2736.69 1288.14C2735.09 1287.14 2733.2 1286.64 2731.02 1286.64C2728.61 1286.64 2726.53 1287.23 2724.78 1288.43C2723.04 1289.6 2721.7 1291.14 2720.76 1293.03C2719.83 1294.92 2719.36 1296.95 2719.36 1299.11V1302.59C2719.36 1305.56 2719.87 1308.07 2720.89 1310.13C2721.93 1312.18 2723.37 1313.74 2725.21 1314.81C2727.05 1315.87 2729.19 1316.4 2731.63 1316.4C2733.21 1316.4 2734.65 1316.18 2735.92 1315.73C2737.22 1315.27 2738.34 1314.59 2739.27 1313.69C2740.21 1312.77 2740.94 1311.62 2741.45 1310.26L2747.28 1311.9C2746.66 1313.88 2745.63 1315.61 2744.18 1317.11C2742.73 1318.6 2740.94 1319.76 2738.81 1320.59C2736.68 1321.41 2734.29 1321.82 2731.63 1321.82Z" fill="black"/>
<path d="M2529.83 1771.64V1824H2523.49V1778.28H2523.18L2510.4 1786.77V1780.33L2523.49 1771.64H2529.83ZM2582.22 1824H2566.06V1771.64H2582.93C2588.01 1771.64 2592.36 1772.68 2595.97 1774.78C2599.59 1776.86 2602.36 1779.85 2604.28 1783.76C2606.21 1787.64 2607.17 1792.3 2607.17 1797.72C2607.17 1803.17 2606.2 1807.87 2604.26 1811.8C2602.32 1815.72 2599.49 1818.74 2595.77 1820.86C2592.05 1822.95 2587.54 1824 2582.22 1824ZM2572.4 1818.38H2581.81C2586.14 1818.38 2589.73 1817.54 2592.57 1815.87C2595.42 1814.2 2597.54 1811.82 2598.94 1808.74C2600.34 1805.65 2601.04 1801.98 2601.04 1797.72C2601.04 1793.49 2600.35 1789.85 2598.97 1786.8C2597.59 1783.73 2595.52 1781.38 2592.78 1779.74C2590.03 1778.09 2586.62 1777.26 2582.53 1777.26H2572.4V1818.38ZM2628.55 1824.92C2626.06 1824.92 2623.8 1824.45 2621.77 1823.51C2619.74 1822.56 2618.13 1821.19 2616.94 1819.4C2615.75 1817.59 2615.15 1815.41 2615.15 1812.85C2615.15 1810.6 2615.59 1808.78 2616.48 1807.38C2617.37 1805.97 2618.55 1804.86 2620.03 1804.06C2621.52 1803.26 2623.15 1802.66 2624.94 1802.27C2626.75 1801.86 2628.57 1801.53 2630.39 1801.3C2632.78 1800.99 2634.71 1800.76 2636.19 1800.61C2637.69 1800.43 2638.78 1800.15 2639.47 1799.76C2640.16 1799.37 2640.51 1798.69 2640.51 1797.72V1797.51C2640.51 1794.99 2639.82 1793.03 2638.44 1791.63C2637.08 1790.23 2635.01 1789.53 2632.23 1789.53C2629.35 1789.53 2627.09 1790.16 2625.45 1791.43C2623.82 1792.69 2622.67 1794.03 2622 1795.47L2616.28 1793.42C2617.3 1791.03 2618.66 1789.18 2620.37 1787.85C2622.09 1786.5 2623.96 1785.56 2625.99 1785.03C2628.04 1784.49 2630.05 1784.22 2632.03 1784.22C2633.29 1784.22 2634.74 1784.37 2636.37 1784.68C2638.03 1784.97 2639.62 1785.57 2641.15 1786.49C2642.7 1787.41 2643.99 1788.8 2645.01 1790.66C2646.04 1792.52 2646.55 1795.01 2646.55 1798.12V1824H2640.51V1818.68H2640.21C2639.8 1819.53 2639.12 1820.45 2638.16 1821.42C2637.21 1822.39 2635.94 1823.22 2634.35 1823.9C2632.77 1824.58 2630.83 1824.92 2628.55 1824.92ZM2629.47 1819.5C2631.86 1819.5 2633.87 1819.03 2635.5 1818.09C2637.16 1817.16 2638.4 1815.95 2639.24 1814.46C2640.09 1812.98 2640.51 1811.42 2640.51 1809.78V1804.26C2640.26 1804.57 2639.7 1804.85 2638.83 1805.11C2637.97 1805.34 2636.99 1805.56 2635.86 1805.74C2634.75 1805.91 2633.67 1806.07 2632.61 1806.2C2631.57 1806.32 2630.73 1806.43 2630.08 1806.51C2628.51 1806.72 2627.05 1807.05 2625.68 1807.51C2624.34 1807.95 2623.25 1808.62 2622.41 1809.53C2621.59 1810.41 2621.18 1811.62 2621.18 1813.16C2621.18 1815.26 2621.96 1816.84 2623.51 1817.91C2625.08 1818.97 2627.07 1819.5 2629.47 1819.5ZM2660.04 1838.73C2659.02 1838.73 2658.11 1838.64 2657.31 1838.47C2656.5 1838.32 2655.95 1838.16 2655.64 1838.01L2657.18 1832.69C2658.64 1833.07 2659.94 1833.2 2661.06 1833.1C2662.19 1833 2663.19 1832.5 2664.06 1831.59C2664.94 1830.71 2665.75 1829.27 2666.49 1827.27L2667.61 1824.2L2653.09 1784.73H2659.63L2670.47 1816.02H2670.88L2681.72 1784.73H2688.27L2671.6 1829.73C2670.85 1831.76 2669.92 1833.43 2668.81 1834.76C2667.7 1836.11 2666.42 1837.11 2664.95 1837.76C2663.5 1838.4 2661.87 1838.73 2660.04 1838.73Z" fill="black"/>
<path d="M102.341 1811V1758.64H133.943V1764.26H108.682V1781.95H132.307V1787.58H108.682V1805.38H134.352V1811H102.341ZM150.588 1787.38V1811H144.554V1771.73H150.384V1777.86H150.895C151.815 1775.87 153.213 1774.27 155.088 1773.06C156.963 1771.83 159.384 1771.22 162.349 1771.22C165.009 1771.22 167.335 1771.76 169.33 1772.85C171.324 1773.93 172.875 1775.56 173.983 1777.76C175.091 1779.94 175.645 1782.7 175.645 1786.05V1811H169.611V1786.45C169.611 1783.37 168.81 1780.97 167.207 1779.24C165.605 1777.51 163.406 1776.64 160.611 1776.64C158.685 1776.64 156.963 1777.05 155.446 1777.89C153.946 1778.72 152.761 1779.94 151.892 1781.55C151.023 1783.15 150.588 1785.09 150.588 1787.38ZM201.501 1811.82C198.228 1811.82 195.339 1810.99 192.833 1809.34C190.327 1807.67 188.367 1805.32 186.952 1802.28C185.538 1799.23 184.83 1795.62 184.83 1791.47C184.83 1787.34 185.538 1783.76 186.952 1780.73C188.367 1777.69 190.336 1775.35 192.859 1773.7C195.381 1772.04 198.296 1771.22 201.603 1771.22C204.16 1771.22 206.18 1771.64 207.663 1772.49C209.163 1773.33 210.305 1774.28 211.089 1775.36C211.89 1776.41 212.512 1777.28 212.955 1777.97H213.467V1758.64H219.501V1811H213.671V1804.97H212.955C212.512 1805.68 211.881 1806.59 211.063 1807.68C210.245 1808.75 209.077 1809.71 207.56 1810.57C206.043 1811.4 204.023 1811.82 201.501 1811.82ZM202.319 1806.4C204.739 1806.4 206.785 1805.77 208.455 1804.51C210.126 1803.23 211.396 1801.46 212.265 1799.21C213.134 1796.95 213.569 1794.33 213.569 1791.36C213.569 1788.43 213.143 1785.87 212.29 1783.67C211.438 1781.45 210.177 1779.73 208.506 1778.5C206.836 1777.26 204.773 1776.64 202.319 1776.64C199.762 1776.64 197.631 1777.29 195.927 1778.61C194.239 1779.9 192.969 1781.66 192.117 1783.9C191.282 1786.11 190.864 1788.6 190.864 1791.36C190.864 1794.16 191.29 1796.7 192.143 1798.98C193.012 1801.25 194.29 1803.06 195.978 1804.4C197.683 1805.73 199.796 1806.4 202.319 1806.4ZM267.594 1811.82C264.049 1811.82 260.938 1810.97 258.262 1809.29C255.603 1807.6 253.523 1805.24 252.023 1802.2C250.54 1799.17 249.799 1795.62 249.799 1791.57C249.799 1787.48 250.54 1783.91 252.023 1780.86C253.523 1777.8 255.603 1775.43 258.262 1773.75C260.938 1772.06 264.049 1771.22 267.594 1771.22C271.14 1771.22 274.242 1772.06 276.901 1773.75C279.577 1775.43 281.657 1777.8 283.14 1780.86C284.64 1783.91 285.39 1787.48 285.39 1791.57C285.39 1795.62 284.64 1799.17 283.14 1802.2C281.657 1805.24 279.577 1807.6 276.901 1809.29C274.242 1810.97 271.14 1811.82 267.594 1811.82ZM267.594 1806.4C270.288 1806.4 272.504 1805.71 274.242 1804.33C275.981 1802.95 277.268 1801.13 278.103 1798.88C278.938 1796.63 279.356 1794.19 279.356 1791.57C279.356 1788.94 278.938 1786.5 278.103 1784.23C277.268 1781.96 275.981 1780.13 274.242 1778.73C272.504 1777.34 270.288 1776.64 267.594 1776.64C264.901 1776.64 262.685 1777.34 260.947 1778.73C259.208 1780.13 257.921 1781.96 257.086 1784.23C256.251 1786.5 255.833 1788.94 255.833 1791.57C255.833 1794.19 256.251 1796.63 257.086 1798.88C257.921 1801.13 259.208 1802.95 260.947 1804.33C262.685 1805.71 264.901 1806.4 267.594 1806.4ZM312.089 1771.73V1776.84H290.919V1771.73H312.089ZM297.26 1811V1766.31C297.26 1764.06 297.788 1762.18 298.845 1760.68C299.902 1759.18 301.274 1758.06 302.962 1757.31C304.649 1756.56 306.43 1756.18 308.305 1756.18C309.788 1756.18 310.999 1756.3 311.936 1756.54C312.874 1756.78 313.572 1757 314.033 1757.2L312.294 1762.42C311.987 1762.32 311.561 1762.19 311.016 1762.04C310.487 1761.88 309.788 1761.81 308.919 1761.81C306.925 1761.81 305.484 1762.31 304.598 1763.32C303.729 1764.32 303.294 1765.8 303.294 1767.74V1811H297.26ZM370.251 1771.73C369.944 1769.14 368.7 1767.12 366.518 1765.69C364.336 1764.26 361.66 1763.55 358.489 1763.55C356.171 1763.55 354.143 1763.92 352.404 1764.67C350.683 1765.42 349.336 1766.45 348.364 1767.76C347.41 1769.08 346.933 1770.57 346.933 1772.24C346.933 1773.64 347.265 1774.84 347.93 1775.84C348.612 1776.83 349.481 1777.66 350.538 1778.32C351.594 1778.97 352.702 1779.51 353.862 1779.93C355.021 1780.34 356.086 1780.68 357.058 1780.93L362.376 1782.36C363.739 1782.72 365.256 1783.22 366.927 1783.85C368.614 1784.48 370.225 1785.34 371.759 1786.43C373.31 1787.5 374.589 1788.88 375.594 1790.57C376.6 1792.26 377.103 1794.33 377.103 1796.78C377.103 1799.61 376.362 1802.17 374.879 1804.45C373.413 1806.74 371.265 1808.55 368.435 1809.9C365.623 1811.25 362.205 1811.92 358.183 1811.92C354.433 1811.92 351.185 1811.32 348.441 1810.11C345.714 1808.89 343.566 1807.21 341.998 1805.04C340.447 1802.88 339.569 1800.36 339.364 1797.5H345.91C346.08 1799.48 346.745 1801.11 347.904 1802.41C349.08 1803.69 350.563 1804.64 352.353 1805.27C354.16 1805.89 356.103 1806.19 358.183 1806.19C360.603 1806.19 362.776 1805.8 364.702 1805.02C366.629 1804.22 368.154 1803.11 369.279 1801.69C370.404 1800.26 370.967 1798.59 370.967 1796.68C370.967 1794.94 370.481 1793.53 369.509 1792.44C368.538 1791.35 367.259 1790.46 365.674 1789.78C364.089 1789.1 362.376 1788.5 360.535 1787.99L354.092 1786.15C350.001 1784.97 346.762 1783.29 344.376 1781.11C341.989 1778.93 340.796 1776.07 340.796 1772.55C340.796 1769.61 341.589 1767.06 343.174 1764.88C344.776 1762.68 346.924 1760.97 349.617 1759.76C352.327 1758.53 355.353 1757.92 358.694 1757.92C362.069 1757.92 365.069 1758.53 367.694 1759.74C370.319 1760.93 372.398 1762.57 373.933 1764.64C375.484 1766.72 376.302 1769.09 376.387 1771.73H370.251ZM403.176 1811.82C399.392 1811.82 396.128 1810.98 393.384 1809.31C390.656 1807.62 388.551 1805.27 387.068 1802.26C385.602 1799.22 384.869 1795.69 384.869 1791.67C384.869 1787.65 385.602 1784.1 387.068 1781.03C388.551 1777.95 390.614 1775.55 393.256 1773.82C395.915 1772.09 399.017 1771.22 402.562 1771.22C404.608 1771.22 406.628 1771.56 408.622 1772.24C410.616 1772.92 412.432 1774.03 414.068 1775.56C415.705 1777.08 417.009 1779.09 417.98 1781.6C418.952 1784.1 419.438 1787.19 419.438 1790.85V1793.41H389.165V1788.19H413.301C413.301 1785.98 412.858 1784 411.972 1782.26C411.102 1780.52 409.858 1779.15 408.239 1778.14C406.636 1777.14 404.744 1776.64 402.562 1776.64C400.159 1776.64 398.08 1777.23 396.324 1778.43C394.585 1779.6 393.247 1781.14 392.31 1783.03C391.372 1784.92 390.903 1786.95 390.903 1789.11V1792.59C390.903 1795.56 391.415 1798.07 392.438 1800.13C393.477 1802.18 394.918 1803.74 396.759 1804.81C398.599 1805.87 400.739 1806.4 403.176 1806.4C404.761 1806.4 406.193 1806.18 407.472 1805.73C408.767 1805.27 409.884 1804.59 410.821 1803.69C411.759 1802.77 412.483 1801.62 412.994 1800.26L418.824 1801.9C418.21 1803.88 417.179 1805.61 415.73 1807.11C414.281 1808.6 412.491 1809.76 410.361 1810.59C408.23 1811.41 405.835 1811.82 403.176 1811.82ZM455.412 1825.73V1804.97H454.901C454.457 1805.68 453.827 1806.59 453.009 1807.68C452.19 1808.75 451.023 1809.71 449.506 1810.57C447.989 1811.4 445.969 1811.82 443.446 1811.82C440.173 1811.82 437.284 1810.99 434.778 1809.34C432.273 1807.67 430.313 1805.32 428.898 1802.28C427.483 1799.23 426.776 1795.62 426.776 1791.47C426.776 1787.34 427.483 1783.76 428.898 1780.73C430.313 1777.69 432.281 1775.35 434.804 1773.7C437.327 1772.04 440.241 1771.22 443.548 1771.22C446.105 1771.22 448.125 1771.64 449.608 1772.49C451.108 1773.33 452.25 1774.28 453.034 1775.36C453.835 1776.41 454.457 1777.28 454.901 1777.97H455.616V1771.73H461.446V1825.73H455.412ZM444.264 1806.4C446.685 1806.4 448.73 1805.77 450.401 1804.51C452.071 1803.23 453.341 1801.46 454.21 1799.21C455.08 1796.95 455.514 1794.33 455.514 1791.36C455.514 1788.43 455.088 1785.87 454.236 1783.67C453.384 1781.45 452.122 1779.73 450.452 1778.5C448.781 1777.26 446.719 1776.64 444.264 1776.64C441.707 1776.64 439.577 1777.29 437.872 1778.61C436.185 1779.9 434.915 1781.66 434.062 1783.9C433.227 1786.11 432.81 1788.6 432.81 1791.36C432.81 1794.16 433.236 1796.7 434.088 1798.98C434.957 1801.25 436.236 1803.06 437.923 1804.4C439.628 1805.73 441.741 1806.4 444.264 1806.4ZM497.241 1794.94V1771.73H503.276V1811H497.241V1804.35H496.832C495.912 1806.35 494.48 1808.04 492.537 1809.44C490.594 1810.82 488.139 1811.51 485.173 1811.51C482.719 1811.51 480.537 1810.97 478.628 1809.9C476.719 1808.81 475.219 1807.17 474.128 1804.99C473.037 1802.79 472.491 1800.02 472.491 1796.68V1771.73H478.526V1796.27C478.526 1799.14 479.327 1801.42 480.929 1803.12C482.548 1804.83 484.611 1805.68 487.116 1805.68C488.616 1805.68 490.142 1805.3 491.693 1804.53C493.261 1803.76 494.574 1802.59 495.631 1801C496.705 1799.42 497.241 1797.4 497.241 1794.94ZM530.793 1811.82C527.009 1811.82 523.745 1810.98 521.001 1809.31C518.273 1807.62 516.168 1805.27 514.685 1802.26C513.219 1799.22 512.487 1795.69 512.487 1791.67C512.487 1787.65 513.219 1784.1 514.685 1781.03C516.168 1777.95 518.231 1775.55 520.873 1773.82C523.532 1772.09 526.634 1771.22 530.18 1771.22C532.225 1771.22 534.245 1771.56 536.239 1772.24C538.234 1772.92 540.049 1774.03 541.685 1775.56C543.322 1777.08 544.626 1779.09 545.597 1781.6C546.569 1784.1 547.055 1787.19 547.055 1790.85V1793.41H516.782V1788.19H540.918C540.918 1785.98 540.475 1784 539.589 1782.26C538.719 1780.52 537.475 1779.15 535.856 1778.14C534.254 1777.14 532.362 1776.64 530.18 1776.64C527.776 1776.64 525.697 1777.23 523.941 1778.43C522.202 1779.6 520.864 1781.14 519.927 1783.03C518.989 1784.92 518.521 1786.95 518.521 1789.11V1792.59C518.521 1795.56 519.032 1798.07 520.055 1800.13C521.094 1802.18 522.535 1803.74 524.376 1804.81C526.217 1805.87 528.356 1806.4 530.793 1806.4C532.379 1806.4 533.81 1806.18 535.089 1805.73C536.384 1805.27 537.501 1804.59 538.438 1803.69C539.376 1802.77 540.1 1801.62 540.612 1800.26L546.441 1801.9C545.827 1803.88 544.796 1805.61 543.347 1807.11C541.898 1808.6 540.109 1809.76 537.978 1810.59C535.847 1811.41 533.452 1811.82 530.793 1811.82ZM562.268 1787.38V1811H556.234V1771.73H562.063V1777.86H562.575C563.495 1775.87 564.893 1774.27 566.768 1773.06C568.643 1771.83 571.063 1771.22 574.029 1771.22C576.688 1771.22 579.015 1771.76 581.009 1772.85C583.004 1773.93 584.555 1775.56 585.663 1777.76C586.771 1779.94 587.325 1782.7 587.325 1786.05V1811H581.29V1786.45C581.29 1783.37 580.489 1780.97 578.887 1779.24C577.285 1777.51 575.086 1776.64 572.29 1776.64C570.364 1776.64 568.643 1777.05 567.126 1777.89C565.626 1778.72 564.441 1779.94 563.572 1781.55C562.702 1783.15 562.268 1785.09 562.268 1787.38ZM614.305 1811.82C610.624 1811.82 607.453 1810.95 604.794 1809.21C602.135 1807.47 600.089 1805.08 598.658 1802.03C597.226 1798.97 596.51 1795.49 596.51 1791.57C596.51 1787.58 597.243 1784.06 598.709 1781.01C600.192 1777.94 602.254 1775.55 604.896 1773.82C607.555 1772.09 610.658 1771.22 614.203 1771.22C616.964 1771.22 619.453 1771.73 621.669 1772.75C623.885 1773.77 625.7 1775.2 627.115 1777.05C628.53 1778.89 629.408 1781.03 629.749 1783.49H623.714C623.254 1781.7 622.232 1780.11 620.646 1778.73C619.078 1777.34 616.964 1776.64 614.305 1776.64C611.953 1776.64 609.891 1777.25 608.118 1778.48C606.362 1779.69 604.99 1781.4 604.001 1783.62C603.03 1785.82 602.544 1788.4 602.544 1791.36C602.544 1794.4 603.021 1797.04 603.976 1799.29C604.947 1801.54 606.311 1803.29 608.067 1804.53C609.839 1805.78 611.919 1806.4 614.305 1806.4C615.874 1806.4 617.297 1806.12 618.575 1805.58C619.854 1805.03 620.936 1804.25 621.822 1803.23C622.709 1802.2 623.339 1800.98 623.714 1799.55H629.749C629.408 1801.86 628.564 1803.95 627.217 1805.81C625.888 1807.65 624.124 1809.12 621.925 1810.21C619.743 1811.28 617.203 1811.82 614.305 1811.82ZM655.036 1811.82C651.251 1811.82 647.987 1810.98 645.243 1809.31C642.516 1807.62 640.411 1805.27 638.928 1802.26C637.462 1799.22 636.729 1795.69 636.729 1791.67C636.729 1787.65 637.462 1784.1 638.928 1781.03C640.411 1777.95 642.473 1775.55 645.115 1773.82C647.774 1772.09 650.876 1771.22 654.422 1771.22C656.467 1771.22 658.487 1771.56 660.482 1772.24C662.476 1772.92 664.291 1774.03 665.928 1775.56C667.564 1777.08 668.868 1779.09 669.839 1781.6C670.811 1784.1 671.297 1787.19 671.297 1790.85V1793.41H641.024V1788.19H665.161C665.161 1785.98 664.717 1784 663.831 1782.26C662.962 1780.52 661.717 1779.15 660.098 1778.14C658.496 1777.14 656.604 1776.64 654.422 1776.64C652.018 1776.64 649.939 1777.23 648.183 1778.43C646.445 1779.6 645.107 1781.14 644.169 1783.03C643.232 1784.92 642.763 1786.95 642.763 1789.11V1792.59C642.763 1795.56 643.274 1798.07 644.297 1800.13C645.337 1802.18 646.777 1803.74 648.618 1804.81C650.459 1805.87 652.598 1806.4 655.036 1806.4C656.621 1806.4 658.053 1806.18 659.331 1805.73C660.626 1805.27 661.743 1804.59 662.68 1803.69C663.618 1802.77 664.342 1801.62 664.854 1800.26L670.683 1801.9C670.07 1803.88 669.038 1805.61 667.589 1807.11C666.141 1808.6 664.351 1809.76 662.22 1810.59C660.089 1811.41 657.695 1811.82 655.036 1811.82Z" fill="black"/>
<path d="M1853 1106.35L1865.15 1087.29C1865.15 1087.29 1848.89 1022.12 1860.92 1034.32C1869.67 1043.18 1879.15 1060.41 1879.15 1060.41C1879.15 1060.41 1921.83 997.081 1929.89 997.903C1937.95 998.725 1912.67 1045.73 1912.67 1045.73C1912.67 1045.73 1944.13 989.638 1954.74 992.077C1965.35 994.516 1926.78 1053.97 1926.78 1053.97C1926.78 1053.97 1970.65 1003.99 1973.78 1006.91C1981.71 1014.33 1940.47 1067.3 1940.47 1067.3C1940.47 1067.3 1970.75 1037.83 1978.53 1041.34C1986.32 1044.85 1893.74 1139 1893.74 1139L1853 1106.35" fill="#F1ACA2"/>
<path d="M1463.43 2171L1496 2325.12L1454.92 2349L1395 2158L1463.43 2171" fill="#F78D5D"/>
<path d="M1423.81 2283C1423.81 2283 1398.39 2314.53 1359.79 2325.61C1321.2 2336.68 1286.34 2350.77 1289.16 2372.92C1289.16 2372.92 1346.61 2399.74 1439.81 2369.92V2379.29L1501 2376.74V2299.2L1450.17 2302.61L1453.93 2294.94L1423.81 2283Z" fill="#886669"/>
<path d="M1399.23 2371.07C1315.68 2391.44 1294.47 2368.83 1289.59 2367.25C1289.05 2369.16 1288.86 2371.07 1289.11 2372.98C1289.11 2372.98 1346.57 2399.65 1439.8 2370V2379.32L1501 2376.78V2361.4C1479.15 2362.65 1460.83 2356.05 1399.23 2371.07" fill="#4F383A"/>
<path d="M1594 1983L1705.44 2365L1747 2338.96L1669.44 2003.55L1594 1983" fill="#F78D5D"/>
<path d="M1739.85 2270C1739.85 2270 1776.3 2287.51 1815.93 2280.85C1855.55 2274.19 1893.08 2271.87 1900 2293.1C1900 2293.1 1859.53 2342.13 1762.53 2355.42L1766.54 2363.89L1710.14 2388L1677 2317.95L1724.4 2299.08L1717.72 2293.78L1739.85 2270Z" fill="#886669"/>
<path d="M1799.9 2338.84C1883.95 2321.27 1893.37 2291.54 1897.1 2288C1898.4 2289.51 1899.4 2291.16 1900 2293.01C1900 2293.01 1859.63 2342.08 1762.86 2355.39L1766.86 2363.86L1710.6 2388L1704 2374.02C1724.24 2365.71 1737.92 2351.79 1799.9 2338.84" fill="#4F383A"/>
<path d="M1268.27 1369C1268.27 1369 1215.86 1779.33 1392.49 2224.28C1392.49 2224.28 1440.88 2253.3 1479.6 2217.03C1479.6 2217.03 1415.08 1836.86 1417.5 1578.11L1450.32 1581.29C1450.32 1581.29 1544.09 1800.16 1556.18 1860.62C1568.28 1921.08 1626.78 2207.73 1641.3 2234.33C1641.3 2234.33 1709.06 2248.44 1726 2211.76C1726 2211.76 1708.63 1998.88 1696.53 1891.33C1687.54 1811.45 1577.97 1439.12 1577.97 1439.12L1268.27 1369" fill="#0E2531"/>
<path d="M1268.51 1398.2C1268.51 1398.2 1425.72 1478.16 1578.09 1439.39C1578.09 1439.39 1620.42 1166.83 1644 1001.47C1644 1001.47 1563.45 964.407 1468.19 950.497L1453.92 985.53L1448.31 948.011C1448.31 948.011 1307.75 947.36 1254 956.046C1254 956.046 1261.26 1269.8 1268.51 1398.2" fill="#F19C53"/>
<path d="M1374 948.072L1416.96 998L1448 948.217L1399.6 917L1374 948.072Z" fill="#F0ECEB"/>
<path d="M1542 965.82L1499.81 1004L1468 950.989L1523.91 933L1542 965.82Z" fill="#F0ECEB"/>
<path d="M1644.22 1002C1644.22 1002 1731.39 1152.4 1755 1239.38C1755 1239.38 1720.49 1272 1673.28 1272L1597 1139.72L1644.22 1002" fill="#F19C53"/>
<path d="M1254.55 958C1254.55 958 1154.9 1100.75 1124 1185.56C1124 1185.56 1155.66 1221.02 1202.74 1225L1290 1099.41L1254.55 958Z" fill="#F19C53"/>
<path d="M1723.05 1196.22C1723.05 1196.22 1819.04 1139.63 1858.95 1095C1858.95 1095 1896.71 1103.77 1908 1127.02C1908 1127.02 1822 1252.84 1761.86 1282.73C1761.86 1282.73 1710.66 1322.52 1693.13 1302.24C1629.6 1228.77 1723.05 1196.22 1723.05 1196.22" fill="#F19C53"/>
<path d="M1302.81 1358.05C1278.45 1349.81 1246.76 1392.32 1240 1407.82C1249.04 1419.57 1255.59 1426.64 1259.08 1427.7C1284.8 1435.51 1284 1405.59 1284 1405.59C1338.89 1466.58 1288.95 1388.8 1288.95 1388.8C1346.6 1460.8 1299.44 1378.98 1299.44 1378.98C1368.29 1440.14 1310.68 1373.45 1310.68 1373.45C1392.25 1402.3 1302.81 1358.05 1302.81 1358.05" fill="#F1ACA2"/>
<path d="M1461 1015C1461 1018.86 1457.64 1022 1453.5 1022C1449.36 1022 1446 1018.86 1446 1015C1446 1011.13 1449.36 1008 1453.5 1008C1457.64 1008 1461 1011.13 1461 1015Z" fill="#683E40"/>
<path d="M1456 1082.5C1456 1086.64 1452.64 1090 1448.5 1090C1444.36 1090 1441 1086.64 1441 1082.5C1441 1078.35 1444.36 1075 1448.5 1075C1452.64 1075 1456 1078.35 1456 1082.5Z" fill="#F0ECEB"/>
<path d="M1453 1167.5C1453 1171.65 1449.64 1175 1445.5 1175C1441.36 1175 1438 1171.65 1438 1167.5C1438 1163.35 1441.36 1160 1445.5 1160C1449.64 1160 1453 1163.35 1453 1167.5Z" fill="#F0ECEB"/>
<path d="M1447 1247.5C1447 1251.65 1443.87 1255 1440 1255C1436.13 1255 1433 1251.65 1433 1247.5C1433 1243.36 1436.13 1240 1440 1240C1443.87 1240 1447 1243.36 1447 1247.5Z" fill="#F0ECEB"/>
<path d="M1440 1333.5C1440 1337.65 1436.64 1341 1432.5 1341C1428.36 1341 1425 1337.65 1425 1333.5C1425 1329.36 1428.36 1326 1432.5 1326C1436.64 1326 1440 1329.36 1440 1333.5Z" fill="#F0ECEB"/>
<path d="M1428 1410.5C1428 1414.64 1424.87 1418 1421 1418C1417.13 1418 1414 1414.64 1414 1410.5C1414 1406.35 1417.13 1403 1421 1403C1424.87 1403 1428 1406.35 1428 1410.5Z" fill="#F0ECEB"/>
<path d="M1594.76 1158L1502 1141.96L1504.24 1129L1597 1145.04L1594.76 1158" fill="#F0ECEB"/>
<path d="M1244.77 1415L1219 1373.75L1250.02 1351L1270 1381.15L1244.77 1415" fill="#F1ACA2"/>
<path d="M1206.05 1204.39C1206.05 1204.39 1230.85 1307.47 1265 1356.5C1265 1356.5 1252.51 1391.41 1227.3 1397C1227.3 1397 1128.14 1287.38 1113 1222.12C1113 1222.12 1131.53 1157.58 1146.58 1135.46C1161.64 1113.35 1206.05 1204.39 1206.05 1204.39" fill="#F19C53"/>
<path d="M1413.27 840.863L1402.52 931.574L1509.31 944.343L1515.3 860.796L1413.27 840.863Z" fill="#E3B5AA"/>
<path d="M1386.23 813.925C1380.2 807.972 1366.54 801.34 1359.91 814.951C1356.6 821.757 1360.83 833.838 1365.04 843.999C1369.24 854.16 1371.48 861.855 1379.23 862.499C1386.97 863.144 1390.12 859.266 1390.12 859.266L1386.23 813.925Z" fill="#F7AC8D"/>
<path d="M1521.49 944.767C1514.87 952.933 1507.35 960.408 1499.62 965.096C1496.83 966.826 1493.84 968.177 1490.7 969.115C1469.98 975.042 1448.86 969.438 1436.99 962.519C1431.12 959.098 1417.02 946.402 1404.06 932.048L1402.62 930.419C1403.53 929.878 1404.33 929.167 1404.98 928.324C1405.94 927.059 1406.54 925.545 1406.69 923.956C1406.7 923.889 1406.71 923.82 1406.71 923.752L1410.84 873.22L1512.28 881.509L1508.16 932.041C1508.13 932.229 1508.11 932.419 1508.11 932.609C1508.08 933.301 1508.15 933.993 1508.32 934.664C1508.4 935.036 1508.5 935.404 1508.63 935.763C1508.69 935.928 1508.75 936.094 1508.82 936.259L1508.93 936.498C1508.97 936.592 1509.02 936.684 1509.07 936.772L1509.22 937.047C1510.12 938.67 1511.52 939.952 1513.21 940.704L1514.74 941.47L1521.49 944.767Z" fill="#FCD1C8"/>
<path d="M1462.3 875.39L1411.52 871.241L1407.24 923.587C1415.75 936.088 1431.47 954.683 1460.61 958.625C1482.67 961.585 1505.01 944.491 1509.92 936.937C1509.01 935.203 1508.65 933.224 1508.88 931.267L1513.1 879.577L1462.3 875.39Z" fill="#EFAFAF"/>
<path d="M1565.54 754.27C1565.54 754.27 1566.9 700.811 1482.69 693.931C1398.48 687.05 1391.14 740.02 1391.14 740.02C1391.14 740.02 1374.71 856.68 1388.08 891.77C1401.45 926.86 1439.98 961.061 1471.64 963.647C1503.29 966.234 1537.58 919.632 1545.8 896.462C1554.01 873.294 1565.54 754.27 1565.54 754.27Z" fill="#F7AC8D"/>
<path d="M1575.9 747.362C1575.92 747.008 1575.95 746.667 1575.98 746.336C1576.02 745.193 1576.04 744.106 1576.03 743.039C1576.03 741.972 1576.01 740.926 1575.98 739.915C1575.91 738.166 1575.81 736.529 1575.67 735.027C1575.63 734.657 1575.59 734.298 1575.57 733.941C1575.45 732.854 1575.33 731.857 1575.2 730.929C1575.16 730.594 1575.11 730.268 1575.07 729.955C1574.69 727.412 1574.29 725.58 1574.06 724.598C1573.99 724.386 1573.96 724.222 1573.93 724.104L1573.85 723.8C1573.85 723.8 1579.78 710.523 1580.21 696.167C1580.24 695.16 1580.26 694.152 1580.22 693.152C1580.25 692.798 1580.2 692.45 1580.19 692.093C1580.2 692.018 1580.2 691.941 1580.2 691.865L1580.18 691.359C1580.13 690.59 1580.05 689.82 1579.96 689.048C1579.98 688.82 1579.91 688.573 1579.87 688.34C1579.83 688.107 1579.89 688.101 1579.82 687.97L1579.66 686.982C1579.6 686.549 1579.52 686.118 1579.43 685.69C1579.32 685.2 1579.22 684.709 1579.09 684.229C1578.96 683.747 1578.84 683.256 1578.68 682.773C1578.53 682.29 1578.47 682.056 1578.34 681.702C1578.27 681.467 1578.18 681.218 1578.1 680.982C1578.01 680.746 1577.84 680.295 1577.69 679.94C1577.55 679.584 1577.33 679.096 1577.14 678.668C1576.95 678.24 1576.62 677.582 1576.32 677.053C1576.03 676.524 1575.89 676.272 1575.66 675.853C1575.43 675.425 1575.16 675.02 1574.86 674.639C1574.67 674.407 1574.48 674.184 1574.27 673.961C1574.06 673.737 1573.84 673.524 1573.62 673.323C1573.4 673.112 1573.17 672.913 1572.93 672.728C1572.83 672.632 1572.71 672.542 1572.59 672.459C1572.49 672.366 1572.37 672.28 1572.25 672.202C1572.08 672.073 1571.9 671.944 1571.71 671.825C1570.76 671.212 1569.77 670.671 1568.75 670.207L1568.04 669.897L1566.59 669.32C1566.01 669.1 1565.41 668.901 1564.79 668.702L1562.91 668.159C1562.37 668.012 1561.8 667.873 1561.26 667.749L1559.57 667.381L1558.38 667.146L1557.44 666.978C1556.99 666.895 1556.53 666.823 1556.07 666.762L1553.96 666.452L1550.96 666.104C1549.55 665.989 1548.15 665.875 1546.84 665.767L1545.61 665.667L1542.23 665.518L1541.1 665.494L1537.61 665.472L1536.17 665.492L1535.4 665.509L1535.12 665.486L1534.76 665.457C1534.84 664.898 1534.88 664.335 1534.9 663.772C1534.91 663.589 1534.93 663.384 1534.95 663.156C1534.97 662.928 1534.99 662.712 1535 662.473C1535.02 662.234 1535.05 661.949 1535 661.669C1534.96 661.391 1534.97 660.841 1534.94 660.392C1534.95 660.175 1534.91 659.953 1534.88 659.722C1534.82 659.155 1534.74 658.563 1534.62 657.934C1534.39 656.613 1534 655.326 1533.46 654.101C1533.25 653.617 1533.01 653.146 1532.75 652.689C1532.18 651.726 1531.49 650.842 1530.7 650.057C1530.29 649.649 1529.85 649.276 1529.38 648.94C1529.22 648.816 1529.06 648.703 1528.89 648.602L1528.5 648.352L1528.04 648.085L1527.59 647.853C1527.4 647.745 1527.18 647.647 1526.96 647.55C1526.74 647.451 1526.35 647.293 1526.02 647.185C1525.69 647.078 1525.34 646.958 1524.99 646.861C1524.26 646.652 1523.52 646.495 1522.77 646.392C1521.77 646.237 1520.77 646.155 1519.77 646.147C1518.64 646.135 1517.5 646.169 1516.37 646.237C1515.81 646.271 1515.23 646.304 1514.67 646.362L1513.85 646.432L1513.03 646.514C1512.68 646.542 1512.32 646.583 1511.98 646.635C1511.13 646.727 1510.29 646.851 1509.43 646.988C1508.88 647.058 1508.28 647.147 1507.76 647.253C1507.25 647.361 1506.54 647.463 1505.93 647.585L1503.96 647.975C1503.57 648.046 1503.19 648.13 1502.81 648.225L1500.07 648.849C1499.44 649.005 1498.83 649.15 1498.22 649.318L1496.48 649.772C1495.33 650.079 1494.17 650.397 1493.1 650.723L1491.47 651.209L1489.89 651.699L1488.42 652.163L1486.91 652.66L1485.46 653.137L1484.09 653.61L1482.81 654.056L1481.64 654.5L1480.01 655.1L1479.05 655.458L1478.61 655.628L1477.83 655.932L1477.16 656.186L1475.72 656.768L1475.76 656.347C1475.77 656.199 1475.78 656.017 1475.8 655.8C1475.82 655.584 1475.82 655.503 1475.84 655.333C1475.85 655.162 1475.86 655.094 1475.87 654.968C1475.88 654.843 1475.89 654.718 1475.9 654.581C1475.93 654.171 1475.9 653.721 1475.88 653.249L1475.86 652.72C1475.88 652.413 1475.81 652.085 1475.78 651.751C1475.75 651.415 1475.72 651.275 1475.69 651.032C1475.67 650.79 1475.61 650.532 1475.56 650.276C1475.51 650.02 1475.45 649.728 1475.38 649.447C1475.31 649.166 1475.27 649.014 1475.2 648.79C1475.05 648.32 1474.86 647.861 1474.65 647.415C1474.54 647.2 1474.43 646.995 1474.31 646.802C1474.19 646.608 1474.04 646.402 1473.9 646.218L1473.59 645.86C1473.42 645.677 1473.24 645.511 1473.03 645.367L1472.81 645.2L1472.58 645.055L1472.41 644.961L1472.09 644.809L1471.78 644.692C1471.61 644.631 1471.43 644.583 1471.26 644.545L1471.03 644.527C1470.08 644.381 1469.1 644.447 1468.18 644.718C1467.29 644.946 1466.43 645.26 1465.61 645.655C1465.04 645.941 1464.48 646.255 1463.94 646.597L1463.32 647.005L1462.68 647.434L1462.07 647.89C1460.76 648.897 1459.5 649.977 1458.31 651.125C1457.8 651.612 1457.31 652.099 1456.82 652.597L1456 653.437L1454.69 654.832C1453.39 656.228 1452.21 657.565 1451.11 658.656L1450.7 659.07L1450.24 659.526L1449.79 659.948C1449.51 660.223 1449.23 660.453 1448.98 660.661C1448.15 661.328 1447.47 661.685 1446.97 661.519L1446.73 661.498C1446.49 661.479 1446.25 661.378 1446 661.336L1445.18 661.177L1444.9 661.154C1443.32 660.887 1441.72 660.756 1440.11 660.763L1439.48 660.711L1438.84 660.727C1438 660.767 1437.16 660.835 1436.31 660.934L1436.12 660.918C1435.74 660.967 1435.36 661.017 1434.97 661.088L1434.26 661.225L1433.54 661.372C1433.12 661.464 1432.7 661.568 1432.3 661.684L1431.25 662.011C1430.57 662.242 1429.9 662.497 1429.23 662.787C1428.24 663.223 1427.28 663.738 1426.36 664.33C1426.2 664.442 1426.08 664.513 1425.94 664.627C1420.29 668.523 1416.67 675.946 1414.08 677.717C1408.55 681.509 1393.26 680.306 1382.78 703.831C1372.31 727.355 1376.59 751.857 1377.5 762.333C1377.71 764.803 1379.15 778.729 1379 785.551C1378.89 790.99 1377.12 806.189 1377.12 806.189C1379.64 807.714 1382.28 813.652 1382.72 818.906C1383.16 824.16 1382.22 842.271 1381.52 853.475C1381.32 856.59 1381.07 859.654 1380.77 862.657C1379.87 872.905 1378.87 882.41 1379.59 890.876C1380.42 900.575 1391.62 916.204 1404.26 930.472L1405.71 932.104C1418.68 946.488 1432.78 959.213 1438.66 962.64C1450.54 969.573 1471.68 975.19 1492.42 969.246C1495.55 968.304 1498.55 966.95 1501.34 965.216C1509.08 960.516 1516.6 953.023 1523.23 944.837C1530.8 935.439 1537.41 925.285 1542.95 914.532C1546.16 908.178 1549.69 884.246 1551.44 867.337C1549.95 873.163 1548 878.858 1545.61 884.372C1542.03 892.324 1535.96 899.008 1520.88 900.219C1518.09 900.426 1515.29 900.309 1512.53 899.868C1507.4 898.929 1502.37 897.531 1497.49 895.692C1490.96 893.462 1484.21 891.167 1476.65 890.549C1460.1 889.197 1455.24 894.43 1441.13 895.021C1431.93 895.416 1421.04 891.716 1411.84 883.935L1411.65 883.77C1406.55 879.373 1402.33 874.017 1399.23 867.996C1393.05 856.023 1395.49 788.436 1397.68 777.789C1399.86 767.141 1402.24 740.065 1422.06 735.744C1441.88 731.424 1457.02 756.732 1493.52 757.638C1530.02 758.544 1537.55 743.093 1547.61 750.372C1557.67 757.65 1557.48 781.832 1556.91 795.548C1556.38 809.013 1557.76 819.493 1556.82 828.418L1556.8 828.601C1556.79 828.714 1556.79 828.829 1556.78 828.931C1556.77 829.034 1560.48 818.523 1563.8 807.108C1563.95 806.581 1564.11 805.987 1564.26 805.517C1564.52 804.609 1564.78 803.69 1565.02 802.781C1565.37 801.514 1565.71 800.258 1566.03 799.01C1566.3 797.965 1566.55 796.932 1566.8 795.92C1566.82 795.841 1566.83 795.761 1566.82 795.681C1567.34 793.498 1567.78 791.402 1568.15 789.47C1568.19 788.98 1568.31 788.509 1568.39 788.044C1568.46 787.58 1568.5 787.343 1568.56 787.004C1568.7 786.293 1568.82 785.591 1568.96 784.903C1569.09 784.215 1569.21 783.674 1569.35 783.077C1569.49 782.48 1569.55 782.153 1569.65 781.703C1570.5 778.091 1571.47 774.811 1572.42 771.206C1572.59 770.555 1572.77 769.893 1572.93 769.219L1573.19 768.173C1573.35 767.475 1573.52 766.766 1573.69 766.035C1574.02 764.559 1574.34 763.003 1574.63 761.318C1574.78 760.482 1574.92 759.622 1575.07 758.728C1575.22 757.835 1575.34 756.882 1575.47 755.905C1575.59 754.93 1575.71 753.918 1575.83 752.873C1575.96 751.301 1576.08 749.775 1576.2 748.316L1575.9 747.362Z" fill="#683E40"/>
<g style="mix-blend-mode:overlay" opacity="0.3">
<path d="M1424.02 665.715C1426.68 666.822 1436.63 664.865 1445.78 674.332C1454.92 683.799 1463.46 670.02 1477.66 681.497C1491.86 692.973 1519.05 675.235 1529.51 683.168C1539.97 691.102 1523.17 717.859 1550.76 723.899C1578.36 729.938 1565.86 756.706 1563.8 775.425C1562.54 786.052 1562.33 796.778 1563.16 807.448C1565.08 801.23 1566.63 794.906 1567.81 788.508C1569.77 776.38 1573.42 770.284 1575.22 753.573C1576.36 743.871 1575.79 734.044 1573.52 724.539C1573.52 724.539 1586.71 695.251 1575.23 676.873C1568.6 665.173 1533.88 666.656 1533.88 666.656C1533.88 666.656 1537.15 647.614 1518.66 647.437C1500.17 647.259 1474.27 658.001 1474.27 658.001C1474.27 658.001 1475.98 643.563 1466.61 645.976C1457.23 648.39 1448.23 663.442 1445.26 662.674C1439.67 661.238 1430.93 661.356 1424.5 665.538L1424.02 665.715Z" fill="white"/>
</g>
<path d="M1454.92 838.162C1454.46 843.747 1450.49 847.974 1446 847.608C1441.52 847.242 1438.29 842.426 1438.75 836.841C1439.2 831.256 1443.18 827.029 1447.66 827.395C1452.14 827.762 1455.37 832.577 1454.92 838.162Z" fill="#683E40"/>
<path d="M1513.72 853.14C1517.62 853.459 1521.16 849.193 1521.62 843.611C1522.07 838.03 1519.27 833.247 1515.37 832.927C1511.46 832.608 1507.92 836.874 1507.47 842.455C1507.01 848.037 1509.81 852.821 1513.72 853.14Z" fill="#683E40"/>
<path d="M1461.42 812.501C1464.3 811.662 1464.24 803.585 1460.51 800.56C1456.78 797.534 1431.17 802.736 1427.49 804.333C1423.81 805.929 1422.17 809.294 1422.75 810.622C1423.32 811.948 1458.53 813.34 1461.42 812.501Z" fill="#683E40"/>
<path d="M1505.22 816.08C1502.51 814.784 1503.88 806.824 1508.04 804.443C1512.21 802.063 1536.64 811.354 1540.02 813.528C1543.41 815.701 1544.45 819.286 1543.68 820.503C1542.92 821.72 1507.92 817.376 1505.22 816.08Z" fill="#683E40"/>
<path d="M1509.96 920.494C1509.26 914.327 1500.52 918.201 1483 918.201C1465.48 918.201 1456.73 914.327 1456.05 920.494C1455.37 926.662 1461.93 943 1483 943C1504.06 943 1510.6 926.662 1509.96 920.494Z" fill="white"/>
</svg>
