<svg width="124" height="124" viewBox="0 0 124 124" fill="none" xmlns="http://www.w3.org/2000/svg">
<path d="M72.3332 67.1667V72.3333C72.3332 72.385 72.3332 72.385 72.3332 72.4367C72.3332 78.0683 72.2815 82.6667 61.9998 82.6667C51.7698 82.6667 51.6665 78.12 51.6665 72.4883V67.1667C51.6665 62 51.6665 62 56.8332 62H67.1665C72.3332 62 72.3332 62 72.3332 67.1667Z" stroke="#FF8140" stroke-width="6" stroke-miterlimit="10" stroke-linecap="round" stroke-linejoin="round"/>
<path d="M111.858 56.8335C99.9235 65.5135 86.2835 70.6802 72.3335 72.4368" stroke="#FF8140" stroke-width="6" stroke-miterlimit="10" stroke-linecap="round" stroke-linejoin="round"/>
<path d="M13.5322 58.2261C25.1572 66.1827 38.2806 70.9877 51.6622 72.4861" stroke="#FF8140" stroke-width="6" stroke-miterlimit="10" stroke-linecap="round" stroke-linejoin="round"/>
<path d="M41.3335 31.0002V26.8668C41.3335 17.7218 41.3335 10.3335 57.8668 10.3335H66.1335C82.6668 10.3335 82.6668 17.7218 82.6668 26.8668V31.0002" stroke="#FF8140" stroke-width="6" stroke-miterlimit="10" stroke-linecap="round" stroke-linejoin="round"/>
<path d="M41.3336 113.667H82.6669C103.437 113.667 107.157 105.348 108.242 95.2217L112.117 53.8883C113.512 41.2817 109.895 31 87.8336 31H36.1669C14.1052 31 10.4886 41.2817 11.8836 53.8883L15.7586 95.2217C16.8436 105.348 20.5636 113.667 41.3336 113.667Z" stroke="#292D32" stroke-width="6" stroke-miterlimit="10" stroke-linecap="round" stroke-linejoin="round"/>
</svg>
