<svg width="4688" height="1642" viewBox="0 0 4688 1642" fill="none" xmlns="http://www.w3.org/2000/svg">
<path d="M2262.97 966.399C2265.3 975.941 2138.07 1049.76 2122.44 1050.57L2100.79 1048.84L2038.67 1086.42C2038.67 1086.42 2029.28 1078.05 2020.86 1064.24C2016.26 1056.83 2012 1047.77 2009.63 1037.61C2008.29 1031.95 2007.55 1025.93 2007.7 1019.63C2007.8 1016.38 2039.81 994.187 2039.81 994.187C2039.81 994.187 2023.99 945.826 2041.58 923.83C2051.98 910.873 2062.49 897.665 2067.3 881.746C2069.82 873.443 2071.23 864.738 2074.68 856.77C2078.13 848.785 2084.12 841.285 2092.46 838.808C2093.43 838.507 2094.47 838.289 2095.47 838.54C2097.53 839.042 2098.62 841.235 2099.22 843.344C2099.3 843.562 2099.35 843.797 2099.4 844.014C2105.45 867.651 2103.12 893.363 2092.94 915.493C2092.94 915.493 2169.59 887.27 2187.32 872.689C2187.32 872.689 2232.69 851.982 2238.31 859.699C2240.4 862.545 2241.47 865.474 2241.99 868.019C2242.9 872.321 2242.23 875.569 2242.23 875.569C2242.23 875.569 2152.67 932.25 2151.23 937.004C2149.79 941.809 2240.44 910.689 2248.46 914.438C2250.73 915.51 2252.24 918.473 2253.11 922.223C2253.96 925.638 2254.35 929.705 2254.47 933.472C2254.72 939.8 2254.3 945.257 2254.3 945.257C2254.3 945.257 2254.88 946.362 2255.82 948.17C2257.01 950.63 2258.78 954.363 2260.36 958.414C2261.4 961.059 2262.33 963.804 2262.97 966.399Z" fill="#F9AB7A"/>
<path d="M2262.97 966.399C2265.3 975.941 2138.07 1049.76 2122.44 1050.57L2100.79 1048.84L2038.67 1086.42C2038.67 1086.42 2029.28 1078.05 2020.86 1064.24C2048.26 1051.79 2072.39 1032.12 2089.96 1007.66C2106.84 984.244 2117.78 956.723 2136.82 935.045C2148.75 921.419 2163.48 910.555 2178.77 900.812C2194.95 890.568 2211.69 881.294 2229.09 873.242C2234.06 870.949 2238.23 869.207 2241.99 868.019C2242.9 872.321 2242.23 875.569 2242.23 875.569C2242.23 875.569 2152.67 932.25 2151.23 937.004C2149.79 941.809 2240.44 910.689 2248.46 914.438C2250.73 915.51 2252.24 918.473 2253.11 922.223C2253.96 925.638 2254.35 929.705 2254.47 933.472C2254.72 939.8 2254.3 945.257 2254.3 945.257C2254.3 945.257 2254.88 946.362 2255.82 948.17C2257.01 950.63 2258.78 954.363 2260.36 958.414C2261.4 961.059 2262.33 963.804 2262.97 966.399Z" fill="#F57F7B"/>
<path d="M2254.47 933.473C2251.96 934.628 2249.38 935.783 2246.77 936.871C2231.4 943.232 2216.79 947.183 2206.07 949.442C2196.04 951.552 2189.43 952.305 2188.66 952.389C2189.33 952.004 2195.12 948.739 2204.21 944.136C2213.92 939.231 2227.33 932.736 2242.43 926.475C2246.1 924.969 2249.66 923.563 2253.11 922.223C2253.96 925.638 2254.35 929.706 2254.47 933.473Z" fill="#F36367"/>
<path d="M2260.35 958.413C2236.11 969.026 2214.87 973.328 2213.53 973.596C2214.62 972.742 2231.86 959.534 2255.81 948.168C2257 950.629 2258.78 954.361 2260.35 958.413Z" fill="#F36367"/>
<path d="M2099.22 843.346C2097.9 844.602 2096.59 845.891 2095.42 847.18C2085.64 858.027 2083.05 873.344 2077.22 886.719C2069.19 905.116 2054.51 920.668 2050.04 940.253C2046.27 956.792 2050.29 973.951 2052.85 990.724C2053.62 995.913 2054.22 1001.47 2051.85 1006.17C2049.87 1010.02 2046.17 1012.64 2042.62 1015.1C2031.83 1022.61 2020.29 1029.73 2009.63 1037.61C2008.29 1031.95 2007.55 1025.93 2007.7 1019.63C2007.8 1016.39 2039.81 994.189 2039.81 994.189C2039.81 994.189 2023.99 945.828 2041.59 923.831C2051.98 910.875 2062.49 897.667 2067.3 881.748C2069.83 873.445 2071.23 864.74 2074.68 856.771C2078.13 848.787 2084.12 841.287 2092.46 838.81C2093.43 838.508 2094.47 838.291 2095.47 838.542C2097.53 839.044 2098.62 841.237 2099.22 843.346Z" fill="#FBCDA7"/>
<path d="M2107.6 935.358C2118.13 946.674 2121.71 963.247 2119.75 978.581C2117.84 993.395 2111.33 1009.4 2102.22 1021.2C2102.44 1008.78 2110.16 996.174 2111.83 983.502C2113.31 972.454 2115.98 944.364 2107.6 935.358Z" fill="#F36367"/>
<path d="M1580.61 1258.61C1608.28 1294.85 1633 1320.63 1653.89 1330.21C1655.89 1331.14 1657.84 1331.91 1659.75 1332.53C1763.72 1365.88 2059.35 1073.94 2059.35 1073.94L2045.02 1054.35L2026.29 1028.72L2014.62 1012.77C2014.62 1012.77 1802.12 1120.41 1713.05 1184.19L1712.63 1184.49C1707.49 1188.19 1702.77 1191.74 1698.52 1195.08C1698.52 1195.08 1679.32 1160.52 1667.65 1144.68L1580.61 1258.61Z" fill="#F9AB7A"/>
<path d="M1653.89 1330.21C1655.89 1331.14 1657.84 1331.91 1659.75 1332.53C1763.72 1365.88 2059.35 1073.94 2059.35 1073.94L2045.02 1054.35L2041.15 1053.33C2041.15 1053.33 1801.77 1315.59 1653.93 1330.21H1653.89Z" fill="#F57F7B"/>
<path d="M1698.5 1195.08L2026.27 1028.72L2014.6 1012.77C2014.6 1012.77 1802.11 1120.4 1713.03 1184.18L1712.62 1184.48L1698.5 1195.08Z" fill="#FBCDA7"/>
<path d="M1677.48 1131.82L1595.2 1239.56L1568.6 1274.33C1556.95 1264.99 1544.83 1254.86 1532.36 1244.14C1494.2 1211.23 1453.07 1172.75 1413.81 1134.55L1395.93 959.366C1392.38 924.631 1397.99 888.858 1416.14 859.044C1421.31 850.507 1432.24 850.892 1460.6 874.21C1473.17 884.556 1593.63 1024.87 1593.63 1024.87C1625.7 1062.53 1657.93 1105.2 1677.48 1131.82Z" fill="#FCCF41"/>
<path d="M1584.27 1250.67L1568.61 1274.33C1556.96 1264.99 1544.84 1254.86 1532.36 1244.14L1449.18 1168.51V1124.37L1584.27 1250.67Z" fill="#E8B02F"/>
<path d="M1429.6 854.509C1512.42 868.972 1636.98 1057.4 1679.66 1128.98L1667.66 1144.68L1597.22 1044C1551.94 979.305 1489.13 907.29 1429.6 854.509Z" fill="#FCE27E"/>
<path d="M1487.69 1460.14C1312.18 1466.65 1133.48 1477.13 1133.48 1477.13C1134.37 1443.15 1099.33 1292.44 1070.05 1155.47C1062.18 1118.53 1054.68 1082.64 1048.44 1050.26C1038.45 998.438 1041.33 951.851 1046.65 919.794C1050.4 896.843 1055.44 881.292 1057.85 876.471C1060.71 870.746 1071.27 861.941 1084.95 852.466C1085 852.433 1085.1 852.366 1085.18 852.332C1087.65 850.675 1089.67 849.319 1091.23 848.281C1091.56 848.08 1091.86 847.879 1092.13 847.678C1092.99 847.126 1093.62 846.691 1094.09 846.373C1094.22 846.289 1094.36 846.222 1094.46 846.155C1094.56 846.055 1094.64 846.021 1094.74 845.954C1118.65 830.47 1147.84 814.835 1162.79 809.511C1162.97 809.461 1163.16 809.394 1163.33 809.327C1168.21 807.586 1173.04 805.996 1177.55 804.556C1195.94 798.781 1210.16 795.533 1210.16 795.533H1321.03C1321.03 795.533 1321.2 795.5 1321.5 795.5C1321.6 795.5 1321.74 795.5 1321.87 795.466C1322.25 795.433 1322.79 795.383 1323.44 795.383C1323.53 795.366 1323.56 795.366 1323.63 795.366C1327.03 795.282 1333.77 795.651 1343.8 798.178V798.212C1347.75 799.216 1352.19 800.556 1357.14 802.347C1370.23 807.101 1386.85 815.036 1406.92 828.193C1419.19 836.245 1432.72 846.256 1447.52 858.693C1530.62 928.499 1526.31 1062.37 1476.93 1158.4C1462.18 1187.1 1487.69 1460.14 1487.69 1460.14Z" fill="#FCCF41"/>
<path d="M1457.28 1144.68C1457.28 1144.68 1453.23 1144.47 1445.91 1144.11C1438.65 1143.65 1428.15 1142.98 1415.18 1142.18C1389.47 1140.93 1354.21 1138.95 1318.56 1148.49C1309.45 1150.89 1300.36 1153.72 1291.19 1156.19C1282.01 1158.7 1272.71 1160.68 1263.93 1161.92C1246.29 1164.46 1230.29 1164.5 1216.96 1163.42C1210.18 1162.87 1203.99 1161.73 1198.73 1160.01C1193.49 1158.32 1189.22 1155.97 1186.18 1153.6C1183.11 1151.22 1181.31 1148.84 1180.18 1147.24C1179.16 1145.53 1178.71 1144.66 1178.71 1144.66C1178.71 1144.66 1179.46 1145.31 1180.92 1146.57C1182.43 1147.72 1184.72 1149.3 1187.95 1150.53C1194.38 1153.15 1204.41 1153.88 1216.71 1152.09C1229.28 1150.35 1244.15 1147.55 1260.08 1143.19C1268.1 1141.01 1276.22 1138.43 1284.86 1135.45C1293.51 1132.49 1302.75 1129.24 1312.78 1126.58C1333.14 1121.21 1353.56 1120.44 1371.2 1122.18C1388.96 1123.8 1404.38 1127.52 1417.07 1131.02C1429.74 1134.6 1439.74 1138.13 1446.63 1140.64C1453.51 1143.15 1457.28 1144.68 1457.28 1144.68Z" fill="#E8B02F"/>
<path d="M1230.51 1346.99C1230.51 1346.99 1237.81 1291.87 1254.24 1292.13C1270.66 1292.4 1268.54 1337.44 1268.54 1337.44L1230.51 1346.99Z" fill="#F57F7B"/>
<path d="M1356.21 1280.6C1361.46 1292.08 1278.53 1319.09 1278.53 1319.09L1277.41 1343.3L1313.13 1335.25L1364.45 1349.77C1364.45 1349.77 1366.06 1360.02 1367.27 1372.7C1367.44 1374.26 1367.57 1375.88 1367.71 1377.52C1368.35 1385.09 1368.77 1393.15 1368.55 1400.16C1368.57 1400.84 1368.53 1401.53 1368.52 1402.19C1368.34 1405.7 1368.01 1408.87 1367.49 1411.52C1366.86 1414.47 1365.98 1416.77 1364.74 1418.15L1323.23 1415.77C1323.23 1415.77 1284.62 1458.13 1276.36 1460.87C1273.06 1461.96 1258.34 1458.41 1241.8 1453.76C1233.87 1451.51 1225.49 1449 1217.76 1446.62L1216.62 1420.99L1213.99 1362.95C1216.89 1358.08 1220.82 1351.71 1225.45 1344.77L1225.43 1344.75C1227.72 1341.33 1230.17 1337.79 1232.71 1334.21C1242.01 1321.25 1252.93 1307.98 1263.57 1299.65C1268.06 1296.09 1272.52 1293.48 1276.78 1292.15C1306.09 1282.94 1350.99 1269.13 1356.21 1280.6Z" fill="#F9AB7A"/>
<path d="M1368.55 1400.16C1368.56 1400.83 1368.53 1401.53 1368.52 1402.18C1366.82 1401.86 1364.6 1401.41 1361.91 1400.9C1355.82 1399.73 1347.58 1398.31 1338.62 1396.93C1329.67 1395.62 1321.5 1395.01 1315.31 1395.21C1313.76 1395.27 1312.34 1395.34 1311.08 1395.39C1309.84 1395.56 1308.76 1395.69 1307.89 1395.81C1306.08 1396.01 1305.02 1396.14 1305.02 1396.14C1305.02 1396.14 1305.9 1395.55 1307.56 1394.58C1308.36 1394.08 1309.4 1393.49 1310.6 1392.84C1311.84 1392.31 1313.25 1391.73 1314.86 1391.11C1321.24 1388.73 1330.78 1387.19 1340.63 1388.64C1350.43 1390.13 1358.41 1393.78 1363.73 1396.95C1365.7 1398.13 1367.3 1399.23 1368.55 1400.16Z" fill="#F36367"/>
<path d="M1367.28 1372.7C1367.44 1374.26 1367.57 1375.88 1367.72 1377.52C1367.36 1377.47 1366.99 1377.39 1366.65 1377.33C1360.55 1376.18 1352.3 1374.75 1343.37 1373.39C1334.38 1372.07 1326.22 1371.43 1320.05 1371.63C1318.47 1371.72 1317.08 1371.76 1315.85 1371.84C1314.58 1371.99 1313.5 1372.14 1312.63 1372.24C1310.8 1372.45 1309.81 1372.57 1309.81 1372.57C1309.81 1372.57 1310.64 1372 1312.28 1371.02C1313.11 1370.54 1314.13 1369.93 1315.34 1369.29C1316.57 1368.75 1318 1368.17 1319.6 1367.54C1326 1365.16 1335.55 1363.63 1345.37 1365.09C1354.47 1366.45 1362.01 1369.7 1367.28 1372.7Z" fill="#F36367"/>
<path d="M1367.48 1411.53C1366.85 1414.48 1365.98 1416.78 1364.73 1418.16L1323.22 1415.78C1323.22 1415.78 1284.61 1458.13 1276.35 1460.88C1273.06 1461.97 1258.33 1458.42 1241.8 1453.77C1233.87 1451.52 1225.49 1449.01 1217.76 1446.63L1216.61 1421C1223.66 1423.51 1230.91 1425.95 1237.95 1428.07C1257.47 1434 1275.12 1437.47 1281.31 1433.41C1297.63 1422.62 1322.67 1403.22 1322.67 1403.22L1367.48 1411.53Z" fill="#F57F7B"/>
<path d="M1219.24 1361.79L1219.98 1419.9L1220.29 1445.57C1220.29 1445.57 892.066 1501.98 851.271 1469.87C837.785 1459.22 810.315 1408.94 786.061 1331.9L812.542 1318.11L918.587 1262.87L942.413 1361.71L1219.24 1361.79Z" fill="#F9AB7A"/>
<path d="M1216.2 1397.76L1217.35 1423.41C1217.35 1423.41 891.139 1490.49 849.319 1459.72C835.494 1449.52 806.399 1400.16 779.648 1323.95L805.664 1309.3C825.089 1352.37 862.257 1430.95 876.319 1433.88C895.755 1437.98 1216.2 1397.76 1216.2 1397.76Z" fill="#F57F7B"/>
<path d="M1094.73 845.957L1094.63 889.246L1094.18 1113.43L1070.04 1155.48L1059.83 1173.25L952.424 1341.76L800.443 1299.27L780.824 1293.8C851.5 1146.71 963.456 945.71 973.935 933.523C986.591 918.725 1058.44 870.163 1084.94 852.469C1084.99 852.435 1085.09 852.368 1085.17 852.335C1087.63 850.677 1089.66 849.322 1091.21 848.284C1091.55 848.083 1091.85 847.882 1092.12 847.681C1092.97 847.128 1093.61 846.693 1094.08 846.375C1094.21 846.291 1094.35 846.225 1094.45 846.158C1094.63 846.024 1094.73 845.957 1094.73 845.957Z" fill="#FCCF41"/>
<path d="M1195.05 826.501C1195.05 826.501 1144.24 857.889 1094.64 889.242C1077.84 899.805 1061.15 910.402 1046.65 919.793C1021.69 935.913 1003.14 948.367 1001.12 951.063C995.425 958.646 844.548 1222.21 800.455 1299.27L780.837 1293.79C851.512 1146.7 963.468 945.706 973.948 933.519C986.603 918.721 1058.45 870.159 1084.95 852.465C1085 852.431 1085.1 852.364 1085.18 852.331C1087.65 850.674 1089.67 849.318 1091.23 848.28C1091.56 848.079 1091.86 847.878 1092.13 847.677C1092.98 847.125 1093.62 846.689 1094.09 846.371C1094.22 846.288 1094.36 846.221 1094.46 846.154C1094.56 846.054 1094.64 846.02 1094.74 845.953C1118.65 830.469 1147.84 814.833 1162.79 809.51C1162.97 809.46 1163.16 809.393 1163.33 809.326C1168.21 807.585 1173.03 805.995 1177.55 804.555L1195.05 826.501Z" fill="#FCE27E"/>
<path d="M780.823 1257.2L762.577 1312.88L943.752 1364.41L970.335 1331.16L780.823 1257.2Z" fill="#FDE9DE"/>
<path d="M1501.49 747.757C1486.34 752.863 1470.27 756.998 1453.58 760.262C1342.23 782.091 1203 765.636 1122.37 752.21C1081.84 745.431 1056.08 739.454 1056.08 739.454C1056.08 739.454 1043.1 630.244 1043.1 588.562C1043.1 563.101 1045.04 539.463 1048.43 517.551C1071.59 367.227 1163.04 298.744 1169.54 294.057C1169.62 293.99 1169.72 293.923 1169.81 293.856C1169.86 293.823 1169.91 293.806 1169.91 293.806H1341.52L1404.48 326.181L1417.09 332.659L1421.88 335.12L1490.78 370.541L1492.48 429.784L1493.81 476.907L1501.49 747.757Z" fill="#470A27"/>
<path d="M1466.8 726.414C1463.6 737.981 1459.29 749.549 1453.59 760.262C1342.24 782.091 1203.02 765.636 1122.38 752.21C1122.21 752.01 1122.08 751.775 1121.94 751.574C1094.49 709.792 1082.1 659.321 1080.81 609.369C1079.53 559.4 1088.83 509.666 1101.99 461.472C1112.3 423.64 1125.24 386.009 1147.07 353.466C1163.66 328.775 1185.84 307.265 1212.52 293.806C1213.86 293.103 1215.19 292.467 1216.51 291.831C1245.97 278.121 1278.28 277.518 1310.62 277.769C1352.25 278.121 1394.72 297.522 1417.1 332.659C1437.44 364.565 1439.3 404.356 1444.22 441.903C1450.45 489.461 1462.45 536.133 1469.73 583.573C1477 631.014 1479.47 680.145 1466.8 726.414Z" fill="#300C21"/>
<path d="M1513.08 617.589C1512.56 614.961 1511.77 611.21 1510.5 606.624C1509.21 602.037 1507.47 596.596 1504.71 590.788C1501.97 584.996 1498.2 578.752 1492.93 573.161C1487.67 567.503 1481.58 563.385 1475.87 560.372C1470.11 557.409 1464.69 555.45 1460.08 554.128C1458.09 553.558 1456.27 553.107 1454.63 552.722C1452.6 550.813 1451.39 549.775 1451.39 549.775C1451.39 549.775 1451.78 550.679 1452.45 552.236C1451.19 551.985 1450.02 551.75 1449.07 551.583C1446.46 551.131 1444.98 550.947 1444.98 550.947C1444.98 550.947 1448.6 553.324 1454.58 557.225C1455.83 560.171 1457.4 563.887 1459.28 568.222C1463.95 579.505 1470.21 594.739 1472.99 611.663C1475.78 628.603 1475.25 645.226 1475.12 657.496C1475.08 663.673 1475.03 668.696 1475 672.161C1475.05 675.676 1475.08 677.635 1475.08 677.635C1475.08 677.635 1475.87 675.843 1477.27 672.629C1478.63 669.382 1480.52 664.695 1482.48 658.735C1484.42 652.776 1486.48 645.528 1487.7 637.141C1488.96 628.788 1489.39 619.196 1487.7 609.185C1486.08 599.158 1482.41 590.202 1478.35 582.719C1474.45 575.655 1470.21 569.863 1466.33 565.192C1472.3 569.461 1478.8 574.634 1484.67 580.911C1493.58 590.436 1500.24 601.134 1505.35 608.934C1507.91 612.851 1509.98 616.048 1511.44 618.258C1512.95 620.434 1513.8 621.657 1513.8 621.657C1513.8 621.657 1513.53 620.2 1513.08 617.589Z" fill="#300C21"/>
<path d="M1406.91 828.197C1398.21 858.529 1375.14 901.835 1314.21 922.291C1233.3 949.41 1180.1 847.615 1163.31 809.331C1188.06 800.576 1210.15 795.537 1210.15 795.537H1321.02C1321.02 795.537 1321.19 795.503 1321.49 795.503C1321.59 795.503 1321.72 795.503 1321.86 795.47C1322.24 795.436 1322.78 795.386 1323.43 795.386C1323.51 795.37 1323.55 795.369 1323.62 795.369C1327.01 795.285 1333.76 795.654 1343.79 798.182V798.215C1347.74 799.22 1352.17 800.559 1357.13 802.35C1370.22 807.104 1386.84 815.039 1406.91 828.197Z" fill="#F9AB7A"/>
<path d="M1309.87 906.738L1210.15 795.535C1210.32 779.013 1211.71 772.786 1213.2 731.907C1214.81 686.425 1216.46 643.822 1216.46 643.822L1344.78 694.543C1330.45 726.617 1324 763.194 1321.84 798.03C1317.32 871.451 1309.87 906.738 1309.87 906.738Z" fill="#F9AB7A"/>
<path d="M1344.78 694.54C1330.45 726.613 1324 763.191 1321.84 798.026C1317.79 799.717 1313.82 801.274 1310.11 802.563C1295.21 807.752 1247.35 765.283 1213.2 731.904C1214.81 686.422 1216.46 643.818 1216.46 643.818L1344.78 694.54Z" fill="#F57F7B"/>
<path d="M1479.4 542.09C1476.8 553.959 1473.47 566.43 1469.35 579.453C1469.35 579.453 1475.11 643.701 1468.37 658.114C1461.57 672.527 1418.36 762.287 1372.95 756.729C1335.07 752.109 1242.38 696.616 1210.17 663.521C1203.72 656.942 1199.71 651.251 1198.97 647.032C1194.55 621.538 1179.35 509.079 1177.93 499.672C1174.06 474.177 1163.37 281.066 1396.84 334.784C1438.87 344.493 1472.05 377.068 1481.56 419.169C1488.44 449.535 1490.7 490.331 1479.4 542.09Z" fill="#F9AB7A"/>
<path d="M1469.35 579.453C1469.35 579.453 1475.11 643.701 1468.37 658.114C1461.57 672.527 1418.36 762.287 1372.95 756.729C1335.07 752.109 1242.38 696.616 1210.17 663.521C1249.62 690.908 1354.84 760.83 1385.69 750.083C1423.92 736.792 1467.13 652.188 1466.31 643.818C1465.47 635.398 1462.97 580.576 1462.97 580.576C1462.97 580.576 1470.69 563.266 1479.4 542.09C1476.8 553.959 1473.47 566.43 1469.35 579.453Z" fill="#FBCDA7"/>
<path d="M1209.39 643.787C1180.1 641.494 1158.75 624.101 1147.34 609.554C1144.76 606.273 1142.7 603.126 1141.16 600.33C1132.79 585.164 1130.38 532.518 1151.92 520.281C1167.04 511.71 1178.02 524.13 1183.24 532.366V532.384C1185.49 535.882 1186.66 538.61 1186.66 538.61L1209.39 643.787Z" fill="#FBCDA7"/>
<path d="M1209.39 643.787C1180.1 641.494 1158.75 624.101 1147.34 609.554C1146.33 608.064 1145.48 606.642 1144.74 605.303C1136.37 590.136 1133.96 537.473 1155.52 525.269C1167.74 518.305 1177.29 525.152 1183.24 532.366V532.384C1185.49 535.882 1186.66 538.61 1186.66 538.61L1209.39 643.787Z" fill="#F9AB7A"/>
<path d="M1145.12 562.099C1144.05 566.317 1144.74 570.686 1146.11 574.838C1152 592.515 1169.65 605.99 1186.54 618.512C1181.45 609.958 1179.58 600.265 1180.63 590.857C1180.98 587.56 1181.68 584.312 1181.72 581.015C1181.85 567.773 1151.5 537.207 1145.12 562.099Z" fill="#F57F7B"/>
<path d="M1195.03 623.548C1195.03 623.548 1194.69 623.347 1194.06 622.995C1193.45 622.627 1192.46 622.141 1191.34 621.371C1189.08 619.848 1185.95 617.437 1183.01 613.838C1180.08 610.256 1177.42 605.485 1176.16 599.81C1175 594.169 1175.24 587.591 1178.29 581.246C1178.6 580.443 1179.06 579.706 1179.51 578.919L1179.84 578.367C1179.93 578.233 1179.88 578.333 1179.89 578.3V578.333L1179.91 578.317C1179.91 578.317 1179.93 578.333 1179.86 578.233L1179.59 577.714L1179.01 576.71C1178.62 576.04 1178.24 575.387 1177.83 574.734C1176.24 572.156 1174.5 569.729 1172.74 567.452C1170.97 565.209 1169.13 563.134 1167.32 561.225C1165.48 559.35 1163.72 557.576 1161.96 556.253C1160.22 554.931 1158.32 554.077 1156.51 553.843C1154.7 553.642 1152.99 554.044 1151.85 554.613C1150.68 555.199 1150.05 555.935 1149.78 556.488C1149.49 557.04 1149.51 557.375 1149.48 557.375C1149.48 557.375 1149.39 557.057 1149.54 556.437C1149.66 555.818 1150.11 554.897 1151.27 554.027C1152.44 553.19 1154.23 552.403 1156.62 552.353C1159 552.336 1161.56 553.123 1163.86 554.429C1166.17 555.735 1168.24 557.358 1170.43 559.133C1172.59 560.941 1174.8 562.966 1176.91 565.226C1179.04 567.485 1181.08 569.98 1182.92 572.675C1183.41 573.345 1183.84 574.048 1184.28 574.734L1184.93 575.789L1185.78 577.279L1186.39 578.333C1186.24 578.685 1185.99 579.036 1185.82 579.371L1184.95 580.878C1184.56 581.53 1184.18 582.183 1183.89 582.903C1181.27 588.394 1180.68 594.153 1181.17 599.309C1181.78 604.481 1183.53 609.068 1185.63 612.7C1187.74 616.35 1190.17 619.078 1192.01 620.852C1192.92 621.756 1193.74 622.376 1194.24 622.845C1194.76 623.297 1195.03 623.548 1195.03 623.548Z" fill="#F36367"/>
<path d="M1500.56 495.875C1500.56 495.875 1470.76 455.984 1454.14 471.77C1437.52 487.572 1445 489.213 1445 489.213L1500.56 495.875Z" fill="#470A27"/>
<path d="M1264.69 501.985C1264.69 501.985 1319.68 438.658 1342.19 461.157C1355.33 474.281 1346.19 483.22 1346.19 483.22L1264.69 501.985Z" fill="#470A27"/>
<path d="M1338.28 508.478C1335.63 515.275 1326.78 520.598 1320.57 523.611C1317.4 519.979 1313.53 517.819 1309.33 517.819C1298.62 517.819 1289.93 531.746 1289.93 548.938C1289.93 566.147 1298.62 580.092 1309.33 580.092C1320.03 580.092 1328.72 566.147 1328.72 548.938C1328.72 543.615 1327.88 538.61 1326.41 534.224C1334.58 527.043 1338.28 508.478 1338.28 508.478Z" fill="#121414"/>
<path d="M1271.44 531.582C1271.44 531.582 1278.25 542.261 1290.07 547.049C1301.89 551.82 1314.22 548.89 1314.22 548.89C1314.22 548.89 1307.41 538.194 1295.59 533.406C1283.77 528.635 1271.44 531.582 1271.44 531.582Z" fill="#FDE9DE"/>
<path d="M1469.47 525.05C1467.66 529.72 1461.65 533.387 1457.33 535.496C1455.12 533.336 1452.54 532.065 1449.76 532.065C1441.7 532.065 1435.15 542.577 1435.15 555.534C1435.15 568.491 1441.7 579.02 1449.76 579.02C1457.83 579.02 1464.38 568.491 1464.38 555.534C1464.38 550.646 1463.44 546.109 1461.85 542.342C1467.09 536.952 1469.47 525.05 1469.47 525.05Z" fill="#121414"/>
<path d="M1476.92 544.168C1476.92 544.168 1471.8 551.065 1463.4 554.479C1454.98 557.878 1446.49 556.471 1446.49 556.471C1446.49 556.471 1451.61 549.558 1460.03 546.143C1468.44 542.762 1476.92 544.168 1476.92 544.168Z" fill="#FDE9DE"/>
<path d="M1383.67 620.736C1378.89 618.979 1374.14 616.384 1369.08 616.886C1374.11 628.42 1383.83 637.811 1395.53 642.415C1396.44 642.766 1397.38 643.1 1398.35 643.067C1399.53 643.017 1400.62 642.448 1401.66 641.829C1408.12 638.045 1413.83 632.957 1418.35 626.964C1419.29 625.759 1420.16 624.452 1420.51 622.979C1421.67 618.074 1418.28 619.146 1415.39 620.301C1412.01 621.624 1408.46 622.511 1404.84 622.996C1397.74 623.934 1390.41 623.197 1383.67 620.736Z" fill="#F57F7B"/>
<path d="M1396.58 639.603C1399.56 636.924 1402.91 634.665 1405.99 632.053C1409.77 628.856 1413.3 625.34 1416.38 621.44C1400.45 610.458 1400.61 593.819 1401.38 574.97C1401.74 566.466 1404.1 558.063 1408.23 550.631C1410.41 546.713 1413.05 543.081 1416.12 539.817C1417.67 538.159 1419.31 536.585 1421.05 535.129C1422.76 533.706 1424.52 532.92 1426.58 532.066C1425.59 533.188 1424.92 534.493 1424.03 535.648C1421.72 538.661 1419.3 541.474 1417.3 544.738C1415.29 547.986 1413.59 551.434 1412.18 554.966C1409.34 562.064 1407.7 569.664 1407.43 577.297C1407.14 584.78 1408.25 592.38 1410.99 599.36C1414.12 607.362 1419.66 615.28 1426.95 619.933C1427 619.984 1416.05 632.623 1414.99 633.66C1412.21 636.322 1409.2 638.733 1405.97 640.775C1402.77 642.8 1399.12 645.194 1395.22 645.027C1394 644.977 1392.76 644.709 1391.76 643.989C1392.43 643.554 1393.06 643.052 1393.63 642.482C1393.89 642.248 1394.12 641.997 1394.35 641.729C1395.07 640.992 1395.81 640.289 1396.58 639.603Z" fill="#F36367"/>
<path d="M1369.12 688.565C1381.02 694.558 1395.58 694.976 1407.82 689.72C1403.57 695.897 1397.63 699.546 1390.13 699.262C1382.63 698.977 1374.17 694.106 1369.12 688.565Z" fill="#F36367"/>
<path d="M1324.18 654.72C1354.55 676.883 1396.18 682.574 1431.39 669.45C1412.1 673.451 1392.38 672.078 1372.86 669.316C1357.83 667.19 1336.91 663.023 1324.18 654.72Z" fill="#F36367"/>
<path d="M1443.69 627.418C1446.24 634.231 1460.95 635.017 1476.55 629.175C1492.17 623.333 1502.75 613.071 1500.21 606.258C1497.66 599.428 1482.93 598.658 1467.33 604.484C1451.71 610.343 1441.13 620.604 1443.69 627.418Z" fill="#F57F7B"/>
<path d="M1247.32 595.611C1244.65 605.873 1261.58 619.164 1285.11 625.258C1308.65 631.368 1329.89 627.969 1332.56 617.691C1335.23 607.396 1318.29 594.138 1294.76 588.028C1271.22 581.934 1249.98 585.333 1247.32 595.611Z" fill="#F57F7B"/>
<path d="M1511.13 550.328C1511.13 535.798 1504.84 522.691 1494.84 513.702C1491.95 511.04 1488.75 508.78 1485.29 506.872C1478.29 503.055 1470.24 500.879 1461.7 500.879C1459.2 500.879 1456.71 501.063 1454.32 501.431C1432.61 504.679 1415.48 522.071 1412.67 543.917C1412.37 546.009 1412.23 548.169 1412.23 550.328C1412.23 551.701 1412.3 553.057 1412.43 554.396C1414.46 579.741 1435.8 599.762 1461.7 599.762C1462.44 599.762 1463.17 599.762 1463.86 599.695C1466.05 599.628 1468.18 599.393 1470.24 598.992C1470.4 598.992 1470.57 598.958 1470.74 598.925C1471.11 598.858 1471.48 598.807 1471.84 598.724C1476.06 597.836 1480.05 596.413 1483.78 594.539C1486.66 593.116 1489.35 591.391 1491.88 589.416C1493.64 588.094 1495.33 586.604 1496.87 584.996C1497.89 584.009 1498.83 582.938 1499.73 581.85C1506.83 573.296 1511.13 562.297 1511.13 550.328ZM1364.93 549.793C1364.93 519.41 1340.23 494.752 1309.89 494.752C1279.54 494.752 1254.83 519.41 1254.83 549.793C1254.83 563.269 1259.68 575.589 1267.77 585.164C1277.83 597.167 1292.99 604.817 1309.89 604.817C1315.16 604.817 1320.28 604.097 1325.1 602.658C1348.09 596.079 1364.93 574.869 1364.93 549.793ZM1521.11 550.328C1521.11 566.114 1514.92 580.443 1504.84 591.09C1502.68 593.417 1500.32 595.543 1497.76 597.502C1497.61 597.635 1497.44 597.769 1497.24 597.903C1495.7 599.058 1494.11 600.113 1492.48 601.118C1490.63 602.256 1488.68 603.293 1486.69 604.214C1482.41 606.206 1477.82 607.713 1473.03 608.633C1472.83 608.667 1472.63 608.734 1472.43 608.734C1472.03 608.834 1471.64 608.902 1471.24 608.935C1468.98 609.337 1466.69 609.571 1464.34 609.671C1463.46 609.705 1462.6 609.721 1461.7 609.721C1460.04 609.721 1458.4 609.671 1456.81 609.504C1434.83 607.746 1416.22 593.869 1407.58 574.635C1405.75 570.651 1404.38 566.416 1403.49 562.03C1402.89 559.05 1402.52 555.953 1402.39 552.823C1392.98 545.809 1379.94 550.53 1374.74 552.923C1373.45 579.707 1355.89 602.323 1331.78 610.994C1324.93 613.471 1317.55 614.794 1309.89 614.794C1287.97 614.794 1268.57 603.913 1256.79 587.274C1249.27 576.661 1244.87 563.72 1244.87 549.793C1244.87 545.089 1245.39 540.535 1246.34 536.099L1211.72 530.442L1187.08 526.44L1183.88 525.921L1181.54 525.52L1177.37 524.851L1177.34 524.834L1173.35 524.198H1173.32L1172.42 524.03L1163.21 522.557L1161.99 522.34L1162.02 522.105L1162.78 517.418L1163.31 514.221L1163.58 512.496L1179.97 515.192H1180.1L1189.34 516.715L1249.24 526.491C1252.94 516.933 1258.85 508.412 1266.36 501.599C1277.86 491.153 1293.13 484.776 1309.89 484.776C1316.2 484.776 1322.34 485.679 1328.13 487.37C1352.79 494.602 1371.37 516.095 1374.43 542.243C1381.45 539.598 1392.68 537.037 1402.99 541.624C1406.78 516.012 1426.9 495.639 1452.41 491.622C1454.69 491.27 1457.01 491.036 1459.34 490.952C1460.13 490.885 1460.9 490.885 1461.7 490.885C1467.31 490.885 1472.76 491.689 1477.92 493.195C1480.82 493.982 1483.63 495.02 1486.34 496.275C1489.19 497.564 1491.91 499.054 1494.48 500.795C1510.5 511.425 1521.11 529.688 1521.11 550.328Z" fill="#121414"/>
<path d="M1497.24 431.727C1496.87 452.3 1494.92 468.957 1493.81 476.908C1493.34 480.189 1493.06 481.98 1493.06 481.98C1417.96 429.199 1417.7 368.484 1419.77 349.35C1399.4 455.732 1173.98 516.9 1173.98 516.9L1142.34 530.677C1142.34 530.677 1133.34 521.47 1125.32 502.955C1112.44 473.343 1102.12 419.925 1135.09 342.202C1143.71 321.846 1155.63 306.128 1169.54 294.059C1169.63 293.992 1169.73 293.924 1169.81 293.858C1242.39 231.2 1369.08 267.409 1369.08 267.409C1482.95 256.997 1498.36 365.069 1497.24 431.727Z" fill="#300C21"/>
<path d="M1233.89 568.594C1233.05 566.066 1231.78 562.434 1229.9 558.064C1228.03 553.695 1225.58 548.523 1222.07 543.133C1218.6 537.742 1214.05 532.05 1208.07 527.179C1202.13 522.291 1195.54 519.01 1189.48 516.784C1183.38 514.574 1177.76 513.369 1173.02 512.649C1170.96 512.348 1169.12 512.147 1167.43 511.963C1165.17 510.356 1163.83 509.485 1163.83 509.485C1163.83 509.485 1164.35 510.322 1165.2 511.795C1163.93 511.678 1162.74 511.611 1161.77 511.578C1159.11 511.461 1157.62 511.477 1157.62 511.477C1157.62 511.477 1161.54 513.369 1167.97 516.449C1169.59 519.211 1171.65 522.676 1174.06 526.744C1180.19 537.307 1188.39 551.603 1193.38 567.991C1198.38 584.43 1200.02 600.952 1201.53 613.156C1202.28 619.266 1202.9 624.254 1203.34 627.702C1203.84 631.168 1204.12 633.109 1204.12 633.109C1204.12 633.109 1204.68 631.235 1205.66 627.87C1206.57 624.489 1207.82 619.567 1208.98 613.407C1210.12 607.246 1211.21 599.797 1211.34 591.31C1211.46 582.856 1210.64 573.297 1207.64 563.622C1204.71 553.879 1199.91 545.476 1194.88 538.596C1190.1 532.101 1185.12 526.929 1180.65 522.794C1187.15 526.242 1194.26 530.51 1200.93 535.967C1211 544.237 1219.01 553.963 1225.08 561.027C1228.15 564.576 1230.64 567.455 1232.36 569.481C1234.16 571.439 1235.14 572.544 1235.14 572.544C1235.14 572.544 1234.71 571.122 1233.89 568.594Z" fill="#300C21"/>
<path d="M1497.24 431.725C1495.62 431.19 1494.04 430.521 1492.49 429.784C1456.85 413.613 1433.75 366.423 1421.88 335.12C1415.4 317.995 1412.24 305.625 1412.24 305.625C1411.94 311.484 1409.09 318.531 1404.49 326.181C1381.35 364.867 1314.21 419.523 1314.21 419.523L1324.17 388.738C1324.17 388.738 1305.82 418.652 1236.35 462.46C1208.06 480.288 1165.68 493.53 1125.32 502.954C1096.72 509.633 1069.17 514.42 1048.43 517.551C1052.75 489.528 1059.43 464.335 1067.51 441.87C1102.75 343.891 1164.25 297.891 1169.54 294.057C1169.63 293.99 1169.73 293.923 1169.81 293.856C1242.39 231.199 1369.08 267.407 1369.08 267.407C1377.17 266.671 1384.75 266.537 1391.85 266.938C1485.04 272.128 1498.3 369.788 1497.24 431.725Z" fill="#470A27"/>
<path d="M1391.86 266.943C1378.7 293.911 1352.8 313.815 1327.64 331.208C1332.1 323.056 1334.1 313.631 1333.32 304.374C1300.74 351.815 1254.41 389.681 1201.46 412.212C1207.77 399.758 1210.73 385.613 1209.99 371.685C1177.32 401.432 1137.46 423.076 1094.88 434.677C1087.66 436.636 1077.5 440.168 1067.52 441.875C1102.76 343.897 1164.26 297.896 1169.55 294.062C1169.64 293.995 1169.73 293.928 1169.82 293.861C1242.4 231.204 1369.09 267.413 1369.09 267.413C1377.18 266.676 1384.76 266.542 1391.86 266.943Z" fill="#630D30"/>
<path d="M2894.34 755.942C2876.88 805.746 2903.08 860.273 2952.87 877.751C3002.67 895.217 3057.19 869.024 3074.67 819.22C3092.13 769.428 3065.94 714.889 3016.14 697.411C2966.35 679.945 2911.83 706.15 2894.34 755.942Z" fill="#F4AA8F"/>
<path d="M2814.07 1184.75C2799.25 1226.96 2821.46 1273.2 2863.67 1288.01C2905.88 1302.81 2952.09 1280.6 2966.9 1238.39C2981.72 1196.2 2959.51 1149.97 2917.31 1135.16C2875.09 1120.33 2828.86 1142.54 2814.07 1184.75Z" fill="#F4AA8F"/>
<path d="M2889.35 779.504C2869.65 937.145 2823.54 1151.21 2814.06 1184.76L2966.9 1238.39C2966.9 1238.39 3073.33 932.873 3079.86 793.246L2889.35 779.504Z" fill="#F4AA8F"/>
<path d="M2882.24 1112.65C2865.43 1109.62 2848.52 1107.12 2831.71 1103.99C2831.71 1103.99 2876.34 883.641 2889.35 779.505L2889.4 779.517C2890.07 771.655 2891.61 763.731 2894.34 755.942C2911.83 706.149 2966.35 679.945 3016.14 697.411C3057.35 711.882 3082.31 751.718 3079.83 793.234L3079.86 793.246C3075.99 876.071 3050.14 1001.17 3027.34 1139.22C2987.03 1135.13 2922.22 1119.88 2882.24 1112.65Z" fill="#F19C53" fill-opacity="0.75"/>
<path d="M2948.13 1154.7C2916.72 1122.85 2865.44 1122.5 2833.6 1153.93C2801.76 1185.34 2801.42 1236.63 2832.83 1268.47C2864.25 1300.31 2915.53 1300.66 2947.37 1269.25C2979.2 1237.82 2979.54 1186.54 2948.13 1154.7Z" fill="#F4AA8F"/>
<path d="M2644.07 914.337C2627.79 897.809 2601.18 897.626 2584.68 913.924C2568.16 930.221 2567.98 956.827 2584.28 973.331C2600.57 989.847 2627.15 990.03 2643.68 973.733C2660.18 957.448 2660.37 930.842 2644.07 914.337Z" fill="#F4AA8F"/>
<path d="M2644.07 914.337C2678.59 956.047 2751.27 998.306 2831.42 1057.98C2908.63 1115.48 2948.13 1154.7 2948.13 1154.7L2832.83 1268.47C2832.83 1268.47 2607.26 1009.98 2578.33 965.687L2644.07 914.337Z" fill="#F4AA8F"/>
<path d="M2630.44 905.159C2609.06 896.14 2584.42 906.181 2575.42 927.554C2566.41 948.926 2576.44 973.573 2597.82 982.58C2619.19 991.587 2643.83 981.557 2652.84 960.173C2661.84 938.788 2651.82 914.166 2630.44 905.159Z" fill="#F4AA8F"/>
<path d="M2901.45 738.122C2874.14 783.289 2888.62 842.027 2933.77 869.327C2978.92 896.639 3037.67 882.168 3064.97 837.013C3092.28 791.845 3077.81 733.107 3032.66 705.808C2987.49 678.495 2928.74 692.967 2901.45 738.122Z" fill="#F19C53" fill-opacity="0.75"/>
<path d="M3502.98 811.052C3502.98 863.826 3545.78 906.607 3598.55 906.607C3651.32 906.607 3694.08 863.826 3694.08 811.052C3694.08 758.278 3651.32 715.508 3598.55 715.508C3545.78 715.508 3502.98 758.278 3502.98 811.052Z" fill="#F4DFCA"/>
<path d="M3580.68 866.479C3620.54 1142.19 3620.51 1467.67 3620.51 1467.67C3620.51 1467.67 3293.38 1463.34 3049.43 1417.74L3054.18 1176.53L2995.66 778.908L2917.38 718.393C2986.09 654.641 3227.51 570.197 3295.16 580.883C3401.61 597.692 3665.97 722.58 3673.9 752.448L3580.68 866.479Z" fill="#F19C53"/>
<path d="M3365.08 570.356C3365.08 570.356 3274.65 670.768 3249.52 664.111C3224.38 657.465 3213.29 568.665 3213.29 568.665C3213.29 568.665 3158.33 580.519 3152.11 591.327C3145.9 602.135 3142.62 707.635 3160.98 726.938C3179.35 746.23 3239.66 692.019 3239.66 692.019C3239.66 692.019 3291.41 759.107 3320.29 752.668C3349.17 746.229 3415.22 618.36 3419.5 603.17C3423.79 587.98 3365.08 570.356 3365.08 570.356Z" fill="white"/>
<path d="M3505.92 811.051C3505.92 863.825 3548.7 906.619 3601.47 906.619C3654.24 906.619 3697.01 863.825 3697.01 811.051C3697.01 758.277 3654.24 715.508 3601.47 715.508C3548.7 715.508 3505.92 758.277 3505.92 811.051Z" fill="#F4AA8F"/>
<path d="M3572.15 1266.62C3572.15 1311.35 3608.4 1347.61 3653.13 1347.61C3697.87 1347.61 3734.12 1311.35 3734.12 1266.62C3734.12 1221.88 3697.87 1185.62 3653.13 1185.62C3608.4 1185.62 3572.15 1221.88 3572.15 1266.62Z" fill="#F4AA8F"/>
<path d="M3509.01 834.957C3542.61 990.212 3569.98 1231.81 3572.15 1266.62H3734.13C3734.13 1266.62 3733.4 918.743 3693.33 784.824L3509.01 834.957Z" fill="#F4AA8F"/>
<path d="M3563.39 1182.95C3552.09 1103.74 3531.2 937.511 3509.01 834.956L3509.05 834.944C3507.08 827.289 3505.92 819.328 3505.92 811.052C3505.92 758.278 3548.7 715.509 3601.47 715.509C3645.14 715.509 3681.87 744.829 3693.28 784.835L3693.33 784.823C3717.1 864.265 3734.13 986.901 3754.78 1130.82C3703.8 1161.28 3580.28 1180.36 3563.39 1182.95Z" fill="#F19C53" fill-opacity="0.75"/>
<path d="M3633.57 1191.94C3590.15 1202.66 3563.64 1246.55 3574.36 1289.99C3585.09 1333.41 3628.99 1359.93 3672.41 1349.21C3715.83 1338.49 3742.35 1294.59 3731.62 1251.16C3720.91 1207.73 3677.01 1181.21 3633.57 1191.94Z" fill="#F4AA8F"/>
<path d="M3247.93 1336.22C3301.44 1327.9 3398.53 1281.19 3490.81 1242.81C3579.69 1205.85 3633.58 1191.94 3633.58 1191.94L3672.41 1349.21C3672.41 1349.21 3311.32 1416.77 3258.46 1418.98L3247.93 1336.22Z" fill="#F4AA8F"/>
<path d="M3257.29 1335.05C3219.83 1329.22 3146.7 1259.61 3128.19 1262.78C3109.69 1265.96 3012.83 1333.51 3017.62 1348.29C3022.44 1363.08 3041.99 1362.1 3039.68 1371.27C3037.36 1380.43 3037.66 1390.4 3058.41 1396.61C3079.15 1402.81 3135.98 1428.79 3169.9 1420.62C3203.83 1412.45 3246.79 1417.82 3246.79 1417.82L3257.29 1335.05Z" fill="#F4AA8F"/>
<path d="M3401.89 1405.69H3073.8V1443.86H3384.54C3394.13 1443.86 3401.89 1436.08 3401.89 1426.49V1405.69Z" fill="white"/>
<path d="M2522 1443.86H3099.83C3109.42 1443.86 3116.28 1436.08 3115.14 1426.49L3066.35 1015.28C3064.08 996.103 3046.69 980.548 3027.51 980.548H2484.41C2465.22 980.548 2451.52 996.103 2453.78 1015.28L2502.58 1426.49C2503.72 1436.08 2512.4 1443.86 2522 1443.86Z" fill="white"/>
<path d="M2734.76 1201.27C2734.76 1220.43 2750.29 1235.96 2769.45 1235.96C2788.6 1235.96 2804.13 1220.43 2804.13 1201.27C2804.13 1182.1 2788.6 1166.58 2769.45 1166.58C2750.29 1166.58 2734.76 1182.1 2734.76 1201.27Z" fill="#F4DFCA"/>
<path d="M1094 1425.69H1422.09V1463.86H1111.36C1101.77 1463.86 1094 1456.08 1094 1446.49V1425.69Z" fill="white"/>
<path d="M1973.89 1463.86H1396.06C1386.47 1463.86 1379.62 1456.08 1380.75 1446.49L1429.54 1035.28C1431.81 1016.1 1449.21 1000.55 1468.39 1000.55H2011.49C2030.67 1000.55 2044.37 1016.1 2042.11 1035.28L1993.32 1446.49C1992.17 1456.08 1983.49 1463.86 1973.89 1463.86Z" fill="white"/>
<path d="M1761.13 1221.27C1761.13 1240.43 1745.6 1255.96 1726.44 1255.96C1707.29 1255.96 1691.76 1240.43 1691.76 1221.27C1691.76 1202.1 1707.29 1186.58 1726.44 1186.58C1745.6 1186.58 1761.13 1202.1 1761.13 1221.27Z" fill="#F4DFCA"/>
<path d="M3383.04 399.865L3389.71 578.418L3174.3 586.3L3175.99 422.474L3383.04 399.865Z" fill="#E3B5AA"/>
<path d="M3442.87 346.447C3454.96 335.053 3481.34 323.544 3491.59 353.074C3496.7 367.841 3487.01 392.325 3477.66 412.811C3468.31 433.297 3462.98 448.969 3448.49 448.992C3434.01 449.017 3428.76 440.39 3428.76 440.39L3442.87 346.447Z" fill="#F7AC8D"/>
<path d="M3147.85 584.832C3159.85 602.175 3173.77 618.288 3188.57 628.884C3193.9 632.784 3199.72 635.963 3205.88 638.342C3246.66 653.52 3290.13 645.795 3315.18 633.945C3327.57 628.086 3358.06 605.092 3386.53 578.61L3389.71 575.601C3387.97 574.374 3386.47 572.829 3385.3 571.043C3383.56 568.366 3382.62 565.255 3382.56 562.064C3382.55 561.928 3382.55 561.79 3382.56 561.654V460.33H3176.82V561.654C3176.84 562.034 3176.84 562.414 3176.82 562.792C3176.76 564.177 3176.5 565.542 3176.04 566.851C3175.83 567.581 3175.56 568.296 3175.25 568.991C3175.11 569.311 3174.95 569.631 3174.79 569.948L3174.52 570.406C3174.43 570.588 3174.32 570.764 3174.2 570.93L3173.86 571.454C3171.76 574.538 3168.73 576.864 3165.2 578.086L3161.99 579.363L3147.85 584.832Z" fill="#FCD1C8"/>
<path d="M3278.47 460.33H3379.63V562.975C3360.78 585.972 3326.67 619.691 3268.37 622.732C3224.23 624.984 3182.79 588.133 3174.3 572.636C3176.39 569.405 3177.42 565.607 3177.28 561.758V460.399L3278.47 460.33Z" fill="#EFAFAF"/>
<path d="M3097.46 204.276C3097.46 204.276 3103.36 98.7979 3269.25 98.7979C3435.13 98.7979 3441.03 204.276 3441.03 204.276C3441.03 204.276 3454.53 436.624 3422.76 503.565C3390.98 570.506 3310.12 631.648 3247.76 631.648C3185.39 631.648 3125.75 534.373 3113.38 487.43C3101 440.489 3097.46 204.276 3097.46 204.276Z" fill="#F7AC8D"/>
<path d="M3075.56 190.088C3075.56 189.39 3075.56 188.717 3075.56 188.064C3075.67 185.816 3075.8 183.681 3075.99 181.59C3076.17 179.499 3076.37 177.452 3076.59 175.475C3077.02 172.057 3077.5 168.865 3078.02 165.941C3078.15 165.223 3078.29 164.525 3078.4 163.829C3078.81 161.716 3079.21 159.781 3079.62 157.983C3079.75 157.331 3079.91 156.701 3080.05 156.094C3081.22 151.171 3082.3 147.641 3082.94 145.753C3083.09 145.349 3083.18 145.033 3083.27 144.808L3083.48 144.224C3083.48 144.224 3073.82 117.245 3075.29 89.0293C3075.4 87.0517 3075.53 85.0723 3075.76 83.1171C3075.76 82.4194 3075.92 81.7459 3076.01 81.0481C3076 80.8989 3076 80.7478 3076.01 80.5985L3076.14 79.6097C3076.37 78.1098 3076.64 76.6117 3076.96 75.1136C3076.96 74.664 3077.14 74.192 3077.25 73.7405C3077.36 73.2909 3077.25 73.2685 3077.41 73.0222L3077.88 71.1118C3078.08 70.2723 3078.3 69.4402 3078.56 68.6156C3078.85 67.6716 3079.14 66.7277 3079.48 65.806C3079.82 64.8826 3080.14 63.9385 3080.52 63.0169C3080.91 62.0953 3081.06 61.6457 3081.38 60.9722C3081.56 60.5226 3081.79 60.0487 3081.99 59.5991C3082.19 59.1495 3082.62 58.295 3082.96 57.6215C3083.3 56.9462 3083.82 56.0246 3084.27 55.2167C3084.72 54.4071 3085.49 53.1702 3086.16 52.1814C3086.84 51.1908 3087.16 50.7187 3087.68 49.9333C3088.21 49.133 3088.82 48.3811 3089.48 47.6834C3089.89 47.258 3090.32 46.8532 3090.77 46.4484C3091.22 46.0435 3091.69 45.661 3092.17 45.301C3092.63 44.9222 3093.12 44.5697 3093.63 44.2451C3093.86 44.0734 3094.1 43.9167 3094.35 43.773C3094.58 43.607 3094.83 43.4559 3095.08 43.3234C3095.44 43.0977 3095.82 42.8738 3096.23 42.6705C3098.21 41.6202 3100.27 40.719 3102.39 39.9728L3103.85 39.4784L3106.83 38.5791C3108.03 38.2415 3109.27 37.9486 3110.53 37.6576L3114.37 36.8926C3115.48 36.6912 3116.63 36.5102 3117.73 36.3535L3121.16 35.9039L3123.58 35.6334L3125.47 35.4543C3126.39 35.3647 3127.32 35.2957 3128.25 35.2509L3132.51 34.9823L3138.54 34.7789C3141.38 34.7789 3144.18 34.7789 3146.82 34.7789H3149.28L3156.05 35.027L3158.31 35.1613L3165.28 35.6781L3168.14 35.9486L3169.68 36.1054H3170.24H3170.97C3170.91 34.9972 3170.91 33.8872 3170.97 32.779C3170.97 32.4189 3170.97 32.0141 3170.97 31.5645C3170.97 31.1148 3170.97 30.6876 3170.97 30.2156C3170.97 29.7436 3170.97 29.182 3171.1 28.641C3171.24 28.1018 3171.3 27.0235 3171.44 26.1467C3171.44 25.7194 3171.57 25.2923 3171.67 24.8426C3171.87 23.7401 3172.14 22.5945 3172.48 21.38C3173.15 18.826 3174.14 16.3653 3175.41 14.05C3175.91 13.1359 3176.46 12.2497 3177.06 11.3971C3178.35 9.59866 3179.86 7.97556 3181.57 6.56329C3182.46 5.8301 3183.4 5.16968 3184.39 4.58574C3184.73 4.36933 3185.07 4.1734 3185.43 4.00176L3186.24 3.57453L3187.21 3.12492L3188.14 2.74249C3188.55 2.56153 3189 2.40479 3189.45 2.24808C3189.9 2.0895 3190.71 1.84323 3191.39 1.68466C3192.06 1.52795 3192.76 1.347 3193.49 1.21267C3194.98 0.919771 3196.48 0.731353 3198 0.651131C3200 0.505613 3202.02 0.505613 3204.03 0.651131C3206.28 0.807843 3208.54 1.05594 3210.8 1.37123C3211.9 1.52795 3213.05 1.68467 3214.16 1.88803L3215.78 2.1567L3217.41 2.44957C3218.11 2.56151 3218.8 2.69772 3219.48 2.85443C3221.15 3.16972 3222.82 3.5503 3224.51 3.95514C3225.6 4.18088 3226.77 4.45138 3227.79 4.74242C3228.8 5.03532 3230.2 5.35064 3231.4 5.68645L3235.26 6.7666C3236.02 6.96809 3236.77 7.19387 3237.51 7.44013L3242.88 9.10426C3244.1 9.5091 3245.3 9.89156 3246.49 10.3188L3249.88 11.4866C3252.14 12.2739 3254.39 13.0836 3256.47 13.8933L3259.65 15.1078L3262.72 16.3204L3265.59 17.4678L3268.52 18.6824L3271.32 19.8502L3273.98 20.9976L3276.46 22.0759L3278.72 23.1337L3281.88 24.5721L3283.73 25.4266L3284.59 25.8314L3286.1 26.5515L3287.38 27.1579L3290.16 28.5291V27.697C3290.16 27.406 3290.16 27.0459 3290.16 26.6187C3290.16 26.1915 3290.16 26.0329 3290.16 25.697C3290.16 25.3594 3290.16 25.2251 3290.16 24.9769C3290.16 24.7288 3290.16 24.4825 3290.16 24.212C3290.16 23.4024 3290.29 22.5255 3290.41 21.6039L3290.54 20.5704C3290.54 19.964 3290.75 19.3335 3290.86 18.6824C3290.97 18.0294 3291.06 17.7607 3291.15 17.2887C3291.24 16.8167 3291.4 16.3205 3291.54 15.8261C3291.67 15.3317 3291.85 14.7701 3292.03 14.231C3292.21 13.6899 3292.33 13.3989 3292.51 12.9717C3292.88 12.0743 3293.32 11.2031 3293.82 10.3635C3294.06 9.95869 3294.33 9.57626 3294.6 9.2162C3294.88 8.85613 3295.19 8.47554 3295.51 8.13786L3296.18 7.48488C3296.55 7.1528 3296.95 6.85803 3297.38 6.60804L3297.85 6.31699L3298.33 6.06887L3298.69 5.91219L3299.34 5.66407L3300 5.48496C3300.35 5.39354 3300.7 5.32636 3301.06 5.28159H3301.51C3303.44 5.14913 3305.37 5.43273 3307.18 6.11368C3308.9 6.70135 3310.56 7.45504 3312.14 8.36173C3313.24 9.01283 3314.3 9.71802 3315.32 10.4755L3316.49 11.3747L3317.69 12.3187L3318.84 13.3094C3321.29 15.494 3323.62 17.813 3325.81 20.2551C3326.74 21.2905 3327.64 22.324 3328.54 23.3799L3330.03 25.1561L3332.43 28.1018C3334.79 31.0476 3336.94 33.8573 3338.95 36.1725L3339.69 37.0494L3340.55 38.0176L3341.36 38.9168C3341.88 39.5008 3342.4 39.9952 3342.87 40.4448C3344.41 41.8832 3345.72 42.6928 3346.73 42.4466H3347.23C3347.7 42.4466 3348.2 42.288 3348.7 42.2433L3350.37 42.0641H3350.93C3354.13 41.7936 3357.34 41.7936 3360.54 42.0641H3361.81L3363.09 42.1985C3364.75 42.4093 3366.42 42.678 3368.1 43.0082H3368.49C3369.23 43.1649 3369.98 43.3234 3370.74 43.5249L3372.14 43.9074L3373.56 44.3122C3374.38 44.5585 3375.19 44.829 3375.98 45.1219L3378.01 45.9297C3379.34 46.4931 3380.63 47.0995 3381.91 47.7748C3383.83 48.7897 3385.66 49.9538 3387.4 51.2598C3387.69 51.506 3387.91 51.6627 3388.19 51.9109C3398.81 60.4535 3404.84 75.5856 3409.71 79.4735C3420.12 87.7923 3450.83 87.8837 3467.89 135.681C3484.95 183.478 3472.4 230.826 3468.88 251.219C3468.07 256.028 3462.92 283.098 3462.11 296.497C3461.44 307.176 3462.5 337.257 3462.5 337.257C3457.22 339.843 3450.99 351.063 3449.25 361.292C3447.51 371.521 3446.45 407.179 3446.02 429.257C3445.91 435.395 3445.91 441.441 3446.02 447.377C3446.13 467.612 3446.59 486.406 3443.77 502.887C3440.54 521.771 3415.65 550.617 3388.1 576.562L3384.94 579.529C3356.73 605.653 3326.51 628.339 3314.24 634.117C3289.41 645.807 3246.31 653.43 3205.92 638.456C3199.82 636.107 3194.05 632.971 3188.77 629.126C3174.1 618.671 3160.32 602.776 3148.42 585.666C3134.85 566.029 3123.33 545.065 3114.03 523.097C3108.66 510.126 3105.52 462.642 3104.78 429.212C3106.81 440.872 3109.78 452.351 3113.65 463.543C3119.49 479.707 3130.5 493.781 3160.38 498.57C3165.91 499.423 3171.52 499.643 3177.1 499.221C3187.49 498.201 3197.75 496.268 3207.79 493.443C3221.17 490.117 3235.01 486.699 3250.19 486.699C3283.43 486.699 3292.28 497.738 3320.33 501.156C3338.61 503.404 3360.95 497.895 3380.56 484.113L3380.97 483.82C3391.86 476.018 3401.15 466.194 3408.32 454.887C3422.6 432.404 3428.74 299.51 3426.12 278.287C3423.5 257.064 3423.16 203.601 3384.33 191.954C3345.49 180.308 3311.17 227.499 3238.21 223.43C3165.26 219.36 3152.76 187.862 3131.5 200.521C3110.24 213.177 3106.67 260.616 3105.57 287.595C3104.44 314.079 3099.97 334.403 3100.4 352.052V352.412C3100.4 352.636 3100.4 352.861 3100.4 353.063C3100.4 353.266 3094.72 332.065 3089.95 309.156C3089.73 308.098 3089.5 306.907 3089.3 305.963C3088.92 304.141 3088.55 302.297 3088.22 300.477C3087.72 297.936 3087.25 295.419 3086.82 292.923C3086.46 290.831 3086.12 288.764 3085.78 286.74C3085.76 286.583 3085.76 286.425 3085.78 286.268C3085.1 281.906 3084.56 277.725 3084.15 273.88C3084.15 272.914 3083.97 271.97 3083.91 271.047C3083.84 270.125 3083.79 269.653 3083.73 268.979C3083.57 267.563 3083.43 266.168 3083.27 264.797C3083.12 263.425 3082.98 262.347 3082.8 261.155C3082.62 259.963 3082.55 259.312 3082.42 258.413C3081.31 251.194 3079.91 244.609 3078.6 237.391C3078.38 236.087 3078.13 234.76 3077.9 233.411L3077.57 231.32C3077.36 229.926 3077.14 228.51 3076.91 227.05C3076.5 224.104 3076.12 221.001 3075.8 217.651C3075.65 215.988 3075.51 214.279 3075.35 212.503C3075.2 210.727 3075.1 208.839 3075.01 206.905C3074.92 204.972 3074.86 202.97 3074.79 200.903C3074.79 197.8 3074.79 194.787 3074.79 191.909L3075.56 190.088Z" fill="#683E40"/>
<g style="mix-blend-mode:overlay" opacity="0.3">
<path d="M3388.81 52.0348C3383.39 53.7904 3364.05 48.32 3344.46 65.5379C3324.88 82.7559 3310.24 54.1713 3280.35 74.5419C3250.45 94.9105 3199.62 55.4993 3177.7 69.4768C3155.77 83.4544 3184.63 139 3129.16 146.473C3073.69 153.945 3094.06 208.817 3095.1 246.112C3095.87 267.299 3094.57 288.512 3091.2 309.446C3088.42 296.86 3086.37 284.123 3085.08 271.298C3083.17 247.035 3076.93 234.408 3076.08 201.12C3075.39 181.779 3078.11 162.467 3084.11 144.065C3084.11 144.065 3062.79 84.1062 3088.43 49.6703C3103.41 27.6357 3171.73 36.1671 3171.73 36.1671C3171.73 36.1671 3168.35 -1.96101 3204.89 0.672382C3241.43 3.30578 3290.84 28.6947 3290.84 28.6947C3290.84 28.6947 3289.78 -0.091541 3307.9 6.18752C3326.03 12.4666 3341.38 43.6397 3347.37 42.6031C3358.62 40.6682 3375.87 42.3117 3387.89 51.6071L3388.81 52.0348Z" fill="white"/>
</g>
<path d="M3299.01 388.527C3299.01 401.058 3306.59 411.202 3316.02 411.202C3325.45 411.202 3333.03 401.058 3333.03 388.527C3333.03 375.998 3325.45 365.854 3316.02 365.854C3306.59 365.854 3299.01 375.998 3299.01 388.527Z" fill="#683E40"/>
<path d="M3181.23 411.202C3172.54 411.202 3165.49 401.051 3165.49 388.527C3165.49 376.005 3172.54 365.854 3181.23 365.854C3189.93 365.854 3196.98 376.005 3196.98 388.527C3196.98 401.051 3189.93 411.202 3181.23 411.202Z" fill="#683E40"/>
<path d="M3290.98 335.946C3285.5 333.854 3286.91 318.149 3294.66 312.855C3302.41 307.561 3351.54 321.755 3358.46 325.446C3365.38 329.138 3368.03 335.946 3366.71 338.438C3365.38 340.928 3296.49 338.037 3290.98 335.946Z" fill="#683E40"/>
<path d="M3208.57 335.946C3214.41 333.854 3212.92 318.149 3204.68 312.855C3196.44 307.561 3144.2 321.755 3136.82 325.446C3129.43 329.138 3126.65 335.946 3128.04 338.438C3129.43 340.928 3202.74 338.037 3208.57 335.946Z" fill="#683E40"/>
<path d="M3203.35 546.388C3204.53 532.346 3219.43 541.166 3249.26 541.166C3279.1 541.166 3293.99 532.346 3295.15 546.388C3296.32 560.434 3285.14 597.637 3249.26 597.637C3213.39 597.637 3202.25 560.434 3203.35 546.388Z" fill="white"/>
<path d="M2569.18 936.97C2568.08 913.802 2585.97 894.132 2609.15 893.027C2632.31 891.936 2652 909.834 2653.09 932.994C2654.19 956.181 2636.3 975.85 2613.13 976.948C2589.96 978.046 2570.27 960.148 2569.18 936.97Z" fill="#F4AA8F"/>
<path d="M2419.03 874.113C2422.77 869.963 2429.09 868.831 2432.6 864.498C2436.92 859.228 2435.39 851.195 2431.86 845.365C2428.32 839.535 2423.09 834.849 2419.78 828.885C2416.45 822.934 2415.58 814.669 2420.46 809.898C2425.61 804.884 2434.89 805.845 2439.4 800.247C2443.34 795.354 2441.5 788.039 2438.56 782.477C2435.61 776.927 2431.61 771.437 2431.7 765.145C2431.89 753.193 2447.55 746.645 2458.77 750.783C2473.09 756.077 2484.78 767.031 2496.64 776.257C2503.68 781.722 2520.73 798.628 2530.22 793.796C2534.74 791.495 2537.39 786.591 2538.55 781.673C2539.72 776.732 2539.64 771.608 2540.25 766.581C2541.98 752 2549.55 738.186 2560.92 728.875C2565.02 725.516 2570.28 722.607 2575.41 723.933C2580.81 725.345 2584.1 731.151 2584.54 736.725C2584.98 742.3 2583.24 747.777 2581.84 753.205C2574.06 783.256 2576.62 818.844 2589.42 847.166C2599.58 869.658 2622.47 888.11 2637.77 906.975L2598.16 977.361C2550.41 953.567 2505.71 938.048 2467.3 920.388C2452.71 913.67 2432.74 907.365 2421.36 895.522C2415.87 889.826 2413.75 880.004 2419.03 874.113Z" fill="#F4AA8F"/>
<path d="M3834 231V586.678C3834 603.738 3853.99 612.966 3866.97 601.9L3961.95 520.955C3965.57 517.871 3970.17 516.177 3974.93 516.177H4340C4351.05 516.177 4360 507.223 4360 496.177V231C4360 219.954 4351.05 211 4340 211H3854C3842.95 211 3834 219.954 3834 231Z" fill="white" stroke="#161A37" stroke-width="20"/>
<circle cx="3969.27" cy="374.311" r="31.3425" fill="#F9AB7A"/>
<circle cx="4097.11" cy="374.311" r="31.3425" fill="#F9AB7A"/>
<circle cx="4224.96" cy="374.311" r="31.3425" fill="#F9AB7A"/>
<path d="M0 1468H4688" stroke="#161A37" stroke-width="20"/>
<path d="M707 571V926.678C707 943.738 687.012 952.966 674.027 941.9L579.045 860.955C575.426 857.871 570.827 856.177 566.073 856.177H201C189.954 856.177 181 847.223 181 836.177V571C181 559.954 189.954 551 201 551H687C698.046 551 707 559.954 707 571Z" fill="white" stroke="#161A37" stroke-width="20"/>
<circle r="31.3425" transform="matrix(-1 0 0 1 571.733 714.311)" fill="#F9AB7A"/>
<circle r="31.3425" transform="matrix(-1 0 0 1 443.888 714.311)" fill="#F9AB7A"/>
<circle r="31.3425" transform="matrix(-1 0 0 1 316.044 714.311)" fill="#F9AB7A"/>
</svg>
