<svg width="124" height="124" viewBox="0 0 124 124" fill="none" xmlns="http://www.w3.org/2000/svg">
<path d="M108.913 44.3301V79.6699C108.913 85.4566 105.813 90.8301 100.802 93.7751L70.1118 111.497C65.1002 114.39 58.9002 114.39 53.8368 111.497L23.1468 93.7751C18.1352 90.8818 15.0352 85.5083 15.0352 79.6699V44.3301C15.0352 38.5434 18.1352 33.1699 23.1468 30.2249L53.8368 12.5033C58.8485 9.60992 65.0485 9.60992 70.1118 12.5033L100.802 30.2249C105.813 33.1699 108.913 38.4918 108.913 44.3301Z" stroke="#292D32" stroke-width="6" stroke-linecap="round" stroke-linejoin="round"/>
<path d="M61.9998 56.8334C68.6483 56.8334 74.0381 51.4435 74.0381 44.7949C74.0381 38.1464 68.6483 32.7568 61.9998 32.7568C55.3512 32.7568 49.9614 38.1464 49.9614 44.7949C49.9614 51.4435 55.3512 56.8334 61.9998 56.8334Z" stroke="#FF8140" stroke-width="6" stroke-linecap="round" stroke-linejoin="round"/>
<path d="M82.6668 86.0765C82.6668 76.7765 73.4185 69.2334 62.0002 69.2334C50.5818 69.2334 41.3335 76.7765 41.3335 86.0765" stroke="#FF8140" stroke-width="6" stroke-linecap="round" stroke-linejoin="round"/>
</svg>
