<svg width="124" height="124" viewBox="0 0 124 124" fill="none" xmlns="http://www.w3.org/2000/svg">
<path d="M12.9165 64.1182V40.5068C12.9165 34.3585 16.6882 28.8816 22.4232 26.7116L63.4465 11.2116C69.8532 8.78328 76.7249 13.5368 76.7249 20.4084V40.0417" stroke="#FF8140" stroke-width="6" stroke-linecap="round" stroke-linejoin="round"/>
<path d="M93.2065 70.0081C91.0365 72.1264 89.7965 75.1748 90.1065 78.4298C90.5715 84.0098 95.6865 88.0914 101.267 88.0914H111.083V94.2398C111.083 104.935 102.352 113.667 91.6565 113.667H39.4215C41.0232 112.323 42.4182 110.67 43.5032 108.81C45.4148 105.71 46.4998 102.042 46.4998 98.1665C46.4998 86.7482 37.2515 77.4998 25.8332 77.4998C20.9765 77.4998 16.4815 79.2049 12.9165 82.0465V59.4682C12.9165 48.7732 21.6481 40.0415 32.3431 40.0415H91.6565C102.352 40.0415 111.083 48.7732 111.083 59.4682V66.9082H100.646C97.7531 66.9082 95.1181 68.0448 93.2065 70.0081Z" stroke="#292D32" stroke-width="6" stroke-linecap="round" stroke-linejoin="round"/>
<path d="M116.56 72.178V82.8216C116.56 85.6633 114.287 87.9881 111.393 88.0914H101.267C95.6867 88.0914 90.5717 84.0098 90.1067 78.4298C89.7967 75.1748 91.0367 72.1264 93.2067 70.0081C95.1183 68.0447 97.7533 66.9082 100.647 66.9082H111.393C114.287 67.0115 116.56 69.3363 116.56 72.178Z" stroke="#292D32" stroke-width="6" stroke-linecap="round" stroke-linejoin="round"/>
<path d="M36.1665 62H72.3332" stroke="#FF8140" stroke-width="6" stroke-linecap="round" stroke-linejoin="round"/>
<path d="M46.4998 98.1667C46.4998 102.042 45.4148 105.71 43.5032 108.81C42.4182 110.67 41.0232 112.323 39.4215 113.667C35.8049 116.922 31.0515 118.833 25.8332 118.833C18.2898 118.833 11.7282 114.803 8.16318 108.81C6.25151 105.71 5.1665 102.042 5.1665 98.1667C5.1665 91.6567 8.16317 85.8184 12.9165 82.0467C16.4815 79.205 20.9765 77.5 25.8332 77.5C37.2515 77.5 46.4998 86.7483 46.4998 98.1667Z" stroke="#292D32" stroke-width="6" stroke-miterlimit="10" stroke-linecap="round" stroke-linejoin="round"/>
<path d="M17.7729 98.1667L22.8879 103.282L33.8929 93.1035" stroke="#292D32" stroke-width="6" stroke-linecap="round" stroke-linejoin="round"/>
</svg>
