<svg width="124" height="124" viewBox="0 0 124 124" fill="none" xmlns="http://www.w3.org/2000/svg">
<path d="M61.9998 61.9999C76.2672 61.9999 87.8332 50.4339 87.8332 36.1666C87.8332 21.8992 76.2672 10.3333 61.9998 10.3333C47.7325 10.3333 36.1665 21.8992 36.1665 36.1666C36.1665 50.4339 47.7325 61.9999 61.9998 61.9999Z" stroke="#292D32" stroke-width="6" stroke-linecap="round" stroke-linejoin="round"/>
<path d="M17.6182 113.667C17.6182 93.6717 37.5098 77.5 61.9998 77.5C66.9598 77.5 71.7649 78.1716 76.2599 79.4116" stroke="#FF8140" stroke-width="6" stroke-linecap="round" stroke-linejoin="round"/>
<path d="M113.667 92.9999C113.667 94.6533 113.46 96.2549 113.047 97.8049C112.582 99.8715 111.755 101.887 110.67 103.643C107.105 109.637 100.543 113.667 93.0002 113.667C87.6785 113.667 82.8735 111.651 79.2568 108.345C77.7068 107.001 76.3634 105.4 75.3301 103.643C73.4184 100.543 72.3335 96.8749 72.3335 92.9999C72.3335 87.4199 74.5552 82.305 78.1719 78.585C81.9435 74.71 87.2135 72.3333 93.0002 72.3333C99.0968 72.3333 104.625 74.9683 108.345 79.205C111.652 82.8733 113.667 87.7299 113.667 92.9999Z" stroke="#292D32" stroke-width="6" stroke-miterlimit="10" stroke-linecap="round" stroke-linejoin="round"/>
<path d="M100.698 92.8967H85.3018" stroke="#292D32" stroke-width="6" stroke-miterlimit="10" stroke-linecap="round" stroke-linejoin="round"/>
<path d="M93.0015 85.3535V100.802" stroke="#292D32" stroke-width="6" stroke-miterlimit="10" stroke-linecap="round" stroke-linejoin="round"/>
</svg>
