<svg width="124" height="124" viewBox="0 0 124 124" fill="none" xmlns="http://www.w3.org/2000/svg">
<path d="M44.7952 72.3335H20.6668C14.9835 72.3335 10.3335 76.9835 10.3335 82.6668V113.667H44.7952V72.3335Z" stroke="#292D32" stroke-width="6" stroke-miterlimit="10" stroke-linecap="round" stroke-linejoin="round"/>
<path d="M68.8715 51.6665H55.0765C49.3932 51.6665 44.7432 56.3165 44.7432 61.9998V113.667H79.2048V61.9998C79.2048 56.3165 74.6065 51.6665 68.8715 51.6665Z" stroke="#292D32" stroke-width="6" stroke-miterlimit="10" stroke-linecap="round" stroke-linejoin="round"/>
<path d="M103.333 87.8335H79.2051V113.667H113.667V98.1668C113.667 92.4835 109.017 87.8335 103.333 87.8335Z" stroke="#292D32" stroke-width="6" stroke-miterlimit="10" stroke-linecap="round" stroke-linejoin="round"/>
<path d="M64.6869 10.6951L67.4252 16.1717C67.7869 16.9467 68.7685 17.67 69.5952 17.7734L74.5552 18.6001C77.7069 19.1167 78.4819 21.4416 76.2085 23.6633L72.3335 27.5383C71.6619 28.21 71.3002 29.45 71.5069 30.3283L72.5919 35.0817C73.4702 38.8534 71.4552 40.3001 68.1485 38.3368L63.4985 35.5984C62.6719 35.0818 61.2769 35.0818 60.4502 35.5984L55.8002 38.3368C52.4935 40.3001 50.4785 38.8534 51.3569 35.0817L52.4419 30.3283C52.6486 29.45 52.2869 28.1583 51.6152 27.5383L47.7919 23.715C45.5185 21.4417 46.2419 19.1683 49.4452 18.6516L54.4052 17.8251C55.2319 17.6701 56.2135 16.9468 56.5752 16.2234L59.3135 10.7466C60.8119 7.74996 63.1885 7.75006 64.6869 10.6951Z" stroke="#FF8140" stroke-width="6" stroke-linecap="round" stroke-linejoin="round"/>
</svg>
