<svg width="124" height="124" viewBox="0 0 124 124" fill="none" xmlns="http://www.w3.org/2000/svg">
<path d="M62.0002 74.9168C69.1338 74.9168 74.9168 69.1338 74.9168 62.0002C74.9168 54.8665 69.1338 49.0835 62.0002 49.0835C54.8665 49.0835 49.0835 54.8665 49.0835 62.0002C49.0835 69.1338 54.8665 74.9168 62.0002 74.9168Z" stroke="#FF8140" stroke-width="6" stroke-miterlimit="10" stroke-linecap="round" stroke-linejoin="round"/>
<path d="M95.5835 49.0835V74.9168" stroke="#FF8140" stroke-width="6" stroke-miterlimit="10" stroke-linecap="round" stroke-linejoin="round"/>
<path d="M46.4998 93.0002C46.4998 96.8752 45.4149 100.543 43.5032 103.643C39.9382 109.637 33.3765 113.667 25.8332 113.667C18.2898 113.667 11.7281 109.637 8.1631 103.643C6.25143 100.543 5.1665 96.8752 5.1665 93.0002C5.1665 81.5818 14.4148 72.3335 25.8332 72.3335C37.2515 72.3335 46.4998 81.5818 46.4998 93.0002Z" stroke="#292D32" stroke-width="6" stroke-miterlimit="10" stroke-linecap="round" stroke-linejoin="round"/>
<path d="M17.7729 93.0002L22.8879 98.1152L33.8929 87.937" stroke="#292D32" stroke-width="6" stroke-linecap="round" stroke-linejoin="round"/>
<path d="M10.3335 79.0498V46.4998C10.3335 28.4165 20.6668 20.6665 36.1668 20.6665H87.8335C103.334 20.6665 113.667 28.4165 113.667 46.4998V77.4998C113.667 95.5832 103.334 103.333 87.8335 103.333H43.9168" stroke="#292D32" stroke-width="6" stroke-miterlimit="10" stroke-linecap="round" stroke-linejoin="round"/>
</svg>
