<svg width="124" height="124" viewBox="0 0 124 124" fill="none" xmlns="http://www.w3.org/2000/svg">
<path d="M113.512 94.7049C113.512 96.5649 113.098 98.4766 112.22 100.337C111.342 102.197 110.205 103.953 108.707 105.607C106.175 108.397 103.385 110.412 100.233 111.703C97.1335 112.995 93.7752 113.667 90.1585 113.667C84.8885 113.667 79.2568 112.427 73.3152 109.895C67.3735 107.363 61.4318 103.953 55.5418 99.6649C49.6002 95.3249 43.9685 90.5199 38.5952 85.1983C33.2735 79.8249 28.4685 74.1933 24.1802 68.3033C19.9435 62.4133 16.5335 56.5233 14.0535 50.6849C11.5735 44.7949 10.3335 39.1633 10.3335 33.7899C10.3335 30.2766 10.9535 26.9183 12.1935 23.8183C13.4335 20.6666 15.3968 17.7733 18.1352 15.1899C21.4418 11.9349 25.0585 10.3333 28.8818 10.3333C30.3285 10.3333 31.7752 10.6433 33.0668 11.2633C34.4102 11.8833 35.5985 12.8133 36.5285 14.1566L48.5152 31.0516C49.4452 32.3433 50.1168 33.5316 50.5818 34.6683C51.0468 35.7533 51.3052 36.8383 51.3052 37.8199C51.3052 39.0599 50.9435 40.2999 50.2202 41.4883C49.5485 42.6766 48.5668 43.9166 47.3268 45.1566L43.4002 49.2383C42.8318 49.8066 42.5735 50.4783 42.5735 51.3049C42.5735 51.7183 42.6252 52.0799 42.7285 52.4933C42.8835 52.9066 43.0385 53.2166 43.1418 53.5266C44.0718 55.2316 45.6735 57.4533 47.9468 60.1399C50.2718 62.8266 52.7518 65.5649 55.4385 68.3033C58.2285 71.0416 60.9152 73.5733 63.6535 75.8983C66.3402 78.1716 68.5618 79.7216 70.3185 80.6516C70.5768 80.7549 70.8868 80.9099 71.2485 81.0649C71.6618 81.2199 72.0752 81.2716 72.5402 81.2716C73.4185 81.2716 74.0902 80.9616 74.6585 80.3933L78.5852 76.5183C79.8768 75.2266 81.1168 74.2449 82.3052 73.6249C83.4935 72.9016 84.6818 72.5399 85.9735 72.5399C86.9552 72.5399 87.9885 72.7466 89.1252 73.2116C90.2618 73.6766 91.4502 74.3483 92.7418 75.2266L109.843 87.3683C111.187 88.2983 112.117 89.3833 112.685 90.6749C113.202 91.9666 113.512 93.2583 113.512 94.7049Z" stroke="#292D32" stroke-width="6" stroke-miterlimit="10"/>
<path d="M95.5833 46.5001C95.5833 43.4001 93.155 38.6467 89.5383 34.7717C86.2317 31.2067 81.84 28.4167 77.5 28.4167" stroke="#FF8140" stroke-width="6" stroke-linecap="round" stroke-linejoin="round"/>
<path d="M113.667 46.4999C113.667 26.5049 97.495 10.3333 77.5 10.3333" stroke="#FF8140" stroke-width="6" stroke-linecap="round" stroke-linejoin="round"/>
</svg>
