<svg width="124" height="124" viewBox="0 0 124 124" fill="none" xmlns="http://www.w3.org/2000/svg">
<path d="M56.4717 10.8501L31 51.6668" stroke="#FF8140" stroke-width="6" stroke-miterlimit="10" stroke-linecap="round" stroke-linejoin="round"/>
<path d="M27.9002 10.8501H96.1002C101.784 10.8501 106.434 15.5001 106.434 21.1834V32.5501C106.434 36.6834 103.85 41.8501 101.267 44.4334L79.0502 64.0668C75.9502 66.6501 73.8836 71.8168 73.8836 75.9501V98.1668C73.8836 101.267 71.8169 105.4 69.2336 106.95L62.0002 111.6C55.2836 115.733 45.9836 111.083 45.9836 102.817V75.4334C45.9836 71.8168 43.9169 67.1668 41.8502 64.5834L22.2169 43.9168C19.6336 41.3334 17.5669 36.6834 17.5669 33.5834V21.7001C17.5669 15.5001 22.2169 10.8501 27.9002 10.8501Z" stroke="#292D32" stroke-width="6" stroke-miterlimit="10" stroke-linecap="round" stroke-linejoin="round"/>
</svg>
