<svg xmlns="http://www.w3.org/2000/svg" width="2832" height="2838" viewBox="0 0 2832 2838" fill="none"><g opacity="0.49"><g style="mix-blend-mode:multiply" opacity="0.3"><path d="M2746.26 1851H2486.61C2479.56 1851.02 2472.81 1853.84 2467.82 1858.82C2462.84 1863.81 2460.02 1870.56 2460 1877.61V1982.07C2460.02 1989.12 2462.84 1995.87 2467.82 2000.85C2472.81 2005.82 2479.57 2008.63 2486.61 2008.64H2662.55C2664.6 2008.66 2666.62 2009.14 2668.47 2010.02C2670.31 2010.91 2671.94 2012.19 2673.24 2013.77C2674.54 2015.36 2675.47 2017.21 2675.98 2019.19C2676.49 2021.18 2676.56 2023.25 2676.18 2025.26L2667.1 2076.13C2666.96 2076.97 2667.09 2077.83 2667.48 2078.59C2667.87 2079.34 2668.5 2079.95 2669.26 2080.33C2670.03 2080.7 2670.9 2080.81 2671.73 2080.66C2672.57 2080.5 2673.33 2080.07 2673.91 2079.44L2731.41 2015.31C2733.25 2013.26 2735.52 2011.61 2738.04 2010.48C2740.57 2009.36 2743.31 2008.77 2746.07 2008.77C2753.12 2008.76 2759.88 2005.96 2764.86 2000.98C2769.85 1996 2772.66 1989.25 2772.69 1982.21V1877.75C2772.71 1870.7 2769.95 1863.93 2764.99 1858.92C2760.04 1853.91 2753.3 1851.06 2746.26 1851Z" fill="#FF8140"></path></g><g style="mix-blend-mode:multiply" opacity="0.3"><path d="M2134.26 36H1874.61C1867.56 36.0239 1860.81 38.8356 1855.82 43.8214C1850.84 48.8073 1848.02 55.5627 1848 62.6137V167.07C1848.02 174.117 1850.84 180.868 1855.82 185.846C1860.81 190.825 1867.57 193.626 1874.61 193.638H2050.55C2052.6 193.663 2054.62 194.135 2056.47 195.023C2058.31 195.91 2059.94 197.191 2061.24 198.775C2062.54 200.359 2063.47 202.208 2063.98 204.192C2064.49 206.176 2064.56 208.248 2064.18 210.261L2055.1 261.126C2054.96 261.967 2055.09 262.83 2055.48 263.587C2055.87 264.344 2056.5 264.954 2057.26 265.327C2058.03 265.7 2058.9 265.815 2059.73 265.655C2060.57 265.496 2061.33 265.07 2061.91 264.442L2119.4 200.315C2121.25 198.191 2123.54 196.489 2126.1 195.322C2128.66 194.155 2131.44 193.55 2134.26 193.548C2141.3 193.536 2148.06 190.734 2153.05 185.755C2158.03 180.777 2160.85 174.026 2160.87 166.979V62.5229C2160.83 55.4839 2158.02 48.7449 2153.03 43.776C2148.04 38.8072 2141.3 36.0119 2134.26 36Z" fill="#FF8140"></path></g><g style="mix-blend-mode:multiply" opacity="0.3"><path d="M36.8776 1617H396.707C406.468 1617.02 415.823 1620.91 422.725 1627.81C429.627 1634.72 433.516 1644.07 433.54 1653.83V1798.48C433.516 1808.24 429.627 1817.6 422.725 1824.5C415.823 1831.4 406.468 1835.29 396.707 1835.31H152.915C150.06 1835.32 147.24 1835.95 144.657 1837.17C142.073 1838.38 139.789 1840.15 137.964 1842.35C136.14 1844.55 134.821 1847.12 134.101 1849.88C133.38 1852.64 133.276 1855.53 133.795 1858.34L146.421 1928.83C146.626 1929.98 146.449 1931.18 145.914 1932.23C145.38 1933.27 144.518 1934.12 143.46 1934.63C142.401 1935.15 141.204 1935.3 140.05 1935.07C138.896 1934.84 137.848 1934.25 137.065 1933.37L57.2238 1844.31C54.6639 1841.44 51.5282 1839.16 48.0218 1837.59C44.5154 1836.02 40.7176 1835.22 36.8776 1835.22C27.1123 1835.2 17.7531 1831.31 10.8436 1824.41C3.93422 1817.51 0.035961 1808.16 0 1798.39V1653.83C0.035961 1644.07 3.93422 1634.71 10.8436 1627.81C17.7531 1620.91 27.1123 1617.02 36.8776 1617Z" fill="#FF8140"></path></g><g style="mix-blend-mode:multiply" opacity="0.3"><path d="M2100.09 2571.62L2343.07 2449C2346.34 2447.35 2349.9 2446.35 2353.55 2446.08C2357.2 2445.8 2360.87 2446.25 2364.35 2447.39C2367.83 2448.54 2371.05 2450.35 2373.83 2452.74C2376.6 2455.13 2378.88 2458.04 2380.54 2461.31L2429.9 2558.95C2433.2 2565.56 2433.76 2573.2 2431.46 2580.22C2429.15 2587.23 2424.17 2593.06 2417.6 2596.42L2252.96 2679.62C2251.03 2680.59 2249.34 2681.98 2248.01 2683.69C2246.68 2685.39 2245.74 2687.37 2245.26 2689.48C2244.79 2691.59 2244.78 2693.78 2245.25 2695.89C2245.72 2698 2246.64 2699.98 2247.97 2701.69L2280.53 2744.93C2281.05 2745.65 2281.33 2746.51 2281.32 2747.4C2281.32 2748.29 2281.02 2749.15 2280.49 2749.85C2279.95 2750.56 2279.21 2751.08 2278.35 2751.33C2277.5 2751.58 2276.59 2751.55 2275.76 2751.24L2191.7 2718.18C2188.98 2717.13 2186.08 2716.67 2183.18 2716.82C2180.28 2716.97 2177.44 2717.73 2174.85 2719.04C2168.24 2722.34 2160.6 2722.9 2153.58 2720.6C2146.57 2718.29 2140.74 2713.31 2137.38 2706.73L2088.01 2609.04C2084.69 2602.47 2084.09 2594.86 2086.35 2587.85C2088.61 2580.84 2093.55 2575.01 2100.09 2571.62Z" fill="#FF8140"></path></g><g style="mix-blend-mode:multiply" opacity="0.3"><path d="M1602.86 605.177C1612.39 608.356 1624.02 610.445 1632.83 615.168C1645.46 608.583 1663.71 605.676 1676.34 601.544L2003.74 490.456V464.524C2003.79 454.229 2001.8 444.026 1997.9 434.502C1993.99 424.977 1988.24 416.317 1980.98 409.021C1973.71 401.725 1965.08 395.935 1955.58 391.984C1946.07 388.034 1935.88 386 1925.58 386H1351.16C1330.43 386 1310.55 394.235 1295.89 408.893C1281.23 423.551 1273 443.431 1273 464.161V495.043L1389.76 533.965L1602.86 605.177Z" fill="#FF8140"></path><path d="M1665.07 653.954C1652.49 658.223 1641.14 663.9 1627.74 661.992C1610.85 659.585 1592.64 650.321 1576.51 644.962L1273 543.775V815.634C1272.99 825.902 1275.01 836.071 1278.94 845.559C1282.86 855.047 1288.62 863.669 1295.88 870.932C1303.14 878.194 1311.75 883.956 1321.24 887.886C1330.73 891.817 1340.89 893.84 1351.16 893.84H1925.58C1935.85 893.84 1946.02 891.817 1955.5 887.886C1964.99 883.956 1973.61 878.194 1980.86 870.932C1988.12 863.669 1993.88 855.047 1997.8 845.559C2001.73 836.071 2003.75 825.902 2003.74 815.634V538.961L1873.72 583.196L1665.07 653.954Z" fill="#FF8140"></path></g><g style="mix-blend-mode:multiply" opacity="0.3"><path d="M520.264 2574.08C524.354 2571.92 528.606 2570.08 532.98 2568.58C535.988 2562.59 539.402 2556.81 543.199 2551.28C568.147 2507.19 593.065 2463.09 617.953 2418.98L610.369 2410.49C607.367 2407.12 603.73 2404.37 599.666 2402.41C595.601 2400.45 591.189 2399.31 586.683 2399.05C582.176 2398.8 577.664 2399.44 573.405 2400.93C569.147 2402.43 565.225 2404.75 561.865 2407.76L373.48 2575.8C366.684 2581.88 362.575 2590.4 362.056 2599.5C361.537 2608.61 364.649 2617.54 370.709 2624.35L379.793 2634.48L429.523 2613.04L520.264 2574.08Z" fill="#FF8140"></path><path d="M554.964 2571.9C552.807 2577.17 549.411 2581.84 545.064 2585.52C538.071 2589.25 530.779 2592.4 523.264 2594.92L394.102 2650.78L473.716 2739.93C476.721 2743.31 480.362 2746.05 484.43 2748.02C488.499 2749.98 492.915 2751.12 497.425 2751.37C501.935 2751.63 506.45 2750.99 510.713 2749.49C514.976 2748 518.901 2745.67 522.265 2742.66L710.65 2574.62C717.44 2568.54 721.539 2560.01 722.05 2550.91C722.561 2541.81 719.441 2532.88 713.375 2526.07L632.308 2435.24C622.407 2452.77 612.491 2470.32 602.56 2487.88L554.964 2571.9Z" fill="#FF8140"></path></g><g style="mix-blend-mode:multiply" opacity="0.3"><path d="M964.09 175.022C968.187 172.846 972.456 171.008 976.852 169.527C979.815 163.523 983.231 157.753 987.071 152.269L1061.83 19.9725L1054.24 11.4797C1048.16 4.68367 1039.64 0.575323 1030.54 0.0559614C1021.44 -0.4634 1012.5 2.64864 1005.69 8.70935L817.488 177.066C814.117 180.067 811.372 183.704 809.41 187.769C807.448 191.834 806.307 196.246 806.054 200.752C805.801 205.258 806.44 209.77 807.934 214.029C809.429 218.288 811.749 222.21 814.763 225.57L823.846 235.698L873.531 214.261L964.09 175.022Z" fill="#FF8140"></path><path d="M998.876 172.797C996.763 178.093 993.359 182.776 988.975 186.422C982.01 190.181 974.732 193.327 967.221 195.823L838.013 251.548L917.672 340.563C923.747 347.35 932.266 351.449 941.36 351.959C950.454 352.47 959.38 349.352 966.176 343.288L1154.56 175.022C1157.93 172.021 1160.67 168.385 1162.64 164.322C1164.6 160.259 1165.74 155.849 1166 151.344C1166.26 146.84 1165.62 142.328 1164.14 138.069C1162.65 133.809 1160.34 129.884 1157.33 126.518L1076.26 35.6865L1046.52 88.3689L998.876 172.797Z" fill="#FF8140"></path></g><g style="mix-blend-mode:multiply" opacity="0.3"><path d="M2565.35 1536.34C2568.78 1534.54 2572.35 1533.02 2576.02 1531.8C2578.52 1526.79 2581.38 1521.96 2584.56 1517.36L2647.1 1406.72L2640.74 1399.59C2635.67 1393.91 2628.55 1390.48 2620.94 1390.05C2613.34 1389.61 2605.87 1392.21 2600.18 1397.28L2442.59 1538.07C2439.78 1540.58 2437.48 1543.63 2435.85 1547.03C2434.21 1550.44 2433.26 1554.13 2433.04 1557.9C2432.83 1561.67 2433.37 1565.44 2434.62 1569.01C2435.86 1572.57 2437.8 1575.85 2440.32 1578.67L2447.86 1587.12L2489.46 1569.18L2565.35 1536.34Z" fill="#FF8140"></path><path d="M2594.37 1534.48C2592.59 1538.88 2589.75 1542.78 2586.11 1545.83C2580.29 1548.98 2574.21 1551.61 2567.94 1553.69L2459.89 1600.33L2526.43 1674.91C2528.95 1677.72 2531.99 1680.01 2535.39 1681.65C2538.8 1683.29 2542.49 1684.24 2546.26 1684.45C2550.03 1684.66 2553.8 1684.13 2557.37 1682.88C2560.93 1681.63 2564.22 1679.69 2567.03 1677.18L2724.58 1536.39C2730.26 1531.3 2733.7 1524.18 2734.13 1516.57C2734.56 1508.95 2731.96 1501.48 2726.89 1495.79L2659.09 1419.9L2634.2 1463.9L2594.37 1534.48Z" fill="#FF8140"></path></g><g style="mix-blend-mode:multiply" opacity="0.3"><path d="M198.763 1008.04C204.087 1009.34 209.297 1011.07 214.34 1013.22C221.724 1010.27 229.314 1007.88 237.048 1006.04L407.176 948.227V934.603C407.176 929.248 406.117 923.946 404.06 919.002C402.002 914.058 398.987 909.57 395.188 905.796C391.389 902.022 386.88 899.037 381.923 897.013C376.965 894.989 371.657 893.965 366.302 894.001H67.8743C57.0808 894.001 46.7254 898.27 39.0677 905.876C31.4101 913.483 27.072 923.809 27 934.603V951.043L87.721 971.253L198.763 1008.04Z" fill="#FF8140"></path><path d="M231.102 1033.38C224.562 1035.61 218.658 1038.6 211.664 1037.61C202.899 1036.33 193.498 1031.52 185.051 1028.52L27.2305 975.931V1117.31C27.2905 1128.11 31.6235 1138.45 39.2824 1146.07C46.9413 1153.68 57.3034 1157.96 68.1047 1157.96H366.759C377.561 1157.96 387.923 1153.68 395.582 1146.07C403.241 1138.45 407.574 1128.11 407.634 1117.31V973.751L339.464 996.459L231.102 1033.38Z" fill="#FF8140"></path></g><g style="mix-blend-mode:multiply" opacity="0.3"><path d="M1375.52 2122.95C1376.88 2115.32 1375.8 2107.46 1372.43 2100.48C1369.07 2093.5 1363.58 2087.76 1356.76 2084.08L1226.51 2014.77C1219.41 2010.92 1211.21 2009.61 1203.27 2011.05C1195.32 2012.5 1188.11 2016.61 1182.82 2022.72L1148.26 2062.69C1142.59 2069.22 1135.07 2073.88 1126.69 2076.04C1118.31 2078.21 1109.47 2077.78 1101.35 2074.81C1082.95 2068.09 973.137 1988.25 948.84 1957C944.203 1950.9 941.482 1943.56 941.021 1935.92C940.56 1928.27 942.38 1920.65 946.251 1914.04L973.183 1867.44C977.443 1860.12 979.077 1851.56 977.813 1843.17C976.55 1834.79 972.465 1827.09 966.234 1821.35L853.285 1722.89C848.629 1718.62 842.751 1715.94 836.482 1715.2C830.214 1714.47 823.874 1715.73 818.36 1718.8C790.157 1734.33 738.383 1766.71 709.362 1807.31C623.072 1927.94 928.448 2152.79 928.448 2152.79C1091.49 2284.27 1287.23 2307.61 1328.56 2250.07C1356.04 2211.51 1369.62 2155.61 1375.52 2122.95Z" fill="#FF8140"></path></g><g style="mix-blend-mode:multiply" opacity="0.3"><path d="M2768.16 725.5C2764.93 724.668 2761.51 724.878 2758.41 726.102C2755.3 727.325 2752.66 729.499 2750.86 732.312L2716.8 786.039C2714.9 788.968 2714.06 792.459 2714.42 795.93C2714.79 799.401 2716.33 802.642 2718.79 805.114L2734.83 821.237C2737.44 823.894 2739.2 827.281 2739.85 830.953C2740.51 834.625 2740.04 838.41 2738.51 841.81C2735.01 849.531 2697.09 894.129 2682.87 903.53C2680.1 905.333 2676.85 906.27 2673.54 906.222C2670.23 906.173 2667.02 905.141 2664.3 903.258L2645.18 890.132C2642.15 888.08 2638.51 887.119 2634.86 887.408C2631.21 887.697 2627.77 889.218 2625.1 891.722L2579.1 937.138C2577.11 939.002 2575.76 941.444 2575.24 944.117C2574.72 946.79 2575.05 949.56 2576.19 952.034C2581.91 964.66 2594.36 987.958 2610.71 1001.76C2659.71 1042.64 2766.39 918.835 2766.39 918.835C2828.25 853.073 2844.69 769.599 2821.3 750.024C2805.58 736.763 2782.01 729.133 2768.16 725.5Z" fill="#FF8140"></path></g><g style="mix-blend-mode:multiply" opacity="0.3"><path d="M509.087 511.2C510.876 509.737 512.156 507.745 512.744 505.509C513.331 503.274 513.196 500.91 512.357 498.756L496.144 457.882C495.271 455.632 493.657 453.748 491.567 452.542C489.477 451.336 487.038 450.881 484.654 451.251L469.121 453.658C466.566 454.044 463.952 453.648 461.626 452.521C459.3 451.394 457.369 449.59 456.087 447.345C453.226 442.259 443.643 402.883 444.188 391.121C444.301 388.834 445.096 386.633 446.473 384.804C447.849 382.974 449.743 381.599 451.909 380.857L467.032 375.452C469.414 374.602 471.434 372.963 472.756 370.807C474.078 368.651 474.622 366.107 474.299 363.599L467.668 319.409C467.415 317.544 466.588 315.803 465.302 314.428C464.017 313.054 462.336 312.112 460.492 311.734C451.091 309.826 433.243 307.192 418.619 310.78C375.928 321.544 401.724 431.495 401.724 431.495C413.351 492.898 453.362 535.952 473.845 530.911C486.807 526.798 498.798 520.092 509.087 511.2Z" fill="#FF8140"></path></g><g style="mix-blend-mode:multiply" opacity="0.3"><path d="M1344.04 2815.37C1347.03 2815.62 1350.02 2814.92 1352.58 2813.37C1355.15 2811.82 1357.16 2809.5 1358.32 2806.74L1380.13 2754.04C1381.35 2751.16 1381.54 2747.95 1380.69 2744.94C1379.83 2741.93 1377.97 2739.3 1375.42 2737.49L1358.78 2725.71C1356.05 2723.76 1353.98 2721.03 1352.83 2717.88C1351.68 2714.73 1351.51 2711.31 1352.34 2708.06C1354.27 2700.74 1380.9 2655.43 1392.03 2644.97C1394.2 2642.94 1396.92 2641.61 1399.86 2641.15C1402.79 2640.69 1405.79 2641.12 1408.48 2642.38L1427.44 2651C1430.43 2652.36 1433.79 2652.66 1436.97 2651.85C1440.14 2651.03 1442.95 2649.16 1444.91 2646.53L1478.63 2599.4C1480.08 2597.43 1480.88 2595.06 1480.93 2592.62C1480.97 2590.18 1480.26 2587.79 1478.88 2585.77C1471.85 2575.51 1457.61 2556.94 1440.75 2547.08C1391.29 2518.56 1316.03 2644.22 1316.03 2644.22C1271.42 2711.89 1269.81 2788.11 1293.43 2801.91C1309.21 2809.78 1326.43 2814.36 1344.04 2815.37Z" fill="#FF8140"></path></g></g><path d="M1744 756.554C1743.99 676.548 1767.82 598.335 1812.48 531.808C1857.14 465.281 1920.63 413.427 1994.91 382.804C2069.19 352.181 2150.92 344.164 2229.78 359.768C2308.64 375.372 2381.07 413.895 2437.93 470.466C2494.78 527.037 2533.5 599.114 2549.19 677.583C2564.87 756.051 2556.82 837.386 2526.05 911.302C2495.28 985.217 2443.18 1048.39 2376.33 1092.84C2309.47 1137.28 2230.87 1161.01 2150.47 1161C2097.1 1161 2044.24 1150.54 1994.92 1130.22C1945.61 1109.9 1900.8 1080.11 1863.05 1042.55C1825.31 1004.99 1795.37 960.406 1774.94 911.335C1754.51 862.263 1744 809.668 1744 756.554Z" fill="#FF8140"></path><path d="M1773 1395.35C1773.18 1440.14 1761.8 1484.22 1739.93 1523.37C1718.74 1563.21 1684.88 1595.3 1638.34 1619.65C1592.67 1644.12 1534.71 1656.35 1464.46 1656.35H1321.36V1983H1150V1132H1464.46C1530.55 1132 1586.84 1143.38 1633.34 1166.15C1679.84 1188.92 1714.53 1220.21 1737.4 1260.02C1761.13 1299.86 1773 1344.96 1773 1395.35ZM1457.2 1518.37C1504.54 1518.37 1539.64 1507.8 1562.49 1486.65C1585.33 1464.69 1596.75 1434.21 1596.75 1395.22C1596.75 1312.33 1550.23 1270.87 1457.2 1270.86H1321.36V1518.37H1457.2Z" fill="black"></path><path d="M1395.25 1305.21L1354.81 1167.75L1210.14 1170.75L1221.1 1301.17L1124.44 1409.31C1124.44 1409.31 1140.89 1627.63 1289.22 1611.96C1340.62 1606.48 1443.81 1604.65 1451.3 1577.97C1458.8 1551.28 1564.13 1354.58 1564.13 1354.58L1395.25 1305.21Z" fill="#F5AA8B"></path><path d="M1420.24 2141.24C1334.93 2141.18 1249.95 2130.7 1167.18 2110.02L1117.85 2288.52C1304.06 2359.79 1510.28 2358.42 1695.54 2284.7L1681.58 2108.48C1598.37 2133.73 1511.26 2144.65 1420.24 2141.24Z" fill="#704445"></path><g style="mix-blend-mode:multiply"><path d="M1460.51 2336.52C1474.5 2327.7 1486.86 2316.54 1497.06 2303.52C1514.63 2281.41 1529.95 2221.06 1524.83 2175.65L1519.35 2175.16C1524.19 2218.81 1509.46 2278.6 1492.54 2299.92C1485.52 2308.72 1477.51 2316.68 1468.68 2323.66C1465.36 2326.3 1462.56 2328.25 1460.62 2329.55L1460.04 2329.93L1456 2180.14L1449.9 2180.91L1453.9 2339.21L1460.26 2338.77L1460.13 2335.89L1460.51 2336.52Z" fill="#B2B2B2"></path></g><g style="mix-blend-mode:multiply"><path d="M1257.61 2208.35C1257.61 2208.35 1346.41 2223.71 1427.79 2223.71C1449.18 2223.92 1470.56 2222.51 1491.74 2219.49C1580.96 2205.55 1669.91 2179.89 1684.25 2170.97C1684.25 2170.97 1683.43 2140.12 1682.81 2133.91C1682.81 2133.91 1472.23 2144.18 1318.73 2144.18C1240.16 2144.18 1176.54 2141.49 1163.76 2133.34L1119.88 2289.32C1143.92 2298.49 1168.5 2306.5 1193.62 2313.34C1214.41 2298.75 1241.53 2268.9 1257.61 2208.35Z" fill="#B2B2B2"></path></g><g style="mix-blend-mode:multiply"><path d="M1250.66 2175.14L1245.62 2173.11C1237.6 2216.26 1206.25 2269.23 1183.9 2284.83C1176.19 2290.18 1161.55 2296.98 1152.47 2300.9C1155.47 2301.91 1158.48 2302.88 1161.5 2303.85C1170.46 2299.88 1179.03 2295.08 1187.08 2289.49C1210.36 2273.41 1242.39 2220.02 1250.66 2175.14Z" fill="#B2B2B2"></path><path d="M1177.39 2158.61L1139.46 2296.48L1146.11 2298.77C1152.96 2272.88 1183.46 2159.63 1183.46 2159.63L1177.39 2158.61Z" fill="#B2B2B2"></path></g><path d="M1833.53 1463.67C1833.53 1463.67 1826.42 1417.49 1800.91 1406.52C1782.64 1398.64 1738.41 1391.04 1710.51 1402.86C1667.13 1362.88 1626.2 1332.03 1598.5 1326.42C1594.1 1325.54 1410.61 1306.42 1410.61 1306.42L1381.84 1434.08L1216.92 1299.49C1216.92 1299.49 1061.06 1346.47 1012.16 1383.3C922.633 1450.59 867.325 1875.88 972.423 1915.77C1072.44 1953.75 1077.43 1836.86 1077.43 1836.86L1097.53 1702.64L1099.65 1709.94L1170.1 2000.71L1142.86 2070.51L1156.02 2095.81L1144.89 2160.58C1173.3 2177.46 1393.26 2197.7 1497.2 2190.96C1564.1 2186.61 1683.99 2143.89 1683.99 2143.89L1697.66 2130.9L1686.52 2078.6L1699.69 2061.39L1669.3 1963.56C1669.3 1963.56 1663.4 1757.24 1656.81 1631.45L1751.96 1726.89C1758.69 1742.66 1765.76 1754.44 1773.09 1760.32C1817.14 1795.63 1896.27 1796.09 1929.66 1762.15C1999.58 1691.18 1833.53 1463.67 1833.53 1463.67Z" fill="#FF8140"></path><g style="mix-blend-mode:multiply"><path d="M1371.09 1331.51C1371.09 1331.51 1386.75 1324.21 1390.55 1319.31C1392.76 1316.75 1393.94 1313.45 1393.86 1310.07L1371.09 1331.51Z" fill="#FFD1CD"></path></g><path d="M1436.34 1312.86L1409.63 1306.8L1380.39 1431.81L1215.95 1299.88L1184.61 1315.71C1219.99 1376.83 1289.64 1454.25 1384.67 1441.99C1434.55 1435.49 1469.7 1357.18 1436.34 1312.86Z" fill="#F9F9F9"></path><g style="mix-blend-mode:multiply"><path d="M1458.78 1317.94L1436.34 1312.86C1469.7 1357.18 1434.51 1435.49 1384.67 1441.92C1378.05 1442.78 1371.39 1443.21 1364.72 1443.21C1279.9 1443.21 1217.45 1372.34 1184.61 1315.71L1161.75 1327.24L1162.48 1328.52C1186.9 1370.7 1255.47 1468.84 1364.72 1468.84C1372.48 1468.83 1380.24 1468.33 1387.94 1467.34C1420.32 1463.09 1500.64 1412.69 1458.78 1317.94Z" fill="#B2B2B2"></path></g><path d="M1277.52 1365.76C1277.3 1364.52 1277.08 1363.26 1276.88 1362.11C1276.39 1357.4 1275.99 1352.68 1275.6 1347.95L1279.73 1351.31C1278.66 1356.07 1277.92 1360.9 1277.52 1365.76Z" fill="#EBACB1"></path><g style="mix-blend-mode:multiply"><path d="M1538.59 1663.97C1538.06 1664.04 1538.11 1664.04 1538.59 1663.97V1663.97Z" fill="#B9CED8"></path></g><g style="mix-blend-mode:multiply"><g style="mix-blend-mode:multiply"><path d="M1434.6 1289.74L1390.75 1266.26L1397.73 1305.54L1411.36 1309.19L1390.02 1416.42L1432.61 1358.4L1473.69 1368.63C1475.93 1330.56 1434.6 1289.74 1434.6 1289.74Z" fill="#B2B2B2"></path></g></g><path d="M1438.5 1280.07L1380.15 1253.5L1395.16 1305.57L1406.59 1308.77L1379.39 1434.81L1431.39 1350.55L1474.22 1354.95C1476.03 1323.75 1453.09 1294.21 1438.5 1280.07Z" fill="#F9F9F9"></path><g style="mix-blend-mode:multiply"><path d="M1385.07 1270.54L1395.16 1305.57L1406.79 1309.23L1410.98 1282.83C1402.03 1279.43 1393.37 1275.32 1385.07 1270.54Z" fill="#DADADA"></path></g><g style="mix-blend-mode:multiply"><path d="M1372.44 1425.82L1291.32 1326.27C1201.79 1304.11 1212.02 1271.64 1212.02 1271.64L1210.19 1262.5L1200.01 1300.46L1157.7 1325.92C1157.7 1325.92 1196.23 1399.26 1227.44 1408.78C1258.65 1418.3 1287.46 1376.56 1287.46 1376.56L1372.44 1425.82Z" fill="#B2B2B2"></path></g><path d="M1380.19 1432.78L1291.03 1324.28L1220.86 1276.29L1215.6 1240.82L1204.64 1249.31L1157.93 1322.69C1157.93 1322.69 1196.1 1386.95 1227.37 1396.47C1258.63 1405.99 1278.8 1359.79 1278.8 1359.79L1380.19 1432.78Z" fill="#F9F9F9"></path><g style="mix-blend-mode:multiply"><path d="M1098.61 1673.32L1089.69 1541.43C1089.69 1541.43 1113.5 1607.87 1098.61 1673.32Z" fill="#B2B2B2"></path></g><g style="mix-blend-mode:multiply"><path d="M1915.75 1728.15C1897.35 1734.09 1873.2 1729.98 1856.79 1720.45C1838.52 1709.69 1829.12 1693.89 1821.63 1674.78C1806.54 1636.13 1794.7 1596.23 1779.7 1557.6C1772.04 1537.83 1764.24 1518.14 1756.31 1498.51C1748.2 1478.32 1740.8 1459.36 1739.96 1437.46C1727.64 1440.91 1715.29 1431.71 1711.62 1420.36C1710.61 1417.18 1710.35 1413.8 1710.88 1410.51C1711.4 1407.21 1712.69 1404.08 1714.63 1401.36C1713.23 1401.84 1711.84 1402.35 1710.51 1402.94L1709.04 1401.6C1705.55 1408.15 1701.14 1414.16 1695.94 1419.45C1689.29 1426.1 1716.15 1535.62 1734.31 1605.77L1663.51 1524.96C1663.51 1524.96 1608.51 1389.29 1596.42 1396.09C1606.05 1431.98 1623.08 1583.89 1624.35 1602.24C1628.65 1664.51 1478.29 1679.55 1478.29 1679.55C1478.29 1679.55 1547.98 1718.67 1628.12 1694.82L1637.25 1971.59L1671.62 2093.98C1671.62 2093.98 1707.45 2125.29 1561.45 2180.22C1621.41 2166.21 1684.05 2143.89 1684.05 2143.89L1697.72 2130.9L1686.57 2078.6L1699.74 2061.39L1669.36 1963.56C1669.36 1963.56 1663.47 1757.49 1656.88 1631.73L1752.07 1727.06C1758.8 1742.77 1765.85 1754.46 1773.14 1760.36C1817.19 1795.67 1896.33 1796.13 1929.71 1762.19C1942.23 1749.4 1947.14 1731.72 1946.83 1711.17C1937.7 1718.84 1927.14 1724.61 1915.75 1728.15Z" fill="#B2B2B2"></path></g><g style="mix-blend-mode:multiply"><path d="M1623.64 1476.29L1650.81 1603.7C1650.81 1603.7 1660.86 1527.11 1623.64 1476.29Z" fill="#B2B2B2"></path></g><g style="mix-blend-mode:multiply"><path d="M1203.34 2116.23L1246.3 2005.99L1190.86 1747.68C1190.86 1747.68 1272.21 1767.39 1370.4 1691.05C1215.6 1742.02 1172.59 1666.72 1172.59 1666.72C1172.59 1666.72 1145.46 1594.99 1117.13 1530.82C1104.86 1503.02 1066.89 1448.38 1067.02 1449.37L1065.7 1448.13C1065.88 1448.57 1069.35 1476.04 1073.99 1512.79C1073.15 1515.06 1030.82 1661.79 1030.82 1661.79L957.55 1761.09L1087.77 1768.01L1097.6 1702.58L1099.72 1709.89L1170.1 2000.71L1149.71 2053.06L1142.86 2070.51L1156.02 2095.81L1144.89 2160.58C1145.42 2160.89 1146.02 2161.22 1146.72 2161.53H1146.83C1147.48 2161.84 1148.21 2162.15 1149 2162.48H1149.16C1149.97 2162.81 1150.83 2163.12 1151.74 2163.43H1151.92C1152.86 2163.74 1153.84 2164.07 1154.9 2164.38H1155.07L1158.46 2165.37H1158.57C1193.62 2174.94 1278.24 2184.6 1359.98 2189.22C1302.19 2167.12 1179.77 2168.14 1203.34 2116.23Z" fill="#B2B2B2"></path></g><path d="M1156.51 1562.82C1198.19 1549.36 1231.19 1618.81 1235.95 1646.16C1240.72 1673.5 1206.01 1704.79 1206.01 1704.79C1206.01 1704.79 1106.57 1968.23 1008.89 1948.69C962.227 1939.37 919.252 1872.94 924.661 1816.75C930.563 1755.3 1156.51 1562.82 1156.51 1562.82Z" fill="#FF8140"></path><g style="mix-blend-mode:multiply"><path d="M1236.05 1646.16C1233.58 1631.96 1223.49 1606.44 1208.55 1587.04C1208.55 1587.87 1208.67 1588.69 1208.71 1589.51C1209.72 1611.89 1197.97 1637.46 1182.38 1653.06C1180.32 1655.12 1170.18 1672.22 1156.91 1695.29C1128.41 1678.27 1120.93 1655.27 1120.93 1655.27C1119.66 1684.04 1133.03 1701.96 1146.86 1712.76C1116.07 1766.73 1076.48 1837.96 1075.26 1839.96C1048.27 1882.36 996.687 1895.66 952.269 1872.19C942.156 1866.54 933.386 1858.77 926.561 1849.41C935.696 1896.12 971.125 1941.14 1008.93 1948.69C1106.57 1968.23 1206.01 1704.79 1206.01 1704.79C1206.01 1704.79 1240.74 1673.5 1236.05 1646.16Z" fill="#B2B2B2"></path></g><path d="M1886.57 1409.82H1361.01V2087.61H1886.57V1409.82Z" fill="#F9F9F9"></path><path d="M1880.18 1416.22H1367.4V1518.67H1880.18V1416.22Z" fill="#FF8140"></path><path d="M1493.93 1943.46H1443.58C1433.02 1943.46 1424.46 1952.02 1424.46 1962.57V2012.91C1424.46 2023.47 1433.02 2032.02 1443.58 2032.02H1493.93C1504.49 2032.02 1513.04 2023.47 1513.04 2012.91V1962.57C1513.04 1952.02 1504.49 1943.46 1493.93 1943.46Z" fill="#FF8140"></path><path d="M1493.93 1687.73H1443.58C1433.02 1687.73 1424.46 1696.28 1424.46 1706.84V1757.18C1424.46 1767.73 1433.02 1776.29 1443.58 1776.29H1493.93C1504.49 1776.29 1513.04 1767.73 1513.04 1757.18V1706.84C1513.04 1696.28 1504.49 1687.73 1493.93 1687.73Z" fill="#FF8140"></path><path d="M1493.93 1559.86H1443.58C1433.02 1559.86 1424.46 1568.42 1424.46 1578.97V1629.31C1424.46 1639.87 1433.02 1648.42 1443.58 1648.42H1493.93C1504.49 1648.42 1513.04 1639.87 1513.04 1629.31V1578.97C1513.04 1568.42 1504.49 1559.86 1493.93 1559.86Z" fill="#FF8140"></path><path d="M1493.86 1581.46L1461.12 1614.21L1441.62 1594.81C1440.24 1593.49 1438.4 1592.77 1436.5 1592.8C1434.59 1592.82 1432.77 1593.58 1431.42 1594.93C1430.07 1596.28 1429.3 1598.1 1429.27 1600C1429.25 1601.91 1429.97 1603.75 1431.28 1605.13L1455.65 1629.41C1455.65 1629.41 1455.82 1629.62 1455.93 1629.72C1456.61 1630.4 1457.42 1630.95 1458.31 1631.32C1459.2 1631.69 1460.16 1631.89 1461.13 1631.89C1462.09 1631.89 1463.05 1631.69 1463.94 1631.32C1464.83 1630.95 1465.64 1630.4 1466.32 1629.72C1466.42 1629.72 1466.49 1629.5 1466.6 1629.39L1504.2 1591.79C1505.57 1590.42 1506.34 1588.56 1506.34 1586.63C1506.34 1584.69 1505.57 1582.83 1504.2 1581.46C1502.83 1580.08 1500.97 1579.31 1499.03 1579.31C1497.09 1579.31 1495.23 1580.08 1493.86 1581.46Z" fill="#1D1D1B"></path><path d="M1493.93 1815.6H1443.58C1433.02 1815.6 1424.46 1824.15 1424.46 1834.7V1885.05C1424.46 1895.6 1433.02 1904.15 1443.58 1904.15H1493.93C1504.49 1904.15 1513.04 1895.6 1513.04 1885.05V1834.7C1513.04 1824.15 1504.49 1815.6 1493.93 1815.6Z" fill="#FF8140"></path><path d="M1493.86 1841.02L1461.12 1873.78L1441.62 1854.38C1440.95 1853.67 1440.14 1853.1 1439.25 1852.71C1438.36 1852.32 1437.39 1852.11 1436.42 1852.1C1435.44 1852.09 1434.47 1852.27 1433.57 1852.63C1432.67 1853 1431.84 1853.54 1431.15 1854.23C1430.46 1854.92 1429.92 1855.74 1429.55 1856.65C1429.18 1857.55 1429 1858.52 1429.01 1859.49C1429.02 1860.47 1429.23 1861.43 1429.62 1862.32C1430.01 1863.22 1430.57 1864.03 1431.28 1864.7L1455.65 1888.96C1455.73 1889.07 1455.83 1889.18 1455.93 1889.28C1456.61 1889.97 1457.42 1890.52 1458.31 1890.89C1459.2 1891.26 1460.16 1891.46 1461.13 1891.46C1462.09 1891.46 1463.05 1891.26 1463.94 1890.89C1464.83 1890.52 1465.64 1889.97 1466.32 1889.28C1466.42 1889.28 1466.49 1889.07 1466.6 1888.96L1504.2 1851.36C1505.57 1849.99 1506.34 1848.13 1506.34 1846.19C1506.34 1844.25 1505.57 1842.4 1504.2 1841.02C1502.83 1839.65 1500.97 1838.88 1499.03 1838.88C1497.09 1838.88 1495.23 1839.65 1493.86 1841.02Z" fill="#1D1D1B"></path><path d="M1723.55 1625.68H1570.07C1568.13 1625.68 1566.27 1626.45 1564.9 1627.82C1563.53 1629.19 1562.76 1631.05 1562.76 1632.99C1562.76 1634.92 1563.53 1636.78 1564.9 1638.15C1566.27 1639.52 1568.13 1640.29 1570.07 1640.29H1723.55C1725.49 1640.29 1727.35 1639.52 1728.72 1638.15C1730.09 1636.78 1730.86 1634.92 1730.86 1632.99C1730.86 1631.05 1730.09 1629.19 1728.72 1627.82C1727.35 1626.45 1725.49 1625.68 1723.55 1625.68Z" fill="#1D1D1B"></path><path d="M1814.91 1598.28H1675.79C1673.85 1598.28 1671.99 1599.05 1670.62 1600.42C1669.25 1601.79 1668.48 1603.65 1668.48 1605.59C1668.48 1607.52 1669.25 1609.38 1670.62 1610.75C1671.99 1612.12 1673.85 1612.89 1675.79 1612.89H1814.91C1816.85 1612.89 1818.71 1612.12 1820.08 1610.75C1821.45 1609.38 1822.22 1607.52 1822.22 1605.59C1822.22 1603.65 1821.45 1601.79 1820.08 1600.42C1818.71 1599.05 1816.85 1598.28 1814.91 1598.28Z" fill="#1D1D1B"></path><path d="M1570.03 1612.89H1623.68C1625.62 1612.89 1627.48 1612.12 1628.85 1610.75C1630.22 1609.38 1630.99 1607.52 1630.99 1605.59C1630.99 1603.65 1630.22 1601.79 1628.85 1600.42C1627.48 1599.05 1625.62 1598.28 1623.68 1598.28H1570.03C1568.09 1598.28 1566.24 1599.05 1564.87 1600.42C1563.49 1601.79 1562.72 1603.65 1562.72 1605.59C1562.72 1607.52 1563.49 1609.38 1564.87 1610.75C1566.24 1612.12 1568.09 1612.89 1570.03 1612.89Z" fill="#1D1D1B"></path><path d="M1752.2 1585.49H1814.91C1816.85 1585.49 1818.71 1584.72 1820.08 1583.35C1821.45 1581.98 1822.22 1580.12 1822.22 1578.19C1822.22 1576.25 1821.45 1574.39 1820.08 1573.02C1818.71 1571.65 1816.85 1570.88 1814.91 1570.88H1752.2C1750.26 1570.88 1748.4 1571.65 1747.03 1573.02C1745.66 1574.39 1744.89 1576.25 1744.89 1578.19C1744.89 1580.12 1745.66 1581.98 1747.03 1583.35C1748.4 1584.72 1750.26 1585.49 1752.2 1585.49Z" fill="#1D1D1B"></path><path d="M1570.03 1585.49H1710.52C1712.46 1585.49 1714.32 1584.72 1715.69 1583.35C1717.06 1581.98 1717.83 1580.12 1717.83 1578.19C1717.83 1576.25 1717.06 1574.39 1715.69 1573.02C1714.32 1571.65 1712.46 1570.88 1710.52 1570.88H1570.03C1568.09 1570.88 1566.24 1571.65 1564.87 1573.02C1563.49 1574.39 1562.72 1576.25 1562.72 1578.19C1562.72 1580.12 1563.49 1581.98 1564.87 1583.35C1566.24 1584.72 1568.09 1585.49 1570.03 1585.49Z" fill="#1D1D1B"></path><path d="M1570.03 1769.64H1723.52C1725.45 1769.64 1727.31 1768.87 1728.68 1767.5C1730.05 1766.13 1730.82 1764.27 1730.82 1762.33C1730.82 1760.39 1730.05 1758.54 1728.68 1757.17C1727.31 1755.8 1725.45 1755.03 1723.52 1755.03H1570.03C1568.09 1755.03 1566.24 1755.8 1564.87 1757.17C1563.49 1758.54 1562.72 1760.39 1562.72 1762.33C1562.72 1764.27 1563.49 1766.13 1564.87 1767.5C1566.24 1768.87 1568.09 1769.64 1570.03 1769.64Z" fill="#1D1D1B"></path><path d="M1675.79 1742.24H1814.91C1816.85 1742.24 1818.71 1741.47 1820.08 1740.1C1821.45 1738.73 1822.22 1736.87 1822.22 1734.93C1822.22 1732.99 1821.45 1731.14 1820.08 1729.77C1818.71 1728.39 1816.85 1727.62 1814.91 1727.62H1675.79C1673.85 1727.62 1671.99 1728.39 1670.62 1729.77C1669.25 1731.14 1668.48 1732.99 1668.48 1734.93C1668.48 1736.87 1669.25 1738.73 1670.62 1740.1C1671.99 1741.47 1673.85 1742.24 1675.79 1742.24Z" fill="#1D1D1B"></path><path d="M1570.03 1742.24H1623.68C1625.62 1742.24 1627.48 1741.47 1628.85 1740.1C1630.22 1738.73 1630.99 1736.87 1630.99 1734.93C1630.99 1732.99 1630.22 1731.14 1628.85 1729.77C1627.48 1728.39 1625.62 1727.62 1623.68 1727.62H1570.03C1568.09 1727.62 1566.24 1728.39 1564.87 1729.77C1563.49 1731.14 1562.72 1732.99 1562.72 1734.93C1562.72 1736.87 1563.49 1738.73 1564.87 1740.1C1566.24 1741.47 1568.09 1742.24 1570.03 1742.24Z" fill="#1D1D1B"></path><path d="M1752.2 1714.84H1814.91C1816.85 1714.84 1818.71 1714.07 1820.08 1712.7C1821.45 1711.33 1822.22 1709.47 1822.22 1707.53C1822.22 1705.59 1821.45 1703.73 1820.08 1702.36C1818.71 1700.99 1816.85 1700.22 1814.91 1700.22H1752.2C1750.26 1700.22 1748.4 1700.99 1747.03 1702.36C1745.66 1703.73 1744.89 1705.59 1744.89 1707.53C1744.89 1709.47 1745.66 1711.33 1747.03 1712.7C1748.4 1714.07 1750.26 1714.84 1752.2 1714.84Z" fill="#1D1D1B"></path><path d="M1570.03 1714.84H1710.52C1712.46 1714.84 1714.32 1714.07 1715.69 1712.7C1717.06 1711.33 1717.83 1709.47 1717.83 1707.53C1717.83 1705.59 1717.06 1703.73 1715.69 1702.36C1714.32 1700.99 1712.46 1700.22 1710.52 1700.22H1570.03C1568.09 1700.22 1566.24 1700.99 1564.87 1702.36C1563.49 1703.73 1562.72 1705.59 1562.72 1707.53C1562.72 1709.47 1563.49 1711.33 1564.87 1712.7C1566.24 1714.07 1568.09 1714.84 1570.03 1714.84Z" fill="#1D1D1B"></path><path d="M1570.03 1897.25H1723.52C1725.45 1897.25 1727.31 1896.48 1728.68 1895.11C1730.05 1893.74 1730.82 1891.88 1730.82 1889.94C1730.82 1888 1730.05 1886.15 1728.68 1884.78C1727.31 1883.41 1725.45 1882.64 1723.52 1882.64H1570.03C1568.09 1882.64 1566.24 1883.41 1564.87 1884.78C1563.49 1886.15 1562.72 1888 1562.72 1889.94C1562.72 1891.88 1563.49 1893.74 1564.87 1895.11C1566.24 1896.48 1568.09 1897.25 1570.03 1897.25Z" fill="#1D1D1B"></path><path d="M1675.79 1869.85H1814.91C1816.85 1869.85 1818.71 1869.08 1820.08 1867.71C1821.45 1866.34 1822.22 1864.48 1822.22 1862.54C1822.22 1860.6 1821.45 1858.75 1820.08 1857.38C1818.71 1856.01 1816.85 1855.24 1814.91 1855.24H1675.79C1673.85 1855.24 1671.99 1856.01 1670.62 1857.38C1669.25 1858.75 1668.48 1860.6 1668.48 1862.54C1668.48 1864.48 1669.25 1866.34 1670.62 1867.71C1671.99 1869.08 1673.85 1869.85 1675.79 1869.85Z" fill="#1D1D1B"></path><path d="M1570.03 1869.85H1623.68C1625.62 1869.85 1627.48 1869.08 1628.85 1867.71C1630.22 1866.34 1630.99 1864.48 1630.99 1862.54C1630.99 1860.6 1630.22 1858.75 1628.85 1857.38C1627.48 1856.01 1625.62 1855.24 1623.68 1855.24H1570.03C1568.09 1855.24 1566.24 1856.01 1564.87 1857.38C1563.49 1858.75 1562.72 1860.6 1562.72 1862.54C1562.72 1864.48 1563.49 1866.34 1564.87 1867.71C1566.24 1869.08 1568.09 1869.85 1570.03 1869.85Z" fill="#1D1D1B"></path><path d="M1752.2 1842.45H1814.91C1816.85 1842.45 1818.71 1841.68 1820.08 1840.31C1821.45 1838.94 1822.22 1837.08 1822.22 1835.14C1822.22 1833.2 1821.45 1831.35 1820.08 1829.98C1818.71 1828.61 1816.85 1827.84 1814.91 1827.84H1752.2C1750.26 1827.84 1748.4 1828.61 1747.03 1829.98C1745.66 1831.35 1744.89 1833.2 1744.89 1835.14C1744.89 1837.08 1745.66 1838.94 1747.03 1840.31C1748.4 1841.68 1750.26 1842.45 1752.2 1842.45Z" fill="#1D1D1B"></path><path d="M1570.03 1842.45H1710.52C1712.46 1842.45 1714.32 1841.68 1715.69 1840.31C1717.06 1838.94 1717.83 1837.08 1717.83 1835.14C1717.83 1833.2 1717.06 1831.35 1715.69 1829.98C1714.32 1828.61 1712.46 1827.84 1710.52 1827.84H1570.03C1568.09 1827.84 1566.24 1828.61 1564.87 1829.98C1563.49 1831.35 1562.72 1833.2 1562.72 1835.14C1562.72 1837.08 1563.49 1838.94 1564.87 1840.31C1566.24 1841.68 1568.09 1842.45 1570.03 1842.45Z" fill="#1D1D1B"></path><path d="M1570.03 2028.35H1723.52C1725.45 2028.35 1727.31 2027.58 1728.68 2026.21C1730.05 2024.84 1730.82 2022.98 1730.82 2021.04C1730.82 2019.1 1730.05 2017.25 1728.68 2015.88C1727.31 2014.51 1725.45 2013.74 1723.52 2013.74H1570.03C1568.09 2013.74 1566.24 2014.51 1564.87 2015.88C1563.49 2017.25 1562.72 2019.1 1562.72 2021.04C1562.72 2022.98 1563.49 2024.84 1564.87 2026.21C1566.24 2027.58 1568.09 2028.35 1570.03 2028.35Z" fill="#1D1D1B"></path><path d="M1675.79 2000.95H1814.91C1816.85 2000.95 1818.71 2000.18 1820.08 1998.81C1821.45 1997.44 1822.22 1995.58 1822.22 1993.64C1822.22 1991.7 1821.45 1989.85 1820.08 1988.48C1818.71 1987.1 1816.85 1986.33 1814.91 1986.33H1675.79C1673.85 1986.33 1671.99 1987.1 1670.62 1988.48C1669.25 1989.85 1668.48 1991.7 1668.48 1993.64C1668.48 1995.58 1669.25 1997.44 1670.62 1998.81C1671.99 2000.18 1673.85 2000.95 1675.79 2000.95Z" fill="#1D1D1B"></path><path d="M1570.03 2000.95H1623.68C1625.62 2000.95 1627.48 2000.18 1628.85 1998.81C1630.22 1997.44 1630.99 1995.58 1630.99 1993.64C1630.99 1991.7 1630.22 1989.85 1628.85 1988.48C1627.48 1987.1 1625.62 1986.33 1623.68 1986.33H1570.03C1568.09 1986.33 1566.24 1987.1 1564.87 1988.48C1563.49 1989.85 1562.72 1991.7 1562.72 1993.64C1562.72 1995.58 1563.49 1997.44 1564.87 1998.81C1566.24 2000.18 1568.09 2000.95 1570.03 2000.95Z" fill="#1D1D1B"></path><path d="M1752.2 1973.55H1814.91C1816.85 1973.55 1818.71 1972.78 1820.08 1971.41C1821.45 1970.04 1822.22 1968.18 1822.22 1966.24C1822.22 1964.3 1821.45 1962.45 1820.08 1961.08C1818.71 1959.71 1816.85 1958.94 1814.91 1958.94H1752.2C1750.26 1958.94 1748.4 1959.71 1747.03 1961.08C1745.66 1962.45 1744.89 1964.3 1744.89 1966.24C1744.89 1968.18 1745.66 1970.04 1747.03 1971.41C1748.4 1972.78 1750.26 1973.55 1752.2 1973.55Z" fill="#1D1D1B"></path><path d="M1570.03 1973.55H1710.52C1712.46 1973.55 1714.32 1972.78 1715.69 1971.41C1717.06 1970.04 1717.83 1968.18 1717.83 1966.24C1717.83 1964.3 1717.06 1962.45 1715.69 1961.08C1714.32 1959.71 1712.46 1958.94 1710.52 1958.94H1570.03C1568.09 1958.94 1566.24 1959.71 1564.87 1961.08C1563.49 1962.45 1562.72 1964.3 1562.72 1966.24C1562.72 1968.18 1563.49 1970.04 1564.87 1971.41C1566.24 1972.78 1568.09 1973.55 1570.03 1973.55Z" fill="#1D1D1B"></path><path d="M1766.76 1368.27C1766.76 1368.27 1736.98 1347.97 1722.38 1350.4C1694.98 1330.93 1688.65 1348.21 1688.65 1348.21C1688.65 1348.21 1687.89 1343.24 1673.38 1339.75C1658.87 1336.26 1655.97 1351.68 1655.97 1351.68C1655.97 1351.68 1632.87 1343.51 1630.55 1359.66C1628.23 1375.81 1631.54 1400.49 1631.54 1400.49C1631.54 1400.49 1644.45 1419.96 1648.44 1428.02C1652.42 1436.07 1663.99 1430.06 1665.38 1429.26C1670.62 1444.33 1679.1 1447.67 1687.47 1440.4C1690.11 1464.44 1712.08 1451.36 1712.66 1444.16C1725 1447.21 1731.21 1442.65 1734.3 1436.51L1742.44 1409.62H1796.22L1766.76 1368.27Z" fill="#F5AA8B"></path><path d="M1793.46 1409.62H1796.22L1766.76 1368.27C1766.76 1368.27 1736.98 1347.97 1722.38 1350.4C1694.98 1330.93 1688.65 1348.21 1688.65 1348.21C1688.65 1348.21 1687.89 1343.24 1673.38 1339.75C1658.87 1336.26 1655.97 1351.68 1655.97 1351.68C1655.97 1351.68 1634.53 1344.12 1630.9 1358C1638.11 1345.56 1656.35 1354.89 1656.35 1354.89C1656.35 1354.89 1658.94 1344.15 1666.12 1342.31C1674.62 1340.15 1689.04 1351.75 1689.04 1351.75C1689.04 1351.75 1695.87 1334.18 1720.72 1354.68C1734.41 1349.2 1765.87 1370.75 1765.87 1370.75L1793.46 1409.62Z" fill="#FFD9E8"></path><g style="mix-blend-mode:multiply"><path d="M1665.3 1428.51C1666.14 1427.96 1656.48 1398.24 1656.48 1398.24L1656.99 1356.68C1656.99 1356.68 1650.03 1377.73 1650.65 1387.57C1651.27 1397.42 1665.17 1427.71 1665.3 1428.51Z" fill="#FFCBCC"></path></g><g style="mix-blend-mode:multiply"><path d="M1684.61 1391.61C1684.61 1391.61 1688.54 1358.73 1688.4 1357.98C1687.9 1358.8 1678.73 1390.33 1678.73 1390.33C1678.73 1390.33 1684.38 1440.07 1687.47 1440.11L1684.61 1391.61Z" fill="#FFCBCC"></path></g><g style="mix-blend-mode:multiply"><path d="M1744.95 1383.12C1744.33 1387.11 1742.3 1390.75 1739.22 1393.37C1736.15 1396 1732.23 1397.43 1728.19 1397.42C1743.61 1410.5 1729.43 1440.4 1729.87 1442.03C1731.66 1440.65 1733.15 1438.93 1734.26 1436.97L1742.92 1409.16L1765.59 1409.62L1744.95 1383.12Z" fill="#FFCBCC"></path></g><g style="mix-blend-mode:multiply"><path d="M1711.67 1396.4C1711.67 1396.4 1720.94 1368.85 1718.58 1365.62C1718.82 1366.77 1706.38 1394.19 1706.38 1394.19C1706.38 1394.19 1708.33 1434.68 1708.55 1435.93C1709.96 1443.78 1710.65 1447.32 1701.72 1453.48C1707.2 1452.02 1712.39 1447.27 1712.68 1443.87L1711.67 1396.4Z" fill="#FFCBCC"></path></g><path d="M1157.81 1579.74L1242.84 1489.54L1324.48 1450.25C1363.86 1458.06 1389.98 1452.35 1389.98 1452.35C1415.29 1495.62 1325.08 1492.9 1325.08 1492.9L1306.5 1514.82C1306.5 1514.82 1339.1 1531.26 1332.08 1543.75C1325.07 1556.25 1321.12 1564.16 1321.12 1564.16C1321.12 1564.16 1338.17 1586.08 1330.86 1593.09C1323.55 1600.11 1300.4 1607.1 1300.4 1607.1C1300.4 1607.1 1302.83 1623.23 1296.43 1630.85C1290.04 1638.47 1251.67 1656.42 1248.93 1634.81C1241.91 1647.29 1219.69 1658.87 1219.69 1658.87C1219.69 1658.87 1150.17 1644.6 1157.81 1579.74Z" fill="#F5AA8B"></path><g style="mix-blend-mode:multiply"><path d="M1296.21 1586.42C1280.25 1575.14 1262.85 1574.17 1260.71 1577.62C1262.14 1579.21 1300.42 1607.08 1300.42 1607.08C1300.42 1607.08 1287.9 1587.89 1296.21 1586.42Z" fill="#FFD1CD"></path></g><g style="mix-blend-mode:multiply"><path d="M1269.43 1530.38C1289.25 1544.19 1321.14 1564.14 1321.14 1564.14C1321.14 1564.14 1309.97 1550.68 1312.17 1546.53C1297.97 1538.64 1278.78 1529.94 1278.78 1529.94C1277.31 1529.24 1275.68 1528.92 1274.05 1528.99C1272.42 1529.07 1270.83 1529.55 1269.43 1530.38Z" fill="#FFD1CD"></path></g><g style="mix-blend-mode:multiply"><path d="M1393.18 1459.4C1387.45 1482.3 1359.32 1481.65 1359.32 1481.65L1320.35 1482.83L1299.63 1504.44L1287.13 1502.91L1306.52 1514.82L1325.08 1492.9C1325.08 1492.9 1405.15 1495.29 1393.18 1459.4Z" fill="#FFD1CD"></path></g><path d="M1325.83 1533.3C1328.04 1535.3 1328.94 1542.31 1328.94 1542.31C1328.94 1542.31 1322.78 1559.39 1323.46 1559.74C1325.28 1556.19 1328.26 1550.6 1332.15 1543.73C1339.15 1531.24 1306.57 1514.8 1306.57 1514.8C1306.57 1514.8 1289.51 1504.11 1287.48 1502.49C1286.44 1503.55 1318.89 1527 1325.83 1533.3Z" fill="#FFD9E8"></path><path d="M1321.14 1564.14C1321.14 1564.14 1282.77 1539.75 1270.4 1530.42C1270.35 1530.52 1270.29 1530.62 1270.21 1530.71C1280.79 1540.54 1319.66 1566.57 1319.66 1566.57C1319.66 1566.57 1326.97 1580.23 1329.1 1585.44C1331.24 1590.64 1328.17 1594.21 1323.75 1597.82C1326.33 1596.56 1328.72 1594.96 1330.88 1593.07C1338.18 1586.06 1321.14 1564.14 1321.14 1564.14Z" fill="#FFD9E8"></path><path d="M1300.44 1607.07C1300.23 1606.7 1259.73 1577.14 1259.73 1577.14L1296.27 1609.7C1296.27 1609.7 1300.2 1624.64 1293.99 1630.37C1288.5 1634.93 1282.57 1638.93 1276.28 1642.28C1285.42 1639.14 1293.8 1634.06 1296.51 1630.83C1302.9 1623.21 1300.47 1607.08 1300.47 1607.08L1300.44 1607.07Z" fill="#FFD9E8"></path><path d="M1170.12 1102.52C1159.69 1096.31 1138.79 1092.09 1135.41 1114.18C1133.69 1125.14 1144.16 1140.88 1153.82 1153.82C1163.49 1166.75 1169.56 1176.9 1180.17 1174.84C1190.79 1172.78 1193.44 1166 1193.44 1166L1170.12 1102.52Z" fill="#F5AA8B"></path><path d="M1398.01 950.38C1398.01 950.38 1378.75 875.103 1259.14 898.649C1139.54 922.195 1150.32 999.116 1150.32 999.116C1150.32 999.116 1173.63 1168.7 1206.06 1212.51C1238.49 1256.31 1305.48 1288.93 1350.41 1280.09C1395.34 1271.25 1424.54 1192.58 1426.77 1156.94C1428.99 1121.3 1398.01 950.38 1398.01 950.38Z" fill="#F5AA8B"></path><path d="M1411.23 936.296L1410.94 934.835C1410.54 933.228 1410.14 931.711 1409.72 930.214C1409.3 928.716 1408.84 927.291 1408.4 925.903C1407.62 923.491 1406.81 921.263 1406.03 919.217C1405.83 918.724 1405.63 918.249 1405.46 917.756C1404.86 916.294 1404.29 914.943 1403.74 913.719C1403.56 913.262 1403.36 912.824 1403.18 912.404C1401.62 909.024 1400.34 906.631 1399.52 905.353C1399.36 905.097 1399.25 904.878 1399.16 904.732L1398.92 904.33C1400.64 890.662 1399.98 876.799 1396.96 863.358C1396.6 861.951 1396.23 860.545 1395.78 859.156C1395.65 858.665 1395.49 858.183 1395.3 857.713C1395.32 857.604 1395.32 857.493 1395.3 857.384L1395.06 856.69C1394.68 855.631 1394.28 854.59 1393.84 853.567C1393.75 853.234 1393.61 852.914 1393.44 852.617C1393.29 852.306 1393.44 852.27 1393.22 852.124L1392.62 850.808C1392.34 850.224 1392.07 849.658 1391.76 849.11C1391.45 848.562 1391.08 847.831 1390.7 847.283C1390.31 846.735 1389.97 846.023 1389.56 845.456C1389.16 844.89 1388.98 844.543 1388.65 844.105C1388.32 843.666 1388.23 843.484 1388.01 843.191C1387.79 842.899 1387.37 842.351 1387.04 841.913C1386.71 841.474 1386.2 840.871 1385.76 840.36C1385.19 839.719 1384.58 839.109 1383.94 838.533L1382.53 837.127C1382.04 836.621 1381.5 836.163 1380.92 835.757C1380.57 835.501 1380.19 835.264 1379.83 835.044C1379.46 834.825 1379.04 834.606 1378.66 834.405C1378.27 834.204 1377.85 834.021 1377.45 833.857L1376.87 833.62C1376.68 833.531 1376.48 833.457 1376.28 833.4C1375.99 833.291 1375.68 833.181 1375.35 833.09C1373.78 832.612 1372.17 832.252 1370.54 832.012L1369.43 831.647L1367.16 831.428C1366.27 831.428 1365.34 831.318 1364.37 831.281H1361.5C1360.68 831.281 1359.84 831.281 1359.01 831.281L1356.49 831.446L1354.67 831.592L1353.28 831.738C1352.62 831.738 1351.94 831.884 1351.27 831.976L1348.16 832.396L1343.79 833.108L1337.84 834.277L1336.01 834.624L1331.19 835.757L1329.58 836.177L1324.65 837.529L1322.62 838.131L1321.54 838.46H1321.14H1320.61C1320.5 837.655 1320.35 836.856 1320.15 836.067L1319.97 835.191L1319.79 834.222C1319.72 833.838 1319.61 833.464 1319.46 833.108C1319.29 832.725 1319.07 831.957 1318.85 831.281C1318.77 830.966 1318.65 830.66 1318.51 830.368C1318.19 829.558 1317.83 828.765 1317.43 827.993C1316.59 826.242 1315.53 824.604 1314.29 823.116C1313.8 822.526 1313.27 821.964 1312.71 821.436C1311.53 820.321 1310.21 819.364 1308.79 818.586C1308.05 818.182 1307.28 817.84 1306.48 817.563C1306.21 817.456 1305.94 817.364 1305.66 817.289L1305 817.088L1304.25 816.906L1303.65 817.033C1303.32 816.958 1302.98 816.903 1302.65 816.869C1302.16 816.801 1301.66 816.758 1301.17 816.741C1300.65 816.741 1300.12 816.741 1299.59 816.741C1298.51 816.76 1297.42 816.857 1296.34 817.033C1294.88 817.21 1293.43 817.497 1292.01 817.892C1290.4 818.312 1288.81 818.824 1287.24 819.372C1286.48 819.627 1285.67 819.92 1284.9 820.212L1283.77 820.632L1282.64 821.07C1282.16 821.253 1281.67 821.454 1281.21 821.673C1280.04 822.13 1278.91 822.641 1277.74 823.171C1276.99 823.482 1276.19 823.847 1275.51 824.212C1274.84 824.578 1273.85 824.979 1273.05 825.4L1270.42 826.715L1268.9 827.519L1265.24 829.491L1262.81 830.88L1260.55 832.195C1259.03 833.09 1257.53 834.021 1256.14 834.862L1254.03 836.195L1252 837.51L1250.17 838.734L1248.23 840.031L1246.41 841.273L1244.58 842.461L1242.95 843.593L1241.49 844.689L1239.43 846.169L1238.2 847.046L1237.65 847.466L1236.67 848.196L1235.83 848.817L1234 850.187L1233.89 849.585L1233.74 848.817L1233.6 848.142L1233.51 847.63L1233.4 847.082C1233.25 846.464 1233.07 845.854 1232.85 845.255L1232.59 844.525C1232.47 844.071 1232.31 843.63 1232.1 843.21C1231.94 842.753 1231.83 842.57 1231.7 842.241C1231.55 841.898 1231.39 841.562 1231.2 841.237C1231.04 840.908 1230.84 840.524 1230.62 840.159C1230.4 839.794 1230.29 839.611 1230.11 839.319C1229.7 838.728 1229.26 838.161 1228.79 837.62C1228.56 837.369 1228.32 837.131 1228.06 836.908C1227.81 836.675 1227.54 836.461 1227.26 836.268L1226.69 835.885C1226.38 835.696 1226.05 835.543 1225.7 835.428L1225.32 835.282L1224.94 835.172H1224.66H1224.15H1223.66H1222.87H1222.54C1221.14 835.35 1219.79 835.83 1218.6 836.579C1217.44 837.245 1216.35 838.022 1215.34 838.899C1214.65 839.538 1213.97 840.196 1213.35 840.89L1212.64 841.693L1211.91 842.552L1211.21 843.429C1209.77 845.351 1208.42 847.351 1207.2 849.42C1206.68 850.297 1206.17 851.247 1205.68 852.069L1204.86 853.548L1203.56 856.014C1202.28 858.48 1201.13 860.8 1200.01 862.755L1199.61 863.504L1199.14 864.326L1198.68 865.075C1198.39 865.586 1198.08 866.006 1197.8 866.408C1196.91 867.65 1196.09 868.418 1195.32 868.381H1194.95C1194.59 868.4 1194.23 868.4 1193.88 868.381L1192.65 868.491H1192.25C1189.91 868.749 1187.59 869.201 1185.32 869.842L1184.43 870.025L1183.52 870.317C1182.36 870.701 1181.19 871.121 1180.03 871.596H1179.75C1179.24 871.815 1178.73 872.034 1178.2 872.29L1177.25 872.765L1176.28 873.258C1175.73 873.55 1175.2 873.861 1174.67 874.19L1173.32 875.067C1172.44 875.633 1171.6 876.243 1170.78 876.893C1169.54 877.894 1168.39 878.994 1167.33 880.181L1166.85 880.766C1160.42 888.419 1158.25 900.201 1155.3 903.69C1149 911.161 1126.93 915.582 1121.46 952.462C1116 989.343 1131.75 1021.73 1137.18 1035.94C1138.44 1039.3 1145.99 1058.1 1148.47 1067.63C1150.48 1075.25 1153.95 1097.1 1153.95 1097.1C1158.12 1098.21 1164.2 1105.43 1166.91 1112.55C1169.61 1119.67 1175.44 1145.25 1178.87 1161.12C1179.84 1165.52 1180.7 1169.89 1181.45 1174.18C1184.25 1188.8 1186.6 1202.42 1190.97 1213.91C1195.98 1227.06 1217.98 1244.34 1241.47 1259.16L1244.16 1260.86C1268.15 1275.71 1293.11 1287.78 1302.76 1290.21C1322.27 1295.13 1354.34 1294.52 1381.32 1278.01C1385.36 1275.46 1389.05 1272.39 1392.29 1268.88C1401.42 1259.27 1409.01 1245.84 1415.11 1231.81C1422.08 1215.73 1427.38 1198.98 1430.95 1181.82C1432.96 1171.7 1428.46 1137.01 1424.24 1112.79C1424.45 1121.49 1423.95 1130.2 1422.75 1138.82C1420.92 1151.29 1414.93 1163 1394.13 1170.69C1390.28 1172.1 1386.27 1173.05 1382.2 1173.53C1374.6 1174.27 1366.94 1174.33 1359.32 1173.71C1349.22 1173.21 1338.79 1172.7 1327.88 1174.86C1303.98 1179.55 1299.19 1188.78 1279.51 1195.21C1266.72 1199.43 1249.84 1198.61 1233.84 1191.44L1233.51 1191.3C1224.57 1187.21 1216.5 1181.44 1209.75 1174.29C1196.29 1160.1 1172.97 1065.13 1171.84 1049.44C1170.71 1033.75 1163.34 995.151 1189.62 981.25C1215.89 967.35 1247.26 996.54 1299.14 983.26C1351.01 969.98 1355.52 945.503 1372.61 951.622C1389.69 957.741 1398.99 991.462 1403.67 1010.77C1408.26 1029.71 1414.36 1043.65 1416.55 1056.44V1056.69V1057.17C1416.55 1057.29 1417.65 1041.2 1417.83 1024.01V1021.62C1417.83 1020.25 1417.83 1018.86 1417.83 1017.51C1417.83 1015.59 1417.83 1013.7 1417.83 1011.87C1417.83 1010.29 1417.74 1008.76 1417.7 1007.24C1417.71 1007.13 1417.71 1007.02 1417.7 1006.92C1417.56 1003.66 1417.36 1000.58 1417.1 997.782C1416.97 997.088 1416.97 996.375 1416.88 995.699L1416.72 994.183L1416.44 991.096C1416.44 990.092 1416.31 989.27 1416.28 988.411C1416.24 987.552 1416.28 987.041 1416.15 986.383C1415.93 981.013 1415.99 976.063 1415.91 970.674C1415.91 969.706 1415.91 968.72 1415.91 967.715V966.144C1415.91 965.121 1415.91 964.062 1415.78 962.984C1415.66 960.792 1415.49 958.509 1415.24 956.043C1415.13 954.819 1414.98 953.577 1414.83 952.261C1414.69 950.946 1414.49 949.594 1414.29 948.188C1414.08 946.781 1413.83 945.32 1413.59 943.822L1412.31 937.338L1411.23 936.296Z" fill="#693E40"></path><g opacity="0.3"><path opacity="0.47" d="M1166.23 881.259C1170.4 881.752 1183.55 875.067 1200.11 884.693C1216.66 894.32 1223.16 871.651 1247.61 882.081C1272.06 892.511 1303.09 856.891 1320.88 863.815C1338.68 870.738 1325.74 914.961 1366.78 912.404C1407.82 909.846 1400.93 952.335 1405.48 979.351C1407.93 994.727 1411.89 1009.83 1417.28 1024.43C1417.51 1014.97 1417.17 1005.51 1416.28 996.083C1414.21 978.328 1416.92 968.336 1412.81 944.242C1410.55 930.209 1405.84 916.681 1398.9 904.275C1398.9 904.275 1405.75 858.042 1382.46 836.871C1368.55 823.116 1320.52 838.972 1320.52 838.972C1320.52 838.972 1317.54 811.024 1291.57 818.111C1265.61 825.199 1233.62 850.498 1233.62 850.498C1233.62 850.498 1230.29 829.601 1218.12 836.707C1205.95 843.813 1199.32 868.436 1194.84 868.546C1186.46 868.746 1174.27 872.382 1166.92 880.784L1166.23 881.259Z" fill="white"></path></g><path d="M1277.65 1109.92C1279.48 1118.69 1275.71 1126.8 1269.43 1128.02C1263.14 1129.25 1256.64 1123.16 1254.94 1114.4C1253.24 1105.63 1256.88 1097.52 1263.16 1096.28C1269.45 1095.03 1275.93 1101.15 1277.65 1109.92Z" fill="#693E40"></path><path d="M1366.98 1108.81C1373.23 1107.58 1376.88 1099.47 1375.17 1090.7C1373.45 1081.94 1366.96 1075.83 1360.71 1077.06C1354.46 1078.28 1350.81 1086.39 1352.55 1095.16C1354.28 1103.93 1360.73 1110.05 1366.98 1108.81Z" fill="#693E40"></path><path d="M1278.18 1070.94C1281.96 1068.62 1278.66 1057.37 1272.11 1054.65C1265.57 1051.92 1231 1069.5 1226.44 1073.21C1221.87 1076.91 1220.81 1082.34 1222.14 1083.89C1223.48 1085.44 1274.42 1073.35 1278.18 1070.94Z" fill="#693E40"></path><path d="M1338.04 1059.23C1333.65 1058.5 1332.43 1046.85 1337.45 1041.86C1342.48 1036.87 1381.12 1040.03 1386.79 1041.66C1392.45 1043.28 1395.43 1047.92 1394.81 1049.93C1394.19 1051.94 1342.42 1059.98 1338.04 1059.23Z" fill="#693E40"></path><path d="M1371.42 1187.99C1369.59 1183.55 1357.83 1188.89 1333.21 1193.73C1308.6 1198.57 1295.78 1198.09 1295.72 1202.86C1295.67 1207.63 1307.31 1218.1 1336.89 1212.27C1366.47 1206.44 1373.23 1192.43 1371.42 1187.99Z" fill="white"></path><path d="M2184.63 1341.81V1633.54C2184.63 1762.82 2184.63 1854.27 2178.62 1925.71C2172.79 1996.04 2161.71 2038.9 2144.19 2072.51C2110.17 2137.95 2056.77 2191.31 1991.27 2225.3C1957.62 2242.77 1914.72 2253.82 1844.3 2259.69C1772.8 2265.58 1681.23 2265.69 1551.86 2265.69H1282.28C1152.88 2265.69 1061.34 2265.69 989.837 2259.69C919.41 2253.82 876.51 2242.77 842.866 2225.3C777.324 2191.32 723.872 2137.96 689.805 2072.51C672.312 2038.9 661.259 1996.04 655.41 1925.71C649.454 1854.25 649.4 1762.79 649.4 1633.54V1364.35C649.4 1235.1 649.4 1143.65 655.41 1072.19C661.259 1001.83 672.312 958.993 689.805 925.353C723.872 859.903 777.324 806.548 842.866 772.57C876.51 755.121 919.41 744.051 989.837 738.208C1061.34 732.257 1152.88 732.177 1282.28 732.177H1574.34C1576.84 670.58 1589.1 609.768 1610.64 552H1278.25C1153.79 552 1054.74 552 974.92 558.621C893.118 565.402 823.388 579.608 759.695 612.658C661.205 663.777 580.894 744.003 529.715 842.395C496.634 906.001 482.442 975.691 475.654 1057.31C469 1137.11 469 1236.01 469 1360.38V1637.56C469 1761.91 469 1860.87 475.654 1940.64C482.442 2022.34 496.634 2091.97 529.715 2155.61C580.894 2254 661.205 2334.22 759.695 2385.34C823.388 2418.39 893.118 2432.57 974.92 2439.38C1054.74 2446 1153.79 2446 1278.25 2446H1555.75C1680.21 2446 1779.26 2446 1859.13 2439.38C1940.91 2432.57 2010.61 2418.39 2074.3 2385.34C2172.8 2334.22 2253.11 2254 2304.29 2155.61C2337.39 2091.97 2351.59 2022.34 2358.37 1940.64C2365 1860.87 2365 1761.91 2365 1637.59V1305.52C2307.18 1327.07 2246.29 1339.32 2184.63 1341.81Z" fill="#FF8140"></path></svg>