<svg xmlns="http://www.w3.org/2000/svg" width="1067" height="1277" viewBox="0 0 1067 1277" fill="none"><path d="M433.9 937.299L359.568 1226.03L455.687 1226.2V929.559L433.9 937.299Z" fill="#E3B5AA"></path><path d="M506.181 765.524C506.181 765.524 433.558 802.941 418.521 943.671L455.559 952.993L506.181 765.524Z" fill="#FF8140"></path><path d="M671.975 651.606L675.521 747.521L561.033 751.755L561.93 663.751L671.975 651.606Z" fill="#E3B5AA"></path><path d="M659.202 740.38C659.202 740.38 849.473 722.206 851.439 865.887C853.703 1023.38 766.641 1220.81 761.984 1229.36L443.127 1236.63C473.244 1054.08 422.793 863.449 492.041 779.08C518.826 746.452 573.934 740.936 573.934 740.936L659.202 740.38Z" fill="#FF8140"></path><path d="M537.11 749.104C537.11 749.104 545.398 800.418 598.925 807.26C652.452 814.102 709.141 741.749 709.141 741.749C709.141 741.749 632.289 715.151 537.11 749.104Z" fill="#F7AC8D"></path><path d="M788.385 767.106C788.385 767.106 899.199 843.308 931.836 1066.91C964.474 1290.51 598.925 1232.4 598.925 1232.4L564.108 1220.47C564.108 1220.47 758.225 1144.4 814.742 1090.39C814.742 1090.39 736.865 844.591 788.385 767.106Z" fill="#F7AC8D"></path><path d="M746.012 748.937C746.012 748.937 875.989 761.369 933.784 971.089C933.784 971.089 901.299 1040.9 791.65 1036.92C774.71 1036.2 746.012 748.937 746.012 748.937Z" fill="#FF8140"></path><path d="M731.739 1224.19C731.739 1224.49 212.871 1224.19 212.187 1224.19C206.382 1224.14 200.829 1221.8 196.74 1217.68C192.651 1213.55 190.357 1207.98 190.357 1202.17C188.007 1196.09 183.01 1180.79 180.66 1174.67C66.4287 848.696 50.366 957.012 471.151 938.496C476.678 938.497 482.069 940.212 486.583 943.405C491.096 946.599 494.51 951.113 496.356 956.328L521.304 1026.84C521.304 1026.84 583.289 1202.17 583.375 1202.17H730.287C743.231 1202.08 745.708 1222.74 731.739 1224.19Z" fill="white"></path><path opacity="0.6" d="M583.076 1202.25H190.058C187.965 1196.22 182.539 1180.87 180.361 1174.76C400.066 1257.63 518.74 1020.81 518.74 1020.81C518.74 1020.81 520.022 1024.45 520.876 1026.8L583.076 1202.25Z" fill="#EDEDED"></path><path opacity="0.6" d="M731.739 1224.19C731.269 1224.45 213.169 1224.19 212.187 1224.19C207.923 1224.18 203.754 1222.93 200.2 1220.57C196.645 1218.21 193.861 1214.86 192.194 1210.93C301.086 1204.01 639.508 1239.16 739.001 1206.66C740.23 1208.16 741.028 1209.98 741.31 1211.9C741.592 1213.83 741.348 1215.8 740.603 1217.59C739.858 1219.39 738.641 1220.96 737.08 1222.12C735.519 1223.28 733.674 1223.99 731.739 1224.19Z" fill="#F4F4F4"></path><path d="M583.161 1202.25H190.357" stroke="white" stroke-miterlimit="10"></path><path d="M352.135 1065.03C366.318 1106.98 314.072 1124.9 299.505 1083.12C284.938 1041.34 337.568 1023.21 352.135 1065.03Z" fill="#6B6B6B"></path><path d="M731.739 1224.19C731.739 1224.49 212.871 1224.19 212.187 1224.19C206.382 1224.14 200.829 1221.8 196.74 1217.68C192.651 1213.55 190.357 1207.98 190.357 1202.17C188.007 1196.09 183.01 1180.79 180.66 1174.67C66.4287 848.696 50.366 957.012 471.151 938.496C476.678 938.497 482.069 940.212 486.583 943.405C491.096 946.599 494.51 951.113 496.356 956.328L521.304 1026.84C521.304 1026.84 583.289 1202.17 583.375 1202.17H730.287C743.231 1202.08 745.708 1222.74 731.739 1224.19Z" fill="white"></path><path opacity="0.6" d="M583.076 1202.25H190.058C187.965 1196.22 182.539 1180.87 180.361 1174.76C400.066 1257.63 518.74 1020.81 518.74 1020.81C518.74 1020.81 520.022 1024.45 520.876 1026.8L583.076 1202.25Z" fill="#EDEDED"></path><path opacity="0.6" d="M731.739 1224.19C731.269 1224.45 213.169 1224.19 212.187 1224.19C207.923 1224.18 203.754 1222.93 200.2 1220.57C196.645 1218.21 193.861 1214.86 192.194 1210.93C301.086 1204.01 639.508 1239.16 739.001 1206.66C740.23 1208.16 741.028 1209.98 741.31 1211.9C741.592 1213.83 741.348 1215.8 740.603 1217.59C739.858 1219.39 738.641 1220.96 737.08 1222.12C735.519 1223.28 733.674 1223.99 731.739 1224.19Z" fill="#F4F4F4"></path><path d="M352.135 1065.03C366.318 1106.98 314.072 1124.9 299.505 1083.12C284.938 1041.34 337.568 1023.21 352.135 1065.03Z" fill="#6B6B6B"></path><path d="M82.6189 312.975V549.876C82.8194 555.453 85.2209 560.723 89.2969 564.531C93.3729 568.338 98.7907 570.373 104.363 570.188H415.018C420.586 570.372 425.999 568.337 430.068 564.528C434.138 560.719 436.53 555.449 436.719 549.876V312.975C436.53 307.401 434.138 302.131 430.068 298.323C425.999 294.514 420.586 292.478 415.018 292.663H104.363C98.7907 292.478 93.3729 294.512 89.2969 298.32C85.2209 302.127 82.8194 307.397 82.6189 312.975Z" fill="white"></path><path d="M118.759 312.889H400.579C408.199 312.889 414.377 319.073 414.377 326.701V536.962C414.377 544.59 408.199 550.774 400.579 550.774H118.759C111.139 550.774 104.961 544.59 104.961 536.962V326.701C104.961 319.073 111.139 312.889 118.759 312.889Z" fill="#CCCCCC"></path><path d="M127.517 403.886H244.44V550.774H127.517V403.886Z" fill="#8B8C8C"></path><path d="M311.637 437.455H401.86V550.774H311.637V437.455Z" fill="#8B8C8C"></path><path d="M343.592 550.774H357.604L356.108 540.554L343.592 550.774Z" fill="#E3B5AA"></path><path d="M356.151 540.596L343.591 550.774H353.758C354.943 547.484 355.746 544.069 356.151 540.596Z" fill="#D78F97"></path><path d="M228.804 384.558C228.804 384.558 224.532 428.175 232.179 448.102L318.729 449.642C315.055 418.041 312.919 376.947 312.919 376.947L228.804 384.558Z" fill="#36364F"></path><path d="M303.692 388.621C303.905 402.176 308.391 442.672 313.432 449.086L241.834 448.573C241.834 448.573 229.317 426.679 233.29 406.068C237.263 385.456 303.563 381.223 303.692 388.621Z" fill="#2A2A3F"></path><path d="M210.991 500.913C211.717 512.93 213.297 539.057 213.981 550.774H325.051C324.068 522.38 336.671 465.806 299.761 456.698C290.534 453.148 268.576 454.902 258.58 454.517C246.183 454.556 234.288 459.418 225.407 468.076C216.526 476.734 211.356 488.51 210.991 500.913Z" fill="#FF8140"></path><path d="M271.566 480.046C297.54 477.95 299.633 456.698 299.633 456.698C284.767 452.122 252.642 453.576 243.5 456.997C243.5 457.04 245.593 482.184 271.566 480.046Z" fill="#F7AC8D"></path><path d="M287.629 455.757C285.792 474.7 255.888 472.862 256.914 453.362C257.213 445.708 257.768 431.981 258.024 424.37H285.664C286.133 433.649 287.714 446.392 287.629 455.757Z" fill="#F7AC8D"></path><path d="M228.804 386.568C230.001 442.159 312.065 440.619 313.432 386.012C313.432 374.124 312.278 365.786 299.377 356.378C285.578 325.376 227.053 345.859 228.804 386.568Z" fill="#36364F"></path><path d="M238.716 403.887C220.731 381.565 215.135 427.32 238.16 420.35C246.106 417.186 238.716 403.887 238.716 403.887Z" fill="#F7AC8D"></path><path d="M232.308 404.314C228.548 403.587 226.498 414.748 234.7 415.219C234.153 414.108 233.869 412.886 233.869 411.648C233.869 410.41 234.153 409.188 234.7 408.077L232.308 404.314Z" fill="#E79D7F"></path><path d="M302.837 402.647C319.925 379.683 327.273 425.182 304.033 419.11C295.959 416.245 302.837 402.647 302.837 402.647Z" fill="#F7AC8D"></path><path d="M309.245 402.86C312.962 401.962 315.482 413.038 307.28 413.85C307.787 412.72 308.028 411.488 307.983 410.25C307.939 409.011 307.61 407.8 307.024 406.709L309.245 402.86Z" fill="#E79D7F"></path><path d="M271.609 446.007C241.706 445.708 239.656 418.041 237.648 394.992C237.066 390.375 237.461 385.687 238.808 381.232C240.154 376.778 242.421 372.657 245.462 369.136C248.503 365.616 252.249 362.776 256.459 360.799C260.668 358.823 265.245 357.754 269.893 357.664C274.542 357.574 279.157 358.463 283.439 360.274C287.722 362.085 291.576 364.778 294.752 368.177C297.927 371.576 300.352 375.606 301.87 380.005C303.388 384.404 303.965 389.073 303.563 393.709C302.453 416.843 301.47 444.596 271.609 446.007Z" fill="#F7AC8D"></path><path d="M276.565 434.376C269.559 434.376 258.281 436.428 259.477 425.823L283.657 425.353C283.867 426.423 283.844 427.525 283.589 428.585C283.334 429.645 282.853 430.637 282.18 431.494C281.506 432.351 280.656 433.052 279.687 433.549C278.718 434.047 277.653 434.329 276.565 434.376Z" fill="#C33E5D"></path><path d="M282.417 390.203C294.934 391.956 302.324 389.048 291.602 386.654C280.879 384.259 275.924 389.305 282.417 390.203Z" fill="#36364F"></path><path d="M259.349 390.63C246.918 392.854 239.442 390.246 250.036 387.423C260.631 384.601 265.8 389.476 259.349 390.63Z" fill="#36364F"></path><path d="M272.806 428.902C269.516 429.287 264.646 428.432 263.749 425.567L279.342 425.268C278.736 426.454 277.79 427.434 276.626 428.081C275.462 428.729 274.132 429.014 272.806 428.902Z" fill="white"></path><path d="M297.412 371.516C295.436 376.025 292.259 379.903 288.227 382.724C284.196 385.545 279.466 387.201 274.557 387.509C270.584 387.509 267.978 385.242 273.19 378.358C263.364 385.157 242.816 394.65 251.446 370.49C251.446 370.49 242.902 397.301 237.391 392.512C231.88 387.723 240.381 365.401 256.914 360.013C273.446 354.625 292.841 356.592 297.412 371.516Z" fill="#36364F"></path><path d="M304.717 390.801C304.717 390.801 300.445 402.646 303.863 409.83C317.02 397.429 307.835 376.091 304.717 390.801Z" fill="#36364F"></path><path d="M238.587 395.847C238.587 395.847 241.535 406.709 238.074 413.85C226.027 399.482 234.4 379.812 238.587 395.847Z" fill="#36364F"></path><path d="M297.412 371.516C297.596 378.417 299.777 385.117 303.691 390.802C308.092 396.489 309.672 371.516 297.412 371.516Z" fill="#36364F"></path><path d="M258.922 404.742C259.135 412.097 253.753 412.182 253.667 404.742C253.582 397.301 258.836 397.387 258.922 404.742Z" fill="#36364F"></path><path d="M290.491 404.143C290.491 411.498 285.322 411.584 285.237 404.143C285.151 396.703 290.406 396.788 290.491 404.143Z" fill="#36364F"></path><path d="M300.359 457.809C302.794 478.506 316.849 524.475 324.026 550.774H343.591L361.875 535.893C349.145 506.986 335.859 464.865 300.359 457.809Z" fill="#FF8140"></path><path d="M198.517 550.774H184.505L186 540.554L198.517 550.774Z" fill="#E3B5AA"></path><path d="M185.786 540.596L198.303 550.774H188.179C186.974 547.49 186.171 544.073 185.786 540.596Z" fill="#D78F97"></path><path d="M241.749 457.809C239.314 478.506 225.301 524.475 218.125 550.774H198.602C194.715 547.609 184.077 538.972 180.361 535.893C193.006 506.986 206.249 464.865 241.749 457.809Z" fill="#FF8140"></path><path opacity="0.79" d="M299.633 483.082C299.633 483.082 270.542 504.463 241.578 483.082" stroke="white" stroke-width="0.25" stroke-miterlimit="10"></path><path d="M275.24 404.186C275.231 406.852 276.014 409.46 277.487 411.681C278.96 413.902 281.059 415.635 283.517 416.661C285.975 417.687 288.683 417.96 291.296 417.445C293.909 416.93 296.311 415.651 298.197 413.768C300.083 411.886 301.369 409.486 301.892 406.872C302.414 404.258 302.151 401.548 301.133 399.084C300.116 396.62 298.391 394.514 296.177 393.032C293.963 391.55 291.36 390.759 288.697 390.759C285.135 390.759 281.719 392.172 279.196 394.689C276.674 397.206 275.251 400.621 275.24 404.186Z" stroke="white" stroke-miterlimit="10"></path><path d="M253.496 417.613C246.088 417.613 240.082 411.601 240.082 404.186C240.082 396.77 246.088 390.759 253.496 390.759C260.905 390.759 266.91 396.77 266.91 404.186C266.91 411.601 260.905 417.613 253.496 417.613Z" stroke="white" stroke-miterlimit="10"></path><path d="M320.01 536.449L323.983 550.774L326.205 538.715" stroke="white" stroke-width="0.25" stroke-miterlimit="10"></path><path d="M213.212 539.014L213.981 550.774L217.655 539.014" stroke="white" stroke-width="0.25" stroke-miterlimit="10"></path><path d="M349.102 397.472C370.803 397.814 400.023 401.406 398.785 370.361C398.058 342.609 368.539 346.457 349.102 346.671C317.789 346.201 317.746 397.943 349.102 397.472Z" fill="white"></path><path d="M379.476 393.88L356.749 407.136L365.464 385.969L379.476 393.88Z" fill="white"></path><path d="M339.362 366.727C340.387 365.871 388.147 368.736 386.353 364.973C389.215 360.697 339.661 363.99 339.362 363.006C337.098 362.963 337.098 366.727 339.362 366.727Z" fill="#8B8C8C"></path><path d="M339.362 374.124C340.387 373.269 388.147 376.134 386.353 372.371C389.215 368.095 339.661 371.387 339.362 370.404C337.098 370.361 337.098 374.167 339.362 374.124Z" fill="#8B8C8C"></path><path d="M339.362 381.137C340.387 380.282 388.147 383.147 386.353 379.384C389.215 375.108 339.661 378.4 339.362 377.417C337.098 377.417 337.098 381.18 339.362 381.137Z" fill="#8B8C8C"></path><path d="M192.237 574.079L194.8 582.247" stroke="white" stroke-linecap="round" stroke-linejoin="round"></path><path d="M200.097 599.095L302.794 927.079" stroke="#6B6B6B" stroke-linecap="round" stroke-linejoin="round" stroke-dasharray="4.12 4.12"></path><path d="M305.443 935.503L308.006 943.671" stroke="white" stroke-linecap="round" stroke-linejoin="round"></path><path d="M275.497 407.136C275.497 407.136 271.225 400.081 266.953 407.136" stroke="white" stroke-miterlimit="10"></path><path d="M527.541 25.871V327.172C527.613 330.642 528.368 334.065 529.762 337.243C531.155 340.422 533.161 343.295 535.664 345.697C538.168 348.1 541.119 349.985 544.351 351.245C547.582 352.506 551.03 353.116 554.497 353.043L826.576 352.444H873.567L939.91 353.043C943.378 353.116 946.825 352.506 950.056 351.245C953.288 349.985 956.239 348.1 958.743 345.697C961.246 343.295 963.252 340.422 964.646 337.243C966.039 334.065 966.794 330.642 966.866 327.172V25.871C966.665 18.8991 963.718 12.2897 958.669 7.48349C953.619 2.67731 946.877 0.0641984 939.91 0.213829H554.539C547.566 0.052745 540.812 2.66076 535.753 7.46815C530.695 12.2755 527.742 18.8916 527.541 25.871Z" fill="white"></path><path d="M575.344 25.1868H924.916C934.353 25.1868 942.003 32.8448 942.003 42.2915V303.097C942.003 312.543 934.353 320.201 924.916 320.201H575.344C565.906 320.201 558.256 312.543 558.256 303.097V42.2915C558.256 32.8448 565.906 25.1868 575.344 25.1868Z" fill="#CCCCCC"></path><path d="M617.85 320.201H660.569V273.805L627.205 281.716C623.209 294.314 620.083 307.173 617.85 320.201Z" fill="#F7AC8D"></path><path d="M823.286 273.805V320.201H863.699C862.374 309.511 861.093 301.172 859.897 294.544L823.286 273.805Z" fill="#F7AC8D"></path><path d="M660.611 251.782C660.611 269.956 660.611 301.6 660.611 319.902H823.372V273.89C826.533 244.555 816.878 212.527 786.163 203.333C741.692 193.113 664.926 190.675 660.611 251.782Z" fill="#FF8140"></path><path d="M740.496 224.971C714.053 224.971 702.904 202.777 703.801 201.708C727.595 196.491 739.258 198.415 759.336 198.116C759.336 198.116 767.282 199.313 777.449 201.152C777.235 201.152 766.769 225.099 740.496 224.971Z" fill="#F7AC8D"></path><path d="M761.429 201.965C758.994 226.852 719.692 224.158 721.059 198.843C721.401 188.751 722.127 171.005 722.512 160.699L758.823 160.486C759.421 172.929 761.515 189.649 761.429 201.965Z" fill="#F7AC8D"></path><path d="M832.77 155.354L833.197 155.012L832.77 155.354Z" fill="#1B323D"></path><path d="M796.459 101.602C784.583 177.59 696.88 181.995 683.082 106.178C676.204 104.425 683.296 61.8337 712.088 55.9753C750.279 39.4692 770.4 56.9161 782.276 69.3598C782.276 69.3598 786.548 74.8333 788.129 77.9122C795.476 84.1127 799.449 91.6815 796.459 101.602Z" fill="#36364F"></path><path d="M697.136 129.013C673.683 99.7209 665.866 159.588 696.367 150.693C706.961 146.502 697.136 129.013 697.136 129.013Z" fill="#E3B5AA"></path><path d="M688.678 129.611C683.765 128.628 681.031 143.338 691.839 143.937C691.103 142.478 690.72 140.867 690.72 139.233C690.72 137.599 691.103 135.988 691.839 134.529L688.678 129.611Z" fill="#D78F97"></path><path d="M693.719 145.69C687.268 139.062 691.754 134.273 691.754 134.273C691.754 134.273 685.559 122.085 683.21 131.536" stroke="#C87E84" stroke-miterlimit="10" stroke-linecap="round"></path><path d="M781.379 127.431C803.721 97.2407 813.76 156.765 782.96 148.812C772.365 145.262 781.379 127.431 781.379 127.431Z" fill="#E3B5AA"></path><path d="M789.837 127.773C794.707 126.618 797.997 141.157 787.231 142.226C787.905 140.739 788.225 139.115 788.166 137.482C788.106 135.85 787.67 134.254 786.89 132.819L789.837 127.773Z" fill="#D78F97"></path><path d="M785.437 143.937C791.589 137.095 786.932 132.476 786.932 132.476C786.932 132.476 792.699 120.033 795.476 129.44" stroke="#C87E84" stroke-miterlimit="10" stroke-linecap="round"></path><path d="M740.326 184.432C700.981 184.005 698.333 147.657 695.684 117.339C694.946 111.281 695.486 105.135 697.27 99.2993C699.054 93.4635 702.041 88.0672 706.039 83.4595C710.037 78.8518 714.956 75.1351 720.478 72.5497C726.001 69.9644 732.004 68.568 738.1 68.4507C744.196 68.3334 750.248 69.4979 755.866 71.8689C761.484 74.2399 766.542 77.7646 770.714 82.2151C774.885 86.6657 778.078 91.943 780.084 97.7059C782.09 103.469 782.866 109.589 782.362 115.671C780.866 146.075 779.585 182.508 740.326 184.432Z" fill="#F7AC8D"></path><path d="M722.084 130.167C722.383 139.832 715.292 139.96 715.164 130.167C715.035 120.375 721.999 120.503 722.084 130.167Z" fill="#36364F"></path><path d="M763.607 129.398C763.864 139.019 756.772 139.19 756.687 129.398C756.602 119.605 763.479 119.733 763.607 129.398Z" fill="#36364F"></path><path d="M748.485 169.124C738.788 168.653 722.084 173.699 724.22 157.621L756.004 157.022C756.815 162.41 754.936 169.081 748.485 169.124Z" fill="#C33E5D"></path><path d="M754.551 111.053C770.998 113.319 780.738 109.513 766.64 106.349C752.543 103.185 746.007 109.855 754.551 111.053Z" fill="#36364F"></path><path d="M724.05 111.609C707.688 114.559 697.82 111.095 711.789 107.332C725.758 103.569 732.593 110.112 724.05 111.609Z" fill="#36364F"></path><path d="M741.949 161.982C737.677 162.495 731.227 161.426 730.03 157.706L750.536 157.321C749.707 158.846 748.456 160.097 746.932 160.924C745.408 161.751 743.677 162.119 741.949 161.982Z" fill="white"></path><path d="M781.208 127.43C778.26 113.276 778.26 71.84 744.341 81.5042C720.76 90.869 692.138 96.086 696.88 126.789C696.88 126.789 684.534 105.408 690.899 93.3065C697.264 81.2048 705.851 64.3994 718.71 60.6363C731.568 56.8733 776.338 74.1491 776.338 74.1491C784.101 90.8025 785.823 109.643 781.208 127.43Z" fill="#36364F"></path><path d="M776.851 101.047C770.997 94.8412 763.647 90.2482 755.507 87.7094C747.367 85.1706 738.711 84.7714 730.372 86.5502C730.372 86.5502 762.497 52.9393 776.851 101.047Z" fill="#2A2A3F"></path><path d="M695.94 109.898C698.941 119.853 699.498 130.385 697.563 140.601C697.435 141.328 684.406 103.142 695.94 109.898Z" fill="#36364F"></path><path d="M781.678 108.273C779.05 118.349 778.889 128.911 781.208 139.062C781.379 139.746 792.913 101.047 781.678 108.273Z" fill="#36364F"></path><path d="M786.163 203.162C786.163 203.162 838.452 203.162 872.969 294.373L823.372 317.892C823.372 317.892 788.983 223.645 786.163 203.162Z" fill="#FF8140"></path><path d="M698.418 203.162C698.418 203.162 643.139 209.491 614.474 290.824L660.569 320.202C660.569 320.202 695.769 223.645 698.418 203.162Z" fill="#FF8140"></path><path opacity="0.5" d="M785.437 213.297C785.437 213.297 739.386 265.466 698.845 213.297" stroke="white" stroke-width="0.5" stroke-miterlimit="10"></path><path opacity="0.5" d="M812.948 283.854L823.372 317.892L823.415 301.942" stroke="white" stroke-width="0.5" stroke-miterlimit="10"></path><path opacity="0.5" d="M665.097 286.591L661.38 317.892L670.223 310.879" stroke="white" stroke-width="0.5" stroke-miterlimit="10"></path><path d="M606.614 137.437C630.366 137.437 668.984 143.637 669.882 108.786C672.146 90.9974 660.056 73.6361 641.26 73.8071H606.614C568.381 73.2084 568.381 137.993 606.614 137.437Z" fill="white"></path><path d="M617.251 134.101V149.795L596.148 128.97L617.251 134.101Z" fill="white"></path><path d="M595.379 98.9083C596.447 97.7965 656.766 101.431 654.588 96.813C658.176 91.2112 596.062 95.5301 595.379 94.2473C592.602 94.2045 592.602 98.9511 595.379 98.9083Z" fill="#8B8C8C"></path><path d="M595.379 108.188C596.447 107.076 656.766 110.711 654.588 106.092C658.176 100.49 596.062 104.809 595.379 103.527C592.602 103.484 592.602 108.23 595.379 108.188Z" fill="#8B8C8C"></path><path d="M595.379 116.954C596.447 115.885 656.766 119.477 654.588 114.859C658.176 109.257 596.062 113.618 595.379 112.336C592.602 112.293 592.602 116.997 595.379 116.954Z" fill="#8B8C8C"></path><path d="M558.085 1131.35L916.799 358.858" stroke="#6B6B6B" stroke-linecap="round" stroke-linejoin="round" stroke-dasharray="4 4"></path><path d="M703.545 624.472C710.126 618.567 724.482 612.602 730.063 627.906C732.847 635.559 727.568 648.248 722.481 658.865C717.395 669.482 714.49 677.604 706.607 677.616C698.724 677.629 695.867 673.158 695.867 673.158L703.545 624.472Z" fill="#F7AC8D"></path><path d="M546.981 751.73C553.333 760.901 560.698 769.421 568.533 775.024C571.354 777.086 574.434 778.767 577.694 780.025C599.281 788.051 622.292 783.966 635.551 777.7C642.108 774.602 658.248 762.443 673.315 748.44L675.002 746.849C674.077 746.2 673.284 745.383 672.664 744.439C671.747 743.023 671.246 741.378 671.218 739.691C671.212 739.619 671.212 739.546 671.218 739.474V685.896H562.313V739.474C562.324 739.675 562.324 739.876 562.313 740.076C562.282 740.808 562.144 741.53 561.904 742.222C561.788 742.608 561.647 742.986 561.482 743.354C561.409 743.523 561.325 743.692 561.241 743.86L561.096 744.102C561.047 744.198 560.991 744.291 560.927 744.379L560.746 744.656C559.637 746.287 558.031 747.517 556.166 748.163L554.466 748.838L546.981 751.73Z" fill="#FCD1C8"></path><path d="M616.759 684.521H671.205V739.438C661.056 751.742 642.699 769.782 611.323 771.409C587.566 772.614 565.267 752.898 560.698 744.607C561.818 742.878 562.377 740.846 562.301 738.787V684.558L616.759 684.521Z" fill="#EFAFAF"></path><path d="M519.125 547.792C519.125 547.792 522.283 491.225 611.13 491.225C699.977 491.225 703.135 547.792 703.135 547.792C703.135 547.792 710.367 672.398 693.348 708.298C676.328 744.198 633.019 776.988 599.619 776.988C566.218 776.988 534.276 724.82 527.647 699.645C521.017 674.471 519.125 547.792 519.125 547.792Z" fill="#F7AC8D"></path><path d="M507.675 539.537C507.675 539.163 507.675 538.802 507.675 538.452C507.735 537.247 507.807 536.103 507.904 534.982C508 533.861 508.109 532.764 508.229 531.704C508.458 529.872 508.711 528.161 508.988 526.594C509.061 526.209 509.133 525.835 509.193 525.462C509.41 524.329 509.627 523.292 509.844 522.328C509.916 521.979 510.001 521.641 510.074 521.316C510.7 518.677 511.279 516.785 511.616 515.773C511.701 515.556 511.749 515.387 511.797 515.266L511.905 514.953C511.905 514.953 506.746 500.492 507.53 485.368C507.59 484.308 507.662 483.247 507.783 482.199C507.783 481.825 507.868 481.464 507.916 481.09C507.911 481.01 507.911 480.929 507.916 480.849L507.988 480.319C508.108 479.515 508.253 478.712 508.422 477.909C508.422 477.668 508.518 477.415 508.579 477.173C508.639 476.932 508.578 476.92 508.663 476.788L508.916 475.764C509.02 475.314 509.141 474.868 509.278 474.426C509.435 473.92 509.591 473.414 509.772 472.92C509.953 472.425 510.122 471.919 510.327 471.425C510.532 470.931 510.616 470.69 510.785 470.329C510.881 470.088 511.002 469.834 511.11 469.593C511.219 469.352 511.447 468.894 511.628 468.533C511.809 468.171 512.086 467.677 512.327 467.244C512.568 466.81 512.978 466.147 513.34 465.617C513.702 465.086 513.87 464.833 514.148 464.412C514.434 463.983 514.757 463.58 515.112 463.206C515.329 462.978 515.558 462.761 515.799 462.544C516.04 462.327 516.293 462.122 516.546 461.929C516.796 461.726 517.058 461.537 517.329 461.363C517.453 461.271 517.582 461.187 517.715 461.11C517.838 461.021 517.967 460.94 518.101 460.869C518.294 460.748 518.499 460.628 518.716 460.519C519.775 459.956 520.875 459.473 522.007 459.073L522.79 458.808L524.381 458.326C525.02 458.145 525.683 457.988 526.358 457.832L528.407 457.422C528.998 457.314 529.612 457.217 530.203 457.133L532.035 456.892L533.324 456.747L534.337 456.651C534.827 456.603 535.322 456.566 535.82 456.542L538.098 456.398L541.316 456.289C542.835 456.289 544.33 456.289 545.74 456.289H547.054L550.67 456.422L551.875 456.494L555.599 456.771L557.13 456.916L557.95 457H558.251H558.637C558.605 456.406 558.605 455.811 558.637 455.217C558.637 455.024 558.637 454.807 558.637 454.566C558.637 454.325 558.637 454.096 558.637 453.843C558.637 453.59 558.637 453.289 558.709 452.999C558.782 452.71 558.818 452.132 558.891 451.662C558.891 451.433 558.962 451.204 559.011 450.963C559.119 450.372 559.264 449.758 559.445 449.107C559.805 447.738 560.331 446.419 561.012 445.178C561.278 444.688 561.571 444.213 561.892 443.756C562.58 442.792 563.39 441.922 564.302 441.165C564.776 440.772 565.279 440.418 565.809 440.105C565.987 439.989 566.172 439.884 566.363 439.792L566.797 439.563L567.316 439.322L567.81 439.117C568.027 439.02 568.268 438.936 568.509 438.852C568.75 438.767 569.184 438.635 569.546 438.55C569.907 438.466 570.281 438.369 570.666 438.297C571.462 438.14 572.267 438.039 573.077 437.996C574.148 437.918 575.225 437.918 576.296 437.996C577.501 438.08 578.707 438.213 579.912 438.382C580.503 438.466 581.117 438.55 581.708 438.659L582.576 438.803L583.443 438.96C583.817 439.02 584.19 439.093 584.552 439.177C585.444 439.346 586.336 439.55 587.24 439.767C587.819 439.888 588.446 440.033 588.988 440.189C589.53 440.346 590.278 440.515 590.917 440.695L592.978 441.274C593.388 441.382 593.785 441.503 594.183 441.635L597.052 442.527C597.703 442.744 598.342 442.949 598.98 443.178L600.789 443.804C601.994 444.226 603.199 444.66 604.308 445.094L606.008 445.745L607.647 446.395L609.178 447.01L610.744 447.661L612.239 448.287L613.662 448.902L614.987 449.48L616.193 450.047L617.881 450.818L618.869 451.276L619.327 451.493L620.134 451.879L620.822 452.204L622.304 452.939V452.493C622.304 452.337 622.304 452.144 622.304 451.915C622.304 451.686 622.304 451.601 622.304 451.421C622.304 451.24 622.304 451.168 622.304 451.035C622.304 450.902 622.304 450.77 622.304 450.625C622.304 450.191 622.376 449.721 622.437 449.227L622.509 448.673C622.509 448.348 622.618 448.01 622.678 447.661C622.738 447.311 622.786 447.167 622.835 446.914C622.883 446.661 622.967 446.395 623.039 446.13C623.112 445.865 623.208 445.564 623.305 445.275C623.401 444.985 623.461 444.829 623.558 444.6C623.759 444.119 623.993 443.652 624.257 443.202C624.39 442.985 624.534 442.78 624.678 442.587C624.823 442.394 624.992 442.19 625.161 442.009L625.522 441.659C625.718 441.481 625.932 441.323 626.161 441.189L626.414 441.033L626.668 440.9L626.86 440.816L627.21 440.683L627.559 440.587C627.746 440.538 627.935 440.502 628.126 440.478H628.367C629.396 440.407 630.428 440.559 631.393 440.924C632.313 441.239 633.201 441.643 634.044 442.129C634.63 442.478 635.197 442.856 635.744 443.262L636.371 443.744L637.009 444.25L637.624 444.781C638.934 445.952 640.177 447.195 641.349 448.504C641.843 449.059 642.325 449.613 642.807 450.179L643.603 451.131L644.881 452.71C646.146 454.289 647.291 455.795 648.364 457.036L648.761 457.506L649.22 458.025L649.654 458.507C649.931 458.82 650.208 459.085 650.461 459.326C651.281 460.097 651.98 460.531 652.522 460.399H652.788C653.041 460.399 653.306 460.314 653.571 460.29L654.463 460.194H654.764C656.473 460.049 658.191 460.049 659.899 460.194H660.574L661.261 460.266C662.145 460.379 663.037 460.523 663.937 460.7H664.142C664.54 460.784 664.938 460.869 665.348 460.977L666.095 461.182L666.854 461.399C667.288 461.531 667.722 461.676 668.144 461.833L669.228 462.266C669.94 462.568 670.627 462.893 671.314 463.255C672.338 463.799 673.318 464.423 674.243 465.123C674.4 465.255 674.52 465.339 674.665 465.472C680.342 470.051 683.56 478.162 686.164 480.246C691.721 484.705 708.125 484.754 717.238 510.374C726.35 535.994 719.649 561.373 717.768 572.304C717.334 574.882 714.586 589.392 714.152 596.574C713.791 602.298 714.358 618.422 714.358 618.422C711.537 619.808 708.21 625.822 707.282 631.305C706.354 636.788 705.787 655.901 705.558 667.735C705.498 671.025 705.498 674.266 705.558 677.448C705.618 688.294 705.859 698.368 704.353 707.202C702.629 717.324 689.334 732.786 674.617 746.693L672.929 748.283C657.862 762.286 641.722 774.446 635.165 777.543C621.906 783.809 598.884 787.895 577.308 779.869C574.049 778.61 570.968 776.929 568.147 774.868C560.313 769.264 552.948 760.744 546.596 751.573C539.348 741.047 533.193 729.81 528.226 718.035C525.357 711.082 523.682 685.63 523.284 667.711C524.371 673.961 525.955 680.114 528.021 686.113C531.143 694.777 537.025 702.321 552.984 704.888C555.938 705.345 558.935 705.463 561.916 705.237C567.461 704.69 572.946 703.654 578.309 702.14C585.456 700.357 592.845 698.525 600.957 698.525C618.712 698.525 623.437 704.442 638.42 706.274C648.183 707.479 660.116 704.526 670.591 697.139L670.808 696.982C676.629 692.8 681.589 687.534 685.417 681.473C693.046 669.422 696.325 598.189 694.927 586.813C693.529 575.437 693.348 546.78 672.604 540.537C651.86 534.295 633.526 559.59 594.557 557.409C555.588 555.227 548.91 538.344 537.556 545.129C526.201 551.913 524.296 577.341 523.706 591.802C523.103 605.998 520.716 616.892 520.945 626.352V626.545C520.945 626.665 520.945 626.786 520.945 626.894C520.945 627.003 517.908 615.639 515.365 603.359C515.244 602.792 515.124 602.154 515.015 601.648C514.81 600.671 514.617 599.683 514.437 598.707C514.171 597.345 513.919 595.996 513.69 594.658C513.497 593.537 513.315 592.429 513.135 591.344C513.123 591.26 513.123 591.175 513.135 591.091C512.773 588.753 512.484 586.512 512.267 584.451C512.267 583.933 512.171 583.427 512.135 582.932C512.099 582.438 512.074 582.185 512.038 581.824C511.954 581.065 511.881 580.317 511.797 579.582C511.713 578.847 511.64 578.269 511.544 577.63C511.447 576.991 511.411 576.642 511.339 576.16C510.748 572.291 510.001 568.761 509.302 564.892C509.181 564.193 509.049 563.482 508.928 562.759L508.748 561.638C508.639 560.891 508.519 560.132 508.398 559.349C508.181 557.77 507.976 556.107 507.807 554.311C507.723 553.42 507.651 552.504 507.566 551.552C507.482 550.6 507.433 549.588 507.385 548.551C507.337 547.515 507.301 546.442 507.265 545.334C507.265 543.671 507.265 542.056 507.265 540.513L507.675 539.537Z" fill="#683E40"></path><g style="mix-blend-mode:overlay" opacity="0.3"><path d="M675.135 465.641C672.23 466.581 661.876 463.652 651.389 472.871C640.903 482.09 633.068 466.785 617.061 477.692C601.054 488.598 573.837 467.496 562.097 474.98C550.356 482.464 565.809 512.205 536.109 516.206C506.409 520.207 517.318 549.587 517.872 569.556C518.286 580.9 517.587 592.258 515.787 603.467C514.296 596.728 513.201 589.908 512.508 583.041C511.483 570.05 508.145 563.289 507.687 545.466C507.321 535.11 508.778 524.77 511.99 514.917C511.99 514.917 500.575 482.813 514.304 464.375C522.32 452.577 558.902 457.145 558.902 457.145C558.902 457.145 557.094 436.73 576.657 438.14C596.22 439.55 622.678 453.144 622.678 453.144C622.678 453.144 622.112 437.731 631.815 441.093C641.518 444.455 649.738 461.146 652.944 460.591C658.971 459.555 668.204 460.435 674.641 465.412L675.135 465.641Z" fill="white"></path></g><path d="M627.68 644.922C627.68 651.442 631.441 656.72 636.118 656.72C640.794 656.72 644.555 651.442 644.555 644.922C644.555 638.403 640.794 633.125 636.118 633.125C631.441 633.125 627.68 638.403 627.68 644.922Z" fill="#683E40"></path><path d="M563.639 656.72C558.999 656.72 555.238 651.438 555.238 644.922C555.238 638.407 558.999 633.125 563.639 633.125C568.279 633.125 572.041 638.407 572.041 644.922C572.041 651.438 568.279 656.72 563.639 656.72Z" fill="#683E40"></path><path d="M621.822 617.169C618.784 616.036 619.568 607.528 623.859 604.66C628.15 601.792 655.355 609.481 659.188 611.481C663.021 613.481 664.492 617.169 663.756 618.519C663.021 619.868 624.871 618.302 621.822 617.169Z" fill="#683E40"></path><path d="M577.344 617.169C580.382 616.036 579.61 607.528 575.319 604.66C571.028 601.792 543.823 609.481 539.978 611.481C536.133 613.481 534.686 617.169 535.41 618.519C536.133 619.868 574.307 618.302 577.344 617.169Z" fill="#683E40"></path><path d="M571.631 713.986C572.354 710.552 581.479 712.709 599.752 712.709C618.025 712.709 627.15 710.552 627.861 713.986C628.572 717.421 621.726 726.519 599.752 726.519C577.778 726.519 570.956 717.421 571.631 713.986Z" fill="white"></path><path d="M0 1223.69H1067V1254.15H0V1223.69Z" fill="#6B6B6B"></path></svg>