<svg width="3293" height="2633" viewBox="0 0 3293 2633" fill="none" xmlns="http://www.w3.org/2000/svg">
<rect x="452.491" y="584.662" width="2840" height="1938.46" rx="84" fill="white"/>
<rect x="886.896" y="1780.76" width="614.415" height="52.0691" rx="12" fill="#D2D2D2"/>
<rect x="886.896" y="1877.46" width="614.415" height="52.0691" rx="12" fill="#D2D2D2"/>
<rect x="886.896" y="1974.16" width="614.415" height="52.0691" rx="12" fill="#D2D2D2"/>
<rect x="1560.82" y="1780.76" width="614.415" height="52.0691" rx="12" fill="#D2D2D2"/>
<rect x="1560.82" y="1877.46" width="614.415" height="52.0691" rx="12" fill="#D2D2D2"/>
<rect x="1560.82" y="1974.16" width="614.415" height="52.0691" rx="12" fill="#D2D2D2"/>
<g clip-path="url(#clip0_322_220)">
<path d="M2234.9 1205.22H825.747V1207.25H2234.9V1205.22Z" fill="#DDDBDC"/>
<path d="M2234.9 1285.18H825.747V1287.21H2234.9V1285.18Z" fill="#DDDBDC"/>
<path d="M2234.9 1365.14H825.747V1367.16H2234.9V1365.14Z" fill="#DDDBDC"/>
<path d="M2234.9 1445.1H825.747V1447.12H2234.9V1445.1Z" fill="#DDDBDC"/>
<path d="M2234.9 1525.08H825.747V1527.1H2234.9V1525.08Z" fill="#DDDBDC"/>
<path d="M2234.9 1605.04H825.747V1607.06H2234.9V1605.04Z" fill="#DDDBDC"/>
<path d="M2236.23 1687.04H824.413V1173.7H827.056V1685H2233.56V1172.35H2236.23V1687.04Z" fill="#DDDBDC"/>
<path d="M2005.73 1288.77C1828.68 1288.77 1681.79 1385.76 1602.86 1437.87C1595.51 1442.73 1588.57 1447.32 1582.48 1451.23C1551.05 1471.44 1515.76 1480.86 1471.49 1480.86C1399.22 1480.86 1307.71 1455.31 1191.87 1422.94L1177.1 1418.82C1155.19 1412.62 1132.03 1409.42 1108.67 1409.36C1037.32 1409.36 963.709 1440.73 895.76 1500.07C869.581 1523.11 846.165 1547.9 825.797 1574.15V1593.82C825.797 1593.82 974.455 1372.56 1172.72 1427.88C1370.98 1483.19 1494.85 1520.07 1590.48 1458.61C1686.11 1397.14 1949.86 1198.92 2234.74 1360.34V1348.44C2162.37 1308.8 2085.28 1288.77 2005.73 1288.77Z" fill="#FF8140"/>
<g opacity="0.5">
<path d="M2234.9 1360.27V1686.02H825.747V1593.82C825.747 1593.82 974.456 1372.56 1172.72 1427.88C1370.98 1483.19 1494.85 1520.07 1590.48 1458.61C1686.11 1397.14 1949.89 1198.92 2234.9 1360.27Z" fill="url(#paint0_linear_322_220)"/>
</g>
<path opacity="0.28" d="M1636.86 1439.92C1649.97 1439.92 1660.6 1431.78 1660.6 1421.75C1660.6 1411.71 1649.97 1403.58 1636.86 1403.58C1623.76 1403.58 1613.13 1411.71 1613.13 1421.75C1613.13 1431.78 1623.76 1439.92 1636.86 1439.92Z" fill="#FF8140"/>
<path opacity="0.35" d="M1636.86 1435.18C1646.55 1435.18 1654.4 1429.17 1654.4 1421.75C1654.4 1414.33 1646.55 1408.32 1636.86 1408.32C1627.18 1408.32 1619.32 1414.33 1619.32 1421.75C1619.32 1429.17 1627.18 1435.18 1636.86 1435.18Z" fill="#FF8140"/>
<path opacity="0.64" d="M1636.86 1430.84C1643.42 1430.84 1648.74 1426.77 1648.74 1421.75C1648.74 1416.73 1643.42 1412.65 1636.86 1412.65C1630.3 1412.65 1624.99 1416.73 1624.99 1421.75C1624.99 1426.77 1630.3 1430.84 1636.86 1430.84Z" fill="white"/>
<path d="M2216.76 1054.77L2181.7 1081.55L2146.65 1054.77H2216.76Z" fill="#FF8140"/>
</g>
<path d="M678.957 802.999C682.467 802.999 685.641 803.811 688.452 805.431C691.264 807.055 693.49 809.278 695.118 812.106C696.758 814.928 697.569 818.144 697.569 821.75C697.569 825.299 696.758 828.51 695.118 831.398C693.49 834.282 691.264 836.566 688.452 838.247C685.64 839.931 682.467 840.773 678.957 840.773H659.473L660.147 839.691V862.409C660.147 863.432 659.793 864.302 659.087 865.024C658.384 865.746 657.496 866.109 656.399 866.109C655.252 866.109 654.34 865.746 653.671 865.024C652.996 864.303 652.664 863.432 652.664 862.409V806.603C652.664 805.582 653.024 804.725 653.766 804.034C654.499 803.344 655.411 802.999 656.494 802.999H678.957ZM678.957 833.832C681.064 833.832 682.917 833.292 684.521 832.207C686.12 831.125 687.392 829.654 688.357 827.792C689.322 825.931 689.795 823.915 689.795 821.751C689.795 819.469 689.322 817.455 688.357 815.711C687.392 813.968 686.119 812.572 684.521 811.521C682.917 810.466 681.064 809.944 678.957 809.944H659.473L660.147 808.951V834.734L659.473 833.833H678.957V833.832Z" fill="black"/>
<path d="M745.894 819.991C747.057 819.991 747.992 820.339 748.697 821.029C749.405 821.722 749.757 822.578 749.757 823.598V848.211C749.757 854.282 747.946 858.986 744.302 862.321C740.658 865.661 735.591 867.323 729.082 867.323C722.636 867.323 717.598 865.66 713.961 862.321C710.312 858.986 708.493 854.283 708.493 848.211V823.598C708.493 822.577 708.863 821.72 709.607 821.029C710.347 820.339 711.265 819.991 712.362 819.991C713.518 819.991 714.455 820.339 715.165 821.029C715.868 821.722 716.225 822.578 716.225 823.598V848.211C716.225 852.299 717.351 855.396 719.611 857.498C721.866 859.602 725.024 860.654 729.08 860.654C733.271 860.654 736.473 859.603 738.696 857.498C740.914 855.395 742.029 852.299 742.029 848.211V823.598C742.029 822.577 742.399 821.72 743.138 821.029C743.879 820.338 744.803 819.991 745.894 819.991Z" fill="black"/>
<path d="M771.601 862.407C771.601 863.431 771.237 864.301 770.512 865.023C769.781 865.747 768.904 866.109 767.871 866.109C766.831 866.109 765.988 865.747 765.32 865.023C764.651 864.303 764.319 863.431 764.319 862.407V802.968C764.319 801.944 764.663 801.09 765.364 800.397C766.061 799.708 766.926 799.358 767.96 799.358C769.05 799.358 769.927 799.706 770.602 800.397C771.27 801.09 771.601 801.944 771.601 802.968V862.407Z" fill="black"/>
<path d="M811.809 818.778C816.147 818.778 820.043 819.804 823.497 821.851C826.949 823.901 829.674 826.734 831.695 830.35C833.705 833.966 834.71 838.125 834.71 842.826C834.71 847.463 833.705 851.607 831.695 855.254C829.674 858.902 826.966 861.763 823.543 863.84C820.121 865.921 816.278 866.958 811.999 866.958C809.634 866.958 807.412 866.612 805.337 865.92C803.269 865.228 801.383 864.326 799.686 863.209C797.994 862.093 796.571 860.828 795.416 859.411C794.27 857.994 793.442 856.595 792.934 855.206L795.045 853.94V880.609C795.045 881.633 794.684 882.509 793.987 883.231C793.283 883.956 792.354 884.315 791.208 884.315C790.121 884.315 789.21 883.965 788.478 883.275C787.745 882.581 787.378 881.693 787.378 880.609V822.847C787.378 821.821 787.745 820.965 788.478 820.271C789.21 819.579 790.121 819.231 791.208 819.231C792.354 819.231 793.283 819.579 793.987 820.271C794.684 820.966 795.045 821.822 795.045 822.847V830.892L793.602 830.17C794.046 828.661 794.833 827.217 795.95 825.828C797.069 824.445 798.445 823.223 800.071 822.167C801.702 821.116 803.517 820.287 805.532 819.682C807.541 819.082 809.634 818.778 811.809 818.778ZM810.941 825.469C807.755 825.469 804.923 826.225 802.463 827.73C800.011 829.236 798.089 831.286 796.712 833.876C795.341 836.466 794.654 839.451 794.654 842.827C794.654 846.14 795.34 849.124 796.712 851.775C798.089 854.427 800.011 856.504 802.463 858.013C804.923 859.519 807.755 860.271 810.941 860.271C814.138 860.271 816.953 859.519 819.377 858.013C821.805 856.504 823.721 854.427 825.128 851.775C826.529 849.123 827.239 846.14 827.239 842.827C827.239 839.451 826.529 836.467 825.128 833.876C823.721 831.286 821.805 829.236 819.377 827.73C816.953 826.224 814.138 825.469 810.941 825.469Z" fill="black"/>
<path d="M883.034 818.778C884.125 818.778 885.043 819.127 885.783 819.819C886.527 820.513 886.898 821.37 886.898 822.396V861.807C886.898 866.871 885.829 871.073 883.707 874.417C881.579 877.763 878.73 880.248 875.159 881.875C871.583 883.503 867.541 884.315 863.029 884.315C860.519 884.315 858.098 884.07 855.787 883.593C853.463 883.11 851.566 882.475 850.081 881.693C848.859 881.149 848.002 880.475 847.525 879.661C847.041 878.847 846.96 877.985 847.28 877.086C847.727 875.998 848.395 875.245 849.259 874.824C850.129 874.403 851.053 874.403 852.019 874.824C853.044 875.245 854.541 875.833 856.514 876.586C858.469 877.339 860.68 877.718 863.13 877.718C866.474 877.718 869.341 877.113 871.725 875.91C874.109 874.705 875.945 872.939 877.233 870.62C878.521 868.303 879.165 865.423 879.165 861.99V855.571L880.326 857.832C879.295 859.7 877.912 861.328 876.171 862.713C874.432 864.1 872.434 865.181 870.18 865.965C867.922 866.746 865.447 867.142 862.741 867.142C859.064 867.142 855.964 866.403 853.419 864.926C850.867 863.45 848.937 861.402 847.625 858.78C846.296 856.159 845.634 853.13 845.634 849.696V822.396C845.634 821.37 846.004 820.513 846.749 819.819C847.487 819.128 848.412 818.778 849.502 818.778C850.659 818.778 851.594 819.127 852.304 819.819C853.013 820.513 853.371 821.37 853.371 822.396V848.069C853.371 852.165 854.337 855.254 856.269 857.335C858.199 859.412 861.193 860.452 865.252 860.452C867.828 860.452 870.163 859.909 872.262 858.824C874.348 857.738 876.024 856.248 877.28 854.351C878.539 852.452 879.165 850.358 879.165 848.069V822.396C879.165 821.37 879.522 820.513 880.226 819.819C880.936 819.127 881.873 818.778 883.034 818.778Z" fill="black"/>
<path d="M585.287 796.486C585.287 784.667 594.869 775.086 606.689 775.086C618.509 775.086 628.091 784.667 628.091 796.486C628.091 808.305 618.509 817.886 606.689 817.886C594.869 817.886 585.287 808.305 585.287 796.486Z" fill="#FF8140"/>
<path d="M608.421 827.371V842.771C608.421 849.594 608.416 854.421 608.104 858.192C607.796 861.905 607.212 864.167 606.289 865.941C604.494 869.397 601.676 872.216 598.218 874.011C596.444 874.934 594.182 875.518 590.468 875.826C586.697 876.138 581.869 876.143 575.046 876.143H560.836C554.013 876.143 549.186 876.138 545.415 875.826C541.701 875.518 539.439 874.934 537.665 874.011C534.208 872.216 531.389 869.397 529.593 865.941C528.671 864.167 528.088 861.905 527.779 858.192C527.466 854.421 527.462 849.594 527.462 842.771V828.562C527.462 821.739 527.466 816.913 527.779 813.142C528.088 809.428 528.671 807.167 529.593 805.392C531.389 801.936 534.208 799.117 537.665 797.322C539.439 796.4 541.701 795.816 545.415 795.508C549.186 795.195 554.013 795.191 560.836 795.191H576.238C576.375 791.857 577.041 788.66 578.153 785.68H560.625C554.061 785.68 548.839 785.68 544.628 786.029C540.315 786.387 536.638 787.137 533.28 788.881C528.085 791.579 523.85 795.814 521.152 801.008C519.408 804.366 518.658 808.042 518.3 812.355C517.95 816.566 517.95 821.787 517.95 828.351V842.982C517.95 849.546 517.95 854.768 518.3 858.979C518.658 863.291 519.408 866.967 521.152 870.326C523.85 875.519 528.085 879.754 533.28 882.453C536.638 884.197 540.315 884.946 544.628 885.305C548.839 885.654 554.06 885.654 560.625 885.654H575.258C581.822 885.654 587.044 885.654 591.255 885.305C595.568 884.946 599.244 884.197 602.603 882.453C607.797 879.754 612.032 875.519 614.731 870.326C616.475 866.967 617.224 863.291 617.583 858.979C617.933 854.768 617.933 849.546 617.933 842.983V825.456C614.952 826.568 611.755 827.233 608.421 827.371Z" fill="#FF8140"/>
<path d="M589.061 827.911C589.061 830.319 588.481 832.577 587.322 834.683C586.206 836.79 584.424 838.489 581.977 839.778C579.573 841.068 576.524 841.713 572.832 841.713H565.297V858.998H556.281V813.98H572.832C576.31 813.98 579.272 814.582 581.719 815.786C584.167 816.99 585.991 818.646 587.193 820.752C588.438 822.859 589.061 825.246 589.061 827.911ZM572.446 834.425C574.936 834.425 576.782 833.866 577.984 832.749C579.186 831.588 579.787 829.975 579.787 827.911C579.787 823.526 577.34 821.333 572.446 821.333H565.297V834.425H572.446Z" fill="black"/>
<path d="M452.491 708.273C452.491 632.61 513.828 571.273 589.491 571.273H3155.49C3231.15 571.273 3292.49 632.61 3292.49 708.273V711.116H452.491V708.273Z" fill="#FF8140"/>
<path opacity="0.4" d="M570.079 1060.37C574.707 1060.37 578.458 1056.62 578.458 1051.99C578.458 1047.36 574.707 1043.61 570.079 1043.61C565.452 1043.61 561.7 1047.36 561.7 1051.99C561.7 1056.62 565.452 1060.37 570.079 1060.37Z" fill="#292D32"/>
<path d="M538.714 1060.37C543.342 1060.37 547.093 1056.62 547.093 1051.99C547.093 1047.36 543.342 1043.61 538.714 1043.61C534.086 1043.61 530.335 1047.36 530.335 1051.99C530.335 1056.62 534.086 1060.37 538.714 1060.37Z" fill="#292D32"/>
<path d="M570.079 1095.19C574.707 1095.19 578.458 1091.44 578.458 1086.81C578.458 1082.18 574.707 1078.43 570.079 1078.43C565.452 1078.43 561.7 1082.18 561.7 1086.81C561.7 1091.44 565.452 1095.19 570.079 1095.19Z" fill="#292D32"/>
<path opacity="0.4" d="M538.714 1095.19C543.342 1095.19 547.093 1091.44 547.093 1086.81C547.093 1082.18 543.342 1078.43 538.714 1078.43C534.086 1078.43 530.335 1082.18 530.335 1086.81C530.335 1091.44 534.086 1095.19 538.714 1095.19Z" fill="#292D32"/>
<rect x="452.491" y="1189.42" width="203.813" height="176.638" fill="#FF8140"/>
<path d="M547.226 1237.13C541.617 1238.43 536.458 1241.21 532.284 1245.17C528.11 1249.14 525.074 1254.15 523.489 1259.69C521.905 1265.22 521.83 1271.08 523.273 1276.65C524.716 1282.23 527.624 1287.31 531.695 1291.39C535.766 1295.46 540.853 1298.37 546.427 1299.81C552.001 1301.25 557.859 1301.18 563.394 1299.59C568.93 1298.01 573.94 1294.97 577.907 1290.8C581.873 1286.62 584.65 1281.46 585.95 1275.85C585.95 1274.9 585.573 1273.99 584.9 1273.32C584.228 1272.65 583.316 1272.27 582.365 1272.27H557.983C556.081 1272.27 554.257 1271.51 552.912 1270.17C551.567 1268.82 550.811 1267 550.811 1265.1V1240C550.767 1239.57 550.638 1239.16 550.434 1238.79C550.229 1238.41 549.951 1238.08 549.618 1237.82C549.284 1237.55 548.901 1237.35 548.491 1237.23C548.08 1237.12 547.65 1237.08 547.226 1237.13Z" stroke="white" stroke-width="2" stroke-linecap="round" stroke-linejoin="round"/>
<path d="M565.154 1238.21C569.707 1239.81 573.842 1242.41 577.255 1245.83C580.668 1249.24 583.272 1253.37 584.875 1257.93H568.74C567.789 1257.93 566.877 1257.55 566.204 1256.88C565.532 1256.2 565.154 1255.29 565.154 1254.34V1238.21Z" stroke="white" stroke-width="2" stroke-linecap="round" stroke-linejoin="round"/>
<path d="M537.225 1418.53H571.571L560.531 1407.49L571.571 1396.45H537.225V1435.7" stroke="#252B3B" stroke-width="2" stroke-linecap="round" stroke-linejoin="round"/>
<path d="M534.771 1616.87V1584.97C534.771 1583.02 535.547 1581.15 536.927 1579.77C538.307 1578.39 540.179 1577.61 542.131 1577.61H566.664C568.616 1577.61 570.488 1578.39 571.869 1579.77C573.249 1581.15 574.024 1583.02 574.024 1584.97V1599.69C574.024 1601.65 573.249 1603.52 571.869 1604.9C570.488 1606.28 568.616 1607.05 566.664 1607.05H544.585L534.771 1616.87Z" stroke="#252B3B" stroke-width="2" stroke-linecap="round" stroke-linejoin="round"/>
<path d="M554.397 1592.33V1592.36" stroke="#252B3B" stroke-width="2" stroke-linecap="round" stroke-linejoin="round"/>
<path d="M544.585 1592.33V1592.36" stroke="#252B3B" stroke-width="2" stroke-linecap="round" stroke-linejoin="round"/>
<path d="M564.211 1592.33V1592.36" stroke="#252B3B" stroke-width="2" stroke-linecap="round" stroke-linejoin="round"/>
<path fill-rule="evenodd" clip-rule="evenodd" d="M540.328 1821.29C540.428 1821.32 540.528 1821.35 540.628 1821.36C540.737 1821.62 540.877 1821.95 541.042 1822.34C541.443 1823.28 541.983 1824.56 542.541 1825.9C543.678 1828.62 544.825 1831.42 545.079 1832.23C545.392 1833.22 545.724 1833.89 546.086 1834.35C546.273 1834.59 546.49 1834.8 546.743 1834.96C546.87 1835.04 547.005 1835.1 547.146 1835.15C547.152 1835.15 547.158 1835.15 547.164 1835.16C547.889 1835.43 548.55 1835.32 548.963 1835.18C549.185 1835.1 549.364 1835.01 549.491 1834.94C549.555 1834.9 549.61 1834.87 549.654 1834.84L549.664 1834.83L556.064 1830.84L563.457 1836.51C563.566 1836.59 563.685 1836.66 563.811 1836.72C564.699 1837.1 565.559 1837.24 566.368 1837.13C567.176 1837.02 567.817 1836.68 568.294 1836.3C568.762 1835.92 569.079 1835.5 569.276 1835.19C569.377 1835.03 569.453 1834.89 569.506 1834.79C569.533 1834.73 569.554 1834.69 569.571 1834.65L569.592 1834.6L569.6 1834.58L569.604 1834.57L569.605 1834.57L569.607 1834.56C569.646 1834.47 569.675 1834.37 569.696 1834.26L576.445 1800.24C576.466 1800.13 576.477 1800.02 576.477 1799.91C576.477 1798.91 576.102 1797.96 575.219 1797.39C574.464 1796.9 573.624 1796.87 573.093 1796.91C572.52 1796.96 571.99 1797.1 571.635 1797.21C571.45 1797.27 571.295 1797.33 571.184 1797.37C571.127 1797.39 571.081 1797.41 571.047 1797.43L571.021 1797.44L533.172 1812.29L533.167 1812.29C533.143 1812.3 533.112 1812.31 533.075 1812.32C533.002 1812.35 532.903 1812.39 532.789 1812.44C532.565 1812.54 532.251 1812.7 531.929 1812.92C531.415 1813.28 530.231 1814.24 530.431 1815.83C530.59 1817.1 531.46 1817.88 531.99 1818.26C532.282 1818.46 532.558 1818.61 532.76 1818.71C532.853 1818.75 533.047 1818.83 533.131 1818.87L533.153 1818.87L540.328 1821.29ZM572.346 1800.57L572.341 1800.57C572.322 1800.58 572.303 1800.58 572.284 1800.59L534.388 1815.46C534.368 1815.46 534.348 1815.47 534.328 1815.48L534.307 1815.49C534.283 1815.5 534.242 1815.51 534.191 1815.54C534.162 1815.55 534.132 1815.56 534.101 1815.58C534.143 1815.6 534.184 1815.62 534.22 1815.64C534.254 1815.66 534.281 1815.67 534.295 1815.67L541.412 1818.07C541.542 1818.11 541.664 1818.17 541.775 1818.24L565.274 1804.49L565.296 1804.47C565.314 1804.46 565.336 1804.45 565.363 1804.44C565.417 1804.4 565.49 1804.36 565.577 1804.32C565.74 1804.24 566.001 1804.11 566.295 1804.02C566.5 1803.96 567.104 1803.78 567.756 1803.99C568.159 1804.12 568.576 1804.4 568.847 1804.87C568.981 1805.1 569.053 1805.34 569.088 1805.55C569.18 1805.89 569.166 1806.22 569.093 1806.51C568.938 1807.13 568.501 1807.62 568.103 1807.99C567.763 1808.31 563.357 1812.56 559.011 1816.75C556.844 1818.84 554.699 1820.91 553.095 1822.46L552.042 1823.48L565.34 1833.67C565.645 1833.78 565.825 1833.77 565.908 1833.76C566.008 1833.75 566.089 1833.71 566.172 1833.64C566.265 1833.57 566.346 1833.47 566.407 1833.37L566.41 1833.37L572.955 1800.37C572.858 1800.39 572.76 1800.42 572.665 1800.45C572.558 1800.48 572.47 1800.52 572.411 1800.54C572.382 1800.55 572.361 1800.56 572.35 1800.56L572.346 1800.57ZM553.185 1828.63L550.532 1826.6L549.889 1830.69L553.185 1828.63ZM548.098 1822.56L550.736 1820.02C552.34 1818.47 554.485 1816.4 556.653 1814.31L558.855 1812.18L544.09 1820.82L544.169 1821.01C544.571 1821.96 545.114 1823.24 545.675 1824.59C546.094 1825.59 546.533 1826.65 546.932 1827.62L547.573 1823.55C547.635 1823.15 547.827 1822.81 548.098 1822.56Z" fill="black"/>
<path d="M542.132 2032.42H537.225C534.515 2032.42 532.318 2034.61 532.318 2037.32V2042.23C532.318 2044.94 534.515 2047.14 537.225 2047.14H542.132C544.841 2047.14 547.038 2044.94 547.038 2042.23V2037.32C547.038 2034.61 544.841 2032.42 542.132 2032.42Z" stroke="#252B3B" stroke-width="2" stroke-linecap="round" stroke-linejoin="round"/>
<path d="M571.571 2032.42H566.664C563.955 2032.42 561.758 2034.61 561.758 2037.32V2042.23C561.758 2044.94 563.955 2047.14 566.664 2047.14H571.571C574.281 2047.14 576.478 2044.94 576.478 2042.23V2037.32C576.478 2034.61 574.281 2032.42 571.571 2032.42Z" stroke="#252B3B" stroke-width="2" stroke-linecap="round" stroke-linejoin="round"/>
<path d="M556.851 2002.98H551.945C549.235 2002.98 547.038 2005.18 547.038 2007.89V2012.79C547.038 2015.5 549.235 2017.7 551.945 2017.7H556.851C559.561 2017.7 561.758 2015.5 561.758 2012.79V2007.89C561.758 2005.18 559.561 2002.98 556.851 2002.98Z" stroke="#252B3B" stroke-width="2" stroke-linecap="round" stroke-linejoin="round"/>
<path d="M539.678 2032.42V2029.96C539.678 2028.66 540.195 2027.41 541.115 2026.49C542.035 2025.57 543.283 2025.06 544.584 2025.06H564.211C565.512 2025.06 566.76 2025.57 567.68 2026.49C568.6 2027.41 569.117 2028.66 569.117 2029.96V2032.42" stroke="#252B3B" stroke-width="2" stroke-linecap="round" stroke-linejoin="round"/>
<path d="M554.397 2017.7V2025.06" stroke="#252B3B" stroke-width="2" stroke-linecap="round" stroke-linejoin="round"/>
<g clip-path="url(#clip1_322_220)">
<path d="M554.398 2238.5C558.463 2238.5 561.758 2235.2 561.758 2231.14C561.758 2227.07 558.463 2223.78 554.398 2223.78C550.333 2223.78 547.038 2227.07 547.038 2231.14C547.038 2235.2 550.333 2238.5 554.398 2238.5Z" stroke="#252B3B" stroke-width="2" stroke-linecap="round" stroke-linejoin="round"/>
<path d="M539.678 2216.42H548.265L554.398 2210.28L560.531 2216.42H569.118V2225L575.251 2231.14L569.118 2237.27V2245.86H560.531L554.398 2251.99L548.265 2245.86H539.678V2237.27L533.545 2231.14L539.678 2225V2216.42Z" stroke="#252B3B" stroke-width="2" stroke-linecap="round" stroke-linejoin="round"/>
</g>
<path d="M149.043 2574.82L160.658 2607.64C154.524 2625.35 139.059 2633.19 114.263 2631.15C98.4657 2627.75 88.4619 2621.37 84.2518 2612.02C85.1892 2606.4 86.457 2600.85 88.0484 2595.38C90.4723 2586.92 94.1141 2578.85 98.8593 2571.44C115.576 2567.86 132.959 2569.04 149.043 2574.84M147.365 2601.69L135.437 2581.66L110.49 2582.16L95.4313 2598.67L97.973 2612.13L121.115 2606.83L132.018 2613.91L147.365 2601.69Z" fill="#431401"/>
<path d="M135.395 2581.66L147.366 2601.69L132.019 2613.98L121.117 2606.9L97.9746 2612.2L95.4329 2598.74L110.492 2582.23L135.395 2581.66Z" fill="#6B2503"/>
<path d="M398.195 2592.05C401.26 2600.04 386.587 2602.01 354.177 2597.96C299.93 2591.47 281.508 2571.67 298.912 2538.56C308.007 2537.98 317.128 2537.88 326.233 2538.28C342.522 2562.24 366.509 2580.17 398.195 2592.05Z" fill="#7D2D03"/>
<path d="M398.195 2592.05C400.736 2592.98 403.315 2593.87 405.931 2594.72C411.067 2600.88 410.748 2605.23 404.974 2607.77C391.533 2612.51 376.749 2613.4 360.62 2610.43C332.653 2606.75 302.438 2598 269.975 2584.19C265.619 2569.14 264.656 2555.37 267.086 2542.86C277.579 2540.59 288.235 2539.15 298.955 2538.56C281.532 2571.68 299.954 2591.48 354.221 2597.96C386.592 2602.02 401.25 2600.05 398.195 2592.05Z" fill="#511702"/>
<path d="M100.928 1964.08C98.5659 1910.12 101.33 1862.84 109.222 1822.24L370.99 1838.59C379.648 1874.69 382.969 1905.05 380.953 1929.69L367.439 2095.09C352.413 2202.09 344.808 2336.77 344.623 2499.13L352.346 2518.5L345.832 2528.3L356.475 2535.25L356.732 2560.03L333.041 2574.87L270.85 2582.58L257.37 2562.81C255.184 2444.47 255.999 2324.9 259.818 2204.11C262.353 2065.89 258.496 1983.88 248.247 1958.07C239.685 1957.06 226.911 2003.92 209.927 2098.67C188.878 2251.62 174.907 2403.46 168.015 2554.2L157.276 2561.51L166.649 2572.23L158.082 2596.19L115.344 2585.45L87.8084 2591.49L70.2211 2559.73L100.928 1964.08Z" fill="#272727"/>
<path d="M259.377 1397.98L288.531 1355.33C287.74 1366.7 289.51 1378.1 293.71 1388.69C295.437 1392.97 297.565 1397.09 300.064 1400.97C291.18 1421.59 276.673 1440.51 256.545 1457.74C221.911 1446.26 195.969 1426.19 178.721 1397.52C181.296 1394.95 183.671 1392.18 185.826 1389.24C198.22 1372.35 194.201 1355.07 199.652 1353.8C204.215 1352.75 210.484 1363.77 214.762 1371.3C219.59 1379.78 223.263 1388.87 225.685 1398.33C236.788 1400.85 248.328 1400.73 259.377 1397.98V1397.98Z" fill="#F5AA8B"/>
<path d="M288.93 1370.28L259.375 1397.94C248.326 1400.69 236.787 1400.81 225.683 1398.29C220.034 1392.68 213.85 1387.63 207.219 1383.22C202.979 1380.41 198.568 1377.87 194.01 1375.61C194.271 1365.11 196.313 1354.73 200.048 1344.92C205.418 1331.01 214.025 1318.58 225.156 1308.67C230.909 1308.75 236.662 1308.78 242.501 1308.75C255.414 1308.67 267.971 1308.34 280.17 1307.75C284.636 1318.75 287.567 1330.3 288.882 1342.1C289.927 1351.46 289.943 1360.91 288.93 1370.28V1370.28Z" fill="#F5AA8B"/>
<path d="M166.082 1401.71C195.827 1429.9 225.811 1443.63 256.034 1442.9C266.627 1524.15 271.766 1596.15 271.449 1658.9C244.019 1580.38 208.896 1494.65 166.082 1401.71ZM256.034 1442.9C280.275 1442.33 304.669 1432.48 329.216 1413.35C306.165 1497.2 287.286 1580.18 272.577 1662.29C272.192 1661.18 271.82 1660.06 271.449 1658.94C271.776 1596.18 266.637 1524.16 256.034 1442.9Z" fill="#CCCCCC"/>
<path d="M256.032 1442.84L256.132 1442.84L265.703 1515.6L268.769 1550.52L271.436 1599.64L271.994 1634.02L271.447 1658.9L271.347 1658.9L271.346 1658.82L265.809 1550.71L255.974 1442.84C255.974 1442.84 255.931 1442.84 256.032 1442.84Z" fill="#006699"/>
<path d="M246.576 1478.34L268.146 1478.12C283.667 1551.85 295.252 1621.03 302.902 1685.65C293.996 1706.04 283.298 1722.35 270.807 1734.57C263.741 1721.66 252.421 1706.65 236.845 1689.53C235.766 1627.05 239.009 1556.65 246.576 1478.34Z" fill="#FF8140"/>
<path d="M268.118 1478.12L246.548 1478.34C234.377 1466.84 229.853 1455.82 232.974 1445.29C247.94 1443.03 263.147 1442.87 278.156 1444.82C281.395 1458.51 278.049 1469.61 268.118 1478.12Z" fill="#FF8140"/>
<path d="M312.385 1486.48C312.24 1486.32 312.109 1486.17 311.978 1486C294.677 1467.08 275.896 1452.88 255.635 1443.39L295.377 1392.68L329.862 1413.33L312.385 1486.47M193.771 1492.36C193.217 1493.03 192.648 1493.68 192.094 1494.34L161.283 1407.87C165.787 1401.17 174.222 1395 186.589 1389.35L255.634 1443.34C254.747 1443.81 253.861 1444.28 252.989 1444.8C230.601 1457.04 210.553 1473.15 193.771 1492.38L193.771 1492.36Z" fill="white"/>
<path d="M252.989 1444.83C253.861 1444.35 254.748 1443.88 255.634 1443.37C275.867 1452.83 294.648 1467.03 311.977 1485.97L309.134 1496.07C294.183 1475.27 275.06 1457.82 252.989 1444.83M193.832 1498.29L193.771 1492.38C210.53 1473.19 230.544 1457.11 252.889 1444.89C233.224 1464.23 213.539 1482.03 193.832 1498.29V1498.29Z" fill="black" fill-opacity="0.3"/>
<path d="M268.827 1667.05L269.382 1667.85L265.47 1845.2C265.329 1852.24 263.803 1859.19 260.98 1865.64C262.541 1811.03 265.121 1745.97 268.719 1670.46C268.707 1669.32 268.767 1668.19 268.827 1667.05Z" fill="white"/>
<path d="M269.382 1667.85L268.827 1667.05C268.839 1668.18 272.391 1672.3 272.345 1673.44C270.21 1798.44 269.523 1795.74 267.952 1850.36C267.902 1850.53 260.806 1865.98 260.726 1866.15C252.681 1883.65 234.31 1896.41 205.611 1904.43C166.52 1915.31 130.045 1908.05 96.1864 1882.65C96.1864 1882.65 96.1863 1882.65 96.0856 1882.65C100.765 1858.71 104.872 1838.66 108.405 1822.51L119.56 1709.78C122.215 1682.88 118.139 1649.04 107.332 1608.26C95.9771 1565.45 77.3478 1515.99 51.4444 1459.87L139.561 1407.36L272.253 1664.51L339.43 1417.97L406.868 1452.91C386.439 1515.61 372.21 1580.17 364.386 1645.66C356.737 1710.49 366.404 1789.28 393.387 1882.03C374.683 1907.06 352.682 1916.13 327.385 1909.23C293.329 1899.03 271.54 1870.08 264.281 1837.6L269.382 1667.85Z" fill="#272727"/>
<path d="M328.838 1483.7L366.987 1427.86L332.321 1481.25L357.805 1499.24L291.87 1628.5L353.365 1501.04L328.838 1483.75M138.891 1499.27L160.001 1476.99L118.517 1423.57L165.789 1474.82L142.921 1500.97L206.465 1586.2L138.891 1499.27Z" fill="#353535"/>
<path d="M159.426 1397.92C168.681 1394.54 174.738 1392.52 177.598 1391.86C213.538 1481.98 244.165 1569.24 269.48 1653.65L269.691 1654.56C276.915 1570.99 285.287 1507.39 294.806 1463.76C304.324 1420.13 309.725 1398.31 311.01 1398.29L367.031 1427.86L328.881 1483.7L353.408 1501L291.87 1628.5L270.866 1670.78L206.465 1586.2L142.921 1501.02L165.79 1474.87L118.518 1423.63L116.191 1421.13L116.434 1420.99C135.85 1409.02 150.18 1401.33 159.426 1397.92Z" fill="#353535"/>
<path d="M538.058 1497.34L561.24 1513.94L529.02 1577.1L494.5 1544.78L538.058 1497.34Z" fill="#F5AA8B"/>
<path d="M487.142 1548.11L517.224 1517.31L560.787 1557.62L532.499 1592.26L487.142 1548.11Z" fill="white"/>
<path d="M420.913 1741.95L393.923 1635.62L498.97 1523.82L562.953 1583.38C532.603 1623.57 485.257 1676.43 420.913 1741.95Z" fill="#272727"/>
<path d="M420.321 1741.6L348.211 1613.94C360.478 1540.4 379.606 1486.45 405.597 1452.12C423.616 1544.87 436.438 1596.5 444.064 1607.01L420.321 1741.6Z" fill="#272727"/>
<path d="M637.465 1440.74L643.21 1440.03C641.445 1444.51 639.634 1448.79 637.778 1452.87C637.077 1448.87 636.953 1444.78 637.408 1440.74M625.629 1446.33L631.531 1445.42L625.723 1459.52C626.694 1453.23 626.662 1448.83 625.587 1446.34M616.223 1446.23C617.459 1444.63 619.125 1443.42 621.026 1442.73C622.927 1442.05 624.984 1441.92 626.955 1442.36C628.737 1442.65 630.486 1443.11 632.175 1443.75L631.487 1445.37L625.586 1446.28C626.619 1448.77 626.65 1453.18 625.723 1459.46L614.592 1487.26L595.356 1497.54C594.369 1498.08 593.368 1498.59 592.365 1499.01L589.334 1500.69L557.271 1519.48L540.707 1536.4L519.134 1518.32L536.421 1500.34C536.775 1493.1 538.069 1485.94 540.27 1479.03C547.328 1472.09 553.627 1464.42 559.059 1456.14L566.347 1443.32C570.773 1435.6 574.567 1434.44 577.729 1439.84C581.508 1446.39 580.074 1453.26 573.428 1460.45C569.07 1464.57 569.71 1468.12 575.35 1471.11L570.59 1471.16L575.35 1471.11C589.066 1470.73 599.836 1469.18 607.66 1466.46L606.257 1469.78C602.384 1476.31 593.745 1480.95 580.342 1483.7C593.736 1480.95 602.374 1476.31 606.257 1469.78L607.66 1466.46L616.265 1446.12M559.688 1487.67C553.58 1488.47 549.183 1491.19 546.499 1495.83L542.115 1503.07L546.499 1495.83C549.193 1491.19 553.589 1488.47 559.688 1487.67C564.101 1487.42 567.043 1486.83 568.543 1485.88C567.115 1486.83 564.1 1487.37 559.688 1487.67ZM657.086 1449.51C658.038 1449.61 658.944 1449.96 659.71 1450.54C660.475 1451.11 661.071 1451.89 661.434 1452.77L650.321 1458.65C651.763 1455.07 654.091 1451.93 657.086 1449.51M643.445 1439.11C643.387 1439.39 643.293 1439.66 643.166 1439.92L637.421 1440.63C636.965 1444.67 637.09 1448.75 637.791 1452.76C632.236 1465.01 625.441 1476.65 617.514 1487.52V1487.52C613.479 1490.37 604.109 1494.72 589.405 1500.55L592.436 1498.86C593.438 1498.39 594.439 1497.88 595.426 1497.39L614.663 1487.12L625.78 1459.49L631.588 1445.4L632.276 1443.78C630.587 1443.14 628.838 1442.67 627.055 1442.39C627.518 1441.13 628.295 1440 629.313 1439.12C630.33 1438.24 631.555 1437.64 632.871 1437.36C635.625 1436.7 639.198 1437.3 643.547 1439.25M647.831 1445.93C648.781 1444.66 650.93 1443.91 654.265 1443.71C661.005 1446.51 663.434 1449.55 661.55 1452.81L661.464 1452.82C661.1 1451.93 660.504 1451.16 659.739 1450.58C658.973 1450.01 658.067 1449.65 657.115 1449.55V1449.55C654.121 1451.97 651.792 1455.12 650.35 1458.69L636.247 1466.1C640.62 1460.1 644.334 1453.64 647.322 1446.84C647.477 1446.51 647.632 1446.16 647.758 1445.83M647.359 1436.51L651.464 1435.77C650.44 1439.22 649.203 1442.6 647.758 1445.89C647.632 1446.22 647.477 1446.57 647.323 1446.9C646.317 1444.23 646.339 1440.79 647.359 1436.57M651.465 1435.83L647.359 1436.57C646.339 1440.79 646.317 1444.23 647.323 1446.9C644.334 1453.7 640.621 1460.16 636.247 1466.16C630.667 1473.88 624.387 1481.06 617.487 1487.62C625.413 1476.76 632.208 1465.11 637.763 1452.86C639.638 1448.76 641.449 1444.48 643.196 1440.02C643.323 1439.76 643.417 1439.49 643.475 1439.21C639.141 1437.28 635.553 1436.66 632.799 1437.32C638.283 1431.76 644.633 1430.67 651.849 1434.07C651.784 1434.75 651.66 1435.27 651.566 1435.85L651.465 1435.83Z" fill="#F5AA8B"/>
<path d="M651.566 1435.85L647.46 1436.58C646.44 1440.81 646.418 1444.25 647.424 1446.92C644.436 1453.72 640.722 1460.17 636.349 1466.18C630.768 1473.89 624.488 1481.07 617.588 1487.63M637.865 1452.87C639.74 1448.78 641.55 1444.5 643.297 1440.03C643.424 1439.78 643.518 1439.51 643.576 1439.23C639.242 1437.3 635.654 1436.67 632.9 1437.34C638.384 1431.77 644.734 1430.69 651.95 1434.09C651.813 1434.68 651.689 1435.27 651.566 1435.85C650.542 1439.29 649.304 1442.67 647.86 1445.96C647.734 1446.29 647.579 1446.64 647.425 1446.97M647.86 1445.96C648.81 1444.68 650.96 1443.94 654.294 1443.73C661.035 1446.54 663.463 1449.58 661.579 1452.84L661.493 1452.84C661.13 1451.96 660.534 1451.19 659.768 1450.61C659.003 1450.04 658.096 1449.68 657.145 1449.58C654.15 1452 651.822 1455.15 650.38 1458.72L636.276 1466.13M557.287 1519.51L589.349 1500.72C604.044 1494.89 613.414 1490.55 617.459 1487.69M632.757 1437.39C631.44 1437.67 630.216 1438.27 629.198 1439.15C628.181 1440.03 627.404 1441.16 626.941 1442.42C628.724 1442.7 630.473 1443.17 632.162 1443.81L631.474 1445.43L625.573 1446.34C626.605 1448.83 626.637 1453.23 625.709 1459.52L614.579 1487.32L595.342 1497.59C594.356 1498.14 593.355 1498.65 592.352 1499.07L589.321 1500.75M637.721 1452.86C637.02 1448.86 636.895 1444.77 637.35 1440.73L643.096 1440.02M661.363 1452.79L650.249 1458.66ZM631.415 1445.33L625.608 1459.42Z" fill="#F5AA8B"/>
<path d="M570.655 1471.72C570.588 1471.73 570.519 1471.73 570.455 1471.71C570.391 1471.69 570.332 1471.65 570.283 1471.61C570.234 1471.56 570.196 1471.5 570.172 1471.44C570.149 1471.37 570.14 1471.31 570.146 1471.24C570.136 1471.18 570.141 1471.12 570.159 1471.06C570.177 1471 570.209 1470.94 570.252 1470.9C570.294 1470.85 570.347 1470.82 570.405 1470.8C570.463 1470.77 570.526 1470.77 570.587 1470.77L579.313 1470.38C579.974 1470.37 581.024 1470.36 582.46 1470.2C582.728 1470.23 582.998 1470.23 583.266 1470.2L586.671 1469.92C586.953 1469.94 587.238 1469.94 587.52 1469.91L589.272 1469.75L589.517 1469.74L589.718 1469.74L602.869 1467.56L603.127 1467.46L607.515 1466.26C607.579 1466.23 607.65 1466.21 607.721 1466.22C607.792 1466.22 607.862 1466.23 607.925 1466.27C607.988 1466.3 608.042 1466.35 608.084 1466.4C608.126 1466.46 608.154 1466.53 608.166 1466.6C608.189 1466.66 608.199 1466.72 608.197 1466.78C608.194 1466.85 608.178 1466.91 608.151 1466.97C608.123 1467.02 608.084 1467.07 608.036 1467.12C607.987 1467.16 607.931 1467.19 607.87 1467.21L605.003 1468.13L604.76 1468.23L603.111 1468.71L602.809 1468.71L601.16 1469.13L589.803 1471.01L589.602 1471.01L589.401 1471.01L585.895 1471.29C585.612 1471.31 585.329 1471.32 585.046 1471.3C584.745 1471.33 584.442 1471.34 584.14 1471.31C583.877 1471.33 583.613 1471.34 583.349 1471.32C583.063 1471.35 582.774 1471.35 582.486 1471.33L570.655 1471.72Z" fill="#F5AA8B"/>
<path d="M554.988 1487.98L557.282 1487.37L557.685 1487.36L558.044 1487.26L558.833 1487.15L559.035 1487.15L559.236 1487.14L559.639 1487.14L564.093 1486.79L564.338 1486.79L564.64 1486.79L565.443 1486.62L565.587 1486.62L565.745 1486.62L566.535 1486.46L567.681 1486.05L567.781 1486.05L567.882 1486.05L567.982 1485.95L568.283 1485.84C568.526 1485.68 568.742 1485.74 568.946 1486.04C569.004 1486.15 569.016 1486.28 568.98 1486.4C568.944 1486.52 568.862 1486.62 568.752 1486.69L568.552 1486.85L568.452 1486.85L568.308 1486.85L568.15 1486.95L567.75 1487.16L566.661 1487.57L566.059 1487.74L565.915 1487.74L565.814 1487.74L564.91 1487.89L564.809 1487.89L564.665 1487.89L563.761 1488.05L563.502 1488.05L558.002 1488.81L556.209 1489.29L552.859 1490.77L550.475 1492.45L548.44 1494.53L542.578 1503.41C542.408 1503.64 542.178 1503.67 541.875 1503.52C541.78 1503.44 541.714 1503.34 541.687 1503.22C541.659 1503.1 541.673 1502.98 541.724 1502.87L546.243 1494.85L547.179 1493.53L547.277 1493.33L548.23 1492.27L550.652 1490.14L552.754 1488.91L554.988 1487.98Z" fill="#F5AA8B"/>
<path d="M626.614 1442.81L626.211 1442.82L625.506 1442.72L624.398 1442.73L624.053 1442.74L623.708 1442.74L622.272 1442.96L621.068 1443.31L620.925 1443.42L620.624 1443.52L619.68 1444.03L619.38 1444.24L619.08 1444.39L618.538 1444.85L618.238 1445.06L617.242 1446.06L617.044 1446.37L616.845 1446.57L616.844 1446.47L616.744 1446.63L607.023 1470.25L607.024 1470.35L606.727 1470.76L606.628 1470.95L605.295 1472.77L603.26 1474.9L602.861 1475.2L602.52 1475.55L602.419 1475.55L602.319 1475.65L600.379 1477.11L600.178 1477.22L598.535 1478.28L598.092 1478.49L597.692 1478.74L595.546 1479.87L595.102 1480.02L592.912 1481.01L586.518 1483.02L580.418 1484.19C580.116 1484.19 579.93 1484.19 579.853 1483.79C579.833 1483.73 579.826 1483.67 579.834 1483.6C579.842 1483.54 579.863 1483.48 579.897 1483.43C579.931 1483.38 579.977 1483.33 580.031 1483.3C580.084 1483.27 580.145 1483.25 580.207 1483.24L586.058 1481.57L590.042 1480.23L590.442 1480.02L597.97 1476.49L599.113 1475.72L599.313 1475.61L601.154 1474.24L601.796 1473.69L604.129 1471.24L604.227 1471.04L604.668 1470.55L605.163 1469.78L615.717 1445.99L615.816 1445.83L617.452 1444.12L618.094 1443.6L619.437 1442.78L620.74 1442.22L622.088 1441.86L623.28 1441.69L623.64 1441.69L624.042 1441.69L625.034 1441.68L625.236 1441.67L625.581 1441.67L626.79 1441.82L627.137 1441.91C627.482 1441.91 627.614 1442.15 627.545 1442.46C627.476 1442.76 627.305 1442.92 627.003 1442.86L626.657 1442.87M625.912 1473.57L637.358 1452.63C637.389 1452.57 637.432 1452.52 637.484 1452.47C637.537 1452.43 637.598 1452.4 637.664 1452.38C637.73 1452.36 637.799 1452.35 637.867 1452.36C637.936 1452.37 638.001 1452.39 638.06 1452.42C638.172 1452.48 638.259 1452.58 638.305 1452.7C638.351 1452.82 638.353 1452.95 638.312 1453.07L635.18 1460.3L626.427 1476.08L617.922 1488C617.766 1488.25 617.522 1488.27 617.217 1488.01C617.124 1487.93 617.062 1487.82 617.042 1487.7C617.022 1487.58 617.046 1487.45 617.109 1487.35L625.912 1473.57Z" fill="#F5AA8B"/>
<path d="M569.79 1436.94C570.232 1436.57 570.71 1436.25 571.218 1435.97L572.106 1435.6L573.11 1435.39C573.463 1435.38 573.816 1435.41 574.161 1435.48C574.493 1435.52 574.816 1435.62 575.114 1435.77C575.705 1436.03 576.252 1436.38 576.735 1436.81L577.841 1438.11C578.028 1438.32 578.186 1438.55 578.309 1438.81L578.557 1439.15L578.66 1439.35L578.762 1439.45L579.026 1440L579.114 1440.14L579.276 1440.54L579.379 1440.74L579.481 1440.9L579.791 1441.64L579.896 1442.04L580.043 1442.39L580.567 1444.38L580.723 1445.59C580.814 1446.68 580.796 1447.77 580.671 1448.85C580.525 1449.9 580.266 1450.93 579.898 1451.92C579.538 1452.91 579.111 1453.88 578.619 1454.81C577.898 1456.03 577.346 1456.9 576.949 1457.44C576.225 1458.38 575.529 1459.19 574.961 1459.86L574.478 1460.47L574.179 1460.72L574.08 1460.88L573.979 1460.88L572.983 1461.9L572.146 1463.01L571.554 1464.21C571.404 1464.62 571.326 1465.04 571.323 1465.47C571.337 1465.88 571.424 1466.29 571.58 1466.68C571.76 1467.08 571.981 1467.46 572.239 1467.82L573.256 1468.82C573.358 1468.92 573.749 1469.22 574.416 1469.7L575.632 1470.49C575.696 1470.52 575.754 1470.56 575.801 1470.61C575.848 1470.66 575.882 1470.73 575.902 1470.79C575.922 1470.86 575.927 1470.93 575.916 1471C575.906 1471.07 575.88 1471.14 575.841 1471.19C575.642 1471.47 575.427 1471.52 575.18 1471.35C574.224 1470.92 573.328 1470.38 572.518 1469.72L571.298 1468.64C570.949 1468.19 570.646 1467.71 570.392 1467.21C570.148 1466.78 569.982 1466.31 569.903 1465.83C569.859 1465.23 569.936 1464.64 570.129 1464.07C570.29 1463.52 570.521 1463 570.818 1462.51C571.069 1462.03 571.384 1461.58 571.753 1461.19L572.25 1460.59L572.392 1460.43L572.493 1460.43L572.492 1460.33L573.232 1459.56L573.671 1458.97C574.312 1458.22 574.909 1457.44 575.459 1456.63C575.974 1455.82 576.445 1454.97 576.871 1454.11C577.312 1453.27 577.673 1452.4 577.952 1451.49C578.252 1450.61 578.459 1449.7 578.57 1448.78L578.567 1448.44L578.563 1448.08L578.548 1446.64L578.545 1446.28L578.541 1445.93L578.434 1445.28L578.329 1444.93L578.326 1444.58L578.221 1444.24L578.218 1443.88L578.069 1443.37L577.967 1443.23L577.758 1442.59L577.141 1441.34L577.14 1441.18L577.037 1440.98L576.833 1440.68L576.832 1440.58L575.723 1439.08L575.258 1438.64C575.009 1438.37 574.702 1438.17 574.361 1438.04C574.057 1437.91 573.723 1437.87 573.395 1437.91C573.043 1437.92 572.701 1438.03 572.406 1438.22C572.039 1438.4 571.702 1438.64 571.407 1438.92L570.666 1439.59L569.573 1440.96C569.002 1441.73 568.478 1442.54 568.002 1443.38L567.407 1444.29L567.267 1444.64L560.375 1456.79L560.376 1456.89L553.557 1466.39C552.308 1468.01 551.016 1469.58 549.708 1471.09L541.53 1479.81L541.375 1480.16L539.349 1487.21L539.352 1487.55L539.255 1487.86L539.063 1488.86L538.966 1489.17L537.127 1500.46C537.131 1500.83 536.946 1500.98 536.586 1500.93C536.226 1500.87 536.109 1500.69 536.178 1500.43L536.416 1494.25L537.618 1485.41C537.688 1484.97 537.784 1484.54 537.907 1484.11L539.289 1478.73L539.53 1478.32L547.663 1469.41C548.061 1468.95 549.339 1467.4 551.512 1464.77L558.132 1455.51L558.131 1455.41L565.35 1442.84L565.449 1442.64L565.845 1441.99C566.387 1441.1 566.978 1440.24 567.615 1439.41L569.79 1436.94Z" fill="#F5AA8B"/>
<path d="M63.7526 1934.87C63.8562 1931.92 66.4106 1927.21 71.4153 1920.74L81.9273 1934.52C74.9428 1936.84 68.8844 1936.96 63.7526 1934.87Z" fill="#A84A0B"/>
<path d="M116.829 1894.04L121.848 1899.56L97.4952 1947.61L84.4502 1937.81C92.1468 1921.16 103.166 1906.27 116.829 1894.04V1894.04Z" fill="#F5AA8B"/>
<path d="M110.71 1879.42L116.831 1894.1C103.153 1906.3 92.114 1921.18 84.3937 1937.81L81.9004 1934.52L71.3884 1920.74C78.9855 1910.93 92.0925 1897.16 110.71 1879.42Z" fill="#CCCCCC"/>
<path d="M52.1043 1459.53C72.9123 1498.6 92.1196 1547.88 109.726 1607.36L84.6486 1706.1L89.8394 1718.48L82.9607 1722.22L113.229 1876.95L110.637 1879.42C92.0294 1897.21 78.9322 1911 71.3446 1920.8C66.3399 1927.27 63.7858 1931.98 63.6822 1934.93L5.97761 1726.48C20.2806 1626.52 35.6561 1537.54 52.1043 1459.53Z" fill="#272727"/>
<path d="M178.289 1285C173.427 1280.73 162.885 1276.52 158.931 1287.72C156.947 1293.34 160.912 1302.58 164.702 1310.3C168.493 1318.02 170.683 1323.96 176.449 1323.9C182.215 1323.84 184.267 1320.56 184.267 1320.56L178.289 1285Z" fill="#F5AA8B"/>
<path d="M312.445 1227.51C312.445 1227.51 309.715 1186.15 244.775 1186.82C179.835 1187.5 177.964 1228.9 177.964 1228.9C177.964 1228.9 173.618 1320.12 186.373 1346.25C199.127 1372.39 230.983 1396.05 255.4 1395.79C279.817 1395.54 302.76 1357.14 307.414 1338.66C312.069 1320.19 312.445 1227.51 312.445 1227.51Z" fill="#F5AA8B"/>
<path d="M320.752 1221.38L320.744 1220.58C320.735 1219.71 320.64 1218.87 320.56 1218.05C320.479 1217.23 320.385 1216.43 320.29 1215.65C320.118 1214.31 319.918 1213.06 319.705 1211.91C319.702 1211.64 319.584 1211.37 319.538 1211.1C319.371 1210.26 319.205 1209.52 319.04 1208.81L318.86 1208.07C318.394 1206.14 317.948 1204.76 317.696 1204.02L317.563 1203.66L317.474 1203.43C319.713 1196.45 320.722 1189.13 320.457 1181.81C320.449 1181.03 320.34 1180.25 320.246 1179.49C320.231 1179.22 320.194 1178.94 320.136 1178.67L320.135 1178.5L320.131 1178.11C320.038 1177.52 319.932 1176.95 319.796 1176.36C319.777 1176.17 319.736 1175.99 319.676 1175.81C319.674 1175.64 319.674 1175.64 319.673 1175.54L319.478 1174.79C319.474 1174.46 319.313 1174.13 319.209 1173.82C319.105 1173.5 318.971 1173.07 318.838 1172.71C318.705 1172.35 318.571 1171.98 318.424 1171.62C318.276 1171.26 318.203 1171.09 318.07 1170.82L317.835 1170.29L317.439 1169.52C317.307 1169.26 317.101 1168.9 316.926 1168.58C316.692 1168.18 316.438 1167.78 316.165 1167.4L315.567 1166.53C315.357 1166.21 315.118 1165.91 314.853 1165.64C314.693 1165.48 314.533 1165.33 314.345 1165.17C314.171 1165.01 313.987 1164.87 313.794 1164.73C313.615 1164.58 313.426 1164.44 313.228 1164.32L312.939 1164.13C312.851 1164.06 312.754 1164.01 312.649 1163.97C312.507 1163.87 312.357 1163.78 312.201 1163.71C311.422 1163.31 310.616 1162.96 309.789 1162.67L309.211 1162.49L308.043 1162.14L306.601 1161.8L305.16 1161.51L303.835 1161.32L302.496 1161.15L301.56 1161.06L300.812 1161.06L299.734 1161.08L298.064 1160.98L295.705 1160.93L291.521 1160.97L288.876 1161.1L287.999 1161.11L285.269 1161.34L284.163 1161.47L283.559 1161.47L283.055 1161.48C283.08 1161.04 283.075 1160.61 283.042 1160.17L283.031 1159.18C283.057 1158.97 283.055 1158.76 283.025 1158.56C283.023 1158.34 283.018 1157.92 282.885 1157.58C282.876 1157.4 282.845 1157.23 282.794 1157.06C282.789 1156.63 282.598 1156.19 282.464 1155.71C282.194 1154.71 281.797 1153.75 281.283 1152.85C281.091 1152.49 280.876 1152.15 280.639 1151.82C280.123 1151.12 279.522 1150.49 278.851 1149.93C278.5 1149.65 278.127 1149.39 277.736 1149.17L277.331 1148.94L277.013 1148.79L276.637 1148.6L276.276 1148.46C276.107 1148.39 275.933 1148.33 275.756 1148.28C275.584 1148.28 275.266 1148.13 275.006 1148.06L274.185 1147.88C273.6 1147.77 273.008 1147.71 272.414 1147.68C271.628 1147.63 270.84 1147.64 270.055 1147.71C269.178 1147.72 268.303 1147.89 267.427 1148.02C266.995 1148.03 266.537 1148.15 266.106 1148.24L265.474 1148.35L264.843 1148.47L264.039 1148.63C263.379 1148.77 262.733 1148.92 262.074 1149.09C261.657 1149.18 261.199 1149.3 260.797 1149.42C260.396 1149.54 259.865 1149.66 259.363 1149.79L257.929 1150.24C257.627 1150.24 257.341 1150.4 257.04 1150.51L254.948 1151.18L253.515 1151.67L252.211 1152.14C251.323 1152.47 250.449 1152.79 249.647 1153.12L248.4 1153.61L247.212 1154.09L246.095 1154.55L244.964 1155.04L243.876 1155.51L242.831 1155.97L241.872 1156.41L240.999 1156.83L239.768 1157.41L239.052 1157.75L238.709 1157.91L238.122 1158.2L237.621 1158.44L236.549 1159L236.531 1157.3C236.513 1156.96 236.476 1156.62 236.42 1156.28L236.416 1155.87C236.39 1155.62 236.344 1155.37 236.278 1155.13C236.276 1154.88 236.188 1154.77 236.158 1154.58C236.127 1154.39 236.053 1154.21 236.008 1154.02C235.963 1153.83 235.874 1153.61 235.8 1153.39C235.746 1153.22 235.682 1153.06 235.608 1152.9C235.46 1152.55 235.288 1152.21 235.094 1151.89V1151.89C234.995 1151.73 234.888 1151.58 234.773 1151.43L234.424 1151.02L234.148 1150.76C234.006 1150.63 233.85 1150.52 233.684 1150.42L233.496 1150.3L233.308 1150.22L233.164 1150.22L232.919 1150.14L232.659 1150.07C232.523 1150.03 232.383 1150 232.241 1149.99L232.069 1149.99C231.315 1149.95 230.561 1150.07 229.858 1150.34C229.186 1150.58 228.538 1150.88 227.926 1151.24C227.511 1151.5 227.097 1151.78 226.698 1152.09L226.241 1152.44L225.785 1152.82L225.328 1153.21C224.385 1154.08 223.488 1155 222.639 1155.96L221.588 1157.19L221.006 1157.91L220.083 1159.07C219.174 1160.23 218.352 1161.34 217.57 1162.26L217.286 1162.61L216.959 1162.99L216.647 1163.35C216.463 1163.56 216.268 1163.76 216.063 1163.95C215.465 1164.51 214.965 1164.83 214.633 1164.75L214.447 1164.75C214.26 1164.76 214.058 1164.69 213.871 1164.67L213.209 1164.68L212.993 1164.68C211.743 1164.59 210.488 1164.61 209.24 1164.72L208.751 1164.73L208.248 1164.73C207.602 1164.82 206.956 1164.93 206.296 1165.07L206.137 1165.07L205.262 1165.28L204.717 1165.45L204.173 1165.61C203.857 1165.7 203.542 1165.82 203.227 1165.94L202.439 1166.26C201.924 1166.48 201.423 1166.73 200.923 1167C200.175 1167.42 199.463 1167.91 198.795 1168.46C198.681 1168.56 198.595 1168.62 198.495 1168.72C194.374 1172.1 192.078 1178.07 190.196 1179.62C186.174 1182.91 174.182 1183.08 167.718 1201.89C161.255 1220.7 166.337 1239.22 167.8 1247.2C168.136 1249.09 170.245 1259.67 170.63 1264.93C170.933 1269.11 170.638 1280.92 170.638 1280.92C172.705 1281.9 175.195 1286.28 175.913 1290.29C176.63 1294.3 177.192 1308.27 177.44 1316.92C177.465 1319.33 177.49 1321.7 177.514 1324.03C177.596 1331.96 177.457 1339.34 178.631 1345.79C179.959 1353.19 189.797 1364.38 200.659 1374.45L201.908 1375.6C213.029 1385.74 224.913 1394.51 229.725 1396.73C243.154 1402.53 258.286 1402.98 272.034 1397.99C274.406 1397.04 276.646 1395.79 278.697 1394.27C284.407 1390.11 289.691 1383.82 294.267 1377.06C299.475 1369.32 303.89 1361.08 307.444 1352.45C309.49 1347.34 310.519 1328.71 310.671 1315.6C309.925 1320.18 308.812 1324.69 307.345 1329.09C305.124 1335.46 300.896 1341.02 289.239 1343.03C287.083 1343.38 284.893 1343.49 282.713 1343.34C278.657 1342.99 274.641 1342.27 270.712 1341.2C265.311 1339.69 259.741 1338.85 254.133 1338.73C241.191 1338.86 237.741 1343.22 226.87 1344.68C219.689 1345.63 211.039 1343.56 203.289 1338.25L203.13 1338.13C198.84 1335.11 195.173 1331.3 192.328 1326.89C186.657 1318.14 183.729 1266.04 184.663 1257.71C185.598 1249.38 185.51 1228.41 200.619 1223.69C215.728 1218.97 229.336 1237.32 257.792 1235.45C286.248 1233.57 291.009 1221.15 299.401 1226.02C307.792 1230.88 309.337 1249.49 309.821 1260.07C310.305 1270.64 312.183 1278.4 312.097 1285.32L312.101 1285.71C312.102 1285.8 314.23 1277.46 316.005 1268.4C316.087 1267.98 316.169 1267.52 316.237 1267.14C316.388 1266.44 316.51 1265.7 316.646 1264.99C316.823 1263.98 316.999 1263 317.162 1262.02C317.324 1261.04 317.418 1260.39 317.539 1259.59L317.537 1259.41C317.778 1257.7 317.977 1256.05 318.119 1254.54C318.116 1254.17 318.112 1253.79 318.209 1253.43C318.306 1253.07 318.203 1252.88 318.2 1252.63C318.252 1252.06 318.304 1251.51 318.356 1250.98C318.35 1250.44 318.461 1250.02 318.528 1249.54C318.595 1249.07 318.607 1248.82 318.661 1248.48C319.062 1245.59 319.582 1243.05 320.013 1240.21C320.094 1239.69 320.175 1239.17 320.27 1238.66L320.391 1237.83C320.462 1237.29 320.543 1236.72 320.632 1236.15C320.779 1234.99 320.91 1233.77 321.025 1232.46C321.019 1231.81 321.127 1231.13 321.177 1230.44C321.228 1229.75 321.263 1229 321.284 1228.24C321.305 1227.47 321.268 1226.7 321.346 1225.89L321.309 1222.36L320.752 1221.38Z" fill="#693E40"/>
<path d="M233.849 1299.45C233.899 1304.21 231.192 1308.11 227.77 1308.15C224.348 1308.19 221.561 1304.36 221.511 1299.58C221.462 1294.8 224.168 1290.91 227.591 1290.88C231.013 1290.84 233.799 1294.61 233.849 1299.45Z" fill="#693E40"/>
<path d="M280.745 1307.6C284.139 1307.57 286.845 1303.68 286.796 1298.9C286.746 1294.12 283.959 1290.29 280.566 1290.33C277.172 1290.36 274.466 1294.25 274.515 1299.03C274.565 1303.81 277.351 1307.64 280.745 1307.6Z" fill="#693E40"/>
<path d="M237.91 1279.04C240.13 1278.18 239.49 1271.97 236.377 1269.9C233.263 1267.83 213.405 1273.66 210.545 1275.16C207.684 1276.66 206.72 1279.36 207.262 1280.35C207.804 1281.34 235.689 1279.9 237.91 1279.04Z" fill="#693E40"/>
<path d="M270.423 1278.7C268.2 1277.89 268.696 1271.67 271.766 1269.53C274.836 1267.4 294.811 1272.82 297.702 1274.26C300.593 1275.7 301.613 1278.38 301.106 1279.38C300.598 1280.37 272.661 1279.51 270.423 1278.7Z" fill="#693E40"/>
<path d="M275.314 1349.49C274.756 1346.98 268.114 1348.63 254.741 1348.77C241.368 1348.91 234.708 1347.39 234.216 1349.92C233.725 1352.44 238.783 1359.04 254.846 1358.87C270.908 1358.71 275.858 1352 275.314 1349.49Z" fill="white"/>
<rect x="2542.69" y="1512.98" width="624.829" height="52.0691" rx="15" fill="#9C9C9C"/>
<rect x="2542.69" y="1887.88" width="624.829" height="52.0691" rx="15" fill="#9C9C9C"/>
<rect x="2542.69" y="1700.43" width="624.829" height="52.0691" rx="15" fill="#9C9C9C"/>
<rect x="2542.69" y="2075.33" width="624.829" height="52.0691" rx="15" fill="#9C9C9C"/>
<rect x="2383.51" y="2234.51" width="784.012" height="52.0691" rx="15" fill="#9C9C9C"/>
<rect x="2383.51" y="2362.45" width="784.012" height="52.0691" rx="15" fill="#9C9C9C"/>
<g clip-path="url(#clip2_322_220)">
<path d="M2978.55 1167.85C2978.55 1132.55 2968.08 1098.04 2948.47 1068.68C2928.85 1039.33 2900.97 1016.45 2868.36 1002.94C2835.74 989.426 2799.85 985.891 2765.22 992.779C2730.59 999.666 2698.79 1016.67 2673.82 1041.63C2648.86 1066.6 2631.86 1098.4 2624.97 1133.03C2618.08 1167.66 2621.62 1203.55 2635.13 1236.17C2648.64 1268.78 2671.52 1296.66 2700.87 1316.28C2730.23 1335.89 2764.74 1346.36 2800.04 1346.36C2823.49 1346.36 2846.7 1341.74 2868.36 1332.77C2890.01 1323.8 2909.69 1310.65 2926.27 1294.08C2942.84 1277.5 2955.99 1257.82 2964.96 1236.17C2973.93 1214.51 2978.55 1191.3 2978.55 1167.85V1167.85Z" fill="#CCCCCC"/>
<path d="M2861.57 1269.29C2852.88 1258.32 2861.57 1194.81 2861.57 1194.81H2739.24C2739.24 1194.81 2747.93 1258.32 2739.24 1269.29C2739.24 1269.29 2764.97 1303.75 2796.3 1304.5C2827.62 1305.25 2861.57 1269.29 2861.57 1269.29Z" fill="#D88F69"/>
<path d="M2727.34 1139.08C2727.34 1139.08 2724.89 1129.78 2719.33 1129.03C2713.77 1128.28 2707.98 1135.3 2711.76 1153.67C2715.55 1172.05 2719.33 1174.81 2720.8 1179.34C2722.26 1183.87 2727.95 1190.86 2733.03 1180.06L2727.34 1139.08Z" fill="#F2A983"/>
<path opacity="0.5" d="M2727.34 1139.08C2727.34 1139.08 2724.89 1129.78 2719.33 1129.03C2713.77 1128.28 2707.98 1135.3 2711.76 1153.67C2715.55 1172.05 2719.33 1174.81 2720.8 1179.34C2722.26 1183.87 2727.95 1190.86 2733.03 1180.06L2727.34 1139.08Z" fill="#D88F69"/>
<path opacity="0.5" d="M2727.34 1139.08C2727.34 1139.08 2724.89 1129.78 2719.33 1129.03C2713.77 1128.28 2707.98 1135.3 2711.76 1153.67C2715.55 1172.05 2719.33 1174.81 2720.8 1179.34C2722.26 1183.87 2727.95 1190.86 2733.03 1180.06L2727.34 1139.08Z" fill="#D88F69"/>
<path d="M2800.32 1022.14C2827.59 1022.14 2857.65 1037.41 2869.61 1064.44C2881.58 1091.47 2876.84 1113.01 2876.16 1122.59C2875.23 1135.16 2873.65 1147.67 2871.42 1160.08C2869.03 1172.39 2868.35 1193.83 2863.61 1208.11C2858.88 1222.39 2849.43 1227.26 2837.33 1236.13C2826.29 1243.62 2813.58 1248.3 2800.32 1249.76C2787.05 1248.3 2774.34 1243.62 2763.3 1236.13C2751.2 1227.26 2741.72 1222.49 2737.02 1208.11C2732.32 1193.72 2731.57 1172.39 2729.22 1160.08C2727 1147.67 2725.42 1135.16 2724.48 1122.59C2723.8 1113.01 2719.06 1091.43 2731.02 1064.44C2742.99 1037.44 2772.91 1022.14 2800.32 1022.14Z" fill="#F2A983"/>
<path opacity="0.5" d="M2789.07 1247.92C2756.99 1235.1 2753.14 1203.61 2752.5 1190.28C2751.85 1176.95 2740.63 1167.27 2734.19 1157.49C2727.75 1147.71 2727.37 1113.18 2727.37 1113.18L2723.35 1112.4C2723.73 1116.62 2724.2 1120.1 2724.38 1122.62C2725.32 1135.19 2726.9 1147.71 2729.11 1160.12C2731.46 1172.42 2732.18 1193.86 2736.92 1208.14C2741.66 1222.42 2751.1 1227.3 2763.2 1236.16C2771.08 1241.55 2779.83 1245.53 2789.07 1247.92V1247.92Z" fill="#D88F69"/>
<path opacity="0.2" d="M2837.33 1236.19C2849.43 1227.33 2858.91 1222.56 2863.61 1208.18C2868.32 1193.79 2869.03 1172.45 2871.42 1160.15C2873.65 1147.74 2875.23 1135.23 2876.16 1122.66C2876.16 1120.03 2876.84 1116.49 2877.21 1112.16L2872.1 1113.15C2872.1 1113.15 2871.86 1147.67 2865.28 1157.46C2858.71 1167.24 2847.63 1177.06 2846.98 1190.25C2846.33 1203.44 2842.65 1235 2810.51 1247.92L2808.91 1248.57C2819.07 1246.26 2828.72 1242.06 2837.33 1236.19Z" fill="#D88F69"/>
<path d="M2879.43 1095.22C2882.84 1076.98 2882.46 1013.41 2800.22 1014.3C2718 1013.41 2717.8 1076.98 2721.03 1095.22C2723.05 1106.64 2717.9 1126.51 2720.32 1129.03C2721.32 1129.28 2722.24 1129.77 2723 1130.46C2723.76 1131.15 2724.34 1132.01 2724.68 1132.98C2725.53 1136.12 2726.93 1146.14 2726.93 1146.14C2726.93 1146.14 2729.69 1119.35 2731.02 1111.31C2732.63 1103.94 2733.7 1096.47 2734.23 1088.95C2735.18 1076.23 2739.07 1067.71 2748.92 1062.12C2758.77 1056.53 2786.68 1064.81 2796.3 1066.18H2804.34C2813.95 1064.81 2841.83 1056.56 2851.72 1062.12C2861.6 1067.68 2865.35 1076.23 2866.41 1088.95C2866.94 1096.46 2868 1103.94 2869.58 1111.31C2870.94 1119.35 2873.6 1146.14 2873.6 1146.14C2873.6 1146.14 2874.9 1136.12 2875.75 1132.98C2876.09 1132.01 2876.67 1131.15 2877.43 1130.46C2878.19 1129.77 2879.11 1129.28 2880.11 1129.03C2882.57 1126.51 2877.38 1106.64 2879.43 1095.22Z" fill="#563317"/>
<path d="M2727.34 1263.29V1330.88C2750.99 1341.43 2776.65 1346.71 2802.55 1346.37C2828.44 1346.02 2853.95 1340.05 2877.32 1328.87V1263.29L2800.04 1289.84L2727.34 1263.29Z" fill="#D5DCE0"/>
<path d="M2800.39 1289.84L2768.89 1305.15L2791.22 1335.25L2787.81 1345.88C2791.86 1346.15 2795.92 1346.36 2800.04 1346.36C2803.45 1346.36 2806.62 1346.36 2809.86 1346.09L2808.09 1335.25L2831.95 1303.82L2800.39 1289.84Z" fill="#EA6A39"/>
<path d="M2800.42 1289.84L2741.72 1237.49L2717.56 1267.42L2771.21 1326.32L2800.42 1289.84Z" fill="#E2E9ED"/>
<path d="M2800.04 1289.84L2858.74 1237.49L2882.91 1267.42L2829.26 1326.32L2800.04 1289.84Z" fill="#E2E9ED"/>
<path d="M2653.95 1270.35C2675.01 1300.32 2704.75 1323.12 2739.17 1335.66C2730.18 1306.25 2727.85 1275.21 2732.35 1244.78L2653.95 1270.35Z" fill="#F4753D"/>
<path d="M2946.88 1269.33L2865.08 1244.78C2869.66 1275.61 2867.22 1307.07 2857.92 1336.81C2894.02 1324.39 2925.19 1300.74 2946.88 1269.33V1269.33Z" fill="#F4753D"/>
<path d="M2800.42 1184.93C2804.37 1184.62 2824.65 1186.7 2827.69 1190.89C2830.72 1195.09 2838.49 1199.11 2842.48 1201.87C2846.47 1204.63 2850.29 1203.3 2857.07 1195.05C2859.78 1189.27 2862.06 1183.28 2863.89 1177.16C2865.25 1172.97 2872.75 1137.18 2872.75 1137.18L2874.96 1138.51C2874.96 1138.51 2868.59 1165.23 2869.72 1171.19C2870.84 1177.16 2869.72 1208.99 2857.96 1223.86C2846.2 1238.72 2854.31 1260.94 2800.25 1260.94C2746.19 1260.94 2754.23 1238.72 2742.54 1223.86C2730.85 1208.99 2729.62 1177.16 2730.78 1171.19C2731.94 1165.23 2725.57 1138.51 2725.57 1138.51L2727.78 1137.18C2727.78 1137.18 2735.28 1172.97 2736.61 1177.16C2738.45 1183.28 2740.73 1189.26 2743.43 1195.05C2750.25 1203.4 2754.03 1204.7 2758.05 1201.87C2762.07 1199.04 2769.67 1195.05 2772.84 1190.89C2776.01 1186.74 2796.5 1184.62 2800.42 1184.93Z" fill="#563317"/>
<path d="M2797.42 1215.27C2806.56 1215.27 2811.8 1223.24 2815.52 1224.16C2817.91 1224.32 2820.29 1223.79 2822.39 1222.64C2824.49 1221.5 2826.22 1219.78 2827.38 1217.69C2829.05 1213.8 2824.42 1207.87 2820.33 1204.7C2816.24 1201.53 2802.57 1201.56 2797.42 1201.29C2792.27 1201.67 2778.61 1201.67 2774.51 1204.7C2770.42 1207.73 2765.79 1213.8 2767.46 1217.69C2768.63 1219.78 2770.36 1221.5 2772.47 1222.65C2774.58 1223.79 2776.96 1224.32 2779.35 1224.16C2783.04 1223.24 2788.29 1215.1 2797.42 1215.27Z" fill="#F2A983"/>
</g>
<circle cx="2440.04" cy="1539.76" r="56.5322" fill="#D9D9D9"/>
<circle cx="2440.04" cy="2102.1" r="56.5322" fill="#D9D9D9"/>
<circle cx="2440.04" cy="1727.21" r="56.5322" fill="#D9D9D9"/>
<circle cx="2440.04" cy="1914.66" r="56.5322" fill="#D9D9D9"/>
<rect x="1922.33" y="2134.83" width="275.222" height="52.0691" rx="12" fill="#D2D2D2"/>
<rect x="1162.12" y="2134.83" width="275.222" height="52.0691" rx="12" fill="#D2D2D2"/>
<rect x="1922.33" y="2236" width="275.222" height="52.0691" rx="12" fill="#D2D2D2"/>
<rect x="1162.12" y="2236" width="275.222" height="52.0691" rx="12" fill="#D2D2D2"/>
<rect x="1922.33" y="2337.16" width="275.222" height="52.0691" rx="12" fill="#D2D2D2"/>
<rect x="1162.12" y="2337.16" width="275.222" height="52.0691" rx="12" fill="#D2D2D2"/>
<path d="M1082.73 2262.77C1085.5 2262.77 1087.75 2265.01 1087.62 2267.77C1086.49 2293.15 1076.72 2317.43 1059.85 2336.56C1041.88 2356.94 1017.1 2370.07 990.142 2373.47C963.186 2376.88 935.914 2370.33 913.442 2355.06C890.971 2339.78 874.843 2316.84 868.086 2290.52C861.33 2264.21 864.407 2236.33 876.742 2212.12C889.077 2187.91 909.822 2169.03 935.084 2159.03C960.346 2149.03 988.389 2148.59 1013.95 2157.79C1037.95 2166.43 1058.21 2183.01 1071.43 2204.7C1072.86 2207.05 1071.97 2210.1 1069.55 2211.43L1063.35 2214.84C1060.93 2216.17 1057.9 2215.28 1056.44 2212.93C1045.24 2194.88 1028.25 2181.09 1008.17 2173.86C986.517 2166.07 962.766 2166.44 941.371 2174.91C919.976 2183.38 902.407 2199.37 891.96 2219.87C881.513 2240.38 878.907 2263.99 884.629 2286.27C890.352 2308.56 904.01 2328 923.042 2340.93C942.074 2353.86 965.172 2359.41 988.001 2356.53C1010.83 2353.64 1031.82 2342.53 1047.04 2325.27C1061.15 2309.26 1069.4 2288.99 1070.52 2267.77C1070.67 2265.01 1072.89 2262.77 1075.65 2262.77H1082.73Z" fill="#FF8140"/>
<path d="M936.455 2250.03V2246.29H944.365V2271H940.165V2250.03H936.455ZM948.552 2258.47C948.552 2262.41 949.252 2265.5 950.652 2267.74C952.052 2269.96 954.386 2271.07 957.652 2271.07C960.919 2271.07 963.252 2269.95 964.652 2267.71C966.052 2265.47 966.752 2262.39 966.752 2258.47C966.752 2254.57 966.052 2251.52 964.652 2249.3C963.252 2247.06 960.919 2245.94 957.652 2245.94C954.386 2245.94 952.052 2247.05 950.652 2249.26C949.252 2251.48 948.552 2254.55 948.552 2258.47ZM962.762 2258.47C962.762 2261.32 962.412 2263.5 961.712 2265.01C961.012 2266.53 959.659 2267.29 957.652 2267.29C955.622 2267.29 954.257 2266.53 953.557 2265.01C952.857 2263.5 952.507 2261.32 952.507 2258.47C952.507 2255.65 952.857 2253.49 953.557 2251.99C954.257 2250.5 955.622 2249.75 957.652 2249.75C959.659 2249.75 961.012 2250.51 961.712 2252.03C962.412 2253.52 962.762 2255.67 962.762 2258.47ZM970.359 2258.47C970.359 2262.41 971.059 2265.5 972.459 2267.74C973.859 2269.96 976.192 2271.07 979.459 2271.07C982.726 2271.07 985.059 2269.95 986.459 2267.71C987.859 2265.47 988.559 2262.39 988.559 2258.47C988.559 2254.57 987.859 2251.52 986.459 2249.3C985.059 2247.06 982.726 2245.94 979.459 2245.94C976.192 2245.94 973.859 2247.05 972.459 2249.26C971.059 2251.48 970.359 2254.55 970.359 2258.47ZM984.569 2258.47C984.569 2261.32 984.219 2263.5 983.519 2265.01C982.819 2266.53 981.466 2267.29 979.459 2267.29C977.429 2267.29 976.064 2266.53 975.364 2265.01C974.664 2263.5 974.314 2261.32 974.314 2258.47C974.314 2255.65 974.664 2253.49 975.364 2251.99C976.064 2250.5 977.429 2249.75 979.459 2249.75C981.466 2249.75 982.819 2250.51 983.519 2252.03C984.219 2253.52 984.569 2255.67 984.569 2258.47ZM996.751 2245.94C998.314 2245.94 999.586 2246.43 1000.57 2247.41C1001.55 2248.37 1002.04 2249.67 1002.04 2251.33C1002.04 2252.99 1001.55 2254.29 1000.57 2255.25C999.586 2256.21 998.314 2256.68 996.751 2256.68C995.187 2256.68 993.904 2256.21 992.901 2255.25C991.921 2254.29 991.431 2252.99 991.431 2251.33C991.431 2249.67 991.921 2248.37 992.901 2247.41C993.904 2246.43 995.187 2245.94 996.751 2245.94ZM1011.56 2246.25L997.591 2271H993.671L1007.67 2246.25H1011.56ZM994.161 2251.33C994.161 2252.22 994.394 2252.93 994.861 2253.46C995.327 2253.98 995.946 2254.23 996.716 2254.23C997.486 2254.23 998.104 2253.97 998.571 2253.43C999.061 2252.89 999.306 2252.19 999.306 2251.33C999.306 2250.44 999.061 2249.73 998.571 2249.19C998.104 2248.66 997.486 2248.39 996.716 2248.39C995.946 2248.39 995.327 2248.66 994.861 2249.19C994.394 2249.73 994.161 2250.44 994.161 2251.33ZM1008.51 2260.57C1010.07 2260.57 1011.35 2261.05 1012.33 2262.01C1013.33 2262.96 1013.83 2264.27 1013.83 2265.92C1013.83 2267.58 1013.33 2268.9 1012.33 2269.88C1011.35 2270.84 1010.07 2271.32 1008.51 2271.32C1006.97 2271.32 1005.7 2270.84 1004.7 2269.88C1003.72 2268.9 1003.23 2267.58 1003.23 2265.92C1003.23 2264.29 1003.72 2263 1004.7 2262.04C1005.7 2261.06 1006.97 2260.57 1008.51 2260.57ZM1005.96 2265.92C1005.96 2266.81 1006.19 2267.52 1006.66 2268.06C1007.12 2268.6 1007.74 2268.86 1008.51 2268.86C1009.28 2268.86 1009.9 2268.6 1010.37 2268.06C1010.86 2267.52 1011.1 2266.81 1011.1 2265.92C1011.1 2265.06 1010.86 2264.36 1010.37 2263.82C1009.9 2263.29 1009.28 2263.02 1008.51 2263.02C1007.74 2263.02 1007.12 2263.29 1006.66 2263.82C1006.19 2264.36 1005.96 2265.06 1005.96 2265.92Z" fill="black"/>
<path d="M1816.16 2262.77C1818.93 2262.77 1821.18 2265.01 1821.05 2267.77C1820.37 2283.07 1816.54 2298.08 1809.79 2311.86C1802.3 2327.14 1791.42 2340.51 1777.97 2350.94C1764.53 2361.37 1748.88 2368.58 1732.21 2372.03C1715.55 2375.48 1698.32 2375.08 1681.84 2370.85C1665.36 2366.61 1650.06 2358.67 1637.12 2347.62C1624.19 2336.57 1613.95 2322.7 1607.19 2307.09C1600.43 2291.47 1597.33 2274.51 1598.13 2257.52C1598.86 2242.19 1602.73 2227.19 1609.5 2213.46C1610.72 2210.98 1613.77 2210.1 1616.19 2211.43L1622.4 2214.84C1624.82 2216.17 1625.69 2219.21 1624.49 2221.69C1618.96 2233.14 1615.8 2245.59 1615.2 2258.32C1614.52 2272.72 1617.14 2287.08 1622.86 2300.3C1628.59 2313.53 1637.26 2325.27 1648.22 2334.63C1659.17 2343.99 1672.13 2350.72 1686.09 2354.3C1700.05 2357.89 1714.64 2358.23 1728.75 2355.31C1742.86 2352.39 1756.12 2346.27 1767.51 2337.44C1778.89 2328.61 1788.11 2317.29 1794.45 2304.35C1800.05 2292.9 1803.28 2280.46 1803.95 2267.77C1804.1 2265.01 1806.32 2262.77 1809.08 2262.77H1816.16Z" fill="#FF8140"/>
<path d="M1692.94 2255.44H1680.72V2262.79C1681.28 2262.07 1682.07 2261.49 1683.1 2261.07C1684.13 2260.63 1685.26 2260.41 1686.5 2260.41C1688.22 2260.41 1689.66 2260.78 1690.8 2261.53C1691.94 2262.25 1692.78 2263.22 1693.32 2264.43C1693.88 2265.65 1694.16 2266.99 1694.16 2268.46C1694.16 2271.05 1693.44 2273.15 1691.99 2274.76C1690.54 2276.35 1688.44 2277.14 1685.69 2277.14C1683.1 2277.14 1681.01 2276.45 1679.43 2275.07C1677.84 2273.7 1676.98 2271.87 1676.84 2269.58H1680.76C1680.97 2270.84 1681.48 2271.83 1682.3 2272.55C1683.14 2273.28 1684.2 2273.64 1685.48 2273.64C1687.07 2273.64 1688.26 2273.16 1689.05 2272.2C1689.84 2271.25 1690.24 2269.98 1690.24 2268.39C1690.24 2266.9 1689.83 2265.73 1689.02 2264.89C1688.2 2264.03 1687.03 2263.59 1685.52 2263.59C1684.44 2263.59 1683.5 2263.83 1682.68 2264.29C1681.89 2264.76 1681.3 2265.38 1680.93 2266.15H1677.05V2251.9H1692.94V2255.44ZM1697.66 2264.47C1697.66 2268.41 1698.36 2271.5 1699.76 2273.74C1701.16 2275.96 1703.49 2277.07 1706.76 2277.07C1710.03 2277.07 1712.36 2275.95 1713.76 2273.71C1715.16 2271.47 1715.86 2268.39 1715.86 2264.47C1715.86 2260.57 1715.16 2257.52 1713.76 2255.3C1712.36 2253.06 1710.03 2251.94 1706.76 2251.94C1703.49 2251.94 1701.16 2253.05 1699.76 2255.26C1698.36 2257.48 1697.66 2260.55 1697.66 2264.47ZM1711.87 2264.47C1711.87 2267.32 1711.52 2269.5 1710.82 2271.01C1710.12 2272.53 1708.77 2273.29 1706.76 2273.29C1704.73 2273.29 1703.37 2272.53 1702.67 2271.01C1701.97 2269.5 1701.62 2267.32 1701.62 2264.47C1701.62 2261.65 1701.97 2259.49 1702.67 2257.99C1703.37 2256.5 1704.73 2255.75 1706.76 2255.75C1708.77 2255.75 1710.12 2256.51 1710.82 2258.03C1711.52 2259.52 1711.87 2261.67 1711.87 2264.47ZM1724.05 2251.94C1725.62 2251.94 1726.89 2252.43 1727.87 2253.41C1728.85 2254.37 1729.34 2255.67 1729.34 2257.33C1729.34 2258.99 1728.85 2260.29 1727.87 2261.25C1726.89 2262.21 1725.62 2262.68 1724.05 2262.68C1722.49 2262.68 1721.21 2262.21 1720.2 2261.25C1719.22 2260.29 1718.73 2258.99 1718.73 2257.33C1718.73 2255.67 1719.22 2254.37 1720.2 2253.41C1721.21 2252.43 1722.49 2251.94 1724.05 2251.94ZM1738.86 2252.25L1724.89 2277H1720.97L1734.97 2252.25H1738.86ZM1721.46 2257.33C1721.46 2258.22 1721.7 2258.93 1722.16 2259.46C1722.63 2259.98 1723.25 2260.23 1724.02 2260.23C1724.79 2260.23 1725.41 2259.97 1725.87 2259.43C1726.36 2258.89 1726.61 2258.19 1726.61 2257.33C1726.61 2256.44 1726.36 2255.73 1725.87 2255.19C1725.41 2254.66 1724.79 2254.39 1724.02 2254.39C1723.25 2254.39 1722.63 2254.66 1722.16 2255.19C1721.7 2255.73 1721.46 2256.44 1721.46 2257.33ZM1735.81 2266.57C1737.38 2266.57 1738.65 2267.05 1739.63 2268.01C1740.63 2268.96 1741.13 2270.27 1741.13 2271.92C1741.13 2273.58 1740.63 2274.9 1739.63 2275.88C1738.65 2276.84 1737.38 2277.32 1735.81 2277.32C1734.27 2277.32 1733 2276.84 1732 2275.88C1731.02 2274.9 1730.53 2273.58 1730.53 2271.92C1730.53 2270.29 1731.02 2269 1732 2268.04C1733 2267.06 1734.27 2266.57 1735.81 2266.57ZM1733.26 2271.92C1733.26 2272.81 1733.49 2273.52 1733.96 2274.06C1734.42 2274.6 1735.04 2274.86 1735.81 2274.86C1736.58 2274.86 1737.2 2274.6 1737.67 2274.06C1738.16 2273.52 1738.4 2272.81 1738.4 2271.92C1738.4 2271.06 1738.16 2270.36 1737.67 2269.82C1737.2 2269.29 1736.58 2269.02 1735.81 2269.02C1735.04 2269.02 1734.42 2269.29 1733.96 2269.82C1733.49 2270.36 1733.26 2271.06 1733.26 2271.92Z" fill="black"/>
<path d="M964.256 345.164C964.261 358.257 961.685 371.223 956.675 383.32C951.665 395.416 944.319 406.407 935.058 415.663C925.797 424.918 914.803 432.257 902.703 437.261C890.603 442.264 877.636 444.832 864.543 444.82C809.656 444.763 764.867 400.098 764.905 345.447C764.905 289.786 809.562 245.404 865.413 245.47C919.741 245.536 964.256 290.429 964.256 345.164ZM864.609 435.601C914.305 435.649 954.924 395.124 955.084 345.315C955.245 295.506 914.598 254.84 864.694 254.736C815.027 254.622 774.54 295.024 774.228 345.013C773.888 394.595 814.753 435.554 864.609 435.601Z" fill="black"/>
<path d="M851.712 372.14L872.996 351.811L911.27 315.22C913.993 312.629 917.122 312.648 918.947 315.267C920.422 317.376 920.025 319.692 917.718 321.886C911.471 327.88 905.218 333.869 898.959 339.851L856.629 380.318C853.008 383.779 851.06 383.779 847.543 380.271C836.342 369.057 825.141 357.843 813.939 346.63C813.081 345.826 812.388 344.862 811.897 343.793C811.557 342.837 811.554 341.793 811.889 340.835C812.225 339.876 812.878 339.062 813.741 338.527C814.645 337.92 815.737 337.662 816.817 337.799C817.896 337.937 818.89 338.46 819.613 339.274C823.281 342.848 826.883 346.488 830.514 350.109C837.177 356.753 843.833 363.409 850.483 370.078C850.969 370.717 851.382 371.408 851.712 372.14V372.14Z" fill="black"/>
<path d="M1426.93 133.917C1426.93 150.528 1423.67 166.977 1417.31 182.324C1410.95 197.67 1401.64 211.613 1389.89 223.356C1378.14 235.098 1364.19 244.409 1348.84 250.756C1333.49 257.103 1317.04 260.362 1300.43 260.347C1230.79 260.275 1173.97 203.609 1174.02 134.277C1174.02 63.6611 1230.67 7.35558 1301.53 7.43955C1370.45 7.52351 1426.93 64.4768 1426.93 133.917ZM1300.51 248.651C1363.56 248.711 1415.09 197.3 1415.29 134.109C1415.5 70.9182 1363.93 19.3268 1300.62 19.1948C1237.61 19.0509 1186.24 70.3065 1185.85 133.725C1185.42 196.628 1237.26 248.591 1300.51 248.651Z" fill="black"/>
<path d="M1284.15 168.139L1311.15 142.35L1359.71 95.9281C1363.16 92.6414 1367.13 92.6654 1369.45 95.9881C1371.32 98.663 1370.81 101.602 1367.89 104.385C1359.96 111.99 1352.03 119.587 1344.09 127.176L1290.39 178.515C1285.79 182.905 1283.32 182.905 1278.86 178.455C1264.65 164.229 1250.44 150.003 1236.23 135.776C1235.14 134.756 1234.26 133.534 1233.64 132.178C1233.21 130.964 1233.2 129.64 1233.63 128.424C1234.05 127.208 1234.88 126.175 1235.98 125.496C1237.12 124.727 1238.51 124.399 1239.88 124.573C1241.25 124.748 1242.51 125.412 1243.43 126.444C1248.08 130.978 1252.65 135.596 1257.26 140.19C1265.71 148.619 1274.15 157.064 1282.59 165.524C1283.21 166.334 1283.73 167.211 1284.15 168.139V168.139Z" fill="black"/>
<path d="M1828.8 371.004C1826.23 387.414 1820.45 403.156 1811.79 417.33C1803.12 431.503 1791.75 443.83 1778.32 453.606C1764.89 463.381 1749.67 470.413 1733.52 474.3C1717.37 478.187 1700.61 478.852 1684.21 476.257C1615.43 465.373 1568.1 400.572 1578.91 332.088C1589.87 262.329 1654.58 215.503 1724.57 226.589C1792.64 237.374 1839.59 302.406 1828.8 371.004ZM1686.1 464.716C1748.38 474.565 1807.27 431.779 1817.28 369.386C1827.29 306.994 1784.36 248.021 1721.84 238.06C1659.62 228.133 1600.92 270.792 1590.68 333.38C1580.48 395.452 1623.63 454.835 1686.1 464.716Z" fill="black"/>
<path d="M1682.44 382.641L1713.12 361.357L1768.3 323.039C1772.22 320.328 1776.14 320.969 1777.91 324.61C1779.34 327.543 1778.39 330.368 1775.06 332.663C1766.06 338.945 1757.04 345.218 1748.02 351.482L1686.99 393.86C1681.77 397.484 1679.33 397.1 1675.61 392.011C1663.79 375.751 1651.96 359.49 1640.13 343.23C1639.21 342.053 1638.53 340.709 1638.13 339.273C1637.89 338.007 1638.09 336.698 1638.7 335.563C1639.31 334.428 1640.29 333.536 1641.48 333.036C1642.73 332.454 1644.15 332.345 1645.47 332.73C1646.8 333.114 1647.94 333.967 1648.69 335.128C1652.58 340.33 1656.38 345.602 1660.21 350.856C1667.26 360.495 1674.29 370.148 1681.31 379.816C1681.79 380.712 1682.17 381.66 1682.44 382.641V382.641Z" fill="black"/>
<path d="M2320.45 126.268C2321.41 142.851 2319.09 159.461 2313.63 175.148C2308.17 190.834 2299.66 205.29 2288.61 217.689C2277.56 230.088 2264.17 240.185 2249.21 247.405C2234.25 254.625 2218.01 258.824 2201.43 259.764C2131.91 263.697 2071.92 210.394 2067.98 141.173C2063.92 70.6745 2117.24 11.2037 2187.98 7.21217C2256.8 3.33174 2316.45 56.9426 2320.45 126.268ZM2200.84 248.083C2263.78 244.517 2312.27 190.227 2308.84 127.129C2305.41 64.0308 2250.96 15.4908 2187.75 19.0005C2124.83 22.4809 2076.5 76.6058 2079.76 139.942C2082.94 202.766 2137.69 251.661 2200.84 248.083Z" fill="black"/>
<path d="M2179.87 168.646L2205.35 141.346L2251.15 92.209C2254.41 88.729 2258.38 88.5246 2260.88 91.7086C2262.9 94.2715 2262.57 97.2344 2259.81 100.181C2252.33 108.229 2244.85 116.27 2237.36 124.303L2186.7 178.646C2182.36 183.293 2179.9 183.436 2175.18 179.249C2160.18 165.864 2145.17 152.478 2130.17 139.093C2129.02 138.137 2128.08 136.967 2127.38 135.649C2126.87 134.463 2126.8 133.141 2127.15 131.903C2127.51 130.665 2128.27 129.585 2129.33 128.845C2130.43 128.011 2131.79 127.604 2133.17 127.699C2134.55 127.794 2135.84 128.385 2136.82 129.362C2141.73 133.621 2146.55 137.969 2151.42 142.291C2160.34 150.219 2169.26 158.164 2178.17 166.125C2178.83 166.899 2179.4 167.744 2179.87 168.646V168.646Z" fill="black"/>
<path d="M2653.09 402.252C2651.04 418.736 2645.76 434.654 2637.56 449.097C2629.35 463.54 2618.38 476.224 2605.27 486.423C2592.16 496.622 2577.17 504.137 2561.15 508.537C2545.13 512.937 2528.4 514.137 2511.92 512.067C2442.83 503.385 2393.45 440.128 2402.08 371.334C2410.81 301.26 2473.99 252.392 2544.29 261.238C2612.68 269.845 2661.67 333.344 2653.09 402.252ZM2513.45 500.472C2576.01 508.328 2633.5 463.684 2641.52 401.003C2649.53 338.323 2604.74 280.75 2541.93 272.79C2479.42 264.855 2422.12 309.366 2413.88 372.249C2405.67 434.615 2450.69 492.591 2513.45 500.472Z" fill="black"/>
<path d="M2507.17 418.555L2537.16 396.302L2591.08 356.242C2594.91 353.408 2598.85 353.922 2600.74 357.506C2602.26 360.392 2601.4 363.246 2598.15 365.645C2589.35 372.212 2580.54 378.77 2571.72 385.318L2512.08 429.623C2506.98 433.411 2504.53 433.106 2500.65 428.138C2488.31 412.263 2475.96 396.389 2463.62 380.514C2462.67 379.367 2461.95 378.046 2461.5 376.623C2461.22 375.366 2461.38 374.051 2461.95 372.897C2462.52 371.744 2463.47 370.821 2464.64 370.282C2465.88 369.661 2467.29 369.507 2468.63 369.849C2469.97 370.191 2471.14 371.007 2471.92 372.144C2475.98 377.219 2479.94 382.367 2483.94 387.495C2491.29 396.904 2498.62 406.328 2505.95 415.767C2506.46 416.647 2506.87 417.583 2507.17 418.555V418.555Z" fill="black"/>
<path d="M3081.86 243.33C3084.86 256.725 3085.19 270.58 3082.83 284.102C3080.47 297.624 3075.47 310.548 3068.11 322.136C3060.75 333.723 3051.18 343.746 3039.95 351.632C3028.71 359.518 3016.03 365.111 3002.63 368.093C2946.47 380.586 2890.43 345.13 2877.97 289.207C2865.24 232.258 2900.78 176.638 2957.94 163.934C3013.54 151.578 3069.35 187.329 3081.86 243.33ZM3000.59 358.646C3051.45 347.33 3083.74 296.58 3072.52 245.582C3061.29 194.585 3010.4 162.273 2959.32 173.579C2908.48 184.821 2876.3 235.414 2887.41 286.63C2898.4 337.437 2949.57 369.998 3000.59 358.646Z" fill="black"/>
<path d="M2972.89 296.666L2990.02 271L3020.81 224.811C3023 221.537 3026.21 220.841 3028.67 223.103C3030.66 224.923 3030.79 227.384 3028.93 230.156C3023.91 237.718 3018.88 245.274 3013.84 252.826L2979.79 303.909C2976.88 308.278 2974.88 308.723 2970.48 305.938C2956.46 297.027 2942.43 288.115 2928.41 279.204C2927.35 278.577 2926.42 277.75 2925.67 276.769C2925.1 275.868 2924.86 274.801 2924.99 273.743C2925.11 272.686 2925.59 271.704 2926.35 270.959C2927.14 270.132 2928.2 269.618 2929.33 269.511C2930.47 269.405 2931.61 269.714 2932.53 270.38C2937.1 273.198 2941.62 276.099 2946.16 278.974C2954.5 284.247 2962.83 289.535 2971.16 294.838C2971.8 295.38 2972.38 295.993 2972.89 296.666V296.666Z" fill="black"/>
<defs>
<linearGradient id="paint0_linear_322_220" x1="1530.31" y1="1871.79" x2="1530.31" y2="1225.84" gradientUnits="userSpaceOnUse">
<stop stop-color="white"/>
<stop offset="0.244202" stop-color="#EAB193"/>
<stop offset="0.505208" stop-color="#FF8140"/>
<stop offset="0.63" stop-color="#FF8140"/>
<stop offset="0.78" stop-color="#FF8140"/>
<stop offset="0.91" stop-color="#FF8140"/>
<stop offset="1" stop-color="#FF8140"/>
</linearGradient>
<clipPath id="clip0_322_220">
<rect width="1411.82" height="648.632" fill="white" transform="translate(824.413 1038.41)"/>
</clipPath>
<clipPath id="clip1_322_220">
<rect width="58.8794" height="58.8794" fill="white" transform="translate(524.958 2201.7)"/>
</clipPath>
<clipPath id="clip2_322_220">
<rect width="357.045" height="357.045" fill="white" transform="translate(2621.54 989.313)"/>
</clipPath>
</defs>
</svg>
