<svg width="176" height="53" viewBox="0 0 176 53" fill="none" xmlns="http://www.w3.org/2000/svg">
<path d="M76.8051 13.3164C78.4797 13.3164 79.9938 13.7038 81.3347 14.4767C82.6762 15.2515 83.738 16.3116 84.5147 17.6609C85.2967 19.007 85.6837 20.5409 85.6837 22.2613C85.6837 23.9542 85.2967 25.4862 84.5147 26.8636C83.738 28.2392 82.6762 29.3287 81.3347 30.131C79.9931 30.934 78.4797 31.3358 76.8051 31.3358H67.5107L67.8324 30.8195V41.6568C67.8324 42.145 67.6632 42.5599 67.3268 42.9041C66.9911 43.2489 66.5675 43.4217 66.0446 43.4217C65.497 43.4217 65.062 43.2489 64.743 42.9041C64.4212 42.5605 64.2627 42.145 64.2627 41.6568V15.0355C64.2627 14.5487 64.4346 14.14 64.7883 13.8102C65.138 13.481 65.5729 13.3164 66.0899 13.3164H76.8051ZM76.8051 28.0245C77.8102 28.0245 78.6942 27.7673 79.4595 27.2498C80.2222 26.7334 80.8291 26.0319 81.2894 25.1432C81.7496 24.2558 81.9755 23.2939 81.9755 22.2619C81.9755 21.173 81.7496 20.2124 81.2894 19.3806C80.8291 18.5489 80.2216 17.883 79.4595 17.3818C78.6942 16.8786 77.8102 16.6295 76.8051 16.6295H67.5107L67.8324 16.1558V28.4551L67.5107 28.0251H76.8051V28.0245Z" fill="white"/>
<path d="M108.736 21.4219C109.291 21.4219 109.737 21.5877 110.073 21.9169C110.411 22.2474 110.579 22.6561 110.579 23.1424V34.8838C110.579 37.7797 109.715 40.0234 107.976 41.6144C106.238 43.2078 103.821 44.0008 100.716 44.0008C97.6413 44.0008 95.2376 43.2072 93.5028 41.6144C91.7619 40.0234 90.8945 37.7803 90.8945 34.8838V23.1424C90.8945 22.6555 91.071 22.2468 91.4258 21.9169C91.7787 21.5877 92.2168 21.4219 92.7401 21.4219C93.2915 21.4219 93.7383 21.5877 94.0771 21.9169C94.4125 22.2474 94.5829 22.6561 94.5829 23.1424V34.8838C94.5829 36.834 95.1202 38.311 96.1983 39.3137C97.2737 40.3176 98.7804 40.8195 100.715 40.8195C102.714 40.8195 104.242 40.3182 105.302 39.3137C106.36 38.3104 106.892 36.834 106.892 34.8838V23.1424C106.892 22.6555 107.069 22.2468 107.421 21.9169C107.775 21.5871 108.215 21.4219 108.736 21.4219Z" fill="white"/>
<path d="M121 41.6545C121 42.1429 120.826 42.558 120.48 42.9024C120.132 43.2474 119.713 43.4202 119.221 43.4202C118.725 43.4202 118.322 43.2474 118.004 42.9024C117.684 42.5587 117.526 42.1429 117.526 41.6545V13.3C117.526 12.8116 117.69 12.404 118.025 12.0734C118.357 11.7447 118.77 11.5781 119.263 11.5781C119.783 11.5781 120.201 11.7441 120.523 12.0734C120.842 12.404 121 12.8116 121 13.3V41.6545Z" fill="white"/>
<path d="M140.181 20.8418C142.25 20.8418 144.109 21.3313 145.756 22.3077C147.403 23.2853 148.703 24.637 149.667 26.362C150.626 28.087 151.105 30.0706 151.105 32.3133C151.105 34.5253 150.626 36.5019 149.667 38.242C148.703 39.9821 147.411 41.3469 145.778 42.3378C144.146 43.3305 142.313 43.825 140.271 43.825C139.143 43.825 138.083 43.6599 137.093 43.3299C136.107 42.9998 135.207 42.5693 134.398 42.0366C133.591 41.5044 132.912 40.9008 132.361 40.2249C131.814 39.5491 131.419 38.8814 131.177 38.2188L132.184 37.6151V50.3373C132.184 50.8255 132.012 51.2434 131.679 51.5879C131.343 51.9336 130.9 52.105 130.354 52.105C129.835 52.105 129.4 51.938 129.051 51.6086C128.701 51.2779 128.526 50.8543 128.526 50.3373V22.7827C128.526 22.2932 128.701 21.8847 129.051 21.554C129.4 21.224 129.835 21.0577 130.354 21.0577C130.9 21.0577 131.343 21.224 131.679 21.554C132.012 21.8853 132.184 22.2939 132.184 22.7827V26.6205L131.496 26.276C131.707 25.5563 132.083 24.8673 132.616 24.2046C133.149 23.5451 133.806 22.9622 134.581 22.4583C135.359 21.9569 136.225 21.5616 137.187 21.2729C138.145 20.9868 139.143 20.8418 140.181 20.8418ZM139.767 24.0333C138.247 24.0333 136.896 24.3941 135.723 25.112C134.553 25.8305 133.636 26.8082 132.979 28.0437C132.325 29.2793 131.997 30.7031 131.997 32.3139C131.997 33.894 132.324 35.3178 132.979 36.5822C133.636 37.8473 134.553 38.8381 135.723 39.5579C136.896 40.2764 138.247 40.6353 139.767 40.6353C141.292 40.6353 142.635 40.2764 143.791 39.5579C144.949 38.8381 145.863 37.8473 146.534 36.5822C147.203 35.3172 147.541 33.894 147.541 32.3139C147.541 30.7031 147.203 29.2799 146.534 28.0437C145.863 26.8082 144.949 25.8305 143.791 25.112C142.635 24.3935 141.292 24.0333 139.767 24.0333Z" fill="white"/>
<path d="M174.157 20.8418C174.677 20.8418 175.115 21.0081 175.468 21.3381C175.823 21.6695 176 22.078 176 22.5674V41.3679C176 43.7837 175.49 45.7879 174.478 47.383C173.462 48.9794 172.103 50.1647 170.4 50.9409C168.694 51.7178 166.766 52.105 164.614 52.105C163.416 52.105 162.261 51.9882 161.159 51.7605C160.05 51.5302 159.145 51.2271 158.437 50.8544C157.854 50.5946 157.445 50.2733 157.218 49.8849C156.987 49.4964 156.948 49.0854 157.101 48.6562C157.314 48.1373 157.633 47.7784 158.045 47.5776C158.46 47.3768 158.9 47.3768 159.361 47.5776C159.85 47.7784 160.564 48.0589 161.505 48.4178C162.438 48.7773 163.493 48.9581 164.662 48.9581C166.257 48.9581 167.624 48.6694 168.762 48.0952C169.899 47.5205 170.775 46.6784 171.389 45.5721C172.004 44.4664 172.311 43.0928 172.311 41.4551V38.3929L172.865 39.4716C172.373 40.3626 171.713 41.1394 170.883 41.8002C170.053 42.4616 169.1 42.9774 168.025 43.3514C166.948 43.7241 165.767 43.913 164.476 43.913C162.722 43.913 161.243 43.5603 160.029 42.8556C158.812 42.1516 157.891 41.1746 157.265 39.924C156.631 38.6734 156.315 37.2289 156.315 35.5905V22.5674C156.315 22.078 156.492 21.6695 156.847 21.3381C157.199 21.0087 157.641 20.8418 158.161 20.8418C158.713 20.8418 159.159 21.0081 159.497 21.3381C159.835 21.6695 160.006 22.078 160.006 22.5674V34.8143C160.006 36.7683 160.467 38.2417 161.389 39.2344C162.31 40.2252 163.738 40.7215 165.674 40.7215C166.903 40.7215 168.017 40.4624 169.018 39.9447C170.013 39.427 170.812 38.716 171.412 37.8112C172.012 36.9051 172.311 35.9061 172.311 34.8143V22.5674C172.311 22.078 172.481 21.6695 172.817 21.3381C173.156 21.0081 173.602 20.8418 174.157 20.8418Z" fill="white"/>
<path d="M32.1211 10.2086C32.1211 4.57057 36.6921 0 42.3305 0C47.969 0 52.54 4.57057 52.54 10.2086C52.54 15.8467 47.969 20.4172 42.3305 20.4172C36.6921 20.4172 32.1211 15.8467 32.1211 10.2086Z" fill="#FF8140"/>
<path d="M43.1575 24.9408V32.2869C43.1575 35.5418 43.1552 37.8444 43.0061 39.6434C42.8592 41.4146 42.5807 42.4938 42.1405 43.34C41.2841 44.9887 39.9398 46.3334 38.2904 47.1898C37.4442 47.6299 36.3648 47.9084 34.5935 48.0553C32.7943 48.2044 30.4915 48.2067 27.2368 48.2067H20.4581C17.2031 48.2067 14.9005 48.2044 13.1016 48.0553C11.3299 47.9084 10.2509 47.6299 9.40438 47.1898C7.75532 46.3334 6.41074 44.9887 5.55411 43.34C5.11437 42.4938 4.83593 41.4146 4.68875 39.6434C4.53941 37.8444 4.53753 35.5418 4.53753 32.2869V25.5092C4.53753 22.2544 4.53941 19.952 4.68875 18.1532C4.83593 16.3816 5.11437 15.3028 5.55411 14.4563C6.41074 12.8074 7.75532 11.4629 9.40438 10.6063C10.2509 10.1666 11.3299 9.88822 13.1016 9.7411C14.9005 9.59172 17.203 9.5899 20.4581 9.5899H27.8051C27.8707 7.99957 28.1882 6.47423 28.7185 5.05274H20.3572C17.2258 5.05268 14.7348 5.05268 12.7261 5.21948C10.6687 5.3903 8.91484 5.74783 7.31269 6.58C4.83486 7.86703 2.81458 9.8872 1.52745 12.3648C0.695207 13.9668 0.33765 15.7205 0.166812 17.7777C9.8041e-07 19.7863 0 22.2771 0 25.4082V32.3879C0 35.5191 9.8041e-07 38.01 0.166812 40.0188C0.33765 42.0759 0.695207 43.8295 1.52745 45.4317C2.81458 47.909 4.83486 49.9291 7.31269 51.2165C8.91484 52.0486 10.6687 52.4058 12.7261 52.5771C14.7348 52.7439 17.2257 52.7439 20.3571 52.7439H27.3376C30.4689 52.7439 32.96 52.7439 34.969 52.5771C37.0262 52.4058 38.7799 52.0486 40.3822 51.2165C42.8597 49.9291 44.8801 47.909 46.1676 45.4317C46.9997 43.8295 47.357 42.0759 47.5283 40.0188C47.695 38.01 47.695 35.5191 47.695 32.3885V24.0273C46.2731 24.5578 44.7479 24.8752 43.1575 24.9408Z" fill="#FF8140"/>
<path d="M33.9222 25.2002C33.9222 26.3488 33.6457 27.4256 33.0927 28.4306C32.5602 29.4357 31.7102 30.2458 30.5428 30.8612C29.3959 31.4765 27.9418 31.7842 26.1805 31.7842H22.5861V40.0295H18.2852V18.5547H26.1805C27.8394 18.5547 29.2526 18.8418 30.42 19.4161C31.5874 19.9904 32.4578 20.7801 33.0313 21.7851C33.6252 22.7902 33.9222 23.9285 33.9222 25.2002ZM25.9961 28.3076C27.184 28.3076 28.0647 28.0409 28.6381 27.5077C29.2116 26.9539 29.4983 26.1847 29.4983 25.2002C29.4983 23.1081 28.3309 22.062 25.9961 22.062H22.5861V28.3076H25.9961Z" fill="white"/>
</svg>
