<svg width="124" height="124" viewBox="0 0 124 124" fill="none" xmlns="http://www.w3.org/2000/svg">
<path d="M62.2584 63.0332L39.0601 113.666" stroke="#FF8140" stroke-width="6" stroke-linecap="round" stroke-linejoin="round"/>
<path d="M62 63.0332L84.94 113.666" stroke="#FF8140" stroke-width="6" stroke-linecap="round" stroke-linejoin="round"/>
<path d="M77.6549 55.6451L106.898 36.0636C109.843 34.1003 110.618 30.0702 108.655 27.1769L99.2516 13.1751C97.2882 10.2301 93.2582 9.45515 90.3649 11.4185L61.1216 31.0002L77.6549 55.6451Z" stroke="#292D32" stroke-width="6" stroke-linecap="round" stroke-linejoin="round"/>
<path d="M62.898 33.4761L38.2134 50.0088L51.4395 69.7565L76.1242 53.2239L62.898 33.4761Z" stroke="#292D32" stroke-width="6" stroke-linecap="round" stroke-linejoin="round"/>
<path d="M30.1216 82.15L50.53 68.5101L38.9566 51.2534L18.5483 64.8933C16.1716 66.495 15.5516 69.6984 17.1533 72.0751L22.9916 80.755C24.5416 83.08 27.745 83.7 30.1216 82.15Z" stroke="#292D32" stroke-width="6" stroke-linecap="round" stroke-linejoin="round"/>
</svg>
