<svg width="124" height="124" viewBox="0 0 124 124" fill="none" xmlns="http://www.w3.org/2000/svg">
<path d="M93 97.4433H89.0733C84.9399 97.4433 81.0133 99.0449 78.12 101.938L69.2849 110.67C65.2549 114.648 58.6934 114.648 54.6634 110.67L45.8283 101.938C42.935 99.0449 38.9567 97.4433 34.875 97.4433H31C22.4233 97.4433 15.5 90.5716 15.5 82.0983V25.6783C15.5 17.2049 22.4233 10.3333 31 10.3333H93C101.577 10.3333 108.5 17.2049 108.5 25.6783V82.0466C108.5 90.5199 101.577 97.4433 93 97.4433Z" stroke="#292D32" stroke-width="6" stroke-miterlimit="10" stroke-linecap="round" stroke-linejoin="round"/>
<path d="M62.3615 46.2416C62.1549 46.2416 61.8447 46.2416 61.5864 46.2416C56.1614 46.0349 51.873 41.6432 51.873 36.1666C51.873 30.5866 56.3681 26.0916 61.9481 26.0916C67.5281 26.0916 72.0232 30.6382 72.0232 36.1666C72.0748 41.6432 67.7865 46.0866 62.3615 46.2416Z" stroke="#FF8140" stroke-width="6" stroke-linecap="round" stroke-linejoin="round"/>
<path d="M47.7914 61.7935C40.9198 66.3918 40.9198 73.8835 47.7914 78.4818C55.5931 83.7001 68.4064 83.7001 76.2081 78.4818C83.0798 73.8835 83.0798 66.3918 76.2081 61.7935C68.4064 56.6268 55.6448 56.6268 47.7914 61.7935Z" stroke="#FF8140" stroke-width="6" stroke-linecap="round" stroke-linejoin="round"/>
</svg>
