<svg xmlns="http://www.w3.org/2000/svg" width="1435" height="1575" viewBox="0 0 1435 1575" fill="none"><g clip-path="url(#clip0_84_31)"><path d="M1216.11 811.79L1211.26 813.17L1199.44 816.66C1194.11 798.6 1185.23 781.783 1173.33 767.19L1186.88 756.19C1173.78 740.041 1157.62 726.635 1139.33 716.74L1130.99 732.06C1114.46 723.043 1096.3 717.41 1077.57 715.49L1079.35 698.17C1067.37 696.945 1055.3 697.076 1043.35 698.56C1034.72 699.618 1026.2 701.391 1017.86 703.86L1022.78 720.59C1004.71 725.906 987.889 734.78 973.3 746.69L962.3 733.14C946.151 746.238 932.745 762.393 922.85 780.68L938.18 789.03C929.159 805.555 923.522 823.712 921.6 842.44L904.28 840.67C902.133 861.342 904.066 882.233 909.97 902.16H910.11L921.11 898.92L926.69 897.28C932.017 915.34 940.89 932.157 952.79 946.75L939.24 957.75C952.328 973.871 968.453 987.267 986.7 997.18L995.04 981.86C1011.61 990.861 1029.79 996.499 1048.54 998.45L1046.77 1015.76C1050.15 1016.1 1053.54 1016.34 1056.93 1016.47C1074.25 1017.17 1091.57 1015.03 1108.2 1010.12L1107.13 1006.39L1103.29 993.39C1121.37 988.047 1138.21 979.157 1152.82 967.24L1163.82 980.78C1179.95 967.7 1193.34 951.557 1203.21 933.28L1187.85 924.96C1196.88 908.418 1202.53 890.245 1204.47 871.5L1221.79 873.27C1223.92 852.602 1221.99 831.718 1216.11 811.79ZM1032.11 882.15C1028.8 878.091 1026.33 873.419 1024.83 868.403C1023.32 863.387 1022.83 858.125 1023.36 852.916C1023.89 847.707 1025.45 842.654 1027.93 838.046C1030.42 833.438 1033.79 829.365 1037.85 826.06C1043.34 821.572 1049.93 818.637 1056.94 817.56C1063.81 816.496 1070.84 817.25 1077.34 819.746C1083.83 822.243 1089.55 826.395 1093.94 831.79C1100.3 839.572 1103.47 849.472 1102.83 859.5C1102.49 864.993 1101.01 870.354 1098.48 875.246C1095.96 880.138 1092.45 884.453 1088.18 887.92C1079.98 894.587 1069.46 897.724 1058.95 896.642C1048.44 895.56 1038.78 890.347 1032.11 882.15Z" fill="#FF8140"></path><path d="M136.121 502.26C141.467 508.85 148.055 514.327 155.511 518.38L158.92 512.12C165.69 515.796 173.119 518.096 180.781 518.89L180.05 525.97C188.488 526.845 197.015 526.06 205.151 523.66L204.72 522.14L203.151 516.83C210.538 514.649 217.416 511.014 223.381 506.14L227.891 511.68C234.48 506.333 239.948 499.736 243.981 492.27L237.72 488.86C241.411 482.102 243.722 474.678 244.521 467.02L251.59 467.75C252.458 459.302 251.67 450.766 249.271 442.62L247.271 443.19L242.43 444.61C240.256 437.232 236.632 430.361 231.771 424.4L237.3 419.89C231.951 413.294 225.351 407.819 217.881 403.78L214.47 410.04C207.717 406.351 200.296 404.046 192.641 403.26L193.371 396.19C184.926 395.322 176.393 396.11 168.251 398.51L170.251 405.35C162.871 407.521 155.999 411.145 150.04 416.01L145.531 410.48C138.935 415.83 133.46 422.429 129.42 429.9L135.68 433.31C131.991 440.063 129.686 447.485 128.901 455.14L121.83 454.41C120.952 462.854 121.74 471.389 124.151 479.53H124.21L128.71 478.2L130.991 477.53C133.163 484.912 136.787 491.786 141.651 497.75L136.121 502.26ZM164.531 479.15C162.158 476.236 160.382 472.884 159.305 469.284C158.228 465.684 157.872 461.907 158.255 458.169C158.639 454.431 159.755 450.805 161.54 447.499C163.326 444.193 165.745 441.271 168.661 438.9C171.574 436.525 174.926 434.747 178.527 433.669C182.127 432.59 185.905 432.232 189.644 432.615C193.384 432.998 197.011 434.113 200.318 435.899C203.626 437.684 206.549 440.104 208.92 443.02C211.296 445.935 213.073 449.289 214.151 452.891C215.229 456.494 215.586 460.273 215.201 464.013C214.817 467.754 213.698 471.382 211.91 474.689C210.122 477.997 207.699 480.92 204.781 483.29C201.867 485.664 198.514 487.44 194.913 488.516C191.313 489.593 187.535 489.949 183.797 489.565C180.059 489.18 176.433 488.062 173.127 486.275C169.821 484.488 166.9 482.067 164.531 479.15V479.15Z" stroke="#FF8140" stroke-width="2.41" stroke-miterlimit="10"></path><path d="M440.29 221.52C442.047 228.239 445.104 234.548 449.29 240.09L453.95 236.58C457.715 241.617 462.439 245.858 467.85 249.06L464.91 254.06C470.893 257.57 477.503 259.88 484.37 260.86L484.56 259.57L485.2 255.09C491.437 255.975 497.788 255.604 503.88 254L505.36 259.65C512.08 257.904 518.388 254.845 523.92 250.65L520.42 245.99C525.465 242.197 529.704 237.438 532.89 231.99L537.89 234.93C541.396 228.935 543.702 222.316 544.68 215.44L543.02 215.19L538.93 214.61C539.822 208.381 539.458 202.036 537.86 195.95L543.5 194.47C541.75 187.743 538.692 181.426 534.5 175.88L529.83 179.39C526.063 174.404 521.346 170.213 515.95 167.06L518.89 162.06C512.898 158.547 506.278 156.237 499.4 155.26L498.58 161.03C492.35 160.147 486.007 160.514 479.92 162.11L478.44 156.46C471.715 158.207 465.4 161.265 459.86 165.46L463.36 170.12C458.32 173.911 454.087 178.671 450.91 184.12L445.91 181.18C442.389 187.165 440.079 193.784 439.11 200.66L442.91 201.2L444.83 201.48C443.952 207.71 444.319 214.053 445.91 220.14L440.29 221.52Z" fill="#FF8140"></path><path d="M469.54 191.28C469.54 193.28 469.61 197.84 469.73 208.47C469.94 228.07 488.98 237.47 491.81 238.79C494.71 237.3 513.39 227.6 513.17 208C513.06 198.15 513.01 193.47 512.99 191.28L491.31 182.41L469.54 191.28Z" fill="white"></path><path d="M482.48 205.54L482.57 218.4C482.57 219.84 500.151 219.72 500.141 218.29L500.05 205.42L482.48 205.54ZM489.13 210.35C489.129 210.066 489.184 209.785 489.291 209.523C489.398 209.26 489.556 209.021 489.756 208.82C489.956 208.618 490.193 208.458 490.455 208.348C490.716 208.238 490.997 208.181 491.281 208.18C491.854 208.175 492.407 208.397 492.817 208.798C493.228 209.199 493.463 209.746 493.47 210.32C493.474 210.74 493.356 211.153 493.131 211.508C492.906 211.862 492.582 212.145 492.2 212.32V215.97C492.198 216.206 492.104 216.432 491.938 216.6C491.772 216.768 491.547 216.865 491.31 216.87C491.194 216.87 491.078 216.847 490.97 216.802C490.862 216.757 490.764 216.692 490.681 216.609C490.599 216.527 490.533 216.428 490.488 216.32C490.443 216.213 490.42 216.097 490.42 215.98V212.34C490.035 212.17 489.707 211.891 489.478 211.538C489.249 211.184 489.128 210.771 489.13 210.35Z" fill="#FF8140"></path><path d="M484.01 204.61H485.79V203.74C485.784 202.294 486.353 200.904 487.371 199.877C488.389 198.849 489.773 198.268 491.22 198.26C492.665 198.252 494.055 198.817 495.086 199.83C496.117 200.844 496.704 202.224 496.72 203.67V204.54H498.5V203.68C498.492 202.731 498.297 201.792 497.927 200.918C497.556 200.044 497.017 199.251 496.34 198.585C495.663 197.919 494.861 197.393 493.981 197.037C493.101 196.681 492.159 196.502 491.21 196.51C489.293 196.521 487.459 197.291 486.109 198.652C484.759 200.013 484.004 201.853 484.01 203.77V204.61Z" fill="#FF8140"></path><path d="M461.85 245.06C462.383 241.36 462.663 237.628 462.69 233.89C462.691 223.034 460.554 212.284 456.401 202.254C452.247 192.224 446.158 183.111 438.483 175.434C430.807 167.757 421.694 161.668 411.665 157.513C401.635 153.358 390.886 151.22 380.03 151.22C363.777 151.214 347.883 155.998 334.333 164.974C320.784 173.951 310.181 186.721 303.85 201.69C293.302 192.261 279.648 187.052 265.5 187.06C257.913 187.059 250.4 188.552 243.391 191.455C236.381 194.358 230.012 198.613 224.647 203.978C219.283 209.342 215.027 215.711 212.125 222.721C209.222 229.73 207.728 237.243 207.73 244.83H196.95C182.172 244.872 168.011 250.762 157.561 261.211C147.111 271.661 141.222 285.822 141.18 300.6C141.222 315.379 147.111 329.541 157.56 339.992C168.01 350.444 182.171 356.335 196.95 356.38H457.75C472.529 356.335 486.69 350.444 497.139 339.992C507.589 329.541 513.478 315.379 513.52 300.6C513.467 286.542 508.121 273.019 498.545 262.727C488.969 252.434 475.868 246.126 461.85 245.06Z" fill="#F99D6E"></path><path d="M308.11 332.97H425.16V227.08H308.11V332.97Z" fill="#FF8140"></path><path d="M430.11 227.08H303.14V259.04H430.11V227.08Z" fill="white"></path><path d="M412.18 252.16H424.73V235.23H412.18V252.16Z" fill="#FF8140"></path><path d="M393.34 252.16H405.89V235.23H393.34V252.16Z" fill="#FF8140"></path><path d="M374.52 252.16H387.07V235.23H374.52V252.16Z" fill="#FF8140"></path><path d="M430.11 265.03H303.14V296.99H430.11V265.03Z" fill="white"></path><path d="M412.18 290.12H424.73V273.19H412.18V290.12Z" fill="#FF8140"></path><path d="M393.34 290.12H405.89V273.19H393.34V290.12Z" fill="#FF8140"></path><path d="M374.52 290.12H387.07V273.19H374.52V290.12Z" fill="#FF8140"></path><path d="M430.11 302.99H303.14V334.95H430.11V302.99Z" fill="white"></path><path d="M412.18 328.07H424.73V311.14H412.18V328.07Z" fill="#FF8140"></path><path d="M393.34 328.07H405.89V311.14H393.34V328.07Z" fill="#FF8140"></path><path d="M374.52 328.07H387.07V311.14H374.52V328.07Z" fill="#FF8140"></path><path d="M277.3 265.93H257.75V303.23H277.3V265.93Z" fill="#FF8140"></path><path d="M267.66 316.45L250.36 295.91H284.69L267.66 316.45Z" fill="#FF8140"></path><path d="M227.06 316.69H246.61V279.39H227.06V316.69Z" fill="#FF8140"></path><path d="M236.69 266.17L254 286.7H219.67L236.69 266.17Z" fill="#FF8140"></path><path d="M692.11 265.91C692.269 264.837 692.353 263.754 692.36 262.67C692.36 256.305 689.831 250.2 685.33 245.699C680.83 241.199 674.725 238.67 668.36 238.67C663.649 238.674 659.043 240.064 655.117 242.667C651.19 245.271 648.117 248.972 646.28 253.31C643.221 250.575 639.263 249.063 635.16 249.06C632.961 249.06 630.783 249.493 628.751 250.335C626.72 251.177 624.874 252.411 623.319 253.966C621.765 255.522 620.532 257.369 619.691 259.401C618.851 261.433 618.418 263.611 618.42 265.81H615.29C611.007 265.82 606.903 267.526 603.875 270.555C600.846 273.583 599.14 277.687 599.13 281.97C599.14 286.254 600.846 290.359 603.874 293.389C606.902 296.419 611.006 298.127 615.29 298.14H690.88C695.164 298.127 699.27 296.419 702.299 293.389C705.329 290.36 707.037 286.254 707.05 281.97C707.025 277.908 705.475 274.003 702.709 271.029C699.942 268.055 696.159 266.228 692.11 265.91Z" fill="#FF8140"></path><path d="M1042.85 859.53L1028.92 857.99L994.77 854.51C1000.09 802.395 994.953 749.741 979.65 699.64L1026.14 685.51C1009.42 630.131 981.931 578.601 945.24 533.88L907.64 564.55C874.577 523.918 833.749 490.283 787.54 465.61L810.35 422.9C759.363 395.662 703.549 378.641 646.04 372.79L641.04 421.05C611.36 418.002 581.429 418.358 551.83 422.11C529.586 424.941 507.621 429.648 486.17 436.18L472.04 389.69C462.366 392.617 452.86 395.857 443.52 399.41C398.879 416.256 357.296 440.293 320.42 470.57L351.08 508.19C311.718 540.204 278.916 579.525 254.48 623.99C253.686 625.41 252.906 626.837 252.14 628.27L244.14 623.99L209.46 605.47C206.193 611.57 203.066 617.743 200.08 623.99C178.213 669.88 164.434 719.201 159.35 769.78L159.76 769.85L191.52 773.09L207.6 774.74C206.64 784.12 206.02 793.563 205.74 803.07C205.13 823.786 206.164 844.517 208.83 865.07C211.668 886.925 216.317 908.506 222.73 929.59L188.5 939.99L176.23 943.71C179.87 955.67 183.96 967.357 188.5 978.77C195.471 996.377 203.571 1013.52 212.75 1030.08C225.484 1053.07 240.257 1074.87 256.89 1095.22L294.52 1064.56C327.716 1105.16 368.605 1138.8 414.84 1163.56L392.03 1206.28C442.948 1233.53 498.704 1250.57 556.16 1256.42L557.33 1245.69L561.12 1208.18C613.282 1213.48 665.977 1208.32 716.12 1193L730.24 1239.49C785.564 1222.79 837.041 1195.32 881.71 1158.66L851.04 1121.04C891.719 1087.96 925.409 1047.12 950.15 1000.9L992.86 1023.7C1020.1 972.714 1037.11 916.899 1042.96 859.39L1042.85 859.53ZM801.27 892.91C789.462 923.157 770.937 950.327 747.093 972.367C723.25 994.407 694.71 1010.74 663.63 1020.14C550.22 1054.6 430.36 990.6 395.85 877.02C391.38 862.343 388.494 847.231 387.24 831.94C379.17 733.43 440.38 639.19 538.8 609.29C565.975 600.996 594.528 598.181 622.8 601.01C658.023 604.577 691.822 616.781 721.2 636.54C762.214 664.042 792.432 704.907 806.71 752.18C820.821 798.363 818.894 847.962 801.24 892.91H801.27ZM1042.85 859.53L1028.92 857.99L994.77 854.51C1000.09 802.395 994.953 749.741 979.65 699.64L1026.14 685.51C1009.42 630.131 981.931 578.601 945.24 533.88L907.64 564.55C874.577 523.918 833.749 490.283 787.54 465.61L810.35 422.9C759.363 395.662 703.549 378.641 646.04 372.79L641.04 421.05C611.36 418.002 581.429 418.358 551.83 422.11C529.586 424.941 507.621 429.648 486.17 436.18L472.04 389.69C462.366 392.617 452.86 395.857 443.52 399.41C398.879 416.256 357.296 440.293 320.42 470.57L351.08 508.19C311.718 540.204 278.916 579.525 254.48 623.99C253.686 625.41 252.906 626.837 252.14 628.27L244.14 623.99L209.46 605.47C206.193 611.57 203.066 617.743 200.08 623.99C178.213 669.88 164.434 719.201 159.35 769.78L159.76 769.85L191.52 773.09L207.6 774.74C206.64 784.12 206.02 793.563 205.74 803.07C205.13 823.786 206.164 844.517 208.83 865.07C211.668 886.925 216.317 908.506 222.73 929.59L188.5 939.99L176.23 943.71C179.87 955.67 183.96 967.357 188.5 978.77C195.471 996.377 203.571 1013.52 212.75 1030.08C225.484 1053.07 240.257 1074.87 256.89 1095.22L294.52 1064.56C327.716 1105.16 368.605 1138.8 414.84 1163.56L392.03 1206.28C442.948 1233.53 498.704 1250.57 556.16 1256.42L557.33 1245.69L561.12 1208.18C613.282 1213.48 665.977 1208.32 716.12 1193L730.24 1239.49C785.564 1222.79 837.041 1195.32 881.71 1158.66L851.04 1121.04C891.719 1087.96 925.409 1047.12 950.15 1000.9L992.86 1023.7C1020.1 972.714 1037.11 916.899 1042.96 859.39L1042.85 859.53ZM801.27 892.91C789.462 923.157 770.937 950.327 747.093 972.367C723.25 994.407 694.71 1010.74 663.63 1020.14C550.22 1054.6 430.36 990.6 395.85 877.02C391.38 862.343 388.494 847.231 387.24 831.94C379.17 733.43 440.38 639.19 538.8 609.29C565.975 600.996 594.528 598.181 622.8 601.01C658.023 604.577 691.822 616.781 721.2 636.54C762.214 664.042 792.432 704.907 806.71 752.18C820.821 798.363 818.894 847.962 801.24 892.91H801.27Z" fill="#FFC3A4"></path><path d="M975.38 870.28L977.18 852.7C978.496 840.036 979.164 827.312 979.18 814.58C979.148 777.368 973.618 740.365 962.77 704.77L957.64 687.88L1003.79 673.88C989.477 632.587 968.797 593.785 942.5 558.88L905.07 589.41L893.93 575.64C862.37 536.805 823.362 504.674 779.2 481.14L763.69 472.81L786.3 430.47C746.996 411.452 704.985 398.633 661.76 392.47L656.84 440.39L639.28 438.59C626.615 437.274 613.892 436.606 601.16 436.59C585.446 436.605 569.748 437.607 554.16 439.59H554.1C532.844 442.29 511.856 446.786 491.36 453.03L474.47 458.16L460.47 412.01C456.91 413.25 453.36 414.54 449.85 415.88L446.03 417.34C410.116 431.307 376.295 450.15 345.52 473.34L376.04 510.77L362.27 521.92C327.192 550.37 297.578 584.959 274.87 624C272.43 628.147 270.063 632.36 267.77 636.64L259.44 652.14L217.06 629.52C198.003 668.819 185.183 710.846 179.06 754.09L193.34 755.54L226.99 758.99L225.18 776.55C224.29 785.33 223.69 794.2 223.42 803.08C223.3 806.96 223.24 810.833 223.24 814.7C223.246 830.797 224.285 846.876 226.35 862.84C229.072 883.724 233.514 904.347 239.63 924.5L244.76 941.39L198.62 955.39C200.62 961.09 202.72 966.74 204.92 972.3C211.621 989.203 219.404 1005.66 228.22 1021.56C237.59 1038.48 248.111 1054.73 259.71 1070.2L297.07 1039.75L308.22 1053.43C339.902 1092.29 378.993 1124.47 423.22 1148.09L438.73 1156.42L416.12 1198.79C455.382 1217.8 497.348 1230.61 540.53 1236.79L545.38 1188.87L562.96 1190.67C575.585 1191.96 588.268 1192.61 600.96 1192.61C638.263 1192.59 675.358 1187.04 711.04 1176.16L727.93 1171.03L741.93 1217.18C783.15 1202.88 821.881 1182.22 856.72 1155.95L826.2 1118.51L839.96 1107.38C878.865 1075.82 911.055 1036.79 934.63 992.59L942.96 977.08L985.32 999.69C1004.33 960.378 1017.15 918.361 1023.32 875.13L975.38 870.28ZM817.68 899.35C804.947 932.113 784.915 961.542 759.106 985.404C733.297 1009.27 702.389 1026.93 668.73 1037.06C646.82 1043.74 624.044 1047.14 601.14 1047.15C498.22 1047.15 408.91 980.85 378.93 882.15C374.104 866.27 370.984 849.921 369.62 833.38C369.386 830.64 369.21 827.893 369.09 825.14C368.93 821.593 368.85 818.057 368.85 814.53C368.85 711.61 435.08 622.35 533.64 592.4C555.611 585.708 578.451 582.301 601.42 582.29H603.36C610.36 582.36 617.53 582.74 624.54 583.44C662.646 587.329 699.211 600.534 731.01 621.89C735.096 624.643 739.096 627.517 743.01 630.51C781.324 660.04 809.48 700.78 823.56 747.06C830.257 769.027 833.668 791.864 833.68 814.83C833.689 841.453 829.088 867.877 820.08 892.93C819.32 895.06 818.51 897.21 817.68 899.35Z" stroke="white" stroke-width="1.32" stroke-miterlimit="10"></path><path d="M622.77 601C594.497 598.179 565.946 600.997 538.77 609.29C440.34 639.19 379.14 733.43 387.21 831.93C369.39 826.09 357 820.18 351.98 814.34C313.22 769.28 389.83 580 406.98 555.67C424.13 531.34 487.19 518.67 487.19 518.67C487.19 518.67 487.19 504.25 485.39 476.31C472.77 476.31 459.25 443.87 459.25 443.87L446.63 422.24L443.54 399.37C452.873 395.83 462.38 392.587 472.06 389.64L486.19 436.14C507.64 429.606 529.605 424.903 551.85 422.08L568.3 548.42L622.77 601Z" fill="#EEBBA0"></path><path d="M898.16 871.12C893.16 875.64 849.58 895.74 801.24 892.91C818.884 847.958 820.801 798.36 806.68 752.18C792.396 704.91 762.18 664.047 721.17 636.54L837.78 604.34C837.78 604.34 920.69 603.43 931.51 619.66C942.33 635.89 917.99 853.06 898.16 871.12Z" fill="#EEBBA0"></path><path d="M661.85 548.21L779.11 611.99L838.78 464.49L869.45 472.2C869.45 472.2 849.57 643.55 817.66 674.91C785.75 706.27 622.93 637.18 622.93 637.18C583.02 611.66 619.36 530.75 661.85 548.21Z" fill="#F7AC8D"></path><path d="M836.611 486.06C836.611 486.06 826.611 453.16 828.981 444.67C831.351 436.18 864.261 427.97 865.481 431.95C866.701 435.93 869.141 445.69 847.761 449.45C860.541 463.65 873.851 490.76 836.611 486.06Z" fill="#F7AC8D"></path><path d="M834.79 487.37C834.79 487.37 834.79 458.54 840.49 447.47C848.08 432.72 867.23 424.55 867.23 424.55C867.23 424.55 897.15 452.85 897.71 457.55C898.27 462.25 868.81 487.77 868.81 487.77C868.81 487.77 847.03 504.9 834.79 487.37Z" fill="#F7AC8D"></path><path d="M842.08 450.22C842.08 450.22 856.56 379.64 867.61 382.75C872.7 384.18 859.11 451.61 859.11 451.61L842.08 450.22Z" fill="#F7AC8D"></path><path d="M833.851 476.76C833.925 476.785 834.006 476.785 834.081 476.76C834.18 476.734 834.265 476.67 834.317 476.582C834.369 476.494 834.385 476.389 834.361 476.29C831.901 466.66 827.981 449.75 829.361 444.79C831.201 438.24 852.881 431.42 861.961 431.31C864.671 431.31 865.071 431.89 865.121 432.07C865.931 434.7 866.491 437.8 864.591 440.9C862.221 444.78 856.591 447.53 847.701 449.09L847.021 449.21L847.481 449.72C852.791 455.6 858.951 464.66 860.311 472.42C860.318 472.47 860.335 472.518 860.361 472.56C860.388 472.603 860.423 472.641 860.464 472.67C860.505 472.699 860.552 472.719 860.601 472.729C860.65 472.74 860.701 472.74 860.751 472.73C860.851 472.71 860.94 472.652 860.998 472.568C861.056 472.484 861.078 472.38 861.061 472.28C859.711 464.59 853.781 455.69 848.511 449.72C857.191 448.1 862.821 445.27 865.251 441.31C867.681 437.35 866.371 433.54 865.861 431.85C865.581 430.94 864.301 430.52 861.951 430.54C852.741 430.65 830.611 437.54 828.621 444.54C827.171 449.68 831.121 466.73 833.621 476.44C833.626 476.509 833.65 476.575 833.691 476.632C833.732 476.688 833.787 476.733 833.851 476.76Z" fill="#E29479"></path><path d="M873.85 466.81L874.161 466.92L874.42 467.01L874.59 466.79C879.84 459.99 891.031 458.08 891.141 458.07C891.241 458.05 891.331 457.993 891.391 457.909C891.45 457.825 891.475 457.722 891.46 457.62C891.441 457.522 891.384 457.435 891.302 457.377C891.221 457.319 891.12 457.295 891.021 457.31C890.551 457.38 879.651 459.24 874.151 466.1C867.481 463.49 859.34 446.39 859.26 446.21C859.239 446.164 859.209 446.124 859.172 446.09C859.134 446.056 859.091 446.03 859.043 446.013C858.996 445.997 858.945 445.989 858.895 445.992C858.845 445.995 858.796 446.008 858.75 446.03C858.705 446.051 858.664 446.082 858.63 446.119C858.597 446.156 858.571 446.2 858.554 446.247C858.537 446.295 858.53 446.345 858.533 446.395C858.536 446.445 858.548 446.495 858.57 446.54C858.85 447.26 866.85 464.06 873.85 466.81Z" fill="#E29479"></path><path d="M640.431 540.72C640.431 540.72 664.991 544 723.931 581.66C717.381 607.04 697.741 673.35 697.741 673.35C697.741 673.35 607.681 645.52 595.401 615.22C583.121 584.92 596.221 528.44 640.431 540.72Z" fill="#6B6B6B"></path><path d="M352.77 1573.06H445.85C447.537 1572.19 448.973 1570.9 450.02 1569.32C454.81 1500.1 461.72 1466.77 461.72 1466.77L396.85 1464.06L382.18 1515.56C360.5 1530.42 334.61 1562.26 352.77 1573.06Z" fill="#231F20"></path><path d="M452.9 1574.26H342.55C339.75 1574.26 340.69 1558.91 343.49 1558.91L453.18 1559.53C456.06 1559.53 455.78 1574.26 452.9 1574.26Z" fill="#231F20"></path><path d="M491.36 835.73C458.92 885.61 435.23 1126.65 390.54 1489.58L456.6 1493.06C476.45 1396.39 498.83 1347.38 521.6 1208.06C576.03 1085.06 604.26 968.55 618.74 848.59C632.79 758.13 521.76 710.64 491.36 835.73Z" fill="#393939"></path><path d="M569.48 852.91C574.15 1029.41 605.61 1179.33 605.61 1179.33C612.83 1327.14 622.61 1322.2 636.27 1494.47L695.98 1493.68C700.98 1419.86 740.83 1075.77 709.9 854.92C694.94 755.42 559.94 722.5 569.48 852.91Z" fill="#393939"></path><path d="M636.27 1494.47C630.94 1523 627.12 1545.25 629.36 1571.06L773.97 1573.88C773.97 1573.88 788.28 1559.94 770.28 1539.03C752.28 1518.12 718.11 1530.21 695.98 1493.68L636.27 1494.47Z" fill="#231F20"></path><path d="M780.53 1574.26H626.9C624.1 1574.26 624.83 1558.91 627.63 1558.91L780.63 1559.53C783.5 1559.53 783.41 1574.26 780.53 1574.26Z" fill="#231F20"></path><path d="M705.451 844.56C705.451 875.08 488.691 866.25 488.691 835.73C476.271 569.33 411.891 596.58 428.361 569.73C456.761 523.5 600.201 526.12 651.851 545.99C672.361 553.88 699.851 585.99 708.711 637.28C713.241 663.63 693.831 694.28 690.771 715.62C683.671 764.95 704.011 837.48 705.451 844.56Z" fill="#6B6B6B"></path><path d="M571.441 565.06C540.681 569.68 521.321 545.87 516.721 535.95L518.271 467.45L553.551 464.01C563.675 465.058 573.576 467.669 582.901 471.75L591.251 516.95L593.091 526.75C597.181 536.37 602.211 560.39 571.441 565.06Z" fill="#F7AC8D"></path><path d="M522.301 478.82C528.881 488.95 556.431 514.88 594.371 514.82L586.201 472.63L522.301 478.82Z" fill="#E6836F"></path><path d="M443.23 554.78C467.6 551.87 491.49 669.53 474.75 701.78C474.75 704.16 474.68 706.57 474.61 709C474.43 718.18 474.201 727.65 473.911 737.24C473.771 741.47 473.63 745.74 473.49 750.01C473.17 759.42 472.8 768.88 472.43 778.26C469.43 850.97 464.93 918.8 464.93 918.8H718.781C716.781 868.95 709.48 817.8 704.5 778.26C703.21 767.98 702.08 758.47 701.25 750.01C700.79 745.44 700.421 741.17 700.161 737.24C699.531 727.82 699.51 720.32 700.37 715.24C700.692 713.188 700.882 711.117 700.94 709.04C702.22 671.91 677.851 564.04 659.781 544.54C634.431 532.79 606.161 535.66 606.161 535.66C607.941 588.53 586.85 636.06 586.85 636.06C586.85 636.06 533.091 589.92 503.781 535.06C478.071 539.12 454.59 544.3 443.23 554.78Z" fill="#FF8140"></path><path d="M700.16 737.23C699.53 727.81 699.51 720.31 700.37 715.23C700.692 713.177 700.882 711.106 700.94 709.03H474.61C474.43 718.21 474.2 727.68 473.91 737.27L700.16 737.23Z" fill="white"></path><path d="M472.431 778.25H704.501C703.211 767.97 702.081 758.46 701.251 750H473.491C473.171 759.41 472.851 768.87 472.431 778.25Z" fill="white"></path><path d="M478.381 689.28L447.29 775.81L581.391 860.81L578.71 891.12C578.71 891.12 398.51 853.76 381.85 812.06C365.19 770.36 420.95 591.96 420.95 591.96C439.94 546.3 472.851 651.21 478.381 689.28Z" fill="#F7AC8D"></path><path d="M580.85 862.81L651.37 864.59C651.37 864.59 629.71 899.25 580.44 892.96C515.6 884.69 541.24 860.06 580.85 862.81Z" fill="#F7AC8D"></path><path d="M867.771 854.82V858.49C867.774 858.674 867.757 858.859 867.721 859.04C867.341 861.41 864.501 863.25 861.051 863.25H552.731C549.281 863.25 546.441 861.41 546.061 859.04C546.041 858.857 546.041 858.673 546.061 858.49V854.82H867.771Z" fill="white"></path><path d="M867.721 859.06C867.341 861.43 864.501 863.27 861.051 863.27H552.731C549.281 863.27 546.441 861.43 546.061 859.06H867.721Z" fill="#F4F4F4"></path><path d="M903.541 644L905.321 645.75L904.361 647.11L902.061 643.9L903.541 644Z" fill="#241F3C"></path><path d="M863.28 854.28H613.16C612.191 854.313 611.228 854.124 610.343 853.728C609.458 853.332 608.676 852.739 608.055 851.994C607.435 851.249 606.993 850.372 606.763 849.43C606.533 848.488 606.522 847.507 606.73 846.56L639.73 649.91C640.134 647.794 641.245 645.878 642.88 644.475C644.515 643.073 646.577 642.267 648.73 642.19H898.85C899.819 642.157 900.782 642.345 901.667 642.741C902.552 643.138 903.334 643.731 903.955 644.476C904.575 645.221 905.017 646.097 905.247 647.039C905.477 647.981 905.488 648.963 905.28 649.91L872.28 846.56C871.876 848.676 870.766 850.592 869.13 851.994C867.495 853.397 865.433 854.202 863.28 854.28Z" fill="#F4F4F4"></path><path d="M865.12 856.06H614.99C614.022 856.094 613.058 855.905 612.174 855.509C611.289 855.113 610.507 854.519 609.888 853.774C609.268 853.029 608.827 852.152 608.599 851.21C608.37 850.268 608.361 849.286 608.57 848.34L641.57 651.69C641.973 649.573 643.083 647.656 644.718 646.253C646.353 644.851 648.417 644.045 650.57 643.97H900.7C901.668 643.938 902.631 644.128 903.514 644.525C904.398 644.922 905.179 645.515 905.798 646.26C906.418 647.005 906.859 647.881 907.088 648.822C907.317 649.763 907.328 650.744 907.12 651.69L874.12 848.34C873.72 850.457 872.61 852.375 870.974 853.779C869.339 855.182 867.274 855.986 865.12 856.06Z" fill="white"></path><path d="M793.393 759.149C795.56 740.336 782.63 723.393 764.513 721.307C746.396 719.22 729.953 732.78 727.787 751.593C725.62 770.407 738.55 787.35 756.666 789.436C774.783 791.523 791.226 777.963 793.393 759.149Z" fill="#6B6B6B"></path><path d="M476.35 700.77L389.98 658.07C389.98 658.07 413.98 572.86 441.22 556.57C454.52 564.57 467.73 583.57 475 616.5C481.086 644.216 481.545 672.873 476.35 700.77Z" fill="#6B6B6B"></path><path d="M602.851 513.52C599.241 520.24 594.851 526.59 590.001 530.99C588.244 532.609 586.28 533.988 584.161 535.09C570.161 542.19 554.161 541.18 544.691 537.93C540.001 536.33 528.111 529.31 516.801 520.93L515.541 519.93C516.116 519.415 516.591 518.798 516.941 518.11C517.453 517.079 517.668 515.926 517.561 514.78C517.566 514.73 517.566 514.68 517.561 514.63L513.471 478.24L587.471 469.92L591.561 506.3C591.561 506.44 591.561 506.58 591.561 506.71C591.64 507.205 591.788 507.686 592.001 508.14C592.108 508.391 592.232 508.635 592.371 508.87L592.581 509.2L592.691 509.35L592.831 509.53L592.971 509.7C593.852 510.714 595.038 511.416 596.351 511.7L597.561 512.03L602.851 513.52Z" fill="#FCD1C8"></path><path d="M550.351 473.21L513.351 477.38L517.551 514.67C525.381 522.25 539.231 533.1 560.661 531.81C576.891 530.81 590.521 515.72 592.991 509.74C592.099 508.651 591.564 507.314 591.461 505.91L587.311 469.08L550.351 473.21Z" fill="#EFAFAF"></path><path d="M486.851 439.06C481.931 435.55 471.731 432.6 469.111 443.42C467.801 448.83 472.361 457.04 476.621 463.86C480.881 470.68 483.481 475.98 488.841 475.38C494.201 474.78 495.841 471.54 495.841 471.54L486.851 439.06Z" fill="#F7AC8D"></path><path d="M606.201 372.89C606.201 372.89 599.731 334.72 539.391 341.51C479.051 348.3 481.231 386.96 481.231 386.96C481.231 386.96 485.851 472.14 500.151 495.22C514.451 518.3 546.371 537.22 569.061 534.7C591.751 532.18 609.441 494.28 612.061 476.7C614.681 459.12 606.201 372.89 606.201 372.89Z" fill="#F7AC8D"></path><path d="M613.35 366.41L613.26 365.67C613.13 364.86 612.99 364.09 612.84 363.33C612.69 362.57 612.53 361.84 612.37 361.13C612.07 359.91 611.77 358.76 611.46 357.72C611.38 357.46 611.31 357.22 611.24 356.97C611 356.21 610.78 355.53 610.56 354.89C610.48 354.66 610.4 354.43 610.32 354.22C609.7 352.47 609.16 351.22 608.85 350.57L608.69 350.24L608.59 350.04C610.009 343.323 610.249 336.41 609.3 329.61C609.18 328.89 609.05 328.18 608.89 327.48C608.845 327.227 608.785 326.976 608.71 326.73C608.715 326.677 608.715 326.623 608.71 326.57L608.62 326.22C608.48 325.68 608.32 325.15 608.15 324.61C608.113 324.444 608.056 324.282 607.98 324.13C607.92 323.97 607.98 323.95 607.9 323.87L607.65 323.19C607.54 322.9 607.42 322.6 607.3 322.31C607.18 322.02 607.01 321.65 606.85 321.31C606.69 320.97 606.53 320.65 606.36 320.31C606.19 319.97 606.1 319.84 605.96 319.61C605.82 319.38 605.78 319.29 605.68 319.13L605.25 318.45C605.1 318.22 604.87 317.9 604.68 317.63C604.49 317.36 604.15 316.93 603.87 316.63C603.59 316.33 603.45 316.14 603.23 315.87C603 315.604 602.749 315.356 602.48 315.13L601.96 314.73C601.78 314.6 601.59 314.48 601.41 314.37C601.224 314.25 601.031 314.143 600.83 314.05C600.74 313.994 600.646 313.944 600.55 313.9L600.27 313.77C600.123 313.699 599.973 313.635 599.82 313.58C599.06 313.277 598.278 313.033 597.48 312.85L596.93 312.73L595.81 312.52C595.357 312.453 594.897 312.393 594.43 312.34L593.01 312.22C592.6 312.22 592.17 312.17 591.77 312.16H590.5H589.62H588.92C588.58 312.16 588.25 312.16 587.92 312.16L586.37 312.23L584.17 312.4L581.17 312.74L580.28 312.84L577.83 313.21L577.02 313.35L574.51 313.82L573.51 314.04L572.96 314.16H572.76H572.49C572.471 313.754 572.428 313.35 572.36 312.95V312.51L572.3 312.02C572.286 311.826 572.249 311.635 572.19 311.45C572.12 311.26 572.05 310.87 571.96 310.56C571.935 310.399 571.892 310.241 571.83 310.09C571.71 309.7 571.56 309.29 571.39 308.86C571.037 307.96 570.58 307.105 570.03 306.31C569.81 306 569.573 305.703 569.32 305.42C568.782 304.815 568.167 304.283 567.49 303.84C567.135 303.613 566.764 303.412 566.38 303.24C566.253 303.169 566.119 303.112 565.98 303.07L565.67 302.94L565.3 302.82L564.95 302.72L564.45 302.59C564.28 302.59 563.98 302.5 563.72 302.47C563.46 302.44 563.21 302.4 562.94 302.38C562.387 302.34 561.833 302.34 561.28 302.38C560.548 302.408 559.819 302.492 559.1 302.63C558.29 302.77 557.48 302.96 556.67 303.16L555.47 303.49L554.9 303.65L554.32 303.83C554.07 303.9 553.82 303.97 553.58 304.06C552.99 304.24 552.4 304.45 551.8 304.67C551.42 304.79 551 304.94 550.65 305.09C550.3 305.24 549.79 305.4 549.37 305.58L548.02 306.13C547.75 306.23 547.49 306.34 547.23 306.46L545.35 307.29C544.92 307.49 544.5 307.67 544.09 307.88L542.91 308.44C542.12 308.82 541.34 309.21 540.62 309.59L539.51 310.16L538.45 310.73L537.45 311.26L536.45 311.82L535.45 312.36L534.53 312.89L533.68 313.38L532.9 313.86L531.82 314.51L531.18 314.9L530.89 315.08L530.37 315.41L529.93 315.68L528.93 316.29V315.99V315.6V315.26V315V314.72C528.93 314.43 528.81 314.11 528.73 313.78L528.64 313.41C528.589 313.183 528.526 312.96 528.45 312.74C528.38 312.5 528.34 312.41 528.28 312.24C528.22 312.07 528.15 311.9 528.08 311.72C528.01 311.54 527.93 311.35 527.84 311.16C527.772 311.009 527.695 310.862 527.61 310.72C527.441 310.408 527.247 310.11 527.03 309.83C526.928 309.693 526.818 309.563 526.7 309.44C526.584 309.316 526.46 309.199 526.33 309.09L526.06 308.88C525.914 308.773 525.756 308.683 525.59 308.61L525.4 308.52L525.22 308.45H525.08L524.84 308.38H524.59H524.2H524.03C523.332 308.412 522.649 308.596 522.03 308.92C521.428 309.195 520.855 309.53 520.32 309.92C519.951 310.201 519.597 310.501 519.26 310.82L518.87 311.19L518.47 311.58L518.1 311.99C517.3 312.889 516.549 313.831 515.85 314.81C515.56 315.22 515.27 315.63 514.99 316.05L514.52 316.76L513.77 317.93C513.04 319.1 512.37 320.21 511.77 321.14L511.53 321.49L511.26 321.87L511.01 322.23C510.84 322.47 510.67 322.67 510.52 322.85C510.02 323.44 509.58 323.79 509.2 323.74H509.02C508.84 323.75 508.66 323.75 508.48 323.74H507.87H507.66C506.491 323.77 505.327 323.9 504.18 324.13L503.72 324.18L503.26 324.29C502.67 324.43 502.07 324.6 501.47 324.79H501.33L500.54 325.07L500.04 325.27L499.54 325.47L498.7 325.87L498 326.24C497.54 326.5 497.1 326.78 496.66 327.07C496.004 327.519 495.385 328.021 494.81 328.57L494.55 328.84C491.05 332.38 489.48 338.13 487.87 339.75C484.44 343.2 473.3 344.49 469.07 362.59C464.84 380.69 471.33 397.41 473.45 404.69C473.94 406.4 476.91 416.05 477.76 420.89C478.44 424.75 479.29 435.75 479.29 435.75C481.29 436.47 484.03 440.3 485.08 443.95C486.13 447.6 487.97 460.54 489.08 468.56C489.38 470.793 489.63 472.993 489.83 475.16C490.62 482.53 491.22 489.39 492.92 495.27C494.92 502.02 505.08 511.5 516.14 519.82L517.4 520.82C528.71 529.18 540.6 536.21 545.29 537.82C554.77 541.06 570.72 542.07 584.76 534.97C586.877 533.868 588.841 532.493 590.6 530.88C595.49 526.47 599.84 520.12 603.45 513.41C607.569 505.709 610.889 497.607 613.36 489.23C614.78 484.29 613.97 466.87 612.87 454.67C612.613 458.998 612.008 463.299 611.06 467.53C609.61 473.65 606.19 479.23 595.54 482.19C593.582 482.728 591.569 483.037 589.54 483.11C585.732 483.163 581.927 482.878 578.17 482.26C573.17 481.6 568.02 480.92 562.51 481.54C550.45 482.89 547.69 487.27 537.66 489.66C531.12 491.23 522.79 490.14 515.11 485.92L514.95 485.83C510.677 483.431 506.906 480.233 503.84 476.41C497.74 468.81 490.07 420.69 490.15 412.85C490.23 405.01 488.15 385.54 501.77 379.72C515.39 373.9 529.77 389.67 556.07 385.21C582.37 380.75 585.61 368.77 593.84 372.51C602.07 376.25 605.31 393.38 606.84 403.15C608.34 412.75 610.84 419.96 611.36 426.4V426.54V426.77C611.36 426.85 612.56 418.9 613.36 410.36C613.36 409.97 613.43 409.52 613.47 409.17C613.53 408.49 613.59 407.81 613.64 407.17C613.71 406.23 613.78 405.29 613.83 404.36C613.88 403.59 613.92 402.82 613.96 402.07C613.965 402.013 613.965 401.956 613.96 401.9C614.02 400.28 614.05 398.74 614.04 397.32C614.04 396.97 614.04 396.62 614.04 396.32C614.04 396.02 614.04 395.81 614.04 395.56V394.02C614.04 393.52 614.04 393.12 614.04 392.68C614.04 392.24 614.04 392 614.04 391.68C614.14 389.01 614.38 386.55 614.56 383.87C614.56 383.39 614.59 382.9 614.65 382.4V381.62C614.65 381.11 614.65 380.62 614.71 380.04C614.71 378.95 614.71 377.81 614.71 376.57C614.71 375.96 614.71 375.33 614.71 374.68C614.71 374.03 614.65 373.34 614.6 372.68C614.55 372.02 614.5 371.24 614.44 370.48L614.07 367.21L613.35 366.41Z" fill="#683E40"></path><g opacity="0.3"><path opacity="0.47" d="M493.971 329.06C495.971 329.47 502.821 326.69 510.641 332.15C518.461 337.61 522.641 326.62 534.331 332.8C546.021 338.98 562.901 322.57 571.451 326.8C580.001 331.03 571.771 352.36 592.251 352.8C612.731 353.24 607.561 374.03 608.711 387.64C609.297 395.375 610.637 403.035 612.711 410.51C613.209 405.817 613.433 401.099 613.381 396.38C613.081 387.48 614.831 382.64 613.781 370.5C613.24 363.437 611.459 356.525 608.521 350.08C608.521 350.08 613.821 327.4 603.091 315.93C596.741 308.53 572.241 314.43 572.241 314.43C572.241 314.43 571.911 300.43 558.731 302.88C545.551 305.33 528.631 316.59 528.631 316.59C528.631 316.59 527.831 306.08 521.501 309.1C515.171 312.12 510.861 324.1 508.641 323.96C504.471 323.72 498.261 325.02 494.271 328.89L493.971 329.06Z" fill="white"></path></g><path d="M539.9 447.16C540.4 451.58 538.25 455.46 535.07 455.81C531.89 456.16 528.94 452.87 528.44 448.45C527.94 444.03 530.09 440.15 533.27 439.79C536.45 439.43 539.4 442.73 539.9 447.16Z" fill="#683E40"></path><path d="M584.3 450.27C587.45 449.92 589.6 446.04 589.1 441.62C588.6 437.2 585.64 433.89 582.49 434.25C579.34 434.61 577.19 438.48 577.69 442.9C578.19 447.32 581.14 450.63 584.3 450.27Z" fill="#683E40"></path><path d="M541.76 427.86C543.76 426.86 542.55 421.14 539.42 419.52C536.29 417.9 518.42 425.2 515.95 426.85C513.48 428.5 512.78 431.12 513.38 431.98C513.98 432.84 539.77 428.86 541.76 427.86Z" fill="#683E40"></path><path d="M571.96 424.46C569.81 423.92 569.69 418.09 572.38 415.81C575.07 413.53 594.14 416.68 596.91 417.74C599.68 418.8 600.91 421.2 600.55 422.17C600.19 423.14 574.11 425 571.96 424.46Z" fill="#683E40"></path><path d="M583.25 489.78C582.49 487.5 576.46 489.66 564.05 491.06C551.64 492.46 545.28 491.69 545.05 494.06C544.82 496.43 550.17 502.06 565.05 500.43C579.93 498.8 583.97 492.06 583.25 489.78Z" fill="white"></path><path d="M882.05 363.746C883.268 359.179 880.51 354.476 875.889 353.243C871.268 352.01 866.534 354.713 865.315 359.281C864.096 363.849 866.854 368.551 871.476 369.784C876.097 371.017 880.831 368.314 882.05 363.746Z" fill="#FF8140"></path><path d="M912.66 341.89C912.959 341.696 913.217 341.446 913.419 341.152C913.621 340.859 913.763 340.529 913.838 340.181C913.912 339.833 913.917 339.473 913.852 339.123C913.787 338.773 913.654 338.439 913.46 338.14C906.588 327.36 895.809 319.66 883.384 316.653C870.958 313.646 857.851 315.566 846.81 322.01C846.188 322.372 845.734 322.964 845.547 323.659C845.36 324.354 845.455 325.095 845.81 325.72C846.174 326.361 846.775 326.834 847.483 327.038C848.192 327.241 848.952 327.16 849.6 326.81C859.433 321.193 871.042 319.548 882.048 322.212C893.054 324.876 902.625 331.648 908.8 341.14C909.216 341.747 909.854 342.166 910.577 342.307C911.299 342.447 912.048 342.297 912.66 341.89Z" fill="#FF8140"></path><path d="M903.03 348.25C903.336 348.049 903.598 347.79 903.802 347.486C904.006 347.183 904.147 346.842 904.217 346.483C904.287 346.124 904.284 345.755 904.209 345.397C904.134 345.039 903.988 344.7 903.78 344.4C898.358 336.284 890.083 330.503 880.597 328.204C871.11 325.905 861.106 327.256 852.57 331.99C852.25 332.164 851.967 332.401 851.738 332.685C851.51 332.97 851.34 333.297 851.238 333.647C851.137 333.998 851.106 334.365 851.148 334.728C851.189 335.09 851.302 335.441 851.48 335.76C851.837 336.392 852.426 336.861 853.122 337.067C853.819 337.272 854.568 337.198 855.21 336.86C862.563 332.877 871.132 331.762 879.259 333.731C887.387 335.7 894.495 340.613 899.21 347.52C899.63 348.111 900.262 348.516 900.974 348.652C901.685 348.788 902.422 348.644 903.03 348.25Z" fill="#FF8140"></path><path d="M893.68 354.42C893.989 354.217 894.254 353.954 894.458 353.646C894.663 353.338 894.803 352.992 894.87 352.628C894.938 352.265 894.931 351.892 894.85 351.531C894.769 351.171 894.616 350.83 894.4 350.53C890.407 344.961 884.548 341.01 877.889 339.394C871.23 337.777 864.213 338.602 858.11 341.72C857.78 341.887 857.487 342.119 857.249 342.403C857.011 342.687 856.834 343.016 856.727 343.37C856.62 343.725 856.587 344.097 856.629 344.465C856.671 344.833 856.787 345.188 856.97 345.51C857.323 346.13 857.898 346.594 858.58 346.805C859.262 347.017 859.998 346.961 860.64 346.65C865.573 344.243 871.19 343.634 876.524 344.929C881.857 346.223 886.57 349.34 889.85 353.74C890.278 354.325 890.915 354.723 891.629 354.85C892.342 354.976 893.077 354.822 893.68 354.42Z" fill="#FF8140"></path><path d="M362.71 876.23V1018.99C362.71 1021.94 361.538 1024.77 359.453 1026.85C357.367 1028.94 354.539 1030.11 351.59 1030.11H212.73C203.55 1013.55 195.446 996.407 188.47 978.8V940.06L222.7 929.66C216.304 908.547 211.672 886.939 208.85 865.06H351.63C354.58 865.073 357.404 866.257 359.482 868.352C361.559 870.446 362.72 873.28 362.71 876.23Z" fill="#EEBBA0"></path><path d="M318.54 641.7V785.36C318.538 790.052 316.673 794.551 313.357 797.869C310.04 801.188 305.542 803.055 300.85 803.06H205.75C206.03 793.56 206.65 784.117 207.61 774.73L191.53 773.08L159.77 769.84L159.36 769.77C164.445 719.191 178.224 669.87 200.09 623.98H300.85C305.546 623.985 310.047 625.855 313.364 629.178C316.681 632.501 318.543 637.005 318.54 641.7Z" fill="#EEBBA0"></path><path d="M267.66 603.1H74.1897C64.4032 603.1 56.4697 611.034 56.4697 620.82V764.47C56.4697 774.257 64.4032 782.19 74.1897 782.19H267.66C277.446 782.19 285.38 774.257 285.38 764.47V620.82C285.38 611.034 277.446 603.1 267.66 603.1Z" fill="#FF8140"></path><path d="M259.6 654.29H84.3799C84.3252 654.29 84.271 654.279 84.2206 654.258C84.1702 654.237 84.1245 654.206 84.0863 654.166C84.0481 654.127 84.0182 654.081 83.9982 654.03C83.9782 653.979 83.9685 653.925 83.9698 653.87C83.9685 653.815 83.9782 653.761 83.9982 653.71C84.0182 653.659 84.0481 653.613 84.0863 653.573C84.1245 653.534 84.1702 653.503 84.2206 653.482C84.271 653.461 84.3252 653.45 84.3799 653.45H259.6C259.711 653.45 259.818 653.494 259.897 653.573C259.976 653.652 260.02 653.759 260.02 653.87C260.02 653.981 259.976 654.088 259.897 654.167C259.818 654.246 259.711 654.29 259.6 654.29Z" fill="white"></path><path d="M259.6 714.32H84.3799C84.3252 714.32 84.271 714.309 84.2206 714.288C84.1702 714.267 84.1245 714.235 84.0863 714.196C84.0481 714.157 84.0182 714.111 83.9982 714.06C83.9782 714.009 83.9685 713.955 83.9698 713.9C83.9685 713.845 83.9782 713.791 83.9982 713.74C84.0182 713.689 84.0481 713.643 84.0863 713.604C84.1245 713.564 84.1702 713.533 84.2206 713.512C84.271 713.491 84.3252 713.48 84.3799 713.48H259.6C259.711 713.48 259.818 713.524 259.897 713.603C259.976 713.682 260.02 713.789 260.02 713.9C260.02 714.011 259.976 714.118 259.897 714.197C259.818 714.276 259.711 714.32 259.6 714.32Z" fill="white"></path><path d="M259.6 685.06H84.3799C84.2711 685.06 84.1669 685.017 84.09 684.94C84.0131 684.863 83.9698 684.759 83.9698 684.65C83.9685 684.595 83.9782 684.541 83.9982 684.49C84.0182 684.439 84.0481 684.393 84.0863 684.354C84.1245 684.314 84.1702 684.283 84.2206 684.262C84.271 684.241 84.3252 684.23 84.3799 684.23H259.6C259.711 684.23 259.818 684.274 259.897 684.353C259.976 684.432 260.02 684.539 260.02 684.65C260.02 684.705 260.009 684.759 259.988 684.809C259.966 684.86 259.935 684.905 259.896 684.943C259.857 684.982 259.811 685.012 259.76 685.032C259.709 685.052 259.655 685.061 259.6 685.06Z" fill="white"></path><path d="M259.6 744.75H83.6L83.2501 637.69C83.2487 637.581 83.2693 637.472 83.3105 637.371C83.3517 637.269 83.4128 637.177 83.4902 637.1C83.5675 637.023 83.6595 636.962 83.7608 636.92C83.8621 636.879 83.9706 636.859 84.08 636.86C84.3001 636.86 84.5113 636.947 84.6669 637.103C84.8226 637.259 84.9101 637.47 84.9101 637.69L85.2601 743.08H259.65C259.871 743.083 260.082 743.172 260.238 743.329C260.393 743.487 260.48 743.699 260.48 743.92C260.48 744.033 260.457 744.145 260.412 744.249C260.368 744.354 260.302 744.447 260.22 744.525C260.137 744.603 260.04 744.663 259.933 744.702C259.827 744.74 259.713 744.757 259.6 744.75Z" fill="#4F4F4F"></path><path d="M230.53 664.89L166.11 726.82L132.91 697.45L83.8103 743.31C83.6575 743.468 83.5723 743.68 83.5723 743.9C83.5723 744.12 83.6575 744.332 83.8103 744.49C83.9713 744.654 84.1906 744.747 84.4203 744.75C84.6315 744.753 84.8358 744.674 84.9904 744.53L132.99 699.7L166.2 729.09L230.58 667.21L230.53 664.89Z" fill="#4F4F4F"></path><path d="M137.39 698.68C137.39 699.865 136.919 701.002 136.081 701.841C135.243 702.679 134.106 703.15 132.92 703.15C132.333 703.15 131.752 703.034 131.21 702.81C130.667 702.585 130.174 702.256 129.759 701.841C129.344 701.426 129.015 700.933 128.791 700.391C128.566 699.848 128.45 699.267 128.45 698.68C128.45 698.093 128.566 697.512 128.791 696.969C129.015 696.427 129.344 695.934 129.759 695.519C130.174 695.104 130.667 694.775 131.21 694.55C131.752 694.326 132.333 694.21 132.92 694.21C134.106 694.21 135.243 694.681 136.081 695.519C136.919 696.357 137.39 697.494 137.39 698.68Z" fill="#4F4F4F"></path><path d="M171.13 727.53C171.13 728.716 170.66 729.853 169.821 730.691C168.983 731.529 167.846 732 166.661 732C165.475 732 164.338 731.529 163.5 730.691C162.661 729.853 162.19 728.716 162.19 727.53C162.19 726.345 162.661 725.208 163.5 724.369C164.338 723.531 165.475 723.06 166.661 723.06C167.846 723.06 168.983 723.531 169.821 724.369C170.66 725.208 171.13 726.345 171.13 727.53Z" fill="#4F4F4F"></path><path d="M235.53 665.36C235.53 666.546 235.059 667.682 234.221 668.521C233.382 669.359 232.245 669.83 231.06 669.83C229.874 669.83 228.737 669.359 227.899 668.521C227.061 667.682 226.59 666.546 226.59 665.36C226.59 664.174 227.061 663.038 227.899 662.199C228.737 661.361 229.874 660.89 231.06 660.89C232.245 660.89 233.382 661.361 234.221 662.199C235.059 663.038 235.53 664.174 235.53 665.36Z" fill="#4F4F4F"></path><path d="M176.7 1010.87H328.7C334.842 1010.87 339.82 1005.89 339.82 999.75V856.98C339.82 850.839 334.842 845.86 328.7 845.86H176.7C170.559 845.86 165.58 850.839 165.58 856.98L165.58 999.75C165.58 1005.89 170.559 1010.87 176.7 1010.87Z" fill="#FF8140"></path><path d="M308.61 935.69H292.13V983.3H308.61V935.69Z" fill="#FDFDFF"></path><path d="M285.64 928.51H269.16V983.3H285.64V928.51Z" fill="#FDFDFF"></path><path d="M262.67 913.95H246.19V983.3H262.67V913.95Z" fill="#FDFDFF"></path><path d="M239.7 903.78H223.22V983.3H239.7V903.78Z" fill="#FDFDFF"></path><path d="M216.74 881.85H200.26V983.31H216.74V881.85Z" fill="#FDFDFF"></path><path d="M317.85 985.06H184.53C184.236 985.06 183.953 984.943 183.745 984.735C183.537 984.527 183.42 984.244 183.42 983.95C183.419 983.803 183.446 983.658 183.502 983.522C183.557 983.386 183.638 983.263 183.742 983.159C183.845 983.055 183.968 982.972 184.103 982.916C184.238 982.859 184.383 982.83 184.53 982.83H317.85C317.997 982.83 318.142 982.859 318.277 982.916C318.412 982.972 318.535 983.055 318.638 983.159C318.742 983.263 318.823 983.386 318.878 983.522C318.934 983.658 318.961 983.803 318.96 983.95C318.96 984.244 318.843 984.527 318.635 984.735C318.427 984.943 318.144 985.06 317.85 985.06Z" fill="#756C6C"></path><path d="M109.12 810.32H9.47C4.23986 810.32 0 814.56 0 819.79V907.74C0 912.97 4.23986 917.21 9.47 917.21H109.12C114.35 917.21 118.59 912.97 118.59 907.74V819.79C118.59 814.56 114.35 810.32 109.12 810.32Z" fill="#F99D6E"></path><path d="M32.2104 858.28H19.9705C19.509 858.28 19.0664 858.097 18.7401 857.77C18.4138 857.444 18.2305 857.002 18.2305 856.54C18.2305 856.079 18.4138 855.636 18.7401 855.31C19.0664 854.983 19.509 854.8 19.9705 854.8H32.2104C32.6719 854.8 33.1145 854.983 33.4408 855.31C33.7671 855.636 33.9504 856.079 33.9504 856.54C33.9504 857.002 33.7671 857.444 33.4408 857.77C33.1145 858.097 32.6719 858.28 32.2104 858.28Z" fill="#4F4F4F"></path><path d="M32.2104 864.58H19.9705C19.7424 864.581 19.5163 864.538 19.3053 864.451C19.0942 864.365 18.9024 864.238 18.7407 864.077C18.579 863.916 18.4507 863.725 18.3632 863.514C18.2756 863.304 18.2305 863.078 18.2305 862.85C18.2305 862.389 18.4138 861.946 18.7401 861.62C19.0664 861.293 19.509 861.11 19.9705 861.11H32.2104C32.6719 861.11 33.1145 861.293 33.4408 861.62C33.7671 861.946 33.9504 862.389 33.9504 862.85C33.9504 863.078 33.9054 863.304 33.8179 863.514C33.7303 863.725 33.6019 863.916 33.4402 864.077C33.2785 864.238 33.0867 864.365 32.8756 864.451C32.6646 864.538 32.4385 864.581 32.2104 864.58Z" fill="#4F4F4F"></path><path d="M32.2104 870.89H19.9705C19.509 870.89 19.0664 870.707 18.7401 870.38C18.4138 870.054 18.2305 869.611 18.2305 869.15C18.2305 868.922 18.2756 868.696 18.3632 868.486C18.4507 868.275 18.579 868.084 18.7407 867.923C18.9024 867.762 19.0942 867.635 19.3053 867.549C19.5163 867.462 19.7424 867.419 19.9705 867.42H32.2104C32.4385 867.419 32.6646 867.462 32.8756 867.549C33.0867 867.635 33.2785 867.762 33.4402 867.923C33.6019 868.084 33.7303 868.275 33.8179 868.486C33.9054 868.696 33.9504 868.922 33.9504 869.15C33.9504 869.611 33.7671 870.054 33.4408 870.38C33.1145 870.707 32.6719 870.89 32.2104 870.89Z" fill="#4F4F4F"></path><path d="M32.2104 877.2H19.9705C19.742 877.2 19.5157 877.155 19.3046 877.068C19.0935 876.98 18.9017 876.852 18.7401 876.69C18.5785 876.529 18.4504 876.337 18.3629 876.126C18.2755 875.915 18.2305 875.688 18.2305 875.46C18.2305 874.998 18.4138 874.556 18.7401 874.23C19.0664 873.903 19.509 873.72 19.9705 873.72H32.2104C32.6719 873.72 33.1145 873.903 33.4408 874.23C33.7671 874.556 33.9504 874.998 33.9504 875.46C33.9504 875.688 33.9054 875.915 33.818 876.126C33.7305 876.337 33.6024 876.529 33.4408 876.69C33.2792 876.852 33.0874 876.98 32.8763 877.068C32.6652 877.155 32.4389 877.2 32.2104 877.2Z" fill="#4F4F4F"></path><path d="M68 839.99C61.1044 839.99 54.4912 842.729 49.6152 847.605C44.7393 852.481 42 859.094 42 865.99C42 872.886 44.7393 879.499 49.6152 884.375C54.4912 889.251 61.1044 891.99 68 891.99C72.2071 891.984 76.3496 890.954 80.0699 888.99L68.0699 865.99L68 839.99Z" fill="#CCCCCC"></path><path d="M80.0298 889.06C84.2293 886.861 87.7476 883.556 90.2046 879.503C92.6616 875.449 93.9636 870.8 93.9697 866.06H67.9697L80.0298 889.06Z" fill="#8B8C8C"></path><path d="M68 839.99V865.99H94C94 859.094 91.2607 852.481 86.3848 847.605C81.5088 842.729 74.8956 839.99 68 839.99Z" fill="#4F4F4F"></path><path d="M1434.08 428.19L1427.44 427.19L1411.15 424.87C1414.69 400.004 1413.22 374.682 1406.84 350.39L1429.38 344.51C1427.44 337.106 1425.1 329.812 1422.38 322.66C1415.3 303.92 1405.56 286.294 1393.47 270.32L1383.25 278.06L1374.91 284.33C1359.84 264.238 1340.92 247.349 1319.25 234.65L1330.99 214.65C1307.08 200.64 1280.66 191.428 1253.22 187.53L1249.93 210.53C1225.06 206.995 1199.74 208.461 1175.44 214.84L1169.56 192.3C1142.71 199.253 1117.5 211.443 1095.38 228.17L1109.38 246.78C1089.28 261.841 1072.39 280.76 1059.7 302.43L1039.7 290.69C1025.65 314.58 1016.43 341.002 1012.58 368.45L1012.77 368.5L1027.93 370.65L1035.6 371.75C1032.07 396.619 1033.53 421.943 1039.9 446.24L1017.36 452.12C1024.32 478.929 1036.47 504.111 1053.13 526.24L1071.73 512.24C1086.86 532.328 1105.81 549.231 1127.49 561.98L1115.76 581.98C1139.63 596.012 1166.02 605.238 1193.44 609.14L1194.2 604.01L1196.73 586.11C1221.63 589.642 1246.98 588.173 1271.3 581.79L1277.18 604.33C1304 597.376 1329.18 585.193 1351.28 568.48L1337.28 549.87C1357.4 534.8 1374.32 515.875 1387.05 494.2L1407.05 505.93C1421.07 482.02 1430.29 455.602 1434.18 428.16L1434.08 428.19ZM1249.36 497.94C1236.28 501.351 1222.65 502.152 1209.26 500.296C1195.87 498.44 1182.98 493.964 1171.32 487.124C1159.65 480.284 1149.46 471.213 1141.3 460.43C1133.15 449.647 1127.2 437.363 1123.79 424.28C1120.38 411.206 1119.57 397.588 1121.42 384.203C1123.27 370.818 1127.74 357.928 1134.57 346.27C1141.4 334.611 1150.46 324.412 1161.23 316.255C1172 308.099 1184.28 302.143 1197.35 298.73C1221.41 292.443 1246.94 295.075 1269.21 306.141C1291.49 317.206 1309 335.956 1318.53 358.93C1320.32 363.273 1321.82 367.733 1323 372.28C1325.43 381.562 1326.55 391.138 1326.33 400.73C1325.8 423.094 1318 444.676 1304.11 462.214C1290.22 479.753 1271.01 492.293 1249.36 497.94Z" fill="#F99D6E"></path><path d="M1326.33 400.73C1326.55 391.138 1325.43 381.562 1323 372.28C1321.82 367.733 1320.32 363.273 1318.53 358.93L1383.25 278.03L1393.51 270.32C1405.6 286.294 1415.34 303.92 1422.42 322.66L1326.33 400.73Z" fill="#F99D6E"></path><path d="M1237.82 356.323C1237.82 341.785 1249.61 330 1264.15 330C1278.69 330 1290.47 341.785 1290.47 356.323C1290.47 370.86 1278.69 382.645 1264.15 382.645C1249.61 382.645 1237.82 370.86 1237.82 356.323Z" fill="#FF8140"></path><path d="M1266.28 394.31V413.252C1266.28 421.645 1266.27 427.582 1265.89 432.22C1265.51 436.787 1264.79 439.57 1263.66 441.752C1261.45 446.003 1257.98 449.471 1253.73 451.679C1251.55 452.813 1248.77 453.531 1244.2 453.91C1239.56 454.295 1233.62 454.301 1225.23 454.301H1207.75C1199.36 454.301 1193.42 454.295 1188.78 453.91C1184.21 453.531 1181.43 452.813 1179.25 451.679C1175 449.471 1171.53 446.003 1169.32 441.752C1168.19 439.57 1167.47 436.787 1167.09 432.22C1166.7 427.582 1166.7 421.645 1166.7 413.252V395.776C1166.7 387.384 1166.7 381.447 1167.09 376.809C1167.47 372.241 1168.19 369.459 1169.32 367.277C1171.53 363.025 1175 359.558 1179.25 357.35C1181.43 356.216 1184.21 355.498 1188.78 355.119C1193.42 354.733 1199.36 354.729 1207.75 354.729H1226.69C1226.86 350.628 1227.68 346.695 1229.05 343.03H1207.49C1199.42 343.03 1192.99 343.03 1187.81 343.46C1182.51 343.9 1177.99 344.822 1173.86 346.968C1167.47 350.286 1162.26 355.495 1158.94 361.884C1156.79 366.014 1155.87 370.536 1155.43 375.841C1155 381.02 1155 387.442 1155 395.516V413.512C1155 421.586 1155 428.009 1155.43 433.189C1155.87 438.493 1156.79 443.014 1158.94 447.145C1162.26 453.533 1167.47 458.742 1173.86 462.061C1177.99 464.207 1182.51 465.128 1187.81 465.57C1192.99 466 1199.42 466 1207.49 466H1225.49C1233.56 466 1239.99 466 1245.17 465.57C1250.47 465.128 1254.99 464.207 1259.12 462.061C1265.51 458.742 1270.72 453.533 1274.04 447.145C1276.19 443.014 1277.11 438.493 1277.55 433.189C1277.98 428.009 1277.98 421.586 1277.98 413.514V391.955C1274.31 393.323 1270.38 394.141 1266.28 394.31Z" fill="#FF8140"></path><path d="M1242.47 394.976C1242.47 397.937 1241.75 400.714 1240.33 403.305C1238.96 405.897 1236.76 407.986 1233.75 409.572C1230.8 411.159 1227.05 411.952 1222.51 411.952H1213.24V433.212H1202.15V377.84H1222.51C1226.78 377.84 1230.43 378.581 1233.44 380.062C1236.45 381.542 1238.69 383.579 1240.17 386.17C1241.7 388.761 1242.47 391.697 1242.47 394.976ZM1222.03 402.988C1225.09 402.988 1227.36 402.3 1228.84 400.925C1230.32 399.497 1231.06 397.514 1231.06 394.976C1231.06 389.581 1228.05 386.884 1222.03 386.884H1213.24V402.988H1222.03Z" fill="black"></path></g><defs><clipPath id="clip0_84_31"><rect width="1434.17" height="1574.26" fill="white"></rect></clipPath></defs></svg>