<svg width="124" height="124" viewBox="0 0 124 124" fill="none" xmlns="http://www.w3.org/2000/svg">
<path d="M92.9879 36.9935C92.6779 36.9418 92.3162 36.9418 92.0062 36.9935C84.8762 36.7352 79.1929 30.8968 79.1929 23.6635C79.1929 16.2752 85.1345 10.3335 92.5229 10.3335C99.9112 10.3335 105.853 16.3268 105.853 23.6635C105.801 30.8968 100.118 36.7352 92.9879 36.9935Z" stroke="#FF8140" stroke-width="6" stroke-linecap="round" stroke-linejoin="round"/>
<path d="M87.6653 74.6067C94.7436 75.795 102.545 74.555 108.022 70.8867C115.307 66.03 115.307 58.0734 108.022 53.2167C102.494 49.5484 94.5886 48.3083 87.5103 49.5483" stroke="#FF8140" stroke-width="6" stroke-linecap="round" stroke-linejoin="round"/>
<path d="M30.8323 36.9935C31.1423 36.9418 31.504 36.9418 31.814 36.9935C38.944 36.7352 44.6273 30.8968 44.6273 23.6635C44.6273 16.2752 38.6856 10.3335 31.2973 10.3335C23.909 10.3335 17.9673 16.3268 17.9673 23.6635C18.019 30.8968 23.7023 36.7352 30.8323 36.9935Z" stroke="#FF8140" stroke-width="6" stroke-linecap="round" stroke-linejoin="round"/>
<path d="M36.1539 74.6067C29.0756 75.795 21.2739 74.555 15.7972 70.8867C8.51225 66.03 8.51225 58.0734 15.7972 53.2167C21.3256 49.5484 29.2306 48.3083 36.3089 49.5483" stroke="#FF8140" stroke-width="6" stroke-linecap="round" stroke-linejoin="round"/>
<path d="M62.0001 75.5882C61.6901 75.5366 61.3284 75.5366 61.0184 75.5882C53.8884 75.3299 48.2051 69.4916 48.2051 62.2582C48.2051 54.8699 54.1467 48.9282 61.5351 48.9282C68.9234 48.9282 74.8651 54.9216 74.8651 62.2582C74.8134 69.4916 69.1301 75.3816 62.0001 75.5882Z" stroke="#292D32" stroke-width="6" stroke-linecap="round" stroke-linejoin="round"/>
<path d="M46.9652 91.8634C39.6802 96.72 39.6802 104.677 46.9652 109.533C55.2319 115.062 68.7685 115.062 77.0352 109.533C84.3202 104.677 84.3202 96.72 77.0352 91.8634C68.8202 86.3867 55.2319 86.3867 46.9652 91.8634Z" stroke="#292D32" stroke-width="6" stroke-linecap="round" stroke-linejoin="round"/>
</svg>
