<svg width="124" height="124" viewBox="0 0 124 124" fill="none" xmlns="http://www.w3.org/2000/svg">
<path d="M25.8335 46.5V82.6667" stroke="#FF8140" stroke-width="6" stroke-linecap="round" stroke-linejoin="round"/>
<path d="M26.5044 46.5C28.8294 55.5417 37.0961 62.2584 46.8611 62.2067L64.5827 62.155C78.1194 62.1033 89.6411 70.7834 93.8777 82.8734" stroke="#FF8140" stroke-width="6" stroke-linecap="round" stroke-linejoin="round"/>
<path d="M27.1252 43.9168C36.3989 43.9168 43.9168 36.3989 43.9168 27.1252C43.9168 17.8514 36.3989 10.3335 27.1252 10.3335C17.8514 10.3335 10.3335 17.8514 10.3335 27.1252C10.3335 36.3989 17.8514 43.9168 27.1252 43.9168Z" stroke="#292D32" stroke-width="6" stroke-linecap="round" stroke-linejoin="round"/>
<path d="M25.8335 113.667C34.3939 113.667 41.3335 106.727 41.3335 98.1665C41.3335 89.6061 34.3939 82.6665 25.8335 82.6665C17.2731 82.6665 10.3335 89.6061 10.3335 98.1665C10.3335 106.727 17.2731 113.667 25.8335 113.667Z" stroke="#292D32" stroke-width="6" stroke-linecap="round" stroke-linejoin="round"/>
<path d="M98.1665 113.667C106.727 113.667 113.667 106.727 113.667 98.1665C113.667 89.6061 106.727 82.6665 98.1665 82.6665C89.6061 82.6665 82.6665 89.6061 82.6665 98.1665C82.6665 106.727 89.6061 113.667 98.1665 113.667Z" stroke="#292D32" stroke-width="6" stroke-linecap="round" stroke-linejoin="round"/>
</svg>
