<svg width="124" height="124" viewBox="0 0 124 124" fill="none" xmlns="http://www.w3.org/2000/svg">
<path d="M108.5 59.4168C108.5 86.5418 86.5418 108.5 59.4168 108.5C32.2918 108.5 10.3335 86.5418 10.3335 59.4168C10.3335 32.2918 32.2918 10.3335 59.4168 10.3335" stroke="#292D32" stroke-width="6" stroke-linecap="round" stroke-linejoin="round"/>
<path d="M113.667 113.667L103.333 103.333" stroke="#FF8140" stroke-width="6" stroke-linecap="round" stroke-linejoin="round"/>
<path d="M96.995 25.5135C96.865 25.4918 96.7133 25.4918 96.5833 25.5135C93.5933 25.4052 91.21 22.9568 91.21 19.9235C91.21 16.8252 93.7016 14.3335 96.8 14.3335C99.8983 14.3335 102.39 16.8468 102.39 19.9235C102.368 22.9568 99.985 25.4052 96.995 25.5135Z" stroke="#FF8140" stroke-width="2" stroke-linecap="round" stroke-linejoin="round"/>
<path d="M94.7628 41.2867C97.7311 41.785 101.003 41.265 103.299 39.7267C106.354 37.69 106.354 34.3534 103.299 32.3167C100.981 30.7784 97.6661 30.2583 94.6978 30.7783" stroke="#FF8140" stroke-width="2" stroke-linecap="round" stroke-linejoin="round"/>
<path d="M70.9297 25.5135C71.0597 25.4918 71.2113 25.4918 71.3413 25.5135C74.3313 25.4052 76.7147 22.9568 76.7147 19.9235C76.7147 16.8252 74.223 14.3335 71.1247 14.3335C68.0263 14.3335 65.5347 16.8468 65.5347 19.9235C65.5563 22.9568 67.9397 25.4052 70.9297 25.5135Z" stroke="#FF8140" stroke-width="2" stroke-linecap="round" stroke-linejoin="round"/>
<path d="M73.1614 41.2867C70.1931 41.785 66.9214 41.265 64.6247 39.7267C61.5697 37.69 61.5697 34.3534 64.6247 32.3167C66.9431 30.7784 70.2581 30.2583 73.2264 30.7783" stroke="#FF8140" stroke-width="2" stroke-linecap="round" stroke-linejoin="round"/>
<path d="M83.9998 41.6981C83.8698 41.6764 83.7182 41.6764 83.5882 41.6981C80.5982 41.5897 78.2148 39.1414 78.2148 36.1081C78.2148 33.0097 80.7065 30.5181 83.8048 30.5181C86.9032 30.5181 89.3948 33.0314 89.3948 36.1081C89.3732 39.1414 86.9898 41.6114 83.9998 41.6981Z" stroke="#292D32" stroke-width="2" stroke-linecap="round" stroke-linejoin="round"/>
<path d="M77.6951 48.5233C74.6401 50.5599 74.6401 53.8966 77.6951 55.9333C81.1617 58.2516 86.8384 58.2516 90.3051 55.9333C93.3601 53.8966 93.3601 50.5599 90.3051 48.5233C86.8601 46.2266 81.1617 46.2266 77.6951 48.5233Z" stroke="#292D32" stroke-width="2" stroke-linecap="round" stroke-linejoin="round"/>
</svg>
