<svg width="124" height="124" viewBox="0 0 124 124" fill="none" xmlns="http://www.w3.org/2000/svg">
<path d="M64.5818 113.668H21.0784C15.0851 113.668 10.1768 108.863 10.1768 102.973V26.3001C10.1768 12.7634 20.2518 6.61506 32.6001 12.6601L55.5401 23.9234C60.5001 26.3517 64.5818 32.8101 64.5818 38.2867V113.668Z" stroke="#292D32" stroke-width="6" stroke-linecap="round" stroke-linejoin="round"/>
<path d="M113.51 77.8117V97.3417C113.51 108.502 108.344 113.668 97.1837 113.668H64.582V53.8384L67.0104 54.355L90.2604 59.5734L100.749 61.8984C107.569 63.3967 113.149 66.91 113.459 76.83C113.51 77.14 113.51 77.45 113.51 77.8117Z" stroke="#292D32" stroke-width="6" stroke-linecap="round" stroke-linejoin="round"/>
<path d="M28.415 46.5017H46.3434" stroke="#FF8140" stroke-width="6" stroke-linecap="round" stroke-linejoin="round"/>
<path d="M28.415 67.1685H46.3434" stroke="#FF8140" stroke-width="6" stroke-linecap="round" stroke-linejoin="round"/>
<path d="M90.2602 59.5736V76.2102C90.2602 82.6169 85.0419 87.8352 78.6353 87.8352C72.2286 87.8352 67.0103 82.6169 67.0103 76.2102V54.3552L90.2602 59.5736Z" stroke="#292D32" stroke-width="6" stroke-linecap="round" stroke-linejoin="round"/>
<path d="M113.459 76.8302C113.149 82.9268 108.085 87.8352 101.885 87.8352C95.4786 87.8352 90.2603 82.6168 90.2603 76.2102V59.5735L100.749 61.8985C107.569 63.3968 113.149 66.9102 113.459 76.8302Z" stroke="#292D32" stroke-width="6" stroke-linecap="round" stroke-linejoin="round"/>
</svg>
