<svg width="124" height="124" viewBox="0 0 124 124" fill="none" xmlns="http://www.w3.org/2000/svg">
<path d="M17.3081 10.3335H63.2915C67.1149 10.3335 70.2664 13.4852 70.2664 17.3085V24.9551C70.2664 27.7451 68.5098 31.2069 66.8048 32.9635L51.8217 46.1902C49.755 47.9468 48.3598 51.4084 48.3598 54.1984V69.1819C48.3598 71.2486 46.9649 74.0385 45.2082 75.1235L40.3515 78.2751C35.8048 81.0651 29.553 77.9135 29.553 72.3335V53.8885C29.553 51.4601 28.1581 48.3085 26.7631 46.5519L13.5365 32.6018C11.7798 30.8452 10.3849 27.7451 10.3849 25.6268V17.6185C10.3332 13.4852 13.4847 10.3335 17.3081 10.3335Z" stroke="#FF8140" stroke-width="6" stroke-miterlimit="10" stroke-linecap="round" stroke-linejoin="round"/>
<path d="M10.3335 62V77.5C10.3335 103.333 20.6668 113.667 46.5002 113.667H77.5002C103.334 113.667 113.667 103.333 113.667 77.5V46.5C113.667 30.38 109.637 20.2533 100.285 14.9833C97.65 13.4849 92.3802 12.3482 87.5752 11.5732" stroke="#292D32" stroke-width="6" stroke-linecap="round" stroke-linejoin="round"/>
<path d="M67.1665 67.1665H92.9998" stroke="#FF8140" stroke-width="6" stroke-linecap="round" stroke-linejoin="round"/>
<path d="M56.8335 87.8335H93.0002" stroke="#FF8140" stroke-width="6" stroke-linecap="round" stroke-linejoin="round"/>
<g opacity="0.4">
<path d="M75 50.7133C75 53.6175 77.2455 55.9528 80 55.9528H85.6287C88.0239 55.9528 89.97 53.9169 89.97 51.372C89.97 48.6474 88.7725 47.6594 87.006 47.0307L77.994 43.887C76.2275 43.2582 75.03 42.3002 75.03 39.5457C75.03 37.0307 76.976 34.9648 79.3712 34.9648H85C87.7545 34.9648 90 37.3002 90 40.2044" stroke="#FF8140" stroke-width="3" stroke-linecap="round" stroke-linejoin="round"/>
<path d="M82.4849 32V58.9461" stroke="#FF8140" stroke-width="3" stroke-linecap="round" stroke-linejoin="round"/>
</g>
</svg>
