<svg xmlns="http://www.w3.org/2000/svg" width="24.031" height="24" viewBox="0 0 24.031 24">
  <defs>
    <style>
      .cls-1 {
        fill: #fff;
        fill-rule: evenodd;
      }
    </style>
  </defs>
  <path id="Path_1879" data-name="Path 1879" class="cls-1" d="M397.981,7808H386.019a6.029,6.029,0,0,0-6.019,6.02V7826a6.031,6.031,0,0,0,6.019,6H398a6.036,6.036,0,0,0,6.019-6.02v-11.96A6.058,6.058,0,0,0,397.981,7808Zm-0.019,8.99v0.4a8.61,8.61,0,0,1-8.743,8.61,8.833,8.833,0,0,1-4.7-1.35c0.248,0.02.476,0.03,0.724,0.03a6.127,6.127,0,0,0,3.81-1.29,3.075,3.075,0,0,1-2.877-2.1,2.779,2.779,0,0,0,.572.06,3.07,3.07,0,0,0,.819-0.11,3.051,3.051,0,0,1-2.419-2.97v-0.04a2.939,2.939,0,0,0,1.371.38,2.99,2.99,0,0,1-.952-4.04,8.78,8.78,0,0,0,6.324,3.16,2.767,2.767,0,0,1-.077-0.68,3.044,3.044,0,0,1,3.067-3.03,3.123,3.123,0,0,1,2.248.95,5.687,5.687,0,0,0,1.943-.74,3.1,3.1,0,0,1-1.353,1.67,5.826,5.826,0,0,0,1.772-.47A6.263,6.263,0,0,1,397.962,7816.99Z" transform="translate(-380 -7808)"/>
</svg>
