<svg width="124" height="124" viewBox="0 0 124 124" fill="none" xmlns="http://www.w3.org/2000/svg">
<path d="M62.0002 105.917H36.1668C20.6668 105.917 10.3335 98.1666 10.3335 80.0833V43.9166C10.3335 25.8333 20.6668 18.0833 36.1668 18.0833H87.8335C103.334 18.0833 113.667 25.8333 113.667 43.9166V59.4166" stroke="#292D32" stroke-width="6" stroke-miterlimit="10" stroke-linecap="round" stroke-linejoin="round"/>
<path d="M87.8332 46.5L71.6615 59.4167C66.3398 63.6533 57.6081 63.6533 52.2865 59.4167L36.1665 46.5" stroke="#FF8140" stroke-width="6" stroke-miterlimit="10" stroke-linecap="round" stroke-linejoin="round"/>
<path d="M117.5 93.0002C117.5 96.8752 116.415 100.543 114.503 103.643C110.938 109.637 104.377 113.667 96.8332 113.667C89.2898 113.667 82.7281 109.637 79.1631 103.643C77.2514 100.543 76.1665 96.8752 76.1665 93.0002C76.1665 81.5818 85.4148 72.3335 96.8332 72.3335C108.252 72.3335 117.5 81.5818 117.5 93.0002Z" stroke="#292D32" stroke-width="6" stroke-miterlimit="10" stroke-linecap="round" stroke-linejoin="round"/>
<path d="M88.7729 93.0002L93.8879 98.1152L104.893 87.937" stroke="#292D32" stroke-width="6" stroke-linecap="round" stroke-linejoin="round"/>
</svg>
